<svg xmlns="http://www.w3.org/2000/svg" fill="none" viewBox="0 0 133 22">
  <g fill="#fff" clip-path="url(#a)">
    <path d="M122.449 1.7456c-6.063 0-10.605 4.443-10.605 9.9241v.0549c0 5.481 4.487 9.8691 10.55 9.8691 6.058 0 10.605-4.443 10.605-9.924v-.055c0-5.481-4.487-9.869-10.55-9.869Zm4.998 9.979c0 2.7515-1.994 5.0966-4.993 5.0966-2.971 0-5.019-2.4-5.019-5.1515v-.055c0-2.7514 1.993-5.0965 4.964-5.0965 3.005 0 5.053 2.4 5.053 5.1515v.0549h-.005ZM109.653 1.7402h-5.706v19.9141h5.706V1.7403ZM88.5805 11.6972v-.0549c0-2.79 1.9442-5.0581 4.7011-5.0581 1.8838 0 3.1799.8732 4.3058 2.2407l4.1076-3.092c-1.7461-2.3506-4.3328-3.9927-8.3584-3.9927-5.9644 0-10.3854 4.3772-10.3854 9.9516v.0549c0 5.7172 4.5309 9.8966 10.1602 9.8966 4.3606 0 6.865-1.8344 8.7216-4.3222l-4.1083-2.8449c-1.1808 1.395-2.389 2.3231-4.4485 2.3231-2.757.011-4.6957-2.2297-4.6957-5.1021ZM71.3672 21.6543h4.8824c.7469-2.0595 1.4993-4.1245 2.2462-6.184 1.2906-3.5478 2.5758-7.1012 3.8664-10.649h-5.5469c-1.8124 5.6073-3.6303 11.2202-5.4481 16.833ZM71.8565 8.5396l-1.0929-3.751h-5.5195l4.1355 11.3959 2.4769-7.6449ZM56.4577 4.7886c-5.1735 0-8.9245 3.8389-8.9245 8.4192v.0604c0 4.5804 3.7181 8.3589 8.8641 8.3589 5.1735 0 8.9245-3.8389 8.9245-8.4193v-.0604c0-4.5803-3.7181-8.3588-8.8641-8.3588Zm3.3611 8.4741c0 1.9332-1.3071 3.5699-3.3611 3.5699-1.9936 0-3.4215-1.6641-3.4215-3.6303v-.0604c0-1.9332 1.3071-3.5698 3.3611-3.5698 1.9936 0 3.4215 1.6641 3.4215 3.6302v.0604ZM36.2597 21.6545c3.7785 0 6.8431-1.4005 9.0399-3.2128V9.0723H35.727v4.2234h4.1025v2.5263c-.8622.5657-1.9332.8622-3.3336.8622-3.3007 0-5.6513-2.411-5.6513-5.7721v-.0604c0-3.1798 2.3176-5.7117 5.3272-5.7117 2.054 0 3.5369.714 5.0252 1.9607l3.3886-4.075C42.3888 1.1308 39.802-.0006 36.1444-.0006c-6.4531 0-11.2147 4.7616-11.2147 10.8248v.0604c0 6.3048 4.8494 10.7698 11.33 10.7698ZM8.244 21.5341c-2.0156-.6535-1.082-4.8439 3.7565-7.6943 0 0-.8623 1.2083-1.1424 2.3616-.4448 1.8124.1483 6.2334-2.6142 5.3327ZM.012 12.7355c-.258-1.9058 3.6412-4.4595 10.7205-2.823 0 0-3.8115.9227-5.4975 1.785-1.5543.7908-4.9648 2.9107-5.223 1.038ZM19.9484 3.6132c1.2027.7085 1.4169 6.6124-3.4875 7.0737 0 0 .747-1.0325 1.3126-2.8339.681-2.1693.8019-5.0471 2.1749-4.2398ZM16.043 12.8897s2.1913 1.2027 3.773.9062c1.5982-.3021 2.6416-1.9168 1.8508-2.812-.725-.8183-1.4444.1319-2.7131.9227-1.2741.7854-2.9107.9831-2.9107.9831ZM11.0951 11.8677s-3.6687.4833-5.86 1.8508c-2.2077 1.3785-3.5643 3.7016-2.433 4.4705 1.027.703 2.9108-1.2742 4.6573-3.1579 1.7465-1.8838 3.6357-3.1634 3.6357-3.1634ZM5.4109 1.0819c1.1313-1.2961 6.3103.714 8.6279 7.7547 0 0-.648-.8622-2.7405-2.4-2.098-1.5378-7.1506-3.9048-5.8874-5.3547ZM12.194.06c1.2851-.6315 6.1016 3.9433 3.4929 8.8257 0 0-.3954-2.1144-1.4773-3.8828C12.9189 2.8775 10.7276.7795 12.194.06ZM11.9951 9.3856s-2.367-2.757-5.069-3.8939c-2.7296-1.1478-5.6459-.9117-5.6623.703C1.2473 7.6775 3.5484 7.37 6.4482 7.7324c2.8943.3625 5.5469 1.6532 5.5469 1.6532ZM14.8789 14.1909s.9446 4.0751 2.411 4.6408c1.708.8897 3.3611-1.8289 1.708-2.9218-2.6636-.6425-4.119-1.719-4.119-1.719ZM13.0504 14.4653c1.06 3.3227 2.5428 4.0531 2.5373 5.7941.1813 1.0435-2.411 2.6252-3.1689-.2197-.5327-1.9936.6316-5.5744.6316-5.5744ZM15.5937 11.3628a1.793 1.793 0 0 1-1.7959 1.7959 1.793 1.793 0 0 1-1.7958-1.7959 1.793 1.793 0 0 1 1.7958-1.796c.9886 0 1.7959.8019 1.7959 1.796Z"/>
  </g>
  <defs>
    <clipPath id="a">
      <path fill="#fff" d="M0 0h133v21.655H0z"/>
    </clipPath>
  </defs>
</svg>
