<svg xmlns="http://www.w3.org/2000/svg" width="341" height="219" fill="none" viewBox="0 0 341 219">
  <path fill="#fff" d="M96.5 180.6l-17.9-54.3H59.3l-17.9 54.3-16.5-54H0l.9 2.7L31 218.1h19.6l18.1-52.5 18.1 52.5h19.6l31-91.5h-24.3l-16.6 54zM316.6 126.6l-16.5 54-17.9-54.3h-19.4l-17.9 54.3-16.5-54h-24.9l1 2.7 30.1 88.8h19.6l18.1-52.5 18.1 52.5h19.5l31.1-91.5h-24.4zM153.2 198c0 9.6 7.8 17.4 17.4 17.4 9.6 0 17.4-7.8 17.4-17.4.3-14.8-17.4-20.9-17.4-35 0 14.2-17.4 19.4-17.4 35z"/>
  <path fill="#fff" d="M245.7 22.3c-23.8 0-43.2 19.4-43.2 43.2v1.8h24.7v-1.8c0-10.2 8.3-18.5 18.5-18.5s18.5 8.3 18.5 18.5S255.9 84 245.7 84l-60.7.2V0h-25.5L84.1 87.3v21.4h72l.1 41H185l-.1-41 60.7.1c23.8 0 43.2-19.4 43.2-43.2 0-23.8-19.3-43.3-43.1-43.3zm-89.6 61.9h-36.5l36.5-42.8v42.8z"/>
</svg>
