<?xml version="1.0" encoding="UTF-8" standalone="no"?>
<!DOCTYPE svg PUBLIC "-//W3C//DTD SVG 1.1//EN" "http://www.w3.org/Graphics/SVG/1.1/DTD/svg11.dtd">
<svg width="100%" height="100%" viewBox="0 0 1700 1050" version="1.1" xmlns="http://www.w3.org/2000/svg" xmlns:xlink="http://www.w3.org/1999/xlink" xml:space="preserve" xmlns:serif="http://www.serif.com/" style="fill-rule:evenodd;clip-rule:evenodd;stroke-linejoin:round;stroke-miterlimit:2;">
    <g transform="matrix(1,0,0,1,39,-50.6617)">
        <g transform="matrix(-0.841739,-0.165347,0.165347,-0.841739,1342.75,1161.11)">
            <g id="pach-outro-2" transform="matrix(-1.43122,0.281143,-0.255114,-1.29872,2270.18,978.634)">
                <rect x="293.583" y="78.104" width="1358.7" height="924.814"/>
                <clipPath id="_clip1">
                    <rect x="293.583" y="78.104" width="1358.7" height="924.814"/>
                </clipPath>
                <g clip-path="url(#_clip1)">
                    <g id="Mask-Group.svg" serif:id="Mask Group.svg" transform="matrix(0.741516,0,-1.08765e-16,0.81717,720.59,529.658)">
                        <g transform="matrix(1,0,0,1,-682,-420)">
                            <clipPath id="_clip2">
                                <rect x="0" y="0" width="1364" height="840"/>
                            </clipPath>
                            <g clip-path="url(#_clip2)">
                                <g>
                                    <rect x="-798" y="-158" width="2238" height="1493" style="fill:none;"/>
                                    <rect x="-95" y="-446" width="1556.7" height="1831.52" style="fill:rgb(242,233,233);"/>
                                    <g>
                                        <path d="M489.327,540.188C489.345,529.923 497.351,486.826 455.068,485.699C421.276,484.796 350.793,496.786 290.34,481.193C226.061,464.613 160.101,402.858 152.16,410.025C144.218,417.193 221.487,512.195 319.309,538.751C376.543,554.286 453.144,548.004 489.327,540.188C503.428,537.142 482.264,549.411 533.375,540.293L489.327,540.188Z" style="fill:rgb(193,187,167);"/>
                                        <g>
                                            <path d="M470.904,71.35C544.026,30.788 522.453,-78.324 522.453,-78.324C522.453,-78.324 518.531,-105.903 538.231,-109.833C557.932,-113.759 563.845,-119.665 561.853,-84.21C559.86,-48.753 581.229,49.753 522.102,100.931C478.91,138.317 417.681,130.41 374.307,189.479C331.123,248.287 390.87,330.975 403.997,337.237C445.351,356.961 443.378,364.838 476.861,368.799C510.346,372.761 598.758,362.967 647.992,380.727C697.228,398.487 683.664,416.208 730.921,445.785C778.177,475.364 856.947,514.81 890.41,552.258C903.468,566.872 912.309,583.88 917.435,600.48C949.163,610.035 1019.7,619.56 1075.28,650.866C1107.84,669.211 1193.59,728.23 1232.78,784.917C1268.2,836.155 1285.89,897.232 1295.71,950.423C1301.78,983.353 573.702,977.705 586.581,926.332C598.429,879.064 673.303,847.594 673.303,847.594C649.574,813.649 609.807,769.498 599.219,757.889C587.71,763.602 577.063,767.307 565.251,766.761C543.806,765.775 550.358,742.129 562.687,709.666L559.137,715.542C559.137,715.542 520.942,692.286 507.953,666.264C494.182,638.679 458.764,575.62 429.222,565.752C395.128,554.364 334.698,522.356 340.615,510.541C348.918,493.959 401.692,492.852 401.692,492.852C401.692,492.852 334.247,467.494 330.798,461.289C303.34,411.876 264.662,319.656 287.619,215.03C315.275,88.98 435.435,91.025 470.904,71.35Z" style="fill:url(#_Linear3);fill-rule:nonzero;"/>
                                            <clipPath id="_clip4">
                                                <path d="M470.904,71.35C544.026,30.788 522.453,-78.324 522.453,-78.324C522.453,-78.324 518.531,-105.903 538.231,-109.833C557.932,-113.759 563.845,-119.665 561.853,-84.21C559.86,-48.753 581.229,49.753 522.102,100.931C478.91,138.317 417.681,130.41 374.307,189.479C331.123,248.287 390.87,330.975 403.997,337.237C445.351,356.961 443.378,364.838 476.861,368.799C510.346,372.761 598.758,362.967 647.992,380.727C697.228,398.487 683.664,416.208 730.921,445.785C778.177,475.364 856.947,514.81 890.41,552.258C903.468,566.872 912.309,583.88 917.435,600.48C949.163,610.035 1019.7,619.56 1075.28,650.866C1107.84,669.211 1193.59,728.23 1232.78,784.917C1268.2,836.155 1285.89,897.232 1295.71,950.423C1301.78,983.353 573.702,977.705 586.581,926.332C598.429,879.064 673.303,847.594 673.303,847.594C649.574,813.649 609.807,769.498 599.219,757.889C587.71,763.602 577.063,767.307 565.251,766.761C543.806,765.775 550.358,742.129 562.687,709.666L559.137,715.542C559.137,715.542 520.942,692.286 507.953,666.264C494.182,638.679 458.764,575.62 429.222,565.752C395.128,554.364 334.698,522.356 340.615,510.541C348.918,493.959 401.692,492.852 401.692,492.852C401.692,492.852 334.247,467.494 330.798,461.289C303.34,411.876 264.662,319.656 287.619,215.03C315.275,88.98 435.435,91.025 470.904,71.35Z" clip-rule="nonzero"/>
                                            </clipPath>
                                            <g clip-path="url(#_clip4)">
                                                <path d="M1293.01,1037.74C1293.01,1037.74 1275.28,850.601 1186.64,838.782C1098.08,826.975 1083.93,827.562 1045.44,861.239C998.164,902.605 1016.13,921.477 1005.71,921.477C995.297,921.477 942.134,887.239 952.136,824.204C961.808,763.249 895.851,699.249 755.619,704.997C615.388,710.743 916.773,663.467 916.773,663.467L1206.34,777.717C1206.34,777.717 1287.1,884.089 1289.07,964.852L1293.01,1037.74Z" style="fill:rgb(79,100,134);"/>
                                                <path d="M1357.87,774.163C1357.87,774.163 1274.08,885.733 1239.64,835.151C1210.12,791.797 1095.53,829.388 1052.55,771.997C963.981,653.751 826.066,696.999 826.066,696.999L573.892,751.995C573.892,751.995 634.896,863.023 666.612,848.631C688.286,838.796 737.526,813.174 737.526,813.174C737.526,813.174 725.006,838.739 697.929,850.565C634.876,878.104 613.192,901.726 599.378,941.115C593.604,957.581 482.758,916.173 482.758,916.173L729.694,460.558L1357.87,774.163Z" style="fill:rgb(79,114,143);"/>
                                                <path d="M530.456,887.885C530.456,887.885 598.531,705.718 597.558,687.005C596.585,668.289 782.711,706.821 782.711,706.821C782.711,706.821 712.732,730.097 664.495,746.141C593.565,769.736 693.986,834.803 693.986,834.803L563.939,893.816L530.456,887.885Z" style="fill:rgb(76,65,109);"/>
                                                <path d="M1293.01,921.477C1280.98,850.601 1196.36,742.884 1112.8,695.478C1029.24,648.073 992.804,627.089 890.234,627.089C787.664,627.089 968.347,564.501 968.347,564.501L1280.98,695.478C1280.98,695.478 1337.74,707.083 1339.71,787.846L1293.01,921.477Z" style="fill:rgb(81,145,166);"/>
                                            </g>
                                            <g>
                                                <g>
                                                    <path d="M522.091,100.932C478.9,138.317 417.672,130.412 374.298,189.48C331.115,248.287 390.86,330.973 403.987,337.237C445.342,356.961 443.366,364.84 476.851,368.8C488.001,370.12 505.241,369.913 525.095,369.708C564.87,369.294 615.144,368.882 647.983,380.727C697.217,398.489 683.653,416.208 730.911,445.785C778.167,475.362 856.937,514.81 890.401,552.258C923.864,589.707 929.74,642.897 915.936,664.555C902.135,686.215 860.753,709.826 748.47,711.725C636.19,713.622 608.574,768.759 565.242,766.764C543.798,765.775 550.344,742.133 562.673,709.672L559.126,715.544C559.126,715.544 520.934,692.288 507.943,666.265C494.17,638.677 458.755,575.621 429.213,565.752C395.119,554.364 334.688,522.356 340.606,510.541C348.911,493.959 401.682,492.852 401.682,492.852C401.682,492.852 334.237,467.494 330.788,461.287C303.331,411.876 264.653,319.654 287.609,215.032C315.268,88.981 435.426,91.025 470.895,71.351C544.019,30.788 522.443,-78.324 522.443,-78.324C522.443,-78.324 518.521,-105.903 538.222,-109.833C545.118,-111.208 550.326,-112.825 554.097,-112.825C561.095,-112.825 563.138,-107.254 561.844,-84.207C559.852,-48.752 581.219,49.753 522.091,100.932Z" style="fill:url(#_Linear5);"/>
                                                    <clipPath id="_clip6">
                                                        <path d="M522.091,100.932C478.9,138.317 417.672,130.412 374.298,189.48C331.115,248.287 390.86,330.973 403.987,337.237C445.342,356.961 443.366,364.84 476.851,368.8C488.001,370.12 505.241,369.913 525.095,369.708C564.87,369.294 615.144,368.882 647.983,380.727C697.217,398.489 683.653,416.208 730.911,445.785C778.167,475.362 856.937,514.81 890.401,552.258C923.864,589.707 929.74,642.897 915.936,664.555C902.135,686.215 860.753,709.826 748.47,711.725C636.19,713.622 608.574,768.759 565.242,766.764C543.798,765.775 550.344,742.133 562.673,709.672L559.126,715.544C559.126,715.544 520.934,692.288 507.943,666.265C494.17,638.677 458.755,575.621 429.213,565.752C395.119,554.364 334.688,522.356 340.606,510.541C348.911,493.959 401.682,492.852 401.682,492.852C401.682,492.852 334.237,467.494 330.788,461.287C303.331,411.876 264.653,319.654 287.609,215.032C315.268,88.981 435.426,91.025 470.895,71.351C544.019,30.788 522.443,-78.324 522.443,-78.324C522.443,-78.324 518.521,-105.903 538.222,-109.833C545.118,-111.208 550.326,-112.825 554.097,-112.825C561.095,-112.825 563.138,-107.254 561.844,-84.207C559.852,-48.752 581.219,49.753 522.091,100.932Z"/>
                                                    </clipPath>
                                                    <g clip-path="url(#_clip6)">
                                                        <path d="M559.129,715.543C559.129,715.543 520.936,692.287 507.945,666.265C494.174,638.678 458.756,575.621 429.215,565.752C395.121,554.365 334.69,522.357 340.608,510.542C348.912,493.96 401.684,492.851 401.684,492.851C401.684,492.851 334.239,467.495 330.79,461.288C303.332,411.877 265.683,367.882 302.351,267.242C326.031,202.253 454.123,119.6 489.592,99.926C562.714,59.363 546.818,-55.656 546.818,-55.656C546.818,-55.656 546.838,-89.143 566.538,-93.071C586.24,-96.997 578.361,-97.003 576.367,-61.546C574.376,-26.091 581.221,49.752 522.094,100.93C478.902,138.316 414.701,158.973 371.327,218.039C328.142,276.848 264.877,340.102 323.931,407.114C354.223,441.489 463.728,503.724 499.175,517.537C530.592,529.777 585.836,537.29 597.655,535.328C649.289,526.756 684.366,476.288 711.933,494.035C758.81,524.211 650.821,566.879 684.285,604.328C717.748,641.774 843.658,635.959 845.776,661.555C847.73,685.195 839.841,698.978 727.56,700.877C615.278,702.776 608.578,768.76 565.244,766.762C521.907,764.765 592.883,670.258 594.898,597.376C596.915,524.492 681.626,512.728 681.626,512.728" style="fill:rgb(78,86,124);"/>
                                                        <path d="M696.206,444.778C664.714,403.39 652.897,399.442 621.383,393.515C600.115,389.512 539.308,392.077 488.74,387.288C485.535,386.985 481.811,398.852 477.499,398.852C473.187,398.852 478.074,376.137 473.315,375.243C468.555,374.348 458.808,400.2 454.376,398.852C449.945,397.503 460.278,374.093 454.376,372.369C448.475,370.645 436.628,394.076 433.228,392.267C429.828,390.458 439.909,372.369 436.586,367.834C433.263,363.298 430.38,374.648 429.828,374.348C375.222,344.732 353.506,300.089 351.597,267.272C349.649,233.785 389.075,186.533 389.075,186.533L682.679,31.103C682.679,31.103 675.916,-84.129 558.664,-100.955C517.301,-106.89 562.99,-36.051 515.233,48.725C490.543,92.552 430.476,84.533 372.948,122.536C368.962,125.169 362.691,118.081 360.117,120.051C357.544,122.021 366.537,128.726 356.474,136.868C346.411,145.009 342.084,131.412 338.331,135.096C334.579,138.78 348.542,145.893 338.331,154.615C328.121,163.337 322.839,151.673 319.384,156.03C315.928,160.387 326.461,165.625 321.932,170.732C307.695,186.786 307.213,192.43 300.41,219.965C279.067,306.354 287.744,287.825 258.979,322.369C204.521,387.765 512.985,482.087 512.985,482.087L148.603,424.729L170.823,346.341L673.228,-593.341L952.133,681.322C952.133,681.322 899.018,569.006 830.103,523.656C746.846,468.869 727.696,486.164 696.206,444.778Z" style="fill:rgb(93,167,181);"/>
                                                        <path d="M536.466,726.363L564.867,707.017C564.867,707.017 583.701,633.389 593.666,610.18C605.501,582.608 606.365,568.928 640.972,560.964C743.419,537.391 682.374,507.804 682.374,507.804C682.374,507.804 615.387,525.491 599.599,572.757C592.961,592.629 587.733,645.633 558.185,645.613C528.638,645.596 518.818,600.284 493.22,584.507C467.622,568.733 449.905,549.023 426.271,545.067C402.635,541.114 339.6,541.074 339.6,541.074L536.466,726.363Z" style="fill:rgb(76,65,109);"/>
                                                        <path d="M570.129,462.427C540.591,446.649 534.676,456.496 516.955,444.665C499.232,432.834 581.979,413.189 609.547,428.966C625.31,437.985 632.023,494.774 615.407,503.823C572.057,527.434 594.515,475.454 570.129,462.427Z" style="fill:rgb(78,86,124);"/>
                                                    </g>
                                                </g>
                                            </g>
                                        </g>
                                        <path d="M477.506,529.34C477.506,529.34 424.689,527.796 408.566,523.388C386.901,517.464 355.384,515.473 355.394,501.684L389.379,491.687L442.965,510.412L444.885,515.634L477.506,529.34Z" style="fill:rgb(75,42,92);"/>
                                        <path d="M287.751,378.527C335.892,417.461 403.57,439.681 433.47,455.443C470.883,475.165 447.227,504.699 443.282,512.575C407.905,502.442 336.936,473.109 291.654,435.655C214.259,371.635 181.453,264.21 191.304,262.244C191.428,262.22 191.554,262.208 191.686,262.208C202.05,262.216 237.209,337.651 287.751,378.527Z" style="fill:url(#_Linear7);"/>
                                        <path d="M443.289,512.575C457.84,489.93 453.906,480.079 453.906,480.079C453.906,480.079 438.14,493.858 410.568,483.991C378.743,472.603 336.622,455.874 288.481,416.94C237.291,375.54 201.879,306.574 201.879,306.574C201.879,306.574 214.264,371.635 291.661,435.655C336.943,473.11 407.912,502.442 443.289,512.575Z" style="fill:rgb(211,203,175);"/>
                                        <path d="M589.877,445.116C589.881,437.819 583.977,431.902 576.687,431.898C569.399,431.892 563.487,437.804 563.483,445.098C563.477,452.394 569.383,458.311 576.671,458.317C583.96,458.321 589.873,452.412 589.877,445.116Z" style="fill:rgb(2,4,8);"/>
                                        <path d="M570.148,438.788C570.146,440.963 571.909,442.727 574.086,442.729C576.26,442.731 578.025,440.968 578.027,438.792C578.029,436.617 576.266,434.852 574.09,434.85C571.915,434.848 570.15,436.613 570.148,438.788Z" style="fill:rgb(213,184,216);"/>
                                        <circle cx="896.453" cy="215.623" r="96.033" style="fill:rgb(206,103,103);"/>
                                    </g>
                                </g>
                            </g>
                        </g>
                    </g>
                </g>
            </g>
        </g>
    </g>
    <defs>
        <linearGradient id="_Linear3" x1="0" y1="0" x2="1" y2="0" gradientUnits="userSpaceOnUse" gradientTransform="matrix(-648.775,-1235.28,1235.28,-648.775,933.508,1524.61)"><stop offset="0" style="stop-color:rgb(76,65,108);stop-opacity:1"/><stop offset="1" style="stop-color:rgb(79,121,149);stop-opacity:1"/></linearGradient>
        <linearGradient id="_Linear5" x1="0" y1="0" x2="1" y2="0" gradientUnits="userSpaceOnUse" gradientTransform="matrix(302.588,839.334,-839.334,302.588,537.555,-134.383)"><stop offset="0" style="stop-color:rgb(81,144,165);stop-opacity:1"/><stop offset="1" style="stop-color:rgb(78,101,134);stop-opacity:1"/></linearGradient>
        <linearGradient id="_Linear7" x1="0" y1="0" x2="1" y2="0" gradientUnits="userSpaceOnUse" gradientTransform="matrix(190.714,152.606,-152.606,190.714,246.2,357.005)"><stop offset="0" style="stop-color:rgb(239,232,205);stop-opacity:1"/><stop offset="1" style="stop-color:rgb(211,202,175);stop-opacity:1"/></linearGradient>
    </defs>
</svg>
