<svg xmlns="http://www.w3.org/2000/svg" fill="none" viewBox="0 0 92 24">
  <path fill="#252525" d="M56.27 7.4a8.19 8.19 0 0 0-3.79.97c0-3.39.06-6.35.13-7.45l-6.99 1.32v.63l.67.09c.97.12 1.35.69 1.45 1.99.21 2.48.19 15.83 0 17.98 1.95.46 3.95.71 5.96.74 5.52 0 8.87-3.43 8.87-8.83 0-4.33-2.68-7.44-6.3-7.44Zm-2.46 15.2c-.4-.02-.8-.05-1.2-.11-.1-1.49-.17-7.67-.17-13.07a4.67 4.67 0 0 1 1.62-.28c2.3 0 3.57 2.65 3.57 5.99.07 4.23-1.53 7.46-3.82 7.46ZM19.3 1.38H.98v.88l.96.13c1.41.2 1.94 1.07 2.11 3.05.3 4.6.3 9.2 0 13.8-.17 1.97-.7 2.83-2.1 3.05l-.97.13v.88h11.8v-.88l-1.25-.13c-1.4-.2-1.94-1.07-2.1-3.05-.11-1.34-.2-3.61-.22-6.26l2.44.08c1.63.06 2.3 1.26 2.7 3.03h.9V8.66h-.88c-.4 1.78-1.07 2.97-2.7 3.02l-2.5.12c0-3.5.04-6.87.2-8.93h3.62c2.87 0 4.36 1.81 5.3 4.99l1.1-.3-.08-6.17Z"/>
  <path fill="#252525" d="M25.28 7.23c5.2 0 7.8 3.53 7.8 8.18 0 4.58-2.92 8.3-8.14 8.3-5.21 0-7.8-3.54-7.8-8.19 0-4.65 2.92-8.3 8.14-8.3Zm-.28 1c-2.31 0-2.97 3.12-2.97 7.24 0 4 1.02 7.23 3.15 7.23 2.32 0 2.98-3.1 2.98-7.23 0-4.12-1.03-7.23-3.16-7.23Zm38.85 7.37c0-4.31 2.71-8.37 8.1-8.37 4.38 0 6.45 3.23 6.47 7.48H68.7c-.1 3.85 1.85 6.7 5.57 6.7a5.08 5.08 0 0 0 3.52-1.15l.46.54a7.81 7.81 0 0 1-6.33 2.9c-4.7 0-8.03-3.33-8.05-8.1Zm4.84-1.98 4.9-.1c0-2.17-.32-5.26-2.09-5.26-1.77 0-2.74 2.92-2.8 5.36Zm22.12-5.54c-1.5-.59-3.1-.88-4.7-.84-3.94 0-6.32 2.3-6.32 4.99 0 2.7 1.79 3.84 4.27 4.73 2.68.95 3.37 1.68 3.37 2.92a2.45 2.45 0 0 1-2.6 2.47c-1.99 0-3.45-1.16-4.61-4.36l-.8.21.15 4.56c1.76.63 3.62.95 5.5.95 4.15 0 6.69-2.02 6.69-5.32 0-2.23-1.07-3.43-3.8-4.47-2.98-1.13-3.98-1.85-3.98-3.21a2.15 2.15 0 0 1 2.17-2.31c1.89 0 3.17 1.17 4.03 3.92l.83-.22-.2-4.02Zm-44.12-.4c-1.77-1.05-4.97-.54-6.6 3.18l.08-3.64-6.96 1.35v.63l.67.08c.97.13 1.35.7 1.49 2 .2 3.02.2 6.06 0 9.08-.1 1.3-.48 1.87-1.49 2l-.67.08v.88h9.67v-.9l-1.26-.07c-.97-.13-1.35-.7-1.45-2a69.7 69.7 0 0 1-.05-8.43c.47-.74 2.74-1.38 4.86 0l1.7-4.24Z"/>
</svg>
