<?xml version="1.0" encoding="UTF-8" standalone="no"?>
<svg width="99px" height="54px" viewBox="0 0 99 54" version="1.1" xmlns="http://www.w3.org/2000/svg" xmlns:xlink="http://www.w3.org/1999/xlink">
    <!-- Generator: Sketch 40.3 (33839) - http://www.bohemiancoding.com/sketch -->
    <title>HDR_logo</title>
    <desc>Created with Sketch.</desc>
    <defs>
        <polygon id="path-1" points="0.06 53.94 99 53.94 99 0.339 0.06 0.339"></polygon>
    </defs>
    <g id="Page-1" stroke="none" stroke-width="1" fill="none" fill-rule="evenodd">
        <g id="HDR_logo">
            <g id="Page-1">
                <g id="HDR-Logo-Rough-Vector">
                    <g id="Fill-1-Clipped">
                        <mask id="mask-2" fill="white">
                            <use xlink:href="#path-1"></use>
                        </mask>
                        <g id="path-1"></g>
                        <path d="M65.756,26.452 L65.754,26.452 C65.718,41.555 54.545,52.569 39.156,52.569 L32.872,52.569 L32.872,42.765 L39.156,42.765 C48.926,42.765 55.752,36.01 55.772,26.424 C55.752,16.836 48.926,10.144 39.156,10.144 L32.872,10.144 L32.872,0.339 L39.156,0.339 C54.545,0.339 65.718,11.292 65.754,26.394 L65.756,26.394 L65.756,26.452 L65.756,26.452 L65.756,26.452 Z M65.742,9.733 L77.748,9.733 C81.37,9.733 83.821,10.479 85.588,12.186 C87.201,13.744 88.036,15.799 88.036,18.117 C88.036,23.398 83.402,26.54 78.236,26.54 L75.236,26.54 L71.719,34.001 L91.359,54 L99,47.704 L85.078,33.904 C92.771,32.498 98.013,25.596 98.013,18.324 C98.013,12.879 96.438,8.683 92.489,5.035 C88.396,1.25 83.848,0.339 77.002,0.339 L65.742,0.339 L65.742,9.733 L65.742,9.733 L65.742,9.733 Z M33.152,21.221 L10.78,21.221 L10.78,0.339 L0,0.339 L0,52.567 L10.78,52.567 L10.78,31.67 L33.152,31.67 L33.152,21.221 L33.152,21.221 L33.152,21.221 Z" id="Fill-1" fill="#FFFFFF" mask="url(#mask-2)"></path>
                    </g>
                </g>
            </g>
        </g>
    </g>
</svg>