<svg xmlns="http://www.w3.org/2000/svg" fill="none" viewBox="0 0 108 36">
  <path fill="#fff" d="M77.508 28.459c-.2011.1978-.3848.3682-.559.5499-.312.328-.6177.664-.9281.9936-.3262.3457-.6493.6946-.9882 1.0275-.3072.3006-.6334.5804-.9533.8666-.3104.2782-.6161.5644-.9407.8232-.4276.3393-.8584.6769-1.3145.9744-.5369.3489-1.0943.6689-1.6565.9728-.3152.1704-.6541.3038-.9946.4164-.5574.1865-1.1196.3586-1.6881.5097-.4213.1125-.8536.1865-1.2812.2717-.9534.1897-1.9147.1512-2.8696.0579-.7-.0675-1.3937-.2251-2.0477-.4968-.5337-.2235-1.0579-.476-1.5695-.7461-.2739-.1447-.5083-.365-.7696-.5354-.5511-.3586-.9946-.8409-1.4459-1.3104-.255-.2653-.4767-.5724-.6747-.8843-.3214-.5065-.635-1.021-.9058-1.5564-.1885-.3715-.3009-.7815-.4419-1.177-.0776-.2171-.1425-.4373-.2169-.6673-.3231.328-.643.6609-.9708.9824-.5432.5322-1.0864 1.0661-1.6407 1.5854-.4719.4422-.9502.8779-1.4459 1.2927-.445.373-.9106.7203-1.3778 1.0628-.4387.3232-.8837.6367-1.3398.9326-.2549.1656-.5416.283-.8076.4325-.483.2733-1.0183.4036-1.533.5885-.1806.0643-.3754.09-.5606.1415-.6573.1817-1.3303.2347-2.0034.3119-.8409.0981-1.6787.119-2.5133.0402-.5305-.0499-1.0547-.1914-1.5726-.3264-.4117-.1077-.8187-.2508-1.2146-.4116-.2851-.1158-.5511-.2814-.8204-.4358-.2866-.1656-.5733-.3328-.8488-.5177-.5179-.3441-.9835-.7493-1.4253-1.1914-.4514-.4502-.8362-.9519-1.1846-1.4792-.2566-.3892-.4561-.8201-.6556-1.2445-.1473-.3136-.2534-.6464-.3944-1.0162-.1283.1495-.2344.2782-.3436.4036-.4593.529-.8932 1.0837-1.3873 1.5789-.5797.5804-1.1989 1.1223-1.826 1.6513-.312.2637-.6715.4759-1.0278.6769-.6398.3634-1.2891.7107-1.9432 1.0467-.2518.1302-.5258.2203-.795.3103-.4814.1608-.9644.3152-1.4522.455-.2471.0708-.5036.0997-.757.1512-.9359.1865-1.8798.3006-2.8332.291-.5559-.0064-1.1196-.0048-1.666-.0933-.578-.0932-1.1513-.2443-1.6866-.5145-.2851-.1447-.5939-.2444-.8726-.4019-.3563-.201-.7016-.4277-1.0342-.6673-.266-.1913-.5257-.402-.7554-.6367-.2898-.2959-.5653-.611-.814-.9422-.2407-.32-.4513-.6641-.6588-1.0082-.1314-.217-.2407-.4502-.3436-.6817-.1441-.3248-.2835-.6528-.407-.9872a3.8357 3.8357 0 0 1-.1758-.6383c-.1014-.5499-.2233-1.0982-.2692-1.6529-.0586-.7059-.0539-1.4182-.0697-2.1288-.0032-.111.0348-.2235.057-.3586H0c.1457-.1849.2534-.3264.3658-.463.3057-.3699.613-.7381.9233-1.1047.2582-.3038.5195-.6061.787-.9004.0872-.0964.0587-.172-.0047-.2508-.285-.3489-.57-.6978-.8567-1.0435-.3278-.3939-.6604-.7846-.9898-1.1769-.0618-.074-.122-.1512-.2043-.2525.0934-.0048.152-.0112.2122-.0128 1.6027-.0049 3.2038-.0097 4.8064-.0129 2.2536-.0048 4.5088-.008 6.7623-.0145.2787 0 .5575.0032.8346-.0193.0792-.0064.1774-.0787.2233-.1495.3136-.4872.6034-.9888.9265-1.4696.2628-.3923.5447-.775.8456-1.14.2803-.3392.586-.6592.8964-.9711.2993-.3007.6002-.6046.9328-.865a12.2184 12.2184 0 0 1 1.2542-.8667c.4292-.2588.8837-.4743 1.3335-.6962a3.7672 3.7672 0 0 1 .6065-.2363c.4973-.1447.9946-.2895 1.4982-.4036.852-.1913 1.7183-.283 2.5877-.2042.5258.0482 1.0563.0997 1.5599.2862.4054.1495.8283.254 1.221.4293.5163.2315 1.0088.5177 1.4443.8924.2408.2074.5036.3907.7269.6142.2534.254.4957.5257.7032.82.2866.4068.5448.8361.7966 1.267.1267.217.228.4518.3215.6865.1567.3939.2961.7927.4434 1.1898.0063.0177.0079.037.0127.0563.095.5049.2185 1.0065.2739 1.5162.0412.3859.0428.7895-.0221 1.1689-.1394.8233-.5052 1.5565-1.0959 2.1417-.3564.3521-.7665.6383-1.2401.8377-.5352.2251-1.0784.3345-1.6549.3328-3.3368-.0048-6.6752-.0032-10.0119-.0032h-.255c-.0111.066-.0254.1206-.0285.1753-.0317.5161-.1125 1.0355-.0808 1.5484.038.627.1441 1.2477.3738 1.849.1694.4454.4006.8345.6983 1.193.2328.2798.5369.4567.8647.6046.4134.1865.8457.2556 1.2923.2749.1378.0065.2756.066.4102.0563.5463-.0402 1.0975-.0707 1.6359-.1592.4149-.0675.8188-.209 1.2226-.3344.578-.1801 1.1434-.3939 1.6755-.6898.491-.2733.9977-.5209 1.4744-.8184.3453-.2138.6668-.4727.974-.7428.445-.3891.8837-.7895 1.2938-1.2156.3168-.3296.5971-.6978.8695-1.0676a50.5145 50.5145 0 0 0 1.24-1.7558c.3405-.5064.6604-1.0258.9787-1.5467a41.616 41.616 0 0 0 .8124-1.386c.2756-.492.5306-.9985.8061-1.4921.255-.4566.5321-.9004.7839-1.3586.2439-.4438.4609-.9004.6984-1.3474.2217-.4197.4593-.8313.6763-1.2526.2248-.4373.4323-.8827.6508-1.3232.2613-.529.5322-1.0548.7887-1.587.1473-.3039.2724-.6174.4118-.9261.1916-.4213.3927-.8393.5812-1.2622.1409-.3167.266-.6415.4054-.9583.1884-.4325.3848-.8602.5733-1.291.0934-.2123.1774-.4278.2629-.6432.1393-.3457.2755-.6946.4181-1.0387.1061-.2589.2217-.5145.3309-.7734.198-.4711.396-.9406.5876-1.415.1029-.254.19-.516.2898-.7717.1267-.3264.2597-.6512.3896-.976.1108-.2765.2217-.5547.3357-.8312.1014-.246.2122-.4856.3104-.7332a19.209 19.209 0 0 0 .2978-.8104c.0807-.2363.1773-.3232.4196-.3248 1.514-.0032 3.0264 0 4.5404 0 .019 0 .0364.0065.0776.0129-.0475.1447-.0903.2862-.1409.4229-.1505.41-.3073.8167-.4561 1.2268-.1014.2765-.1917.5579-.2946.8344-.1219.328-.2518.6528-.3785.9776-.1124.2894-.2233.582-.3389.8699-.1869.4679-.3801.9325-.567 1.3988-.0997.2476-.1916.4985-.2914.7477a65.1 65.1 0 0 1-.3943.9743c-.1108.2702-.228.537-.3436.804-.1901.4405-.3801.8827-.5686 1.3232-.1362.32-.2645.6416-.4038.9599-.1362.3104-.2851.6175-.4244.9262-.1014.2251-.1933.455-.2946.6817-.1631.3666-.331.73-.4957 1.0966-.0063.016 0 .0386 0 .0804 2.9472-.7252 5.7091-.32 8.2003 1.4808 2.4562 1.7767 3.6677 4.2898 4.0446 7.2917.1901-.2091.3754-.402.548-.6046a45.366 45.366 0 0 0 .7522-.9101c.2629-.3247.5147-.6592.7824-.9807.3816-.4567.7807-.9005 1.1592-1.3587.2392-.2894.4371-.6126.6842-.894.3579-.4084.7269-.8071 1.1196-1.1817.3754-.3586.776-.693 1.1846-1.013.2882-.2251.6034-.4164.9138-.6078.293-.1801.5939-.3505.8963-.5113.217-.1157.4371-.2347.6699-.3103.5781-.1881 1.1577-.3762 1.7468-.5225.8425-.2091 1.7041-.275 2.5687-.2139.6177.0434 1.2353.1045 1.8339.2894.2091.0643.4276.0949.6351.1656.4181.1415.8346.2878 1.2432.4518.3262.1303.6493.275.9597.439.6334.3376 1.2036.7669 1.7246 1.267.5559.5354 1.0167 1.1528 1.4522 1.7879.1932.2814.3421.5933.5084.894.0174.0306.019.0708.0301.1174-.681.2653-1.3557.5274-2.0303.7894-.4323.1673-.8647.3329-1.2939.5033-.3373.1351-.673.2749-1.0072.4164-.266.1126-.3737.0708-.5337-.1784a3.2037 3.2037 0 0 0-.909-.9326c-.2423-.164-.4846-.328-.7412-.4679-.1884-.1029-.3943-.1752-.597-.2444-.6588-.2283-1.3414-.3023-2.0271-.2106-.4339.0579-.8631.1769-1.2828.3055-.342.1045-.6857.2347-.9977.41-.426.238-.8393.5065-1.2258.8055-.5685.439-1.0658.9615-1.4728 1.5597-.2549.3746-.483.7685-.6984 1.1673-.1662.3071-.3088.6286-.4355.955-.0855.2219-.1235.4631-.1868.6946-.2154.7911-.2914 1.5982-.2012 2.4102.0475.4277.1742.8474.2883 1.2654.0712.2637.1599.529.285.7702.3167.6142.7158 1.1592 1.2812 1.5773.3896.2894.7871.5161 1.2701.6142.7903.1608 1.5821.1399 2.3771.1158.1964-.0065.3959-.0017.586-.0435.38-.0852.7538-.1977 1.1291-.3022.1615-.0451.3262-.0836.4814-.1447.3564-.1383.7127-.2766 1.0579-.4406.2756-.1302.5417-.2846.7998-.4486.6002-.3794 1.1672-.8087 1.6692-1.3184.6049-.6142 1.2147-1.2252 1.8085-1.8507.5321-.5595 1.0595-1.1255 1.5631-1.7108.4181-.4855.795-1.0097 1.202-1.5065.3294-.4036.6794-.7911 1.0136-1.1914.2581-.3088.5052-.6271.7601-.9374.2613-.32.5274-.6335.7887-.9535.4149-.5097.8124-1.0339 1.2416-1.5323.5194-.6045 1.0452-1.2075 1.6043-1.7767.4117-.4196.8615-.8071 1.3271-1.1641.4608-.3537.9549-.6672 1.449-.9727.5147-.3168 1.0595-.5773 1.6391-.7557a60.3625 60.3625 0 0 1 1.3018-.3859 6.2104 6.2104 0 0 1 1.5172-.238c.4592-.0161.9217-.0804 1.3778-.0514.5432.0337 1.0864.119 1.6201.2283.4307.0884.8599.2138 1.2685.3778.6255.2509 1.2289.5499 1.799.9213.5416.3538 1.0342.7654 1.4982 1.2124.3072.2958.5764.6367.8282.9856.3231.447.6414.902.9027 1.3876.2344.4357.388.9149.5733 1.3763.057.1399.1045.283.1631.439H108c-.264.3328-.505.6415-.752.9438-.39.4759-.783.9486-1.175 1.4213-.027.0322-.057.0627-.086.0933-.111.1206-.119.2396-.008.3682.521.6029 1.039 1.2075 1.562 1.8104.149.1721.307.3393.443.5547h-.215c-2.925.0017-5.852.0065-8.7769.0017-.1964 0-.2518.0594-.2803.2556-.0824.5788-.2218 1.1464-.4292 1.6963-.1061.2798-.1695.5788-.2898.8522a24.7557 24.7557 0 0 1-.7095 1.4615c-.2091.3988-.4292.7943-.6794 1.1657-.2661.3923-.5559.7734-.8694 1.1255a15.9993 15.9993 0 0 1-1.1609 1.1657 13.2161 13.2161 0 0 1-1.1814.9551c-.4197.3007-.8583.574-1.3049.8313-.2898.1672-.6002.3006-.9138.418-.5559.2106-1.1149.4197-1.685.5853-.3659.1061-.7539.1334-1.1308.2009-.795.1415-1.5995.1544-2.3977.0756-.5891-.0595-1.1845-.1093-1.7515-.3248-.4102-.1559-.8346-.2717-1.2432-.4309-.2565-.0997-.502-.2379-.7395-.3778-.3009-.1769-.5955-.3682-.8837-.5644-.5021-.3409-.9645-.7348-1.3652-1.1946-.3056-.3505-.6192-.6995-.8868-1.0789-.2613-.3714-.4894-.7702-.6968-1.177-.2202-.4341-.4102-.8843-.5907-1.3377-.1061-.2653-.1679-.5499-.2487-.8248-.0142-.0483-.0253-.0965-.0427-.1592l-.0032.0032Zm-28.2305-5.1098-.0317-.0048c0-.1093.0095-.2203-.0016-.328-.0475-.4438-.0649-.894-.1647-1.3249-.0934-.3971-.2565-.7814-.4323-1.1512-.1584-.3329-.3357-.6737-.5733-.9471-.4434-.5097-.9565-.9357-1.5932-1.2123-.407-.1769-.8203-.3328-1.2495-.3939-.5654-.0788-1.1355-.074-1.7088.0434-.5511.1125-1.0784.2749-1.5805.5193-.3373.164-.6841.32-.9818.5435-.4197.3151-.7998.6849-1.1941 1.0355-.5464.4839-.9471 1.0853-1.3034 1.7155-.1916.3393-.331.7075-.502 1.0596-.2471.5113-.3627 1.0628-.4434 1.6159-.0681.4631-.0618.9374-.0634 1.4069-.0032.5612.095 1.1078.2724 1.6433.1964.5965.4783 1.1383.8694 1.6255.3896.4872.8663.8602 1.4063 1.1528a4.074 4.074 0 0 0 1.5805.4776c.4704.0418.9518-.0241 1.4285-.0499.6066-.0321 1.1656-.2395 1.6993-.5145.4133-.2122.8377-.4164 1.2067-.6946.4403-.3328.8552-.7139 1.2321-1.1191.6098-.656 1.0849-1.4165 1.4459-2.2365.2107-.4791.3643-.9904.4878-1.5017.1077-.4438.1346-.9069.1964-1.3619l-.0016.0016Zm35.9034-3.8846c-.0602.0499-.1362.1077-.2075.1737-.1916.1784-.3975.344-.5669.5418-.3342.3891-.6826.775-.9597 1.2043-.274.4229-.4625.9004-.6968 1.3506-.3215.6158-.4672 1.2879-.5512 1.9648-.0855.6898-.0839 1.386.046 2.0838.1013.5435.2739 1.0451.502 1.5436.2803.6142.7111 1.1013 1.2052 1.529.4608.3972 1.0056.6689 1.5852.8265.502.1366 1.0231.2138 1.552.1784.6509-.0434 1.2891-.1463 1.8973-.3971.2977-.1222.6065-.2315.8789-.4004.6572-.4067 1.2812-.8569 1.818-1.4326.5021-.5386.9328-1.1222 1.2828-1.7686.1711-.3151.3231-.6432.4593-.9744.1108-.2701.1868-.5547.2771-.828-.4323-.0499-.8393-.0868-1.2432-.1463-.4386-.0644-.8726-.1544-1.3097-.2284-.5052-.0852-.9597-.3135-1.4332-.4936-.5337-.2026-1.0325-.4663-1.4839-.8103-.4862-.3714-.9581-.7638-1.4063-1.1802-.2835-.2653-.5242-.5821-.7617-.8924-.1711-.2219-.3342-.4582-.4514-.7123-.1694-.3649-.2929-.7508-.4371-1.1303l.0048-.0016ZM46.023.8006c-.3262 0-.6033-.0049-.8789.0048-.0459.0016-.1093.0627-.133.1109-.0618.1286-.1109.2637-.16.3988-.0982.2669-.1868.5386-.2914.8023-.1916.4791-.3943.9534-.5875 1.4326-.1045.2605-.1932.5274-.3009.7862-.1267.3087-.2724.611-.3991.9197-.1805.4406-.35.886-.5305 1.325-.1948.471-.4007.9373-.5971 1.4068-.1346.3183-.2565.6431-.3943.9599-.1884.4357-.3896.865-.5796 1.2991-.1045.238-.1916.484-.2977.7204-.2249.5-.4593.9968-.6842 1.4969-.1409.3103-.2645.6287-.4102.9374-.266.5611-.5432 1.1158-.8124 1.6737-.1409.2927-.2724.5885-.4165.8795-.1869.3763-.3848.7477-.5733 1.1239-.1362.2718-.2613.5499-.4038.8168-.1315.246-.2835.4808-.4181.7268-.2328.4293-.4482.8666-.6873 1.2911-.2566.4566-.5305.902-.7966 1.3522-.2676.4534-.5274.9101-.8029 1.3587-.3025.4904-.624.9679-.9296 1.4567-.2645.4229-.5052.8602-.776 1.2798-.2661.4133-.5369.8249-.8362 1.2124-.5131.664-1.031 1.3249-1.5837 1.9551-.4498.5146-.9423.9937-1.4348 1.468-.3294.3168-.6905.603-1.0468.8908-.2075.1688-.4292.3232-.6509.4743-.2946.1994-.5891.3987-.8948.582-.247.148-.5052.2814-.7649.402-.3056.1415-.616.2749-.9328.3907-.483.1753-.9707.3345-1.4601.4952-.1647.0547-.3342.0965-.5036.1303-.5749.1157-1.1482.2621-1.7278.328-.7206.082-1.4506.09-2.1665-.0756-.399-.0916-.8092-.1704-1.183-.3296-.4798-.2026-.9549-.4357-1.3477-.7991-.2692-.2492-.5558-.4792-.8156-.7364-.2961-.2943-.5416-.6319-.7839-.9776-.3262-.4631-.5764-.9615-.768-1.4873-.1632-.447-.2851-.9148-.3738-1.3843-.0792-.4197-.1093-.8506-.1219-1.2783-.0095-.3553.0427-.7123.0601-1.0692.008-.1688 0-.3393 0-.5194-.2834 0-.5495.0081-.814-.0032-.171-.0064-.2359.066-.2407.2332-.0237.8119-.057 1.6207.0554 2.4359.0919.6705.2249 1.3233.4371 1.9632.0571.172.0966.3537.1727.5177.1219.2637.2549.5226.4038.7718.2265.3811.4434.7734.7158 1.1191.274.3473.5891.672.9265.9566.3975.3345.8251.6384 1.2653.9117.2946.1833.6414.2749.9534.4309.5289.2637 1.1006.3698 1.6708.4357.8599.0997 1.723.0772 2.5877-.0466.5891-.0852 1.1846-.1254 1.7642-.2814.3658-.098.7364-.1801 1.1038-.2781.1742-.0467.35-.0981.5147-.1705.2961-.1286.586-.2733.8773-.4148.4752-.2315.9661-.4357 1.4174-.7058.4672-.2798.9011-.6159 1.3367-.9471.2866-.2186.5637-.455.8171-.7123a30.4175 30.4175 0 0 0 1.2717-1.3747c.4102-.4743.8045-.9647 1.1878-1.4647.3484-.4551.6746-.9278 1.0056-1.3957.3167-.447.6319-.8939.9391-1.3474.2138-.3151.4118-.6415.6176-.9615.1901-.2926.388-.5804.5717-.8779.2408-.3891.4704-.7846.7032-1.1785.2265-.3811.4545-.7605.6778-1.1432.1615-.2766.3167-.5579.4735-.8361.1156-.2026.2376-.402.3437-.6094.2344-.4502.4592-.9052.6905-1.357.1868-.3618.3832-.7187.5653-1.0837.1885-.3779.3611-.7621.5432-1.1432.2281-.4759.4672-.9486.6889-1.4278.1457-.3151.2645-.6447.4086-.9615.2613-.5724.5337-1.14.7966-1.7124.1489-.3231.2835-.6544.4292-.9792.2264-.508.4561-1.0129.6841-1.5194.1156-.2588.2312-.5177.3437-.7766.1235-.2846.2486-.5676.3642-.8554.1077-.262.1996-.5322.3073-.7926.1916-.4599.3943-.915.5843-1.3748.1077-.2588.1932-.5273.2978-.7878.1377-.3409.2866-.6753.426-1.0162.0665-.1624.1124-.3312.1773-.4936.1426-.3602.293-.7155.4356-1.0757.1488-.3778.2961-.7589.437-1.14.0887-.2379.1647-.4823.2582-.7605l.0031-.0016ZM13.7938 19.8938c.3294 0 .6018.0081.8726-.0064.0633-.0032.1409-.074.1821-.1351.1204-.1785.209-.3778.3373-.5483.3183-.418.6335-.8425.9851-1.23.369-.4052.7601-.7927 1.1766-1.1448.4039-.3424.841-.6496 1.2844-.939.331-.2154.6889-.3891 1.0452-.5579.2518-.119.5195-.2106.7871-.2942.4751-.148.947-.3248 1.4332-.4052.5084-.0836 1.0342-.0901 1.552-.0901.4165 0 .8409.0161 1.2448.1029.3927.0837.7807.2332 1.1418.4133.4213.2106.8314.4566 1.2052.7412.3199.2444.6081.5451.8615.8618.3167.3971.6192.8168.8631 1.2638.2249.4116.3943.8634.5369 1.3136.1425.4502.2581.9149.3167 1.3828.0348.2862-.0174.6013-.1077.8795-.0855.2653-.2312.5322-.4165.7396-.4308.4856-.9803.693-1.6423.693-8.0609-.0113-16.1217-.0064-24.1842-.0064-.0633 0-.1283-.0097-.19.0032-.0476.0096-.0998.0369-.133.0739-.1838.1914-.3675.3843-.5401.5869-.1394.164-.2613.3425-.4133.5451h24.9301c.5305 0 1.0595-.0225 1.5504-.2428.2772-.1238.5622-.2685.7808-.4727.2834-.2653.5337-.5805.7443-.9101.2154-.336.3484-.7283.3595-1.1335.0079-.3522-.0238-.7091-.0745-1.0596-.0506-.3425-.1472-.6769-.2248-1.0146-.1188-.5161-.2803-1.0178-.5337-1.4824-.2455-.4518-.483-.9133-.7808-1.3297-.3151-.4422-.6952-.8361-1.1181-1.1802-.4355-.3553-.9042-.6496-1.411-.9004-.6351-.3135-1.3065-.4743-1.9907-.5499-.9739-.1077-1.9526-.1013-2.9218.0917-.1426.0289-.2962.016-.4308.0643-.483.1688-.9613.3521-1.4396.537-.6018.2315-1.164.5402-1.7072.8891-.5748.3682-1.1291.7606-1.5947 1.267-.3896.4245-.7871.8426-1.145 1.2944-.3088.3891-.5749.8152-.8457 1.2332-.1267.1946-.2201.4116-.3516.6592l.0064-.0032Zm1.1782 5.1516c-.038.2717-.0982.5419-.1077.8136-.0221.6383-.0538 1.2766.0602 1.9149.0934.5178.1853 1.0259.3817 1.5195.228.5708.5289 1.0933.9169 1.5596.453.5419.9819 1.0049 1.5964 1.3522.5986.3393 1.259.5178 1.932.5949.5733.066 1.1577.0804 1.7342-.0498.5257-.119 1.0563-.209 1.5836-.32a2.7009 2.7009 0 0 0 .4466-.135 33.9088 33.9088 0 0 0 1.0025-.4149c.4371-.1897.8853-.3585 1.3018-.5868.5131-.2814 1.0103-.5982 1.4949-.9294.3912-.2669.7665-.5627 1.126-.8698.3532-.3023.6889-.6271 1.0152-.9599.3959-.4036.795-.8088 1.1576-1.2429.3722-.447.7095-.9261 1.05-1.4005.3152-.4389.6192-.8859.9201-1.3361.198-.2974.3817-.6029.567-.9084.2185-.3602.4307-.722.6445-1.0837.2012-.3393.3991-.6802.6002-1.0194.1806-.3055.3643-.6078.5401-.9165.1853-.3264.361-.6592.5432-.9872.2201-.3972.4482-.7895.6667-1.1866a56.71 56.71 0 0 0 .5923-1.1079c.217-.4148.4292-.8328.6398-1.2509.2249-.4453.4482-.8923.6683-1.3409.1473-.3007.2898-.603.4323-.9053l.4561-.9647c.1252-.2637.255-.5241.3722-.791.1916-.4374.3706-.8828.5638-1.3201.2296-.5209.4719-1.037.7031-1.558.1378-.312.2598-.6303.396-.9438.228-.5242.464-1.0467.692-1.571.1616-.3697.3168-.7411.472-1.1142.2438-.5868.4861-1.1737.7284-1.7606.1632-.3971.3294-.7927.4894-1.1914.2407-.5981.4767-1.1995.7269-1.8314-.3437 0-.6746 0-1.0072.0033-.0269 0-.0634.0385-.076.0675a42.596 42.596 0 0 0-.3896.873c-.1267.2927-.2471.5902-.369.8844-.1916.4582-.388.9165-.578 1.3763-.1172.283-.2249.5692-.339.8522-.1219.3055-.2502.611-.3689.918-.1062.275-.1948.5564-.3041.8281-.1932.4792-.3975.955-.5939 1.4326-.1298.3168-.2534.6351-.388.9503-.1948.455-.3959.9068-.597 1.3586-.1742.3939-.3469.7895-.5306 1.1802-.2533.5435-.5194 1.0805-.7744 1.6223-.2312.4904-.4513.9889-.6857 1.4777-.2676.5579-.5448 1.1126-.8203 1.6657-.2075.418-.415.8345-.6303 1.2477-.1885.3586-.3912.7107-.5876 1.066-.1457.2637-.2851.5322-.4339.7943-.2534.447-.5147.8891-.7681 1.3345-.2265.3988-.4403.804-.6762 1.1979a60.8508 60.8508 0 0 1-1.0247 1.6513c-.3848.6013-.7649 1.2075-1.1782 1.7879-.3833.5386-.7934 1.0612-1.221 1.5661a13.9828 13.9828 0 0 1-1.6233 1.6143c-.5004.4228-1.0135.8296-1.5694 1.1657-.5891.3569-1.2004.6865-1.8291.9647-.5702.2508-1.1688.4421-1.769.6126-.464.1318-.9439.2267-1.4221.2701-.9091.082-1.8165.1061-2.7129-.1704-.6255-.193-1.1339-.5194-1.5805-1.0017-.4925-.5306-.7855-1.1625-.9945-1.8346-.1362-.439-.2312-.9036-.2566-1.3635-.0316-.5852.027-1.1737.0475-1.7622.0048-.1254.0127-.2524.019-.3891h-1.0768l.0031.0016Zm23.8295-5.3156c.0824-.0514.1204-.0675.1489-.0949.1568-.1543.3009-.3231.4672-.463a27.2523 27.2523 0 0 1 1.0594-.8522 3.6485 3.6485 0 0 1 .5575-.3473c.3072-.1543.6319-.2749.9375-.4325.483-.2508 1.0104-.3634 1.5314-.4373 1.088-.1544 2.1728-.0933 3.199.3633.3358.1496.6731.3136.9645.5338.3722.2814.7095.6143 1.0373.9471.3516.3569.6002.7959.8029 1.2541.1109.2492.2027.5097.2803.7718.1077.3601.2392.7219.2819 1.0917.057.5017.0507 1.0114.0523 1.5178 0 .275-.0079.5548-.0602.8249-.076.4019-.1837.7991-.2961 1.193-.0856.3007-.1711.6078-.3057.886-.2423.4984-.5115.9856-.7934 1.4631-.3326.5676-.7602 1.0644-1.2305 1.5162-.3025.291-.6493.5338-.9708.8056-.4941.418-1.0626.7026-1.647.955-.2788.1206-.5796.1865-.8663.2894-.5511.1978-1.126.2605-1.6993.2814-.6873.0241-1.3603-.1125-2.0081-.3408-.2993-.1062-.6002-.2284-.8694-.394-.4957-.3022-.9597-.6528-1.3445-1.0997-.3089-.357-.5844-.7364-.7824-1.1657-.152-.3281-.2914-.6657-.3943-1.0114-.1251-.4196-.2439-.8489-.2946-1.2831-.0918-.7701-.0744-1.5467.084-2.3105.0554-.2717.1377-.537.2058-.8055.0111-.0418 0-.09 0-.1351-.1251.1287-.2185.2637-.304.402-.236.3843-.472.7686-.7016 1.1544-.1441.2428-.3405.4744-.4102.7381-.1837.701-.0237 1.3988.1537 2.0789.1029.3956.2533.7814.4181 1.1561.1789.4068.3784.8087.6081 1.1882.1805.299.3959.5869.6414.8312.3626.3618.7395.722 1.1592 1.0066.4498.3055.9439.5434 1.4728.7139.586.1897 1.1783.3264 1.7817.3923.7902.0852 1.5884.0836 2.3755-.0885.502-.1093 1.0008-.2395 1.4649-.4694.3689-.1833.7506-.3473 1.0959-.5692.361-.2316.6873-.521 1.0246-.7911.5289-.4245.9724-.9358 1.3825-1.4744.2756-.3602.5116-.7525.7808-1.1175.3484-.4711.5859-1.0001.8077-1.5387a6.497 6.497 0 0 0 .2787-.8377c.1473-.5885.331-1.1737.3975-1.7735.1108-.9856.0934-1.9792-.1695-2.9504-.1187-.4357-.2375-.8747-.3848-1.3008-.2043-.5933-.4783-1.156-.8615-1.6528-.2629-.3393-.5337-.677-.8394-.9744-.2407-.2348-.5305-.4197-.814-.603a6.9363 6.9363 0 0 0-.8456-.4695c-.2455-.1141-.5084-.1961-.7697-.2669-.4149-.1109-.8299-.2347-1.2543-.291-.4054-.0546-.8219-.0563-1.2305-.037-.388.0193-.7792.0692-1.1577.156-.3341.0756-.6572.2074-.9787.3328-.2264.0885-.4513.1914-.6588.3168a5.5487 5.5487 0 0 0-.9708.7508c-.3531.3441-.6255.7397-.8726 1.1561-.171.2878-.3199.5901-.4751.8892-.0617.1189-.114.2427-.1932.4164l.0016.0048Zm-4.3139 7.1711s-.0206 0-.0285.0128c-.2059.2895-.4197.5757-.6097.8747-.0903.1431-.1948.3007-.1441.4936.0221.0853.0522.1673.0823.2493.1885.5241.3405 1.066.5781 1.566.3135.6657.7142 1.2879 1.2035 1.8362.3358.3762.7032.7284 1.0833 1.058.285.2476.6018.4646.9264.6576.4213.2492.8584.4743 1.3002.6833.2439.1158.51.1962.7728.2589.5337.1254 1.0674.2717 1.6106.3296.7396.0804 1.4871.0659 2.2283-.0531.4022-.0643.8108-.0916 1.2146-.1495.6113-.0868 1.1957-.2814 1.7817-.4743.5337-.1769 1.0341-.4229 1.5092-.7075.464-.2781.8916-.6206 1.3208-.955.4893-.3795.9138-.8297 1.2938-1.3217.3294-.4261.6557-.8554.8853-1.3522.2106-.4583.4704-.894.6683-1.3571.1916-.4469.3484-.91.4894-1.3763.1362-.4502.2645-.9084.3405-1.3715.1156-.7107.2074-1.4278.266-2.1465.0555-.6705.0364-1.3442-.0807-2.0098-.0159-.0949-.008-.1946-.0301-.2862-.1077-.4454-.2138-.8908-.3389-1.3297-.0871-.3071-.1727-.6207-.3089-.9069-.2074-.4357-.4466-.8569-.692-1.2734-.3009-.5097-.6699-.9695-1.0848-1.386-.3168-.3183-.662-.6077-1.0057-.8955-.2011-.1689-.4117-.3313-.6414-.4567-.3848-.2106-.7775-.4116-1.183-.5724-.5099-.201-1.0309-.3923-1.5615-.5241-.4307-.1062-.8852-.1544-1.3302-.1608-.5907-.0065-1.1815.0546-1.7722.0852-.418.0225-.7918.1753-1.156.373-.3865.209-.6858.521-.9772.8377-.1298.1415-.1995.3409-.3183.5499.0744-.0161.0998-.0177.1204-.0273.3927-.1833.7744-.3972 1.1798-.5435.3611-.1302.7427-.2331 1.1228-.2669.567-.0498 1.1276-.1527 1.7104-.0772.54.0708 1.0769.1415 1.6122.2492.4577.0933.8837.2621 1.3033.447.5417.2396 1.0516.5483 1.495.9519.3373.3071.6778.6174.974.9631.2312.2685.388.6013.597.8924.2977.4148.5163.8714.6953 1.3457.152.4052.285.8184.3943 1.2365.1188.4566.2375.9197.2882 1.3876.057.5274.0459 1.0644.0475 1.5966 0 .3007-.0047.6062-.0538.902-.0808.4791-.1885.9551-.3041 1.4278-.0823.3344-.1821.6672-.3072.9888-.1283.3296-.2882.648-.4498.9647-.1393.275-.2882.5451-.4545.804a8.0069 8.0069 0 0 1-.5432.7428c-.3341.4068-.6667.8168-1.0325 1.1946-.3643.3763-.7555.7316-1.1593 1.0644-.3341.275-.6905.5323-1.0674.7413-.4624.2556-.9581.4486-1.4364.6737-.5669.2669-1.1782.381-1.7864.447-.9359.1012-1.8782.1045-2.8094-.0788-.3737-.074-.7443-.1592-1.1101-.2621-.5828-.164-1.1244-.4261-1.6486-.7332-.5987-.3521-1.126-.7943-1.5869-1.3072-.7174-.7991-1.2384-1.7317-1.5963-2.7462-.2027-.574-.3231-1.1786-.4846-1.7815l-.0016.0032Zm-18.4925-7.0071c.4276 0 .795 0 1.1608-.0032.0348 0 .0776-.0273.1014-.0563.0918-.1157.1773-.2347.2644-.3537.4466-.6126.9724-1.1416 1.5742-1.6047.4783-.3698.9803-.6962 1.5362-.91.5384-.2074 1.099-.3971 1.666-.4759.9328-.1303 1.8719-.1383 2.7635.2942.4086.1978.7712.4373 1.1101.7444.5923.5371.9756 1.2027 1.2654 1.9359.0554.1383.1093.3039.0871.4438-.0839.5258-.3959.8795-.9755.8795H2.0096c.008.0402.0064.0627.016.0756.239.2942.4655.6029.7284.8762.1109.1158.1758.2959.4118.2959 8.1052-.0081 16.2104-.0064 24.3141-.0048.3594 0 .6667-.1238.9216-.3747.2328-.2299.3453-.5338.3437-.8473 0-.2524-.0887-.5097-.1599-.7573-.1172-.402-.2313-.8056-.3833-1.1947-.2265-.5804-.5432-1.1062-.9581-1.5757-.3912-.4437-.8235-.8168-1.3303-1.1255-.6398-.3875-1.3398-.5627-2.0524-.6704-.5686-.0853-1.1482-.0788-1.7278.0466-.5306.1141-1.0563.2315-1.5584.4373-.3072.1254-.6239.2332-.9137.3923-.795.4326-1.4918 1.005-2.1269 1.6497-.4054.4116-.776.8602-1.1497 1.3024-.1394.1656-.2423.3634-.3849.582l-.0047-.0016Zm69.0195-3.0067-.0396-.0531c-.6097.5499-1.2384 1.0789-1.8212 1.6561-.5559.5515-1.0801 1.1384-1.5884 1.7365-.6303.7397-1.2337 1.5034-1.845 2.2591-.2661.328-.5147.6705-.7839.9969-.3358.4068-.6905.7991-1.0262 1.2059-.4007.4855-.7855.984-1.1894 1.4679-.3737.447-.7538.8924-1.1497 1.3201-.5179.5595-1.0452 1.111-1.5884 1.6448-.4387.4293-.898.8377-1.3652 1.2333-.3721.3151-.7649.6045-1.1576.8907-.3453.2525-.7.492-1.0579.7252-.2534.164-.51.3248-.7792.4598-.4181.2074-.8409.4036-1.2717.5805-.4719.1929-.9454.4003-1.4364.5257-.5701.1463-1.156.2557-1.7404.2975-.7586.0547-1.5251.1045-2.2773-.0836-.3785-.0949-.7713-.1512-1.1339-.2878-.4166-.1576-.8267-.3522-1.2052-.5869-.3548-.2203-.6842-.4952-.9898-.783-.2708-.2541-.5226-.5403-.7364-.8474-.3168-.455-.605-.9261-.8235-1.4471-.2154-.5129-.453-1.0161-.5717-1.5628-.1283-.5933-.2487-1.1882-.3722-1.7831-.0016-.0081-.019-.0129-.0459-.0273-.2423.328-.51.6415-.719.992-.1045.1753-.1584.4261-.133.6303.076.5885.2502 1.1544.5242 1.6834.2676.5178.4956 1.066.8219 1.5436.3294.4823.7427.9084 1.1481 1.3329.3865.4052.8378.7316 1.3113 1.0355.7792.5016 1.6011.8762 2.4991 1.0901.5257.1238 1.0547.2299 1.5979.246.947.0305 1.8877-.0064 2.8094-.2524.3848-.103.7792-.1785 1.1561-.3023.3848-.127.757-.2927 1.1291-.4534.2994-.1303.6003-.2605.8806-.4261.4434-.2605.8773-.5403 1.3033-.8313.5321-.3634 1.0595-.7332 1.571-1.1239.3643-.2765.7174-.5708 1.0437-.8907.4466-.4342.8647-.8988 1.2938-1.3507.4735-.4984.9518-.992 1.419-1.4969.236-.2556.4498-.5322.6731-.8007.3895-.4679.7839-.9309 1.1671-1.4037.388-.4791.7586-.9727 1.1498-1.4502.3816-.4663.776-.923 1.1703-1.3796.5147-.5949 1.0357-1.1866 1.5536-1.7783.3515-.4003.6984-.8071 1.0626-1.1978.4292-.4615.8853-.8924 1.3873-1.2719.0792-.0595.1853-.1013.1805-.2588-.0174-.4744-.0063-.9487-.0063-1.423h.0016Zm20.9904 7.2483c-.054-.0853-.076-.1319-.108-.1689-.258-.3022-.521-.6013-.775-.9068-.072-.0884-.15-.1077-.256-.1077-1.191 0-2.38-.0032-3.571-.0049h-7.1616c-.8378 0-1.674-.0289-2.4864-.2669-.4355-.127-.8758-.2444-1.3049-.3923-.5876-.201-1.1434-.4791-1.636-.8634-.3294-.2573-.6303-.5579-.9264-.857-.2724-.2733-.502-.5804-.6319-.9567-.1235-.3585-.312-.6994-.3912-1.066-.0807-.3778-.0696-.7766-.0902-1.1673-.0333-.6255.2011-1.1737.5843-1.6288.4846-.5772 1.1276-.8988 1.8909-.9309.6129-.0273 1.2163.0225 1.8023.2203.3294.1109.6825.1736.9913.3264.491.2427.9661.5257 1.4269.8248.3247.2106.6351.4534.9201.7171.4846.4502.9344.9374 1.286 1.5098.1948.3151.4212.6126.5891.9422.2803.5547.2645.5627.8821.5627h.4434c-.0823-.1913-.1552-.328-.2011-.4743-.1837-.5756-.4624-1.1046-.7918-1.6014-.3152-.4743-.6572-.9342-1.0357-1.357-.2835-.3168-.6494-.5548-.9629-.8442-.4767-.4405-1.0357-.7525-1.6154-1.0065-.5859-.2589-1.2067-.4502-1.8259-.6174-.3912-.1061-.8077-.1254-1.2163-.1592-.5559-.045-1.107.0177-1.6233.2283-.3452.1399-.6968.3055-.9866.5354-.6445.5162-1.0753 1.2011-1.2194 2.026-.0776.4485-.1916.9004-.0697 1.3779.1014.3987.0919.8248.1711 1.23.057.2926.1441.5901.2803.8522.2438.4711.5352.9148.928 1.2798.3516.3248.6857.6705 1.0563.9712.2803.2283.6002.41.9154.5901.2929.1672.5938.3215.9058.447.293.1189.6002.2025.9075.2845.4196.111.8393.2637 1.2653.2927 1.2353.082 2.4721.1463 3.709.1543 3.2291.0209 6.4586.0065 9.6876.0065h.247l-.003-.0016Zm-46.8359-.1592c-.0697.0579-.1124.0836-.1425.119-.1917.2235-.3738.4566-.5733.6704-.3088.3313-.5036.7123-.5163 1.1673-.0063.2187.057.4374.0728.6577.0365.5097.1537 1.0017.2994 1.4888.0934.3136.1662.6384.2993.9342.2059.455.4387.902.6936 1.3313.2803.4727.6446.8843 1.0563 1.2461a5.2299 5.2299 0 0 0 1.4665.9149c.4783.1978.9708.3216 1.4697.4068.3658.0627.7459.0659 1.1164.0466.5464-.0289 1.0944-.0756 1.6344-.164.3706-.0611.7317-.1929 1.0911-.3119.3896-.1286.7824-.2541 1.153-.4261.4466-.2074.8789-.4518 1.3065-.701.4339-.2541.8773-.5001 1.2748-.8072.7095-.5483 1.3905-1.1319 2.0731-1.7156.3389-.2894.6683-.5965.9771-.9197.4355-.455.8536-.9277 1.2717-1.4004.4181-.4727.8314-.9503 1.2352-1.4358.5179-.6239 1.0199-1.2606 1.5362-1.8861.5416-.656 1.0943-1.3007 1.6375-1.9535.5575-.6689 1.1022-1.3506 1.6676-2.0131.3421-.4003.7-.7894 1.0738-1.1608.4513-.447.928-.8667 1.3888-1.3024.4735-.447.9708-.8586 1.5774-1.1094.0285-.0129.0506-.0515.0681-.082.1251-.2251.2359-.4567.3721-.6737.1125-.1785.2518-.3377.3975-.529-.1029.0338-.1726.0514-.2391.0772-.2581.1013-.529.1784-.7728.3103-.4577.2492-.9059.5193-1.3462.8007-.3357.2155-.6683.4422-.9723.6994-.3975.3345-.776.693-1.1434 1.0612a22.0332 22.0332 0 0 0-1.1181 1.1995c-.3912.4534-.757.9325-1.1355 1.3972-.3896.4808-.7855.9567-1.1719 1.439-.3437.4277-.6778.8635-1.0183 1.2928-.3579.4518-.7095.9068-1.0785 1.349-.5068.6061-1.0231 1.2026-1.5409 1.7992-.3896.4502-.7823.8972-1.183 1.3377-.3088.3409-.6287.6705-.9518.9985-.3041.3103-.605.6254-.9296.9116-.2582.2268-.5622.3988-.8219.6223-.5147.4405-1.1134.7348-1.7041 1.0403-.426.2203-.8852.3891-1.3445.5274-.6018.18-1.2131.3698-1.8323.4421-1.1608.1351-2.3169.0981-3.4492-.2798-.3944-.1318-.765-.2781-1.1165-.5064-.5353-.3473-.9122-.8345-1.2432-1.3635-.2344-.3746-.3833-.7943-.5511-1.2043-.2249-.5499-.3437-1.1223-.4229-1.6995-.0633-.4615-.0522-.9358-.0332-1.4037.0158-.4003.0871-.7975.1393-1.2477l.0032.0081Zm36.2122-4.0727c-.2486-.3827-.4656-.7268-.6921-1.0644-.4117-.6175-.9011-1.1674-1.4664-1.6433-.5005-.4212-1.0342-.7878-1.6439-1.0403-.5448-.2267-1.0975-.4068-1.6866-.4405-.5844-.0338-1.1577-.0209-1.6628.3585-.3738.2798-.5876.656-.6557 1.103-.0808.529.0317 1.0403.1806 1.5548.1266.4406.3452.8233.6097 1.1673.4165.5403.9628.9503 1.5805 1.2268.5511.246 1.1228.4599 1.7056.6142.5321.1415 1.088.201 1.6359.2702.3183.0402.6446.0402.9661.0418 3.5205.0032 7.0408.0016 10.5618.0016.031 0 .066.0096.093-.0016.068-.029.147-.0515.193-.1029.17-.193.327-.3972.49-.5949.147-.1785.297-.3538.478-.5676h-.258c-1.405.0064-2.811.0161-4.216.0193-2.3359.0064-4.6718.0096-7.0093.0128-.0443 0-.0887.0016-.133 0-.7364-.0337-1.4728-.0691-2.2092-.1029-.7238-.0321-1.4111-.2026-2.0699-.5113-.464-.217-.8441-.5322-1.1086-.9679-.1441-.2364-.2327-.5113-.3246-.7766-.1235-.3537-.1995-.7235-.1631-1.0982.0142-.1463.1061-.3087.2977-.3119.4909-.008.9771-.0209 1.4649.0917.5226.1205 1.0246.2717 1.5013.5257.4434.2348.8473.5226 1.2052.8683.3722.3601.7063.7573.9359 1.2332.0476.0981.1315.1592.2677.1527.3025-.016.6081-.0048.9122-.0048.0602 0 .1203-.008.2233-.0161l-.0032.0033Zm1.3746 5.1387c-.0396.1576-.0728.2991-.1108.4405-.0966.3634-.1647.7397-.2993 1.0886-.1996.5161-.4197 1.0274-.6794 1.5146-.255.4775-.5527.9358-.8647 1.3779-.2201.3119-.4846.5933-.7491.8683-.2613.2733-.54.5306-.8251.7782-.3215.2797-.662.537-.9882.8103-.4355.3666-.9201.6576-1.4253.9069-.4118.2042-.8504.3521-1.2717.537-.5749.2524-1.1893.3618-1.7975.4341-.8504.0997-1.7119.1222-2.5655-.0498-.4894-.0981-.9724-.1994-1.4396-.3891-.5922-.2396-1.1465-.5483-1.628-.9599-.388-.3329-.7237-.7316-1.0499-1.1304-.2249-.2749-.4007-.5916-.5797-.902-.1409-.2444-.2708-.5-.3721-.7637-.1489-.3827-.2661-.7798-.4039-1.1673-.1995-.5644-.2771-1.1545-.369-1.7413-.0221-.1383-.0522-.2766-.0886-.4663-.1394.1929-.2313.3569-.3564.4872-.4481.4727-.6287 1.0226-.4672 1.6609.0919.3618.2218.7171.3532 1.0676.0934.2476.2106.4872.3326.722.1108.2138.2344.4228.3642.6254.2233.3457.4229.7155.6921 1.021.3927.4438.8108.8731 1.2701 1.2445.4577.3714.9581.6994 1.476.9776.4434.2379.9359.3842 1.4126.5547.5875.2122 1.202.2942 1.8181.3489.7316.0643 1.4617.0354 2.187-.0933.3405-.0595.6889-.09 1.0183-.1913.4894-.1495.9613-.3537 1.4443-.5274.5274-.1897 1.0056-.4695 1.4823-.7621.5638-.3473 1.0991-.7316 1.5932-1.1737.5638-.5033 1.0864-1.0484 1.5393-1.6561.2898-.3892.5733-.7863.8315-1.1963.2011-.32.369-.664.5352-1.0065.1426-.2959.274-.5981.3833-.9085a36.7096 36.7096 0 0 0 .5464-1.6705c.0681-.2267.0823-.4679.1219-.7107h-1.0737.0031Zm-.9359-.0064c-.3579 0-.6604.0112-.9629-.0033-.1948-.0096-.255.0885-.2914.2573-.0522.2412-.0966.4904-.1932.7139-.2122.492-.4212.9888-.6921 1.4471-.3088.5241-.6477 1.0386-1.0388 1.5017-.4261.5049-.9312.9374-1.4665 1.3361-.5686.4229-1.1735.7686-1.8228 1.0226-.4894.1914-1.0183.2814-1.5299.4068-.1156.029-.2438.0016-.3579.0322-.5954.1592-1.1845.0273-1.761-.0788-.4545-.0836-.8964-.2749-1.324-.4663-.323-.1431-.6382-.3296-.9106-.5547-.3214-.2637-.6192-.5692-.8837-.8923-.2423-.2959-.4545-.6271-.6271-.9712-.1758-.3489-.2898-.73-.4244-1.0982-.1821-.4968-.2629-1.0161-.2977-1.5419-.0412-.6094-.0143-1.2156.0997-1.8153.0491-.2589.0998-.5177.1552-.8023-.0617.0273-.0981.0305-.1156.053-.2074.2509-.4196.5001-.6144.7606-.2344.3119-.453.6399-.5258 1.0354-.0618.328-.1299.6496-.0349.9969.1141.4132.1584.8441.2376 1.267.1014.5451.2676 1.0676.4909 1.5773.2471.566.5306 1.1062.9106 1.5918.4514.5772.9898 1.0548 1.6249 1.4053.3151.1736.662.3023 1.0088.4068.4212.127.852.2508 1.2875.2974.6636.0724 1.3303.0659 1.9986-.0514.4862-.0852.955-.2171 1.4285-.3505.5748-.1608 1.0959-.4358 1.609-.7188.5638-.3103 1.0848-.701 1.5615-1.1399.3753-.3457.7475-.6978 1.088-1.0773.3468-.3875.6683-.8023.9692-1.2268.2122-.3007.3785-.6367.5511-.9631.1552-.2926.3009-.5917.4339-.8956.0919-.2122.1663-.4325.2296-.656.0729-.254.1252-.5129.1948-.8055H95.82Zm-23.4763-6.4283c-.1093-.1366-.1933-.2765-.3089-.3826-.3199-.3007-.6413-.603-.985-.8747-.274-.2171-.5796-.3956-.8774-.5789-.2486-.1527-.4988-.3103-.7649-.4293-.2771-.1238-.578-.1913-.8599-.3071-.4577-.1897-.9423-.246-1.4237-.2894-.6113-.0546-1.2179.0129-1.8086.1865-.3468.1013-.7079.1721-1.0309.3264-.4799.23-.9344.5162-1.3953.7863-.6762.3971-1.2162.9647-1.7721 1.5082-.3183.3119-.6129.6495-.9122.9808-.35.3858-.7.7733-1.0389 1.1689-.4022.4695-.7902.9534-1.1925 1.4245-.4228.4953-.852.984-1.2796 1.4761-.3135.3617-.6271.7219-.9407 1.0837-.3294.381-.6572.7621-.985 1.1448-.3088.3617-.6208.7187-.9186 1.0901-.1219.1527-.2391.3216-.3088.5016-.2217.5756-.4196 1.1609-.6303 1.7414-.0586.1591-.1314.3135-.1979.4711.0475-.0081.0776-.029.0997-.0547.2962-.3537.5876-.7123.8901-1.0612.342-.3939.6984-.7734 1.0404-1.1673.4086-.4711.8061-.9535 1.2115-1.4278.2519-.2942.51-.582.7618-.8779.266-.3135.5226-.6335.7902-.9454.2249-.2621.4641-.5129.6905-.7734.5179-.5933 1.031-1.1914 1.5457-1.7863.3009-.3489.6065-.6946.9011-1.05.3959-.4775.8108-.9357 1.2859-1.3313.3532-.2926.7222-.5659 1.0959-.8312.1996-.1415.415-.2621.6351-.3682.3136-.1512.6414-.2669.9534-.4213.5226-.2573 1.0911-.3586 1.6517-.4341.7507-.1013 1.4998-.0434 2.2409.1688.4308.1238.8299.2958 1.221.5097.5559.3023 1.0326.693 1.4428 1.1753.0364.0418.1377.0644.1932.0467.1932-.0627.38-.1447.5685-.2219.1473-.0611.293-.1254.4038-.1737l.008-.0032Zm1.9447-.746c-.1853-.2139-.3516-.41-.521-.603-.3358-.381-.662-.7701-1.0136-1.1351-.4545-.4695-.985-.8409-1.5536-1.1577-.464-.2572-.9422-.4759-1.4379-.6705-.6256-.2476-1.2717-.373-1.9274-.4389-.7332-.074-1.468-.0627-2.2044.0547-.5701.09-1.1292.1977-1.674.3923-.5289.1881-1.0642.3601-1.5488.6544-.4276.2604-.8726.4936-1.2733.791-.5543.4117-1.0816.8619-1.5282 1.4005-.3817.4598-.7934.894-1.1814 1.349-.5084.5965-1.0025 1.2059-1.5061 1.804-.4387.521-.8837 1.0371-1.3271 1.5548-.35.4084-.6984.82-1.0532 1.2252-.2502.2846-.4196.5804-.3975.9888.0159.2991-.0633.6046-.095.9069-.0095.0997-.0016.201-.0016.3232.2392-.2637.4625-.4921.6668-.7364.4101-.4953.8061-1.0034 1.2178-1.497.3817-.4582.776-.9052 1.164-1.3586.3611-.4245.7174-.8538 1.0801-1.2783.2755-.3231.5574-.6399.833-.9631.4577-.5386.8995-1.0901 1.3699-1.6159a12.0245 12.0245 0 0 1 1.0119-1.0049 7.1682 7.1682 0 0 1 .9771-.7219c.4688-.2862.955-.5483 1.4491-.7895.2771-.1334.5875-.1945.8774-.3023.4941-.1849 1.0135-.2444 1.5282-.2862.7998-.0643 1.5821.0756 2.3597.2766.4434.1142.8694.2637 1.2748.4582.5163.2493 1.0152.5435 1.4998.8538.4766.3039.9201.6625 1.3144 1.0741.236.2476.4688.4984.6889.7348.3025-.0917.5939-.1817.936-.2862l-.0048.0032Zm-55.8814 1.968.0396.0563h8.1416c-.0063-.0547 0-.1045-.019-.1399-.1805-.3457-.3389-.7059-.5542-1.0274-.2344-.3522-.5448-.6464-.9043-.8731-.4086-.2589-.8505-.4341-1.3287-.4888-.7158-.0836-1.419-.0048-2.1047.2155-.3595.1157-.7238.2363-1.0579.4116-.4783.2508-.9344.5483-1.3224.9357-.3009.3007-.5939.6078-.89.9117v-.0016Zm74.5307.074.0443-.0676c-.2137-.2315-.4165-.4759-.6461-.6914-.3278-.3071-.6857-.574-1.107-.7412-.2439-.0964-.4798-.2203-.73-.2942-.2376-.0708-.4878-.1045-.7349-.1335-.1362-.016-.2344.1254-.1916.2509.0333.1013.0649.2058.1156.2974.3072.5499.7776.8827 1.3746 1.0355.2487.0643.4957.1286.7475.1736.3738.0659.7507.1158 1.1276.1721v-.0016Z"/>
</svg>
