<?xml version="1.0" standalone="no"?>
<!DOCTYPE svg PUBLIC "-//W3C//DTD SVG 20010904//EN"
 "http://www.w3.org/TR/2001/REC-SVG-20010904/DTD/svg10.dtd">
<svg version="1.0" xmlns="http://www.w3.org/2000/svg"
 width="1283.000000pt" height="1283.000000pt" viewBox="0 0 1283.000000 1283.000000"
 preserveAspectRatio="xMidYMid meet">
<metadata>
Created by potrace 1.14, written by Peter Selinger 2001-2017
</metadata>
<g transform="translate(0.000000,1283.000000) scale(0.100000,-0.100000)"
fill="#000000" stroke="none">
<path d="M4749 11889 c-15 -8 -22 -41 -19 -91 6 -114 6 -388 -1 -405 -5 -13
-4 -25 2 -28 5 -4 6 -12 2 -18 -5 -7 -9 -28 -10 -47 -3 -43 -12 -120 -16 -140
-2 -8 -7 -33 -12 -55 -4 -22 -10 -44 -14 -50 -3 -5 -6 -14 -8 -20 -2 -10 -6
-28 -17 -75 -3 -14 -8 -36 -10 -50 -6 -34 -36 -123 -47 -136 -5 -6 -10 -19
-12 -30 -2 -10 -10 -32 -17 -49 -7 -16 -14 -32 -14 -35 -1 -3 -27 -58 -59
-123 -31 -64 -57 -120 -56 -123 0 -4 -3 -10 -8 -13 -4 -3 -21 -31 -37 -61 -16
-30 -32 -57 -36 -60 -4 -3 -21 -30 -37 -60 -46 -87 -164 -270 -195 -304 -9
-10 -15 -23 -12 -28 3 -4 1 -8 -4 -8 -6 0 -25 -23 -43 -51 -18 -28 -37 -56
-44 -62 -6 -7 -28 -37 -48 -68 -21 -31 -48 -67 -60 -80 -13 -13 -45 -55 -72
-94 -53 -75 -62 -87 -85 -113 -26 -29 -64 -78 -85 -108 -22 -31 -111 -149
-131 -174 -7 -8 -28 -36 -46 -62 -109 -153 -143 -198 -150 -198 -4 0 -8 -5 -8
-10 0 -6 -17 -34 -37 -63 -96 -135 -175 -269 -232 -392 -69 -148 -86 -188
-108 -250 -25 -70 -80 -245 -88 -278 -2 -9 -6 -21 -9 -25 -2 -4 -7 -26 -11
-49 -3 -23 -12 -67 -20 -98 -9 -31 -13 -61 -9 -66 3 -5 0 -9 -5 -9 -6 0 -10
-3 -9 -7 1 -5 -2 -28 -7 -53 -20 -109 -30 -255 -28 -420 2 -152 1 -142 16
-230 6 -36 10 -68 9 -72 -1 -5 3 -8 9 -8 5 0 8 -4 5 -9 -3 -4 3 -16 13 -25 17
-16 19 -15 25 6 17 57 34 126 40 160 4 20 20 69 36 107 16 39 26 71 23 71 -3
0 0 7 7 15 7 8 9 15 4 15 -5 0 -4 4 2 8 12 7 56 89 60 109 1 7 17 38 35 70 19
32 34 60 34 63 0 3 17 31 38 63 20 31 37 61 37 66 0 5 7 11 15 15 8 3 15 12
15 21 0 8 4 15 8 15 7 0 29 48 28 61 -1 3 11 17 27 31 15 14 27 30 27 35 0 6
16 27 35 47 19 20 33 38 32 40 -4 5 48 76 56 76 4 0 7 4 7 10 0 5 12 22 28 38
34 36 75 84 127 147 22 27 68 79 102 115 34 36 79 85 100 110 21 24 71 79 111
120 39 42 72 82 72 89 0 7 5 9 10 6 6 -3 10 -2 10 4 0 6 26 37 58 69 31 32
100 104 152 161 52 57 125 135 163 173 37 39 67 71 67 73 0 1 17 20 38 41 42
44 87 96 118 136 12 15 24 24 28 21 5 -6 10 12 7 30 0 4 4 7 10 7 14 0 25 12
93 102 32 43 65 82 73 86 8 5 14 11 12 13 -4 6 32 61 56 85 11 11 21 27 23 35
2 7 11 22 20 31 23 23 43 47 42 50 -4 10 22 58 30 58 6 0 8 5 5 10 -3 6 -2 10
2 10 5 0 15 16 22 35 7 19 17 35 23 35 6 0 8 3 5 6 -4 4 4 28 18 53 58 110 97
216 120 321 1 8 8 35 15 60 7 25 14 55 15 67 2 11 6 29 9 40 12 38 8 518 -4
518 -2 0 -7 35 -13 87 -1 15 -6 30 -10 34 -4 4 -7 18 -7 31 0 13 -3 23 -7 23
-5 0 -8 14 -7 32 1 28 -30 126 -58 185 -6 12 -8 29 -4 38 3 9 0 18 -9 21 -8 4
-15 14 -15 23 0 10 -3 21 -7 25 -5 4 -9 11 -9 14 -7 35 -98 231 -112 242 -9 7
-56 91 -90 162 -15 32 -35 61 -45 64 -9 3 -23 16 -30 29 -9 18 -16 21 -28 14z"/>
<path d="M5339 11015 c-5 -19 -4 -33 4 -55 5 -14 10 -52 12 -85 1 -33 6 -71 9
-85 23 -93 33 -249 22 -355 -10 -105 -16 -161 -21 -195 -3 -19 -7 -55 -10 -80
-3 -25 -7 -56 -10 -70 -3 -14 -7 -34 -9 -45 -2 -11 -9 -31 -14 -45 -5 -14 -10
-27 -10 -30 -2 -18 -44 -135 -65 -180 -12 -25 -21 -47 -22 -50 0 -3 -13 -31
-28 -64 -15 -32 -27 -62 -27 -67 0 -5 -4 -9 -10 -9 -5 0 -10 -5 -10 -11 0 -6
-17 -41 -37 -77 -21 -37 -38 -71 -38 -75 0 -4 -7 -12 -15 -17 -8 -5 -10 -10
-5 -10 6 0 6 -3 0 -8 -6 -4 -26 -33 -45 -64 -19 -32 -38 -58 -42 -58 -4 0 -8
-5 -8 -11 0 -7 -16 -31 -35 -55 -19 -23 -35 -45 -35 -49 0 -6 -23 -38 -63 -85
-6 -8 -11 -16 -9 -17 1 -2 -6 -11 -15 -21 -10 -10 -29 -33 -43 -51 -14 -19
-49 -58 -78 -87 -29 -30 -51 -54 -48 -54 3 0 -6 -12 -19 -26 -14 -15 -25 -31
-25 -36 0 -5 -4 -6 -10 -3 -5 3 -10 2 -10 -4 0 -6 -27 -38 -59 -71 -32 -33
-58 -60 -57 -60 1 0 -168 -171 -376 -380 -208 -209 -378 -384 -378 -388 0 -4
-20 -27 -45 -51 -25 -24 -45 -48 -45 -52 0 -4 -20 -27 -44 -51 -59 -58 -224
-274 -225 -295 -1 -6 -5 -13 -9 -15 -15 -6 -155 -237 -157 -258 -1 -3 -6 -15
-13 -26 -6 -12 -8 -24 -5 -28 3 -3 1 -6 -5 -6 -7 0 -12 -6 -12 -12 0 -7 -7
-26 -16 -43 -15 -28 -18 -37 -28 -85 -3 -11 -8 -25 -11 -30 -3 -5 -8 -18 -10
-27 -2 -10 -9 -40 -15 -68 -24 -98 -34 -234 -20 -270 5 -12 9 -39 11 -61 1
-21 5 -43 8 -49 3 -5 6 -14 7 -20 5 -28 37 -131 44 -140 5 -5 9 -14 11 -20 1
-5 8 -24 16 -42 7 -18 13 -35 13 -39 0 -3 11 -20 25 -36 14 -17 35 -49 46 -71
12 -22 32 -51 45 -64 13 -13 24 -27 24 -31 0 -4 24 -31 53 -60 113 -114 133
-123 128 -57 -11 139 5 288 43 398 8 23 16 56 19 72 12 69 20 95 28 95 5 0 9
3 8 8 -2 13 13 52 20 52 6 0 10 16 13 57 1 7 5 10 8 8 4 -3 22 27 41 65 18 39
36 70 40 70 4 0 14 19 24 43 14 37 59 113 75 127 4 3 16 21 28 40 12 19 32 47
44 62 13 14 30 36 38 48 19 28 97 125 130 161 14 16 39 45 55 65 17 21 47 54
68 76 20 21 37 42 37 46 0 5 11 15 25 22 14 7 25 17 25 22 0 4 9 17 20 28 11
11 18 20 14 20 -3 0 7 11 22 25 15 14 32 25 37 25 6 0 8 2 5 5 -3 3 29 40 71
83 42 42 75 80 73 85 -1 4 2 7 7 7 5 0 30 20 54 45 25 25 44 45 41 45 -2 0 5
9 16 20 11 11 25 20 30 20 6 0 10 8 10 17 0 9 2 14 5 11 3 -3 32 22 63 55 70
74 116 120 173 174 24 23 62 62 84 88 22 26 70 79 108 118 37 40 67 75 67 80
0 4 5 5 10 2 6 -3 10 -1 10 4 0 6 8 19 18 29 38 40 62 73 62 84 0 6 3 9 6 6 8
-9 75 68 79 89 1 10 8 17 14 15 6 -1 11 2 11 6 0 5 9 20 21 33 11 13 29 34 39
46 10 12 16 24 13 27 -3 3 2 8 11 12 9 3 16 12 16 20 0 8 5 14 10 14 6 0 10 6
10 13 0 7 9 23 20 35 11 12 20 26 20 32 0 5 5 10 10 10 6 0 10 6 10 13 0 8 9
22 20 32 11 10 20 24 20 32 0 7 5 13 12 13 6 0 8 3 5 6 -4 4 2 19 12 33 26 37
101 185 101 199 0 7 4 12 8 12 4 0 8 10 9 22 1 11 6 24 11 27 11 7 40 97 48
148 3 21 9 43 12 48 6 10 7 13 16 50 2 11 5 20 6 20 8 0 24 147 25 217 0 32 4
58 8 58 5 0 5 5 1 11 -3 6 -8 28 -11 48 -7 65 -22 165 -27 191 -3 14 -8 36
-12 50 -3 14 -7 34 -8 45 -6 46 -57 214 -82 272 -8 17 -14 36 -14 42 0 6 -4
11 -10 11 -6 0 -9 3 -8 8 3 14 -16 67 -39 112 -33 63 -64 114 -72 120 -4 3
-13 24 -20 46 -7 23 -23 53 -36 67 -12 15 -30 44 -40 67 -10 22 -22 40 -27 40
-4 0 -8 6 -8 13 0 18 -59 87 -73 84 -7 -1 -11 4 -9 11 2 11 -6 18 -9 7z"/>
<path d="M6030 9750 c0 -5 -5 -9 -12 -7 -7 1 -13 -2 -13 -8 -1 -5 -5 -26 -8
-45 -4 -19 -9 -66 -12 -105 -2 -38 -10 -90 -16 -115 -6 -25 -12 -52 -13 -60
-2 -8 -11 -42 -21 -75 -10 -33 -19 -67 -20 -75 -3 -22 -53 -178 -76 -235 -11
-27 -21 -54 -22 -60 -1 -5 -8 -16 -14 -23 -7 -7 -13 -20 -13 -28 0 -16 -92
-194 -122 -236 -11 -16 -17 -28 -13 -28 3 0 1 -6 -5 -12 -6 -7 -45 -64 -87
-127 -81 -123 -202 -283 -240 -317 -13 -12 -23 -24 -23 -28 0 -8 -21 -31 -107
-121 -29 -30 -53 -58 -53 -63 0 -4 -16 -18 -34 -32 -19 -14 -42 -37 -50 -52
-9 -15 -25 -30 -36 -33 -11 -4 -19 -9 -17 -13 2 -4 -21 -30 -50 -58 -29 -28
-53 -49 -53 -46 0 4 -15 -8 -32 -26 -75 -73 -157 -149 -199 -186 -175 -153
-534 -504 -619 -605 -25 -29 -52 -61 -60 -70 -39 -43 -127 -159 -139 -183 -8
-16 -18 -28 -23 -28 -4 0 -8 -9 -8 -20 0 -11 -5 -20 -11 -20 -5 0 -7 -4 -4
-10 3 -5 1 -10 -4 -10 -6 0 -11 -4 -11 -10 0 -5 -13 -31 -28 -57 -32 -55 -69
-138 -76 -174 -3 -13 -16 -59 -28 -101 -18 -60 -23 -99 -22 -175 1 -54 4 -111
7 -128 4 -16 11 -52 16 -80 9 -48 21 -84 40 -115 10 -18 43 -81 85 -166 32
-63 84 -132 147 -196 21 -21 35 -38 32 -38 -7 0 22 -26 61 -55 14 -11 26 -25
26 -31 0 -6 6 -11 13 -11 6 0 18 -2 26 -4 11 -3 16 8 18 46 2 28 6 70 10 95 3
25 6 48 5 53 -1 4 3 7 10 7 6 0 9 3 5 6 -3 3 2 27 12 53 9 25 17 55 17 66 -1
11 1 22 4 25 3 3 23 41 45 85 21 44 42 82 45 85 4 3 18 25 30 50 13 25 33 59
46 76 13 17 24 36 24 41 0 6 7 16 15 23 9 7 14 15 11 17 -2 2 13 21 33 42 20
20 47 52 61 71 14 18 41 49 60 69 19 20 53 59 75 85 77 93 120 139 256 273 63
61 122 120 131 130 20 21 31 32 76 75 18 18 81 79 139 135 59 57 110 103 115
103 4 0 8 7 8 15 0 8 3 15 8 15 6 0 36 28 96 90 8 8 37 37 65 63 28 27 51 53
51 57 0 5 6 13 14 17 37 21 196 185 196 203 0 6 4 9 10 5 5 -3 17 7 27 22 24
37 61 72 67 65 3 -3 6 0 6 6 0 6 10 21 23 34 12 13 34 39 48 58 15 19 36 45
48 57 12 12 21 27 21 32 0 5 6 16 13 23 31 34 107 137 107 147 0 6 5 11 12 11
6 0 9 3 5 6 -3 3 5 24 18 45 14 21 26 44 27 50 2 7 11 21 21 31 9 10 17 24 17
31 0 8 9 22 20 32 11 10 20 22 20 27 0 15 39 96 49 102 5 3 8 19 7 35 -1 17 1
28 5 25 7 -4 17 34 18 66 0 27 6 55 12 60 4 3 12 28 18 55 6 28 14 59 16 70
23 90 22 290 -2 400 -2 11 -6 31 -8 45 -2 14 -11 57 -20 95 -9 39 -18 83 -20
98 -3 16 -15 53 -29 83 -14 30 -23 54 -21 54 2 0 -2 12 -10 27 -8 15 -12 30
-9 35 3 4 1 8 -3 8 -5 0 -24 33 -43 73 -19 39 -37 74 -40 77 -4 3 -17 29 -31
57 -13 29 -30 53 -37 53 -7 0 -11 4 -8 9 3 5 -1 14 -10 21 -8 7 -13 19 -10 27
3 7 1 13 -4 13 -5 0 -11 8 -15 18 -7 20 -55 58 -55 42z"/>
<path d="M7703 9226 c-16 -18 -27 -38 -25 -44 2 -7 -1 -12 -8 -12 -6 0 -8 -4
-5 -10 3 -5 0 -10 -7 -10 -9 0 -9 -3 2 -10 12 -8 12 -12 2 -18 -10 -7 -11 -26
-7 -73 3 -35 6 -72 6 -81 0 -10 5 -20 10 -23 5 -4 7 -11 4 -16 -4 -5 -3 -15 2
-21 4 -7 8 -17 9 -23 4 -27 57 -128 88 -168 19 -24 39 -55 46 -67 16 -29 56
-70 69 -70 5 0 13 -9 16 -20 3 -11 11 -20 17 -20 6 0 21 -11 34 -26 13 -14 24
-22 24 -19 0 3 19 -12 42 -35 23 -22 46 -40 51 -40 4 0 5 -5 2 -10 -4 -6 -2
-9 3 -8 5 2 28 -14 52 -34 23 -21 47 -38 51 -38 5 0 9 -4 9 -9 0 -4 42 -51 93
-104 50 -52 108 -114 127 -138 19 -23 41 -48 48 -55 6 -7 12 -15 12 -18 0 -6
24 -37 48 -62 7 -8 10 -14 5 -14 -4 0 -3 -4 2 -8 15 -10 49 -64 52 -82 1 -8 7
-16 13 -18 5 -2 8 -8 4 -13 -3 -5 0 -9 6 -9 6 0 9 -4 6 -9 -3 -4 1 -16 8 -27
8 -10 11 -25 8 -33 -3 -8 -1 -12 5 -8 5 3 10 -1 10 -9 0 -11 -5 -10 -22 6 -12
11 -24 18 -27 14 -9 -8 -48 33 -40 42 4 4 2 4 -4 1 -6 -3 -20 4 -31 16 -10 12
-48 47 -83 77 -35 30 -71 63 -82 73 -10 9 -18 15 -18 12 0 -3 -8 3 -18 13 -10
9 -40 36 -67 59 -28 23 -61 51 -75 63 -14 12 -37 29 -52 38 -16 9 -28 20 -28
24 0 4 -4 8 -10 8 -5 0 -18 8 -28 18 -10 9 -38 33 -61 52 -24 19 -58 47 -75
62 -17 15 -34 28 -37 28 -7 0 -213 204 -261 258 -14 17 -39 48 -53 71 -28 42
-64 71 -89 71 -32 0 -88 -41 -94 -70 -2 -8 -7 -17 -10 -20 -4 -3 -8 -12 -9
-20 -2 -16 -9 -46 -20 -82 -8 -30 -9 -175 0 -212 3 -16 11 -34 17 -40 5 -5 10
-17 10 -26 0 -9 9 -25 20 -35 11 -10 20 -22 20 -28 0 -5 10 -18 22 -28 11 -11
18 -19 14 -19 -9 0 4 -15 90 -105 40 -41 77 -75 83 -75 6 0 11 -4 11 -8 0 -14
42 -51 220 -195 8 -7 19 -15 25 -17 5 -3 19 -14 31 -25 44 -40 70 -62 117 -95
26 -18 47 -37 47 -42 0 -4 5 -8 11 -8 6 0 16 -6 24 -12 7 -7 26 -23 42 -35 15
-12 45 -38 67 -57 21 -20 42 -36 47 -36 5 0 9 -7 9 -16 0 -8 3 -14 8 -12 4 2
19 -9 34 -24 15 -15 25 -28 22 -28 -2 0 10 -13 26 -29 17 -15 30 -33 30 -40 0
-6 4 -11 8 -11 4 0 16 -15 27 -32 10 -18 24 -38 29 -45 22 -25 31 -39 45 -65
8 -16 18 -28 23 -28 4 0 8 -8 8 -17 0 -9 10 -28 23 -41 12 -14 16 -22 8 -17
-11 6 -10 2 2 -16 9 -13 17 -31 17 -41 0 -9 8 -22 18 -27 9 -6 14 -11 10 -11
-4 0 -3 -12 2 -26 7 -18 6 -31 -3 -44 -12 -17 -14 -16 -34 9 -12 14 -36 42
-53 62 -16 20 -30 39 -30 43 0 3 -15 21 -32 40 -38 40 -57 62 -81 96 -9 13
-17 21 -17 16 0 -4 -17 11 -39 33 -21 22 -41 37 -45 34 -3 -4 -6 0 -6 8 0 8
-18 26 -40 39 -22 14 -40 29 -40 33 0 10 -26 37 -35 37 -3 0 -11 5 -18 10 -7
6 -25 22 -42 36 -16 14 -56 46 -87 71 -32 25 -58 50 -58 55 0 5 -4 7 -9 4 -5
-4 -11 -3 -13 1 -1 5 -23 24 -48 43 -65 50 -77 60 -127 108 -24 23 -46 42 -49
42 -2 0 -36 32 -76 70 -40 39 -76 70 -81 70 -4 0 -5 5 -2 10 3 6 2 10 -3 10
-5 0 -26 16 -46 35 -21 19 -35 35 -32 35 3 0 -9 19 -27 43 -17 23 -39 54 -48
67 -14 22 -20 24 -45 15 -27 -10 -80 -73 -70 -83 3 -2 -1 -11 -9 -19 -13 -12
-21 -56 -16 -85 0 -5 -3 -8 -7 -8 -5 0 -8 -38 -8 -84 1 -46 4 -82 9 -79 4 2 7
-10 7 -26 0 -17 5 -31 11 -31 5 0 8 -4 5 -8 -3 -5 6 -25 20 -45 13 -20 24 -39
24 -42 -1 -21 1 -26 8 -21 5 3 15 -6 22 -19 7 -14 17 -25 22 -25 5 0 6 -4 3
-10 -3 -5 1 -10 9 -10 9 0 16 -7 16 -15 0 -8 5 -15 10 -15 6 0 10 -6 10 -14 0
-8 9 -18 20 -21 11 -3 20 -14 20 -22 0 -9 3 -14 6 -11 3 4 36 -24 73 -60 90
-89 150 -142 160 -142 5 0 14 -7 21 -15 7 -8 17 -12 24 -8 6 3 8 3 4 -2 -8 -9
15 -35 31 -35 6 0 11 -4 11 -10 0 -5 12 -16 28 -24 15 -8 39 -25 53 -37 15
-13 40 -34 56 -46 16 -12 45 -37 64 -55 19 -18 50 -44 68 -58 36 -28 43 -35
71 -69 11 -13 20 -21 20 -17 0 4 19 -14 41 -41 23 -26 54 -60 68 -75 14 -15
31 -33 36 -40 6 -7 20 -25 31 -40 12 -15 24 -24 28 -21 3 3 6 -1 6 -10 0 -8 3
-17 8 -19 10 -4 68 -121 64 -130 -1 -5 3 -8 9 -8 5 0 8 -4 4 -9 -3 -5 2 -16
11 -25 8 -9 12 -20 9 -26 -3 -6 0 -13 8 -16 16 -6 17 -28 2 -41 -4 -4 -5 -2
-1 5 4 7 2 12 -7 12 -8 0 -83 69 -168 153 -168 165 -257 247 -271 247 -5 0 -6
5 -3 10 3 6 -1 10 -9 10 -9 0 -16 5 -16 10 0 6 -5 10 -11 10 -6 0 -22 14 -36
30 -13 17 -31 30 -39 30 -8 0 -14 4 -14 8 0 5 -21 24 -47 42 -26 19 -72 58
-103 86 -30 29 -69 65 -87 82 -18 16 -29 32 -26 36 3 3 1 6 -5 6 -13 0 -172
157 -172 170 0 5 -6 15 -13 22 -7 7 -23 30 -36 51 -13 21 -26 35 -30 30 -3 -4
-13 -9 -21 -11 -21 -5 -50 -33 -50 -49 0 -7 -4 -13 -9 -13 -8 0 -21 -32 -28
-75 -9 -49 -3 -218 8 -232 1 -2 2 -6 3 -10 1 -5 10 -24 21 -43 11 -19 18 -39
16 -45 -1 -5 0 -7 4 -3 7 7 35 -14 35 -26 0 -7 33 -44 137 -155 35 -36 63 -69
63 -73 0 -5 5 -8 11 -8 6 0 33 -21 59 -47 64 -64 139 -130 173 -152 16 -10 28
-22 27 -25 0 -4 14 -19 33 -34 18 -15 41 -34 49 -42 9 -8 58 -53 108 -100 118
-108 260 -255 260 -268 0 -4 16 -25 35 -47 19 -22 37 -48 41 -57 3 -10 10 -18
15 -18 5 0 9 -5 9 -12 0 -6 11 -25 24 -42 13 -17 32 -50 43 -74 10 -23 22 -39
26 -36 4 4 7 0 7 -8 0 -8 8 -26 19 -39 10 -13 16 -30 14 -36 -3 -7 0 -13 7
-13 6 0 9 -4 6 -9 -4 -5 -1 -11 6 -13 6 -2 12 -11 13 -19 2 -7 11 -32 20 -54
10 -22 19 -43 20 -47 2 -5 4 -11 5 -15 1 -5 2 -11 1 -15 0 -5 4 -8 11 -8 6 0
8 -3 5 -7 -4 -3 5 -17 19 -30 24 -22 28 -23 48 -10 24 16 87 117 80 128 -2 4
0 10 6 14 10 6 41 72 37 79 -1 1 4 10 11 19 8 9 11 20 8 26 -3 5 1 12 10 15 9
4 14 9 11 12 -3 3 3 30 13 60 11 30 16 54 13 54 -3 0 -1 6 4 13 11 13 34 99
48 177 3 14 9 48 15 75 6 28 12 59 15 70 2 11 4 20 5 20 1 0 3 18 6 40 2 22 9
53 14 68 7 20 6 26 -2 21 -7 -4 -8 -3 -4 4 12 19 27 114 30 185 1 19 5 26 15
22 11 -4 11 -2 2 9 -9 11 -9 16 0 22 8 4 9 3 5 -4 -4 -7 -3 -12 3 -12 10 0 23
-69 25 -132 1 -21 3 -38 6 -38 9 0 5 -94 -4 -109 -7 -10 -5 -12 5 -6 12 8 12
6 0 -8 -7 -9 -9 -17 -4 -17 10 0 9 -93 -1 -109 -4 -5 -2 -12 4 -16 6 -4 7 -12
3 -18 -8 -13 -11 -25 -17 -82 -2 -22 -6 -47 -10 -55 -3 -8 -7 -26 -8 -40 -2
-14 -6 -27 -10 -30 -4 -3 -9 -19 -12 -35 -2 -17 -5 -31 -6 -32 -2 -2 -3 -6 -4
-10 -1 -5 -5 -14 -9 -20 -5 -7 -5 -17 -2 -23 3 -5 2 -10 -2 -10 -5 0 -10 -12
-11 -27 -1 -15 -6 -29 -11 -32 -4 -3 -8 -13 -9 -21 -2 -26 -16 -71 -33 -103
-5 -10 -7 -22 -4 -27 4 -6 2 -10 -3 -10 -10 0 -36 -58 -33 -72 0 -5 -3 -8 -7
-8 -5 0 -16 -18 -26 -40 -10 -22 -22 -40 -27 -40 -5 0 -9 -4 -9 -9 0 -18 -83
-137 -122 -173 -22 -21 -36 -38 -31 -38 18 0 -111 -69 -139 -74 -13 -3 -23 -5
-23 -6 0 -4 -45 -10 -102 -14 -37 -2 -63 0 -63 5 0 6 -8 5 -20 -1 -12 -7 -20
-7 -20 -1 0 5 -9 8 -20 6 -11 -2 -24 3 -29 13 -5 9 -13 16 -18 15 -4 0 -24 5
-43 13 -19 8 -36 15 -37 15 -10 -3 -163 153 -169 171 -3 10 -10 16 -15 13 -5
-4 -9 1 -9 9 0 9 -4 16 -8 16 -4 0 -15 12 -24 28 -14 24 -27 40 -67 88 -5 7
-7 15 -4 18 4 3 1 6 -5 6 -7 0 -12 5 -12 12 0 12 -79 121 -92 126 -5 2 -8 10
-8 17 0 8 -11 22 -25 33 -13 11 -21 22 -18 26 3 3 -1 6 -10 6 -10 0 -17 4 -17
9 0 14 -57 71 -64 64 -3 -3 -6 1 -6 11 0 9 -4 15 -8 12 -5 -3 -19 5 -33 18
-25 23 -58 40 -71 38 -5 -1 -8 3 -8 10 0 6 -3 8 -7 5 -3 -4 -11 -2 -18 3 -6 5
-22 12 -36 14 -13 3 -24 5 -24 6 0 1 -16 4 -35 7 -19 2 -37 9 -38 14 -2 5 -9
6 -15 2 -7 -4 -34 -8 -61 -10 -28 -2 -54 -7 -59 -12 -5 -5 -15 -7 -22 -4 -7 2
-27 -3 -44 -11 -17 -9 -34 -17 -38 -17 -18 -1 -130 -69 -149 -92 -19 -22 -20
-27 -8 -56 7 -17 20 -31 29 -31 17 0 145 -125 145 -141 0 -6 5 -7 10 -4 9 6
14 -8 11 -28 -1 -4 10 -12 24 -19 13 -6 22 -14 19 -19 -2 -4 4 -16 14 -26 11
-10 39 -47 63 -83 24 -36 47 -66 51 -68 5 -2 8 -11 8 -19 0 -9 8 -23 18 -32
10 -9 25 -30 32 -48 8 -17 18 -29 22 -27 4 3 8 -1 8 -9 0 -7 8 -22 18 -33 18
-21 37 -51 60 -96 7 -16 17 -28 22 -28 4 0 10 -10 14 -23 3 -12 15 -32 26 -45
11 -12 18 -22 16 -22 -5 0 7 -19 57 -93 6 -10 11 -23 10 -28 -2 -5 2 -9 7 -9
6 0 10 -7 10 -15 0 -8 5 -15 11 -15 5 0 17 -16 25 -35 8 -19 19 -35 24 -35 5
0 12 -11 16 -25 3 -14 10 -25 15 -25 5 0 9 -7 9 -15 0 -8 3 -15 8 -15 6 0 41
-53 42 -65 0 -3 8 -13 18 -23 32 -35 52 -62 44 -62 -4 0 1 -5 11 -11 9 -5 17
-15 17 -22 0 -7 12 -26 28 -42 46 -52 92 -113 92 -124 0 -6 5 -11 10 -11 6 0
10 -9 10 -19 0 -28 -39 -19 -106 24 -30 19 -59 35 -65 35 -17 0 -94 42 -102
57 -5 7 -12 11 -17 8 -5 -3 -11 -1 -15 5 -3 5 -15 10 -26 10 -10 0 -19 4 -19
9 0 5 -12 12 -27 16 -16 3 -35 12 -43 19 -8 7 -30 19 -47 27 -18 8 -33 17 -33
20 0 4 -10 9 -22 13 -13 3 -46 21 -75 40 -28 19 -71 45 -95 57 -24 13 -45 27
-48 30 -3 3 -20 12 -37 20 -18 8 -33 16 -33 19 0 3 -16 14 -35 24 -19 11 -35
23 -35 28 0 5 -4 6 -10 3 -5 -3 -10 -2 -10 4 0 5 -31 42 -70 82 -38 40 -72 81
-76 91 -3 10 -12 18 -20 18 -8 0 -13 3 -11 8 2 8 -6 12 -26 12 -12 0 -57 -64
-47 -66 3 0 -2 -9 -10 -18 -8 -10 -16 -27 -17 -39 -2 -12 -7 -24 -12 -27 -5
-3 -18 -43 -29 -90 -31 -123 -22 -242 20 -302 11 -16 16 -28 12 -28 -4 0 1 -9
11 -20 10 -11 15 -20 11 -20 -8 0 133 -139 168 -165 15 -11 33 -25 39 -30 22
-19 148 -95 158 -95 5 0 9 -4 9 -10 0 -5 4 -10 9 -10 5 0 33 -16 62 -35 30
-19 59 -35 66 -35 7 0 13 -4 13 -9 0 -5 21 -22 47 -37 60 -35 168 -147 212
-218 37 -62 44 -95 44 -211 0 -137 -18 -184 -111 -283 -31 -34 -62 -67 -68
-74 -30 -34 -147 -118 -164 -118 -5 0 -10 -4 -10 -10 0 -5 -6 -10 -14 -10 -8
0 -21 -6 -28 -13 -7 -7 -42 -25 -78 -41 -36 -15 -80 -34 -98 -43 -18 -8 -42
-16 -53 -18 -12 -2 -26 -8 -33 -13 -15 -11 -69 -28 -138 -44 -32 -7 -58 -15
-58 -18 0 -3 -12 -6 -28 -7 -29 -3 -67 -10 -67 -13 0 -1 -11 -3 -25 -4 -14 -2
-47 -6 -75 -11 -27 -4 -61 -9 -75 -11 -42 -7 -154 -15 -175 -14 -11 1 -24 1
-30 1 -84 -6 -112 -6 -121 1 -6 4 -19 9 -30 11 -37 7 -53 19 -47 33 3 8 8 12
11 10 3 -3 10 -2 16 3 6 5 50 11 98 14 48 3 91 8 96 11 10 6 38 12 132 27 118
19 143 25 169 39 12 6 21 8 21 5 0 -3 17 2 38 11 20 8 47 18 58 20 53 10 161
48 184 64 14 10 27 18 30 18 6 0 44 15 80 31 38 17 86 45 124 75 19 14 38 26
43 26 13 0 47 43 50 62 2 12 -6 20 -22 24 -14 3 -25 10 -25 15 0 5 -8 9 -18 9
-10 0 -45 13 -78 29 -60 29 -136 56 -143 52 -2 -2 -7 1 -10 6 -3 5 -40 26 -81
47 -96 47 -134 69 -138 79 -2 4 -9 7 -16 7 -7 0 -21 8 -32 19 -11 10 -30 22
-42 25 -12 4 -22 11 -22 16 0 4 -19 22 -42 39 -59 43 -123 97 -181 154 -28 26
-51 47 -51 47 -1 0 -106 104 -234 230 -127 127 -236 230 -242 230 -6 0 -8 5
-5 10 3 6 -1 10 -10 10 -9 0 -13 5 -10 10 4 6 3 10 -2 9 -18 -3 -36 1 -30 8 4
3 -9 17 -28 30 -19 13 -35 29 -35 35 0 6 -3 8 -6 5 -4 -4 -28 9 -54 28 -26 19
-53 35 -59 35 -6 0 -11 4 -11 10 0 5 -18 15 -40 21 -22 7 -40 15 -40 18 0 4
-14 8 -31 9 -17 1 -40 7 -50 13 -14 7 -19 6 -19 -2 0 -7 -7 -8 -17 -4 -29 11
-38 11 -36 0 0 -5 -19 -11 -43 -11 -24 -1 -52 -8 -61 -15 -15 -12 -16 -12 -8
1 4 8 -2 5 -14 -8 -12 -12 -26 -20 -30 -17 -9 5 -35 -22 -44 -46 -5 -16 24
-49 44 -49 5 0 7 -4 4 -10 -3 -5 0 -10 8 -10 8 0 25 -11 39 -24 14 -12 42 -33
61 -45 19 -12 38 -28 41 -36 3 -8 10 -15 17 -15 6 0 20 -11 31 -25 11 -14 23
-23 26 -21 4 2 21 -14 37 -35 17 -21 33 -38 37 -39 11 0 88 -78 88 -89 0 -5 9
-13 20 -16 11 -3 20 -10 20 -14 0 -4 26 -35 58 -67 47 -49 141 -155 162 -183
3 -3 17 -14 33 -24 15 -10 27 -24 27 -32 0 -8 3 -15 8 -15 4 0 40 -32 80 -70
40 -39 75 -70 78 -70 3 0 16 -10 29 -22 49 -47 77 -68 91 -68 8 0 14 -4 14
-10 0 -5 18 -19 40 -30 22 -11 40 -24 40 -29 0 -4 11 -14 25 -21 28 -15 33
-40 8 -40 -22 0 -86 23 -94 33 -3 4 -10 7 -15 5 -14 -4 -264 122 -264 133 0 5
-5 9 -11 9 -11 0 -146 104 -165 126 -6 8 -13 14 -16 14 -21 0 -245 225 -345
346 -23 28 -84 94 -135 147 -51 53 -104 108 -118 124 -14 15 -50 49 -80 75
-30 27 -64 56 -75 65 -42 37 -175 118 -175 108 0 -4 -7 -2 -15 5 -19 16 -152
21 -207 8 -62 -14 -60 -14 -91 -26 -16 -7 -33 -12 -39 -12 -6 0 -23 -14 -38
-32 -24 -27 -26 -35 -18 -60 6 -15 14 -26 18 -23 5 3 10 1 12 -4 4 -12 137
-111 149 -111 5 0 9 -6 9 -13 0 -7 12 -20 28 -29 27 -16 106 -84 143 -123 63
-67 122 -131 182 -196 241 -264 353 -380 362 -371 3 3 5 0 5 -6 0 -6 11 -21
24 -34 76 -74 126 -118 135 -118 6 0 11 -4 11 -10 0 -5 6 -10 13 -10 8 0 22
-9 32 -20 10 -11 27 -22 38 -26 44 -14 177 -123 177 -145 0 -8 -15 -13 -33
-10 -4 1 -15 3 -25 4 -31 5 -137 41 -142 47 -3 4 -23 13 -45 20 -22 7 -51 21
-65 30 -14 9 -47 31 -73 48 -26 18 -52 32 -57 32 -6 0 -10 4 -10 8 0 4 -19 17
-42 29 -46 22 -94 61 -197 161 -36 34 -69 62 -73 62 -5 0 -8 6 -8 14 0 7 -11
21 -24 29 -31 21 -76 62 -76 71 0 4 -19 26 -42 50 -24 23 -68 71 -98 106 -112
129 -219 242 -260 275 -14 11 -40 37 -57 58 -18 21 -33 35 -33 32 0 -3 -13 10
-30 28 -16 19 -43 40 -60 47 -16 7 -30 16 -30 21 0 5 -5 9 -11 9 -6 0 -23 8
-37 19 -36 24 -73 33 -160 36 -73 3 -136 -13 -202 -52 -14 -8 -33 -17 -42 -20
-10 -3 -18 -9 -18 -14 0 -5 -7 -9 -15 -9 -8 0 -15 -6 -15 -14 0 -8 -5 -16 -12
-18 -30 -10 18 -67 135 -160 109 -87 204 -168 232 -199 6 -5 34 -35 63 -65 29
-30 50 -54 46 -54 -3 0 11 -17 32 -39 54 -53 134 -142 134 -147 0 -3 6 -11 13
-18 6 -7 41 -46 77 -85 109 -122 191 -201 332 -322 41 -34 51 -75 21 -81 -16
-4 -109 39 -167 77 -12 8 -26 12 -29 8 -4 -3 -7 -2 -7 4 0 5 -20 20 -45 33
-24 12 -53 31 -63 40 -10 10 -33 25 -50 34 -17 9 -42 27 -56 41 -14 14 -28 25
-31 25 -4 0 -12 6 -20 13 -32 29 -94 79 -99 78 -9 -1 -296 290 -296 300 0 5
-3 9 -7 9 -5 0 -17 13 -27 29 -11 16 -34 37 -50 47 -17 9 -33 20 -36 24 -10
12 -148 108 -178 124 -17 9 -39 16 -50 16 -10 0 -23 5 -30 12 -7 7 -52 12
-124 12 -99 1 -119 -2 -163 -23 -27 -13 -55 -31 -62 -40 -15 -19 -17 -51 -3
-51 6 0 10 -7 10 -15 0 -8 3 -15 8 -15 4 0 33 -24 65 -54 31 -29 57 -51 57
-49 0 2 46 -40 102 -94 142 -138 164 -160 239 -238 109 -116 422 -417 488
-470 35 -27 69 -56 76 -62 8 -7 18 -13 23 -13 6 0 13 -7 16 -16 3 -8 10 -13
15 -10 5 4 11 2 13 -3 3 -9 65 -58 125 -99 95 -65 125 -84 173 -109 30 -15 57
-31 60 -34 8 -11 307 -160 328 -164 11 -2 28 -8 38 -13 11 -6 48 -20 84 -32
90 -30 90 -30 93 -28 1 1 12 -4 24 -10 12 -7 39 -15 60 -18 50 -8 53 -9 86
-22 15 -7 42 -14 60 -17 18 -3 39 -8 47 -10 23 -6 72 -16 100 -19 14 -2 39 -6
56 -10 17 -4 53 -9 80 -12 75 -6 126 -13 154 -19 22 -5 52 -8 195 -20 59 -5
246 -18 273 -19 12 -1 22 -3 22 -6 0 -3 21 -5 48 -6 58 -1 255 -13 337 -20 33
-2 86 -7 117 -9 32 -2 62 -7 68 -10 5 -3 10 -1 10 5 0 6 4 9 9 6 5 -3 24 -8
42 -10 19 -3 57 -8 84 -12 28 -4 59 -8 70 -9 11 -2 38 -5 60 -9 22 -3 58 -8
80 -11 22 -3 72 -12 110 -21 39 -9 83 -17 98 -19 27 -4 68 -16 128 -37 14 -5
30 -8 35 -6 5 1 19 -3 32 -10 12 -7 22 -10 22 -8 0 3 21 -5 48 -18 26 -13 64
-30 85 -37 20 -7 37 -17 37 -21 0 -4 7 -8 15 -8 9 0 28 -8 43 -18 41 -27 64
-40 97 -56 17 -8 48 -30 69 -50 21 -19 42 -33 46 -31 4 2 13 -7 20 -20 7 -14
16 -25 19 -25 15 0 96 -86 161 -170 19 -25 37 -47 41 -50 16 -12 108 -188 109
-207 0 -7 5 -13 10 -13 6 0 10 -9 10 -19 0 -11 5 -23 10 -26 6 -3 10 -13 10
-21 0 -8 9 -36 21 -62 12 -26 25 -56 29 -67 36 -88 45 -105 53 -105 5 0 4 -7
-3 -15 -10 -12 -10 -15 4 -15 9 0 16 -7 16 -16 0 -10 17 5 40 34 22 27 40 55
40 61 0 6 4 11 9 11 9 0 62 80 61 93 0 4 6 15 15 23 8 9 13 19 10 23 -2 5 3
17 13 27 9 11 23 31 31 45 16 27 114 221 116 229 1 5 12 29 50 115 12 28 33
79 45 115 13 36 28 71 33 78 5 7 7 15 4 19 -4 3 -1 15 5 27 7 11 13 26 15 31
1 6 7 30 13 55 6 24 16 50 22 57 6 7 8 13 5 13 -2 0 2 30 9 66 8 36 12 70 9
74 -3 5 -1 11 4 14 7 5 21 77 27 141 1 11 2 22 4 25 1 3 4 30 6 60 2 30 5 66
7 80 1 14 -2 31 -7 37 -5 8 -4 13 2 13 6 0 9 8 7 18 -2 9 -4 17 -5 17 -1 0 -3
34 -5 75 -3 68 -7 99 -20 180 -7 43 -14 70 -19 78 -2 4 -7 27 -11 50 -6 40
-44 152 -64 189 -6 10 -22 43 -36 73 -41 84 -117 209 -150 246 -57 63 -70 79
-67 87 1 4 -3 7 -8 7 -6 0 -10 9 -10 20 0 11 5 20 10 20 6 0 10 -3 10 -7 0 -5
16 -9 36 -10 21 -1 44 -5 53 -9 9 -4 27 -9 40 -11 14 -2 32 -8 41 -13 10 -5
32 -12 51 -15 19 -3 50 -10 69 -14 19 -4 54 -7 78 -6 23 0 42 -4 42 -10 0 -7
3 -7 8 0 4 6 32 11 62 11 101 2 190 9 190 14 0 3 8 6 18 7 50 3 110 10 118 15
5 3 23 9 39 13 17 5 35 9 40 11 6 2 24 6 40 9 56 13 60 13 63 15 1 2 5 3 10 5
4 1 14 4 22 7 8 4 51 19 95 34 44 15 83 32 86 37 3 5 8 8 10 7 2 -1 17 3 32 9
16 6 33 11 38 11 5 0 9 4 9 8 0 5 7 9 15 10 8 1 22 3 30 4 8 1 15 5 15 9 0 6
29 20 50 24 13 2 76 39 81 47 3 5 8 9 10 9 14 -2 49 13 49 21 0 5 4 7 9 4 5
-3 14 1 21 9 7 8 16 13 20 10 5 -3 15 1 23 9 8 8 17 12 21 9 3 -4 6 -2 6 4 0
6 8 13 18 17 9 3 24 9 32 14 8 5 24 14 35 20 11 7 30 16 43 22 12 5 22 14 22
20 0 6 4 9 8 6 5 -3 18 3 29 14 12 10 24 16 27 13 3 -4 6 -1 6 5 0 7 6 12 14
12 8 0 17 7 20 16 4 9 9 14 13 11 3 -4 12 1 20 11 10 11 12 12 8 2 -4 -10 -2
-9 8 3 8 9 18 17 22 17 4 0 20 12 34 28 15 15 30 28 34 29 29 8 65 39 64 55
-1 17 -68 58 -95 58 -7 0 -12 4 -12 10 0 5 -3 9 -7 8 -12 -4 -106 24 -120 35
-7 5 -13 7 -13 3 0 -3 -15 0 -34 8 -19 8 -36 12 -39 10 -2 -3 -17 1 -33 7 -16
7 -32 12 -36 11 -5 -1 -8 3 -8 9 0 5 -4 8 -9 5 -5 -3 -29 5 -55 19 -25 13 -46
22 -46 19 0 -3 -13 4 -29 15 -15 11 -31 18 -35 14 -3 -3 -6 -1 -6 5 0 6 -10
14 -22 18 -13 3 -44 22 -69 40 -26 19 -50 34 -53 34 -4 0 -18 10 -31 23 -13
12 -39 37 -59 56 -20 19 -36 38 -36 42 0 5 -7 9 -15 9 -8 0 -14 3 -12 8 1 4
-7 16 -18 28 -36 37 -65 74 -65 82 0 5 -13 21 -30 37 -16 16 -30 32 -30 35 0
4 -18 39 -39 79 -22 39 -36 71 -33 71 4 0 -2 7 -12 15 -11 8 -16 15 -12 15 4
0 0 12 -8 28 -13 25 -20 43 -26 67 -1 6 -7 19 -13 30 -6 11 -12 23 -13 28 -1
4 -3 9 -4 12 -1 3 -3 8 -5 13 -1 4 -5 15 -9 24 -4 9 -9 23 -10 32 -1 8 -5 19
-9 22 -4 4 -7 18 -7 30 0 13 -5 26 -10 29 -6 4 -8 10 -5 15 3 4 -2 26 -10 49
-8 23 -12 41 -9 41 2 0 0 9 -6 20 -6 10 -12 32 -14 47 -3 15 -8 42 -11 58 -4
17 -8 37 -10 45 -2 8 -4 17 -5 20 -1 3 -2 9 -1 14 1 5 -1 16 -5 25 -4 9 -8 30
-9 46 -2 17 -4 30 -5 30 -1 0 -3 14 -5 30 -1 17 -3 30 -4 30 -4 0 -18 89 -27
175 -1 14 -3 25 -4 25 -1 0 -3 16 -5 35 -2 19 -4 35 -5 35 -1 0 -4 18 -5 40
-2 22 -4 40 -5 40 -2 0 -8 33 -16 90 -3 28 -8 53 -11 58 -2 4 2 7 9 7 8 0 9 3
3 8 -6 4 -10 14 -10 22 1 8 -3 21 -8 28 -6 8 -5 12 4 12 9 0 10 3 4 8 -6 4
-12 32 -14 62 -4 67 -8 105 -11 105 -1 0 -3 14 -5 30 -4 45 -15 126 -21 160
-3 17 -7 46 -9 65 -1 19 -3 35 -5 35 -1 0 -6 23 -13 75 -2 8 -6 21 -10 28 -5
6 -6 12 -4 12 2 0 0 19 -5 43 -4 23 -10 56 -13 74 -2 18 -9 41 -15 53 -6 11
-9 20 -6 20 3 0 -1 19 -8 43 -7 23 -12 52 -11 64 1 12 -2 20 -6 17 -7 -4 -19
34 -24 76 -1 8 -7 26 -12 40 -6 14 -23 63 -39 110 -16 47 -32 87 -36 88 -5 2
-8 12 -8 22 0 10 -4 22 -10 25 -5 3 -10 15 -10 26 0 10 -5 19 -11 19 -6 0 -9
7 -5 15 3 8 2 15 -3 15 -8 0 -61 109 -61 127 0 6 -3 13 -7 15 -8 3 -43 74 -42
84 0 3 -8 13 -18 22 -10 9 -19 24 -21 32 -2 8 -10 22 -18 31 -8 8 -14 23 -14
33 0 9 -4 14 -10 11 -5 -3 -10 -1 -10 5 0 15 -102 170 -112 170 -5 0 -8 6 -8
13 0 6 -14 28 -30 47 -49 57 -50 59 -50 65 0 3 -8 14 -17 24 -10 10 -43 47
-73 81 -30 34 -65 73 -78 86 -13 13 -19 24 -15 24 4 0 -5 9 -22 20 -16 11 -27
20 -23 20 3 0 -8 15 -25 33 -18 18 -34 32 -37 31 -3 -1 -21 18 -40 42 -19 23
-38 43 -42 43 -4 1 -34 27 -67 59 -95 91 -140 133 -145 133 -2 0 -32 27 -66
60 -34 32 -63 59 -65 59 -2 0 -17 12 -33 28 -16 15 -57 52 -91 82 -62 54 -211
200 -242 236 -9 11 -36 38 -60 60 -56 51 -85 53 -126 10z m927 -2370 c0 -3 -4
-8 -10 -11 -5 -3 -10 -1 -10 4 0 6 5 11 10 11 6 0 10 -2 10 -4z"/>
<path d="M6492 8021 c-8 -4 -13 -12 -13 -17 1 -17 -10 -44 -20 -44 -5 0 -9 -7
-9 -15 0 -17 -10 -37 -56 -110 -52 -82 -84 -143 -84 -159 0 -8 9 -35 20 -61
11 -25 21 -60 22 -78 1 -18 5 -36 9 -42 4 -5 10 -32 13 -59 4 -27 9 -52 11
-55 12 -20 18 -108 17 -256 -1 -196 -2 -212 -28 -317 -1 -5 -2 -9 -4 -10 -1
-2 -3 -10 -5 -19 -3 -17 -33 -124 -40 -147 -3 -7 -4 -15 -4 -18 0 -4 -3 -10
-8 -13 -4 -3 -21 -32 -38 -63 -16 -32 -33 -58 -38 -58 -4 0 -5 -4 -2 -10 3 -5
1 -10 -4 -10 -6 0 -11 -4 -11 -9 0 -21 -87 -159 -124 -196 -22 -22 -39 -41
-38 -42 7 -10 -1 -23 -18 -28 -11 -3 -20 -12 -20 -20 0 -7 -4 -15 -9 -17 -8
-3 -110 -89 -143 -120 -10 -10 -18 -15 -18 -12 0 3 -19 -10 -42 -29 -51 -41
-291 -166 -350 -182 -5 -2 -9 -3 -10 -5 -2 -1 -10 -3 -18 -5 -8 -2 -33 -9 -55
-15 -22 -6 -53 -13 -68 -15 -16 -3 -34 -8 -40 -12 -16 -10 -64 -12 -261 -13
-92 0 -173 3 -179 7 -6 4 -31 6 -54 6 -27 -1 -41 3 -37 9 4 7 0 7 -12 0 -20
-10 -47 -5 -40 6 4 6 -22 7 -101 3 -34 -2 -99 -76 -140 -160 -20 -42 -38 -80
-39 -86 -2 -5 -16 -45 -33 -88 -17 -43 -31 -85 -31 -93 0 -8 -5 -14 -11 -14
-5 0 -7 -5 -4 -10 4 -6 1 -18 -6 -26 -19 -24 -15 -102 7 -118 10 -8 22 -12 26
-10 5 3 14 2 21 -3 6 -4 14 -8 17 -9 27 -5 70 -17 90 -26 14 -6 39 -12 55 -15
17 -3 45 -11 63 -19 23 -9 40 -10 59 -3 14 5 23 12 20 16 -4 3 3 19 14 34 11
16 17 29 14 29 -4 0 1 7 9 16 9 8 16 22 16 30 0 8 4 14 8 14 5 0 14 12 21 28
27 60 56 92 92 102 19 5 96 8 169 6 l134 -4 29 -34 c40 -48 42 -50 57 -85 8
-18 18 -33 22 -33 5 0 8 -6 8 -12 0 -24 44 -97 65 -106 13 -6 43 -4 85 5 36 8
74 16 85 17 11 2 20 4 20 5 0 2 8 4 17 6 35 7 124 37 156 53 28 15 38 34 33
65 0 4 4 7 10 7 5 0 7 5 4 10 -11 18 -14 204 -4 236 6 21 20 36 39 44 17 7 30
16 30 20 0 5 61 36 90 44 6 2 62 32 107 57 36 21 73 25 73 9 0 -5 6 -10 13
-10 7 0 23 -9 35 -20 12 -11 24 -20 26 -20 5 0 18 -10 69 -53 59 -50 68 -50
138 4 35 27 72 60 81 72 10 12 18 19 18 15 0 -4 28 21 63 55 34 34 61 65 59
70 -2 4 1 7 6 7 13 0 26 51 15 59 -4 3 -16 22 -25 41 -20 40 -50 93 -59 100
-3 3 -11 20 -18 38 -8 17 -17 32 -22 32 -19 0 -8 67 16 102 14 20 25 41 25 46
0 5 18 34 40 65 22 30 40 59 40 64 0 20 59 52 93 51 18 -1 40 3 47 7 7 5 11 4
7 -1 -4 -7 109 -10 121 -4 1 1 14 2 30 3 29 1 76 42 67 58 -4 5 -1 9 4 9 6 0
11 9 11 20 0 11 4 20 8 20 4 0 9 10 9 22 1 13 7 24 12 26 5 2 7 10 4 18 -3 8
0 27 6 42 15 35 20 64 27 134 5 56 4 59 -32 93 -20 20 -39 34 -41 31 -3 -2
-13 3 -24 12 -21 19 -76 52 -126 78 -33 16 -33 17 -34 93 -3 152 -2 240 4 254
3 7 54 38 113 68 59 30 119 66 134 81 25 24 27 32 20 65 -5 21 -11 56 -14 78
-14 103 -62 258 -85 272 -13 8 -74 13 -178 13 l-159 2 -29 46 c-29 48 -74 102
-84 102 -3 0 -12 -4 -19 -9z"/>
<path d="M6200 7328 c0 -6 -3 -9 -6 -5 -10 10 -64 -15 -64 -30 0 -8 7 -21 15
-29 8 -9 15 -11 15 -5 0 6 3 10 8 9 16 -4 72 14 67 22 -3 5 0 10 7 12 10 4 9
8 -2 19 -20 18 -40 22 -40 7z"/>
<path d="M5558 6940 c-182 -179 -348 -339 -348 -336 0 7 -122 -120 -131 -137
-8 -15 -4 -20 23 -31 18 -8 53 -17 78 -21 25 -4 48 -9 52 -11 5 -3 8 -1 8 3 0
5 17 9 38 8 57 -1 109 13 187 50 62 30 135 85 135 100 0 4 13 20 30 38 16 18
30 38 30 45 0 6 4 12 9 12 8 0 41 76 45 105 1 8 5 17 8 21 4 3 4 12 1 20 -3 8
-1 14 4 14 12 0 -3 173 -17 199 -19 37 -51 20 -152 -79z"/>
<path d="M6172 6919 c-22 -8 -22 -10 -8 -25 9 -9 22 -17 29 -18 6 -1 17 -5 23
-8 14 -9 39 -5 58 11 13 11 13 15 2 26 -17 18 -75 25 -104 14z"/>
<path d="M6061 6531 c-12 -8 -12 -12 2 -25 28 -28 69 -39 85 -22 13 12 12 16
-6 32 -25 21 -61 27 -81 15z"/>
<path d="M5833 6219 c-13 -13 -6 -39 16 -56 41 -32 62 5 25 42 -29 29 -27 28
-41 14z"/>
<path d="M5485 6044 c-11 -12 -14 -25 -10 -43 7 -27 32 -61 46 -61 19 0 19 47
0 83 -18 35 -20 36 -36 21z"/>
<path d="M5096 5981 c-3 -5 -7 -28 -8 -51 -1 -43 13 -63 39 -53 22 8 14 107
-9 111 -9 2 -19 -1 -22 -7z"/>
<path d="M4700 5949 c0 -5 -6 -7 -12 -3 -8 5 -7 -2 3 -16 9 -13 22 -26 30 -28
11 -3 11 -1 -1 7 -12 8 -12 11 -1 11 11 0 11 3 0 17 -12 14 -12 16 0 8 10 -5
12 -4 7 3 -9 15 -26 16 -26 1z"/>
</g>
</svg>
