<svg version="1" xmlns="http://www.w3.org/2000/svg" width="346.667" height="346.667" viewBox="0 0 260.000000 260.000000"><path d="M150.1 73.1c-11.9 3.4-27.3 4-54.1 2.3-8-.5-24.4-.9-36.5-.9-17.8 0-23.2.4-28.5 1.8C16.6 80.2 9.1 85.9 3.8 97 .9 103.1.6 104.3.6 115c-.1 9.6.2 11.5 1.4 11.5 1.3.1 16.1-2.2 26.5-4 11.1-1.8 16.3-2.3 26-2.1 9.2.2 11.9.7 16.9 2.8 7 3 12.9 8.5 16.2 15.1 3.2 6.1 3.5 8.6 3.7 29.9.1 11.2.6 18.1 1.3 18.8 1.6 1.6 20.8 1.9 29.9.3 18-3 31.3-9.4 62.3-30.2 29.3-19.6 39.2-24.6 54.2-27.1 8.9-1.5 14.9-3.6 18.4-6.4l2.9-2.4-2.2-3.6c-3.8-6-11.8-11.4-22.6-15.1-2.7-.9-12.6-3.2-22-5.2-9.3-1.9-19.6-4.3-22.9-5.4-6.7-2.3-17.7-8.1-21.9-11.6-1.6-1.2-3.2-2.3-3.6-2.3-.4 0-1.6-.8-2.7-1.8-5.9-5.1-5.4-5-12.3-3.1zM62 86.1c1.9.4 4.6 1 6 1.2 1.4.3 6.3 1.4 11 2.6 23.3 5.6 26.8 6.1 50.2 6.6 10.6.2 20.4.6 21.8.9 1.4.2 5 .7 8.1 1.1 3.1.3 6.7.8 8 1 1.3.3 5.1 1 8.4 1.5 11.3 2 44.5 11.7 46.3 13.5.2.2-3.1 2.2-7.2 4.5-4.2 2.3-17.4 10.7-29.4 18.7-22.8 15.2-42.2 25.6-54.7 29.2-5.4 1.5-22.2 5.1-24.1 5.1-.1 0-.1-1 .2-2.3 1.7-8.4 2.3-32.6 1.1-45.5-1.1-11.5-1.3-11.9-6.5-13.6-5.6-1.8-12.8-3.7-16.2-4.2-1.4-.3-3.1-.7-3.8-.9-.7-.3-3.9-.7-7-1.1-3.1-.3-6.8-.7-8.2-1-3.4-.6-29.4-.6-35 .1-2.5.2-6.2.7-8.3 1.1l-3.9.6 1.8-3.3c5.9-11.7 15.5-17 29.9-16.7 4.3 0 9.5.5 11.5.9z"/></svg>