<svg xmlns="http://www.w3.org/2000/svg" fill="none" viewBox="0 0 91 23">
  <path fill="#252525" d="M29.836.575c-3.327 0-5.53 1.749-5.842 4.368-.111.967-.223 1.816-.223 1.816h43.285s.082-.64.141-1.154c.327-2.641-.796-5.037-4.881-5.037h-32.48v.007Zm-26.409 0L2.683 6.76h19.615l.744-6.184H3.427Zm65.883 0-.744 6.184H89.84s0-.224.12-.953c.52-4.063-2.1-5.209-4.63-5.209H69.31V.575Zm-1.056 8.542-1.66 13.506h7.337l1.66-13.498h-7.337v-.008Zm13.944 0-1.66 13.506h7.338l1.659-13.498h-7.337v-.008Zm-79.82 0L.718 22.623h19.623l.744-5.856H8.777l.313-2.523h12.285l.633-5.12H2.378v-.007Zm21.11 0c-.535 3.527 1.228 5.12 3.72 5.12h9.935l-.313 2.53H22.55l-.743 5.856h16.199c.52-.037 4.16-.134 5.395-3.11.401-.968.744-4.465.855-5.157.573-4.22-2.351-5.209-4.65-5.209l-16.118-.03Zm22.844 0-1.659 13.506h7.337l1.034-8.386h9.22c2.611 0 4.018-1.406 4.278-3.29.134-.952.223-1.822.223-1.822H46.332v-.008Z"/>
</svg>
