<svg xmlns="http://www.w3.org/2000/svg" fill="none" viewBox="0 0 108 18">
  <path fill="#fff" d="M.4 0h4.65L9.6 11.78h.05L14.3 0h4.36l-7.62 17.98H7.77L.4 0ZM23.13 0h12.52v3.66H27.2v3.36h8v3.64h-8v3.66h8.94v3.66h-13V0ZM45.17 7.45h2.4l1.17-.03c.41-.03.77-.1 1.12-.23.32-.14.6-.32.82-.6.22-.27.33-.66.33-1.14a1.75 1.75 0 0 0-1.03-1.7 3.1 3.1 0 0 0-1.02-.29 8.56 8.56 0 0 0-1.11-.08h-2.66v4.07h-.02ZM41.11 0h7.13c.95 0 1.84.08 2.68.27a6.5 6.5 0 0 1 2.21.88 4.5 4.5 0 0 1 1.51 1.67c.38.7.57 1.58.57 2.63 0 1.27-.34 2.34-1.01 3.24a4.57 4.57 0 0 1-2.97 1.69l4.68 7.59h-4.87l-3.86-7.19h-2v7.19H41.1V0ZM64.61 0h-4.07v17.97h4.07V0ZM70.9 0h5.53l7.84 12.5h.07V0h4.06v17.98H83.1l-8.07-12.8h-.05v12.8h-4.06V0ZM98.06 3.51H92.8V0h14.6v3.51h-5.27v14.47h-4.07V3.51Z"/>
</svg>
