<?xml version="1.0" encoding="UTF-8" standalone="no"?><!DOCTYPE svg PUBLIC "-//W3C//DTD SVG 1.1//EN" "http://www.w3.org/Graphics/SVG/1.1/DTD/svg11.dtd"><svg width="100%" height="100%" viewBox="0 0 1817 1312" version="1.1" xmlns="http://www.w3.org/2000/svg" xmlns:xlink="http://www.w3.org/1999/xlink" xml:space="preserve" xmlns:serif="http://www.serif.com/" style="fill-rule:evenodd;clip-rule:evenodd;stroke-linecap:round;stroke-linejoin:round;stroke-miterlimit:1.5;"><rect x="0.601" y="0.601" width="1815" height="1310" style="fill:url(#_Linear1);"/><clipPath id="_clip2"><rect x="0.601" y="0.601" width="1815" height="1310"/></clipPath><g clip-path="url(#_clip2)"><path d="M732.635,597.245c125.12,-8.104 214.827,-105.968 301.568,-200.628c90.414,-98.619 175.789,-191.771 296.248,-186.965c93.57,3.77 159.4,61.489 229.09,122.648c68.05,59.746 138.45,121.471 243.18,145.454c92.01,21.109 123.05,-98.901 159.02,-237.852c37.44,-144.747 79.92,-308.765 201.22,-352.82l-1.27,-3.44c-123.09,44.762 -165.8,209.77 -203.48,355.365c-35.5,137.113 -66.11,255.474 -154.64,235.213c-103.79,-23.795 -173.86,-85.237 -241.58,-144.652c-70.21,-61.584 -136.51,-119.727 -231.4,-123.544c-122.153,-4.9 -208.093,88.865 -299.072,188.142c-86.27,94.095 -175.459,191.441 -299.119,199.451c-137.363,8.906 -346.021,-338.543 -458.144,-525.178c-22.556,-37.553 -42.052,-70.017 -55.85,-91.032l-3.06,2.026c13.75,20.921 33.246,53.338 55.802,90.891c84.057,139.941 222.173,369.924 344.844,473.537c41.534,35.055 81.325,55.646 116.643,53.384Zm-16.576,-19.506c125.779,-10.696 216.57,-104.932 304.347,-196.012c34.093,-35.385 66.303,-68.839 100.444,-97.581c69.176,-58.332 131.995,-83.494 197.639,-79.253c92.912,6.031 154.782,65.541 220.242,128.538c64.94,62.479 132.09,127.078 236.49,149.6c90.93,19.601 124.74,-95.744 163.92,-229.276c42.48,-144.841 90.65,-309.001 222.74,-349.758l-1.08,-3.487c-133.98,41.323 -182.43,206.472 -225.14,352.208c-38.66,131.789 -72.05,245.579 -159.69,226.732c-103.36,-22.287 -170.14,-86.509 -234.7,-148.657c-65.97,-63.468 -128.27,-123.45 -222.547,-129.528c-66.633,-4.335 -130.252,21.109 -200.229,80.101c-34.282,28.883 -66.539,62.384 -100.726,97.864c-87.306,90.608 -177.579,184.326 -301.992,194.928c-138.023,11.732 -337.215,-290.059 -456.26,-470.427c-27.831,-42.171 -49.822,-75.484 -65.645,-96.498l-2.919,2.214c15.728,20.968 37.672,54.233 65.503,96.357c83.539,126.512 206.35,312.628 320.639,409.126c49.163,41.464 96.818,66.389 138.964,62.809Zm-16.528,-19.46c126.391,-13.24 218.264,-103.801 307.077,-191.394c34.706,-34.208 67.481,-66.531 101.763,-93.859c69.882,-55.647 132.889,-78.829 198.204,-72.939c92.576,8.293 150.686,69.782 212.286,134.852c61.55,65.07 125.21,132.402 228.91,153.322c89.89,18.141 126.34,-92.775 168.53,-221.172c47.56,-144.794 101.53,-308.906 244.59,-346.176l-0.89,-3.534c-145,37.741 -199.24,202.89 -247.14,348.579c-41.67,126.748 -77.65,236.25 -164.34,218.722c-102.56,-20.685 -165.81,-87.545 -226.98,-152.238c-62.06,-65.589 -120.64,-127.549 -214.589,-135.983c-66.304,-5.937 -130.112,17.481 -200.795,73.74c-34.423,27.423 -67.292,59.793 -102.045,94.095c-88.389,87.168 -179.744,177.258 -304.864,190.404c-138.635,14.512 -336.273,-256.37 -454.376,-418.22c-32.211,-44.15 -57.64,-79.017 -75.44,-99.42l-2.731,2.404c17.659,20.307 43.088,55.128 75.204,99.183c76.522,104.885 186.243,255.286 292.338,344.857c58.204,49.145 115.419,80.007 165.288,74.777Zm-16.529,-19.507c126.956,-15.69 219.866,-102.623 309.714,-186.729c35.318,-33.077 68.706,-64.316 103.129,-90.137c70.541,-52.961 133.69,-74.117 198.722,-66.672c92.484,10.649 147.114,74.211 204.984,141.543c58.02,67.52 117.96,137.302 220.67,156.62c88.9,16.727 127.8,-89.995 172.87,-213.539c52.74,-144.605 112.5,-308.529 266.72,-342.124l-0.8,-3.581c-156.2,34.019 -216.34,198.932 -269.36,344.48c-44.45,121.989 -82.88,227.345 -168.77,211.183c-101.44,-19.036 -160.96,-88.346 -218.55,-155.395c-58.35,-67.897 -113.44,-132.025 -207.34,-142.815c-66.021,-7.586 -130.017,13.805 -201.36,67.379c-34.564,25.962 -68.045,57.248 -103.457,90.372c-89.425,83.682 -181.911,170.238 -307.69,185.787c-139.153,17.198 -335.19,-224.188 -452.305,-368.369c-36.684,-45.187 -65.691,-80.855 -85.422,-100.032l-2.543,2.638c19.59,19.036 48.503,54.657 85.093,99.749c67.763,83.4 161.756,199.216 256.313,279.034c69.694,58.709 139.53,98.005 199.382,90.608Zm-16.529,-19.46c127.427,-18.046 225.611,-105.167 312.305,-181.97c36.024,-31.946 70.07,-62.102 104.588,-86.509c70.212,-49.568 135.432,-69.358 199.287,-60.358c92.578,13.005 143.908,78.876 198.248,148.658c54.3,69.734 110.43,141.872 211.86,159.541c88.02,15.314 129.22,-87.404 176.92,-206.33c57.92,-144.322 123.52,-307.869 289.14,-337.742l-0.66,-3.581c-74.73,13.476 -136.09,55.458 -187.61,128.35c-44.83,63.468 -76.43,142.155 -104.26,211.607c-47.14,117.465 -87.82,218.863 -172.91,204.068c-100.02,-17.386 -155.73,-88.959 -209.6,-158.175c-54.77,-70.395 -106.52,-136.878 -200.61,-150.071c-64.844,-9.094 -130.865,10.884 -201.877,61.018c-34.706,24.501 -68.8,54.751 -104.918,86.744c-86.27,76.52 -184.077,163.217 -310.374,181.122c-139.576,19.79 -326.384,-185.08 -449.997,-320.686c-41.346,-45.327 -74.027,-81.137 -95.688,-98.524l-2.261,2.875c21.474,17.198 54.013,52.866 95.218,98.099c59.522,65.306 133.643,146.585 210.306,211.325c83.162,70.253 169.243,120.952 242.893,110.539Zm-16.529,-19.507c127.757,-20.308 227.118,-103.612 314.754,-177.117c36.777,-30.862 71.53,-59.981 106.189,-82.975c70.871,-46.929 136.233,-64.646 199.852,-54.091c92.952,15.407 141.032,83.776 191.942,156.196c50.48,71.808 102.7,146.066 202.58,162.039c87.07,13.947 130.44,-84.954 180.69,-199.45c59.99,-136.784 134.68,-306.975 311.83,-332.937l-0.52,-3.628c-179.17,26.245 -254.28,197.472 -314.65,335.057c-49.64,113.083 -92.44,210.806 -176.78,197.33c-98.37,-15.737 -150.13,-89.336 -200.18,-160.531c-49.12,-69.829 -99.88,-142.014 -194.347,-157.704c-64.561,-10.696 -130.817,7.162 -202.442,54.657c-34.847,23.088 -69.647,52.301 -106.519,83.21c-87.306,73.222 -186.196,156.15 -312.964,176.316c-139.812,22.24 -324.783,-156.62 -447.219,-274.981c-46.196,-44.668 -82.691,-79.959 -106.472,-94.99l-1.93,3.11c23.451,14.842 59.805,49.992 105.859,94.519c42.194,40.804 91.78,88.723 144.427,133.202c100.774,85.143 212.849,157.563 305.9,142.768Zm-463.418,-251.563c121.588,102.34 305.382,256.935 446.889,232.056c127.993,-22.475 228.39,-102.01 316.967,-172.169c37.672,-29.826 73.226,-57.955 108.026,-79.535c71.483,-44.291 137.033,-59.935 200.417,-47.778c93.476,17.905 140.516,92.21 185.956,164.065c46.62,73.693 94.85,149.883 193.03,164.207c86.22,12.58 131.62,-82.646 184.22,-192.902c64.98,-136.265 145.88,-305.891 334.81,-327.8l-0.42,-3.629c-190.95,22.146 -272.33,192.761 -337.69,329.874c-51.94,108.937 -96.82,203.079 -180.4,190.875c-96.54,-14.041 -144.29,-89.524 -190.48,-162.51c-45.87,-72.515 -93.34,-147.479 -188.367,-165.714c-64.325,-12.345 -130.723,3.44 -203.007,48.296c-34.988,21.674 -70.636,49.898 -108.355,79.818c-88.248,69.876 -188.268,149.082 -315.319,171.463c-139.812,24.595 -322.805,-129.387 -443.875,-231.256c-51.423,-43.348 -92.015,-77.509 -117.868,-89.618l-1.554,3.298c25.429,11.921 65.833,45.94 117.02,88.959Zm-12.338,22.522c127.286,91.645 301.615,217.167 442.652,190.075c128.039,-24.549 229.425,-100.268 318.897,-167.034c38.661,-28.836 75.156,-56.071 110.145,-76.331c72.095,-41.7 137.834,-55.27 200.982,-41.511c94.177,20.543 137.927,97.723 180.267,172.358c44.68,78.828 86.88,153.275 183.18,165.949c85.37,11.215 132.7,-80.477 187.47,-186.681c70.02,-135.7 157.14,-304.572 358.03,-322.382l-0.33,-3.628c-202.92,17.952 -290.55,187.859 -360.95,324.36c-54.16,104.98 -100.92,195.635 -183.75,184.751c-94.51,-12.44 -136.28,-86.085 -180.5,-164.113c-42.71,-75.342 -86.88,-153.275 -182.663,-174.148c-64.091,-13.947 -130.677,-0.236 -203.573,41.935c-35.177,20.355 -71.766,47.636 -110.474,76.567c-89.143,66.53 -190.199,141.967 -317.391,166.374c-139.482,26.763 -313.057,-98.194 -439.825,-189.462c-56.886,-40.946 -101.81,-73.316 -129.923,-82.033l-1.083,3.487c27.5,8.481 72.236,40.71 128.839,81.467Zm-11.348,20.497c125.449,75.624 297.329,179.143 437.471,150.071c127.851,-26.528 230.178,-98.336 320.451,-161.71c39.791,-27.941 77.417,-54.327 112.641,-73.268c71.719,-38.543 139.529,-50.369 201.547,-35.197c94.981,23.229 135.531,103.424 174.711,181.027c40.59,80.384 78.92,156.291 173.19,167.317c84.53,9.894 133.65,-78.452 190.49,-180.745c75.06,-135.041 168.49,-303.111 381.52,-316.681l-0.23,-3.628c-215.02,13.664 -308.96,182.724 -384.45,318.565c-56.23,101.163 -104.78,188.52 -186.85,178.908c-92.35,-10.79 -130.26,-85.85 -170.38,-165.338c-39.55,-78.31 -80.43,-159.306 -177.059,-182.912c-62.913,-15.361 -131.618,-3.44 -204.138,35.527c-35.412,18.988 -73.084,45.469 -112.97,73.457c-89.99,63.138 -191.941,134.758 -319.085,161.144c-138.729,28.789 -309.856,-74.353 -434.835,-149.647c-62.865,-37.883 -112.546,-67.803 -143.014,-72.562l-0.565,3.628c29.62,4.57 79.018,34.349 141.555,72.044Zm-10.125,18.47c123.331,60.358 292.244,143.05 431.02,112.141c127.427,-28.365 230.461,-96.215 321.393,-156.149c41.251,-27.14 80.148,-52.82 115.701,-70.442c72.379,-35.951 140.377,-45.657 202.113,-28.93c95.971,26.056 133.219,109.408 169.199,190.074c36.49,81.703 70.96,158.882 163.12,168.306c83.68,8.575 134.44,-76.567 193.26,-175.091c80.15,-134.334 179.84,-301.509 405.21,-310.697l-0.14,-3.628c-227.35,9.282 -327.65,177.4 -408.23,312.487c-58.15,97.488 -108.35,181.641 -189.72,173.348c-90.09,-9.235 -124.13,-85.473 -160.21,-166.186c-25.24,-56.541 -51.09,-114.402 -97.238,-153.369c-20.296,-17.151 -44.548,-30.627 -74.356,-38.731c-62.631,-17.01 -131.477,-7.162 -204.703,29.166c-35.742,17.763 -74.733,43.443 -116.078,70.677c-90.649,59.699 -193.448,127.407 -320.216,155.631c-137.551,30.627 -305.758,-51.736 -428.618,-111.858c-69.459,-34.02 -124.319,-60.877 -157.33,-61.018l0,3.675c32.257,0.094 89.52,28.129 155.823,60.594Zm-8.618,16.208c127.522,48.532 286.264,108.89 423.109,76.426c126.58,-30.014 234.699,-96.686 321.581,-150.26c42.994,-26.48 83.586,-51.547 119.563,-67.944c73.038,-33.359 141.225,-40.993 202.678,-22.617c97.054,28.978 130.963,115.675 163.783,199.451c32.44,82.834 63.05,161.097 153.04,168.966c82.88,7.256 135.2,-74.729 195.76,-169.672c85.23,-133.533 191.28,-299.766 429.23,-304.478l-0.1,-3.675c-239.88,4.806 -346.54,171.887 -432.24,306.174c-59.95,93.906 -111.7,175.043 -192.37,167.976c-87.72,-7.681 -117.96,-84.907 -149.93,-166.657c-33.15,-84.624 -67.388,-172.122 -166.137,-201.618c-62.301,-18.612 -131.335,-10.932 -205.221,22.805c-36.165,16.538 -76.851,41.605 -119.939,68.18c-86.647,53.432 -194.531,119.915 -320.498,149.788c-135.762,32.182 -293.892,-27.988 -420.943,-76.284c-76.757,-29.213 -137.41,-52.301 -173.105,-47.212l0.518,3.628c34.706,-4.948 97.996,19.13 171.221,47.023Zm-6.639,13.712c124.319,34.255 279.059,76.944 413.219,43.207c125.214,-31.475 233.569,-93.859 320.687,-143.993c47.138,-27.14 87.871,-50.557 124.507,-65.871c73.791,-30.815 142.167,-36.281 203.243,-16.35c98.184,32.088 128.797,122.13 158.317,209.252c28.44,83.776 55.29,162.84 142.92,169.201c82.03,5.937 135.76,-73.033 198.02,-164.442c90.32,-132.732 202.77,-297.881 453.48,-298.069l0,-3.676c-252.59,0.189 -365.66,166.233 -456.5,299.671c-64.13,94.237 -114.8,168.636 -194.72,162.84c-85.23,-6.172 -111.74,-84.152 -139.76,-166.75c-28.44,-83.871 -60.7,-178.908 -160.674,-211.561c-61.924,-20.213 -131.147,-14.701 -205.785,16.445c-36.825,15.36 -77.653,38.872 -124.932,66.059c-86.882,49.992 -195.049,112.235 -319.744,143.569c-133.219,33.454 -287.441,-9.047 -411.336,-43.207c-84.999,-23.418 -152.15,-41.935 -190.764,-30.91l0.989,3.534c37.672,-10.602 107.696,8.717 188.833,31.051Zm-4.238,10.931c120.41,21.109 270.3,47.401 400.881,12.816c123.142,-32.605 231.309,-90.608 318.191,-137.16c50.152,-26.858 93.475,-50.087 131.006,-64.269c74.592,-28.177 143.155,-31.57 203.808,-10.037c99.455,35.339 127.804,133.109 152.805,219.382c24.49,84.483 47.61,164.254 132.94,169.107c81.18,4.665 136.23,-71.384 199.99,-159.4c95.5,-131.837 214.31,-295.902 477.97,-291.426l0.05,-3.675c-265.54,-4.476 -385.01,160.437 -480.98,292.933c-65.74,90.75 -117.63,162.463 -196.84,157.893c-82.74,-4.759 -104.45,-79.677 -129.64,-166.468c-25.289,-87.122 -53.92,-185.881 -155.118,-221.785c-61.453,-21.816 -130.864,-18.423 -206.303,10.083c-37.767,14.277 -81.184,37.553 -131.43,64.458c-86.741,46.505 -194.672,104.366 -317.437,136.878c-129.782,34.396 -279.2,8.198 -399.281,-12.864c-90.697,-15.926 -168.961,-29.637 -210.872,-11.826l1.413,3.345c40.969,-17.434 118.762,-3.769 208.847,12.015Zm-0.989,7.633c115.607,9.188 259.516,20.685 385.295,-14.324c120.081,-33.406 227.306,-86.791 313.481,-129.668c54.107,-26.952 100.868,-50.228 139.765,-63.374c75.533,-25.585 144.286,-26.858 204.373,-3.77c100.727,38.684 125.402,140.271 147.156,229.889c21.52,88.629 40.12,165.196 123,168.636c80.34,3.345 136.61,-69.829 201.74,-154.594c100.63,-130.894 225.89,-293.876 502.74,-284.641l0.14,-3.675c-278.73,-9.282 -404.6,154.453 -505.75,286.054c-67.2,87.404 -120.27,156.432 -198.68,153.181c-80.15,-3.346 -98.42,-78.64 -119.61,-165.856c-21.99,-90.467 -46.901,-193.043 -149.417,-232.433c-60.935,-23.371 -130.535,-22.146 -206.869,3.722c-39.085,13.24 -85.94,36.564 -140.236,63.562c-86.034,42.831 -193.118,96.121 -312.822,129.434c-125.167,34.82 -262.718,23.841 -384.071,14.182c-101.197,-8.057 -188.598,-15.031 -234.134,10.555l1.789,3.157c44.642,-24.973 131.524,-18.047 232.11,-10.037Zm3.296,3.676c115.278,-1.273 245.954,-2.686 365.517,-37.459c115.56,-33.643 220.855,-82.221 305.429,-121.235c59.617,-27.517 111.087,-51.265 151.867,-63.468c76.57,-22.9 145.51,-22.051 204.938,2.544c102.093,42.218 123.001,147.668 141.366,240.726c17.617,88.959 32.827,165.762 113.257,167.835c79.44,2.073 136.79,-68.368 203.19,-149.93c105.81,-129.998 237.48,-291.755 527.79,-277.619l0.19,-3.629c-292.15,-14.182 -424.47,148.375 -530.8,278.987c-68.52,84.153 -122.63,150.589 -200.28,148.61c-77.56,-2.026 -92.49,-77.509 -109.768,-164.913c-15.116,-76.426 -31.88,-161.097 -93.569,-213.21c-14.127,-11.92 -30.656,-22.192 -50.01,-30.202c-60.229,-24.926 -130.017,-25.821 -207.387,-2.639c-41.016,12.298 -92.58,36.093 -152.338,63.657c-84.48,38.966 -189.586,87.498 -304.911,121.046c-119.045,34.632 -249.438,36.045 -364.528,37.318c-113.724,1.225 -211.908,2.308 -261.635,36.846l2.072,3.015c48.833,-33.972 146.498,-35.055 259.61,-36.28Zm9.136,-1.32c107.131,-10.271 228.53,-21.91 339.805,-55.646c108.92,-33.077 210.495,-76.473 292.103,-111.34c67.433,-28.836 125.684,-53.715 169.196,-65.023c77.747,-20.214 146.876,-17.245 205.55,8.811c103.505,45.987 120.458,155.395 135.433,251.893c13.797,89.053 25.711,165.95 103.691,166.704c78.55,0.801 136.85,-67.002 204.33,-145.454c110.99,-129.009 249.15,-289.587 553.12,-270.504l0.24,-3.629c-305.81,-19.177 -444.63,142.109 -556.14,271.778c-69.65,80.948 -124.7,144.935 -201.55,144.181c-74.872,-0.754 -86.597,-76.237 -100.112,-163.594c-15.116,-97.44 -32.21,-207.885 -137.552,-254.673c-59.428,-26.386 -129.405,-29.449 -207.905,-9.047c-43.794,11.355 -102.139,36.328 -169.714,65.211c-81.514,34.821 -182.994,78.216 -291.726,111.199c-110.898,33.642 -232.109,45.281 -339.099,55.505c-128.934,12.345 -240.303,23.041 -295.022,68.133l2.307,2.827c53.825,-44.385 164.676,-55.034 293.045,-67.332Zm17.611,-7.774c96.348,-16.774 205.504,-35.763 305.665,-67.379c98.843,-31.192 189.728,-67.19 269.923,-98.948c79.301,-31.428 147.77,-58.521 195.426,-69.028c79.065,-17.387 148.43,-12.298 206.116,15.125c104.917,49.898 117.82,163.311 129.216,263.437c10.124,88.912 18.836,165.714 94.371,165.243c77.6,-0.518 136.75,-65.635 205.17,-141.071c116.22,-128.02 260.84,-287.374 578.79,-263.202l0.28,-3.628c-142.02,-10.79 -262.34,13.994 -367.87,75.766c-91.16,53.337 -156.38,125.24 -213.93,188.614c-70.68,77.886 -126.53,139.375 -202.49,139.893c-72.236,0.471 -80.806,-74.823 -90.695,-161.992c-11.49,-101.021 -24.534,-215.565 -131.289,-266.311c-58.439,-27.8 -128.557,-32.983 -208.469,-15.408c-47.939,10.555 -116.55,37.742 -195.944,69.169c-80.148,31.758 -170.986,67.709 -269.688,98.854c-99.879,31.522 -208.94,50.511 -305.194,67.238c-148.147,25.773 -276.139,48.06 -336.886,105.827l2.496,2.639c59.947,-56.966 187.421,-79.159 335.002,-104.838Zm30.468,-16.68c85.47,-20.873 173.859,-42.453 258.621,-70.159c82.597,-27.046 161.474,-56.165 231.027,-81.844c98.796,-36.469 184.124,-67.991 238.325,-77.745c80.619,-14.465 150.172,-7.303 206.68,21.392c106.284,53.95 115.466,176.646 122.765,275.264c6.546,88.582 12.244,165.149 85.281,163.405c76.62,-1.79 136.42,-64.363 205.69,-136.878c121.4,-127.03 272.51,-285.111 604.79,-255.804l0.33,-3.628c-148.29,-13.099 -274.02,9.989 -384.4,70.583c-95.27,52.301 -163.31,123.496 -223.36,186.305c-68.7,71.902 -128.08,134.004 -203.14,135.747c-69.557,1.602 -74.831,-69.735 -81.565,-160.06c-6.404,-86.65 -14.221,-191.771 -87.588,-253.731c-10.878,-9.188 -23.216,-17.434 -37.154,-24.501c-57.263,-29.072 -127.569,-36.376 -208.988,-21.769c-54.578,9.801 -140.001,41.37 -238.985,77.933c-69.553,25.68 -148.382,54.799 -230.885,81.797c-84.621,27.706 -172.916,49.239 -258.339,70.112c-173.434,42.312 -323.229,78.876 -391.652,152.38l2.684,2.497c67.717,-72.656 216.994,-109.078 389.863,-151.296Zm-414.208,181.169c78.076,-93.294 266.626,-150.448 466.243,-210.995c62.772,-19.035 127.663,-38.684 190.01,-59.793c53.024,-17.952 103.976,-35.809 153.28,-53.102c136.233,-47.73 253.913,-88.959 320.122,-98.147c82.361,-11.402 152.102,-2.12 207.292,27.706c107.791,58.238 112.359,185.315 116.032,287.42c2.354,65.212 4.379,121.565 31.833,147.009c11.207,10.318 25.758,15.03 44.594,14.276c75.581,-3.062 135.951,-63.138 205.881,-132.778c126.67,-126.041 284.29,-282.897 631.11,-248.266l0.37,-3.628c-154.74,-15.455 -285.93,5.89 -401.21,65.306c-99.45,51.264 -170.32,121.753 -232.86,183.996c-69.41,69.075 -129.31,128.68 -203.479,131.695c-17.8,0.707 -31.598,-3.675 -41.957,-13.287c-26.371,-24.455 -28.396,-80.054 -30.704,-144.464c-3.72,-103.048 -8.287,-231.256 -117.914,-290.53c-55.85,-30.203 -126.344,-39.627 -209.506,-28.13c-66.586,9.235 -184.407,50.511 -320.828,98.336c-49.257,17.292 -100.256,35.103 -153.233,53.055c-62.3,21.108 -127.144,40.757 -189.869,59.792c-200.135,60.688 -389.203,118.031 -467.986,212.173l2.779,2.356Zm-24.346,29.779c93.71,-123.073 343.243,-209.205 584.582,-292.509c26.653,-9.188 53.26,-18.376 79.489,-27.564c201.265,-70.395 389.203,-134.334 477.404,-142.863c84.386,-8.198 154.363,3.252 207.857,34.02c109.156,62.714 109.062,194.22 109.015,299.906c-0.047,65.118 -0.094,121.329 25.853,145.878c10.36,9.801 24.157,14.088 42.099,13.005c74.454,-4.335 135.294,-61.961 205.694,-128.774c131.9,-125.052 296.06,-280.683 657.81,-240.585l0.37,-3.628c-161.28,-17.858 -298.13,1.696 -418.35,59.887c-103.65,50.181 -177.34,120.057 -242.38,181.687c-69.88,66.295 -130.25,123.497 -203.38,127.737c-16.905,0.99 -29.761,-2.968 -39.367,-12.015c-24.77,-23.417 -24.723,-78.923 -24.676,-143.192c0.094,-106.628 0.189,-239.265 -110.804,-303.063c-54.201,-31.145 -124.884,-42.736 -210.024,-34.491c-88.624,8.623 -276.798,72.562 -478.298,143.051c-26.23,9.188 -52.836,18.376 -79.489,27.564c-241.858,83.446 -491.955,169.766 -586.325,293.734l2.92,2.215Zm-24.393,29.825c104.117,-148.751 398.056,-270.222 671.888,-369.405c222.55,-79.913 402.53,-130.235 481.454,-134.523c86.693,-4.711 156.858,8.859 208.469,40.286c110.569,67.426 105.625,203.409 101.622,312.676c-2.355,64.835 -4.379,120.858 20.013,144.37c9.607,9.235 22.604,13.099 39.745,11.827c73.275,-5.56 134.345,-60.83 205.075,-124.863c129.93,-117.56 307.88,-278.515 684.94,-232.858l0.42,-3.628c-168.02,-20.355 -310.61,-2.544 -435.82,54.421c-107.93,49.097 -184.46,118.314 -251.98,179.379c-70.26,63.562 -130.92,118.408 -202.918,123.92c-16.01,1.226 -28.113,-2.308 -36.919,-10.79c-23.262,-22.381 -21.238,-77.603 -18.93,-141.589c3.673,-101.116 8.194,-224.895 -77.841,-297.551c-7.77,-6.55 -16.246,-12.675 -25.523,-18.329c-52.27,-31.852 -123.095,-45.61 -210.542,-40.852c-79.253,4.335 -259.61,54.705 -482.489,134.758c-274.35,99.278 -568.949,221.078 -673.678,370.631l3.014,2.12Zm-24.393,29.826c187.279,-288.692 970.819,-542.753 1165.21,-544.873c115.371,-1.273 195.802,23.983 245.765,77.038c72.708,77.226 64.09,198.131 57.215,295.242c-4.756,67.096 -8.523,120.104 14.457,142.532c8.9,8.67 21.144,12.156 37.484,10.648c72.001,-6.832 133.219,-59.745 204.089,-120.999c134.87,-116.617 319.65,-276.394 712.39,-225.036l0.47,-3.628c-174.94,-22.852 -323.37,-6.926 -453.72,48.815c-112.26,47.966 -191.61,116.57 -261.59,177.116c-70.4,60.877 -131.191,113.414 -202.016,120.152c-15.163,1.413 -26.465,-1.744 -34.564,-9.613c-21.756,-21.297 -17.894,-76.142 -13.374,-139.658c6.923,-97.864 15.587,-219.617 -58.204,-298.021c-50.716,-53.856 -131.995,-79.442 -248.45,-78.169c-194.86,2.073 -980.378,256.887 -1168.22,546.428l3.061,2.026Zm25.052,-30.203c80.054,-106.628 263.378,-202.325 403.095,-263.861c143.015,-62.95 286.169,-120.339 403.142,-161.521c146.546,-51.594 274.303,-84.812 341.784,-88.864c114.383,-6.88 194.672,13.947 245.436,63.656c73.838,72.326 69.176,194.598 65.408,292.886c-1.412,36.705 -2.731,71.384 0.048,99.655c4.096,40.003 20.201,57.767 52.27,57.578c73.556,-0.424 137.594,-51.83 218.644,-116.947c141.08,-113.319 334.29,-268.479 702.73,-219.24l0.47,-3.628c-369.94,-49.427 -563.86,106.298 -705.46,220.041c-80.53,64.646 -144.1,115.722 -216.384,116.146c-30.185,0.189 -44.689,-16.067 -48.645,-54.28c-2.731,-27.988 -1.412,-62.573 -0.047,-99.136c3.815,-98.995 8.524,-222.162 -66.491,-295.619c-51.517,-50.464 -132.749,-71.667 -248.215,-64.693c-67.81,4.099 -195.944,37.364 -342.772,89.1c-117.02,41.228 -260.316,98.618 -403.378,161.615c-140.094,61.678 -324.03,157.751 -404.555,264.992l2.92,2.12Zm413.361,-250.385c59.146,-23.276 123.001,-49.568 184.689,-74.918c73.838,-30.391 150.172,-61.772 219.112,-88.346c143.862,-55.458 270.489,-92.917 338.77,-100.22c113.488,-12.11 193.872,4.711 245.247,51.358c74.969,67.897 74.168,186.729 73.462,291.52c-0.236,35.857 -0.471,69.782 2.354,99.231c3.815,39.249 18.836,57.154 50.293,59.887c76.289,6.596 147.209,-46.553 236.959,-113.885c145.98,-109.502 345.88,-259.432 689.22,-212.455l0.47,-3.628c-153,-20.921 -290.13,-5.607 -419.25,46.835c-111.18,45.186 -196.98,109.55 -272.7,166.327c-89.14,66.861 -159.59,119.68 -234.464,113.178c-29.714,-2.592 -43.323,-18.989 -46.949,-56.589c-2.825,-29.261 -2.637,-63.091 -2.354,-98.854c0.706,-105.592 1.554,-225.272 -74.639,-294.3c-1.554,-1.366 -3.108,-2.732 -4.662,-4.099c-52.459,-44.291 -132.183,-60.075 -243.458,-48.202c-68.564,7.304 -195.567,44.857 -339.711,100.456c-68.988,26.575 -145.321,58.003 -219.159,88.394c-61.689,25.396 -125.497,51.641 -184.643,74.917c-134.349,52.914 -311.033,134.24 -389.674,221.173l2.731,2.45c61.924,-68.416 196.179,-144.558 388.356,-220.23Zm10.219,13.476c97.572,-33.784 204.797,-79.724 308.443,-124.156c33.528,-14.371 65.173,-27.941 96.017,-40.899c143.768,-60.358 266.156,-101.021 335.756,-111.528c113.064,-17.104 193.495,-3.958 245.86,40.144l0.188,0.142c76.24,64.41 78.877,185.88 81.137,293.074c0.707,33.642 1.413,65.4 4.144,94.707c3.579,38.025 18.036,56.636 48.268,62.149c80.194,14.607 159.124,-41.04 259.044,-111.481c157.75,-111.199 354.03,-249.632 672.03,-205.058l0.52,-3.628c-141.79,-19.884 -272.42,-5.089 -399.28,45.28c-109.44,43.443 -197.55,105.545 -275.34,160.39c-99.22,69.971 -177.58,125.193 -256.268,110.869c-28.725,-5.23 -41.863,-22.287 -45.301,-58.898c-2.731,-29.166 -3.437,-60.829 -4.144,-94.424c-2.307,-107.995 -4.944,-230.361 -82.455,-295.808l-0.189,-0.141c-53.212,-44.809 -134.584,-58.238 -248.732,-40.946c-69.882,10.555 -192.6,51.312 -336.603,111.765c-30.892,12.957 -62.537,26.527 -96.065,40.898c-103.599,44.432 -210.73,90.373 -308.208,124.062c-128.651,44.527 -298.036,111.387 -374.699,177.258l2.354,2.78c60.323,-51.83 189.446,-112.895 373.523,-176.551Zm10.218,13.475c115.231,-34.207 247.979,-94.942 365.046,-148.516c13.609,-6.219 26.983,-12.345 40.121,-18.329c144.05,-65.588 262.201,-109.219 332.695,-122.836c113.017,-21.863 193.872,-12.11 247.178,29.825c1.46,1.178 2.92,2.309 4.333,3.534c74.167,62.62 79.63,180.792 84.904,295.148c1.366,29.92 2.684,58.191 5.18,85.519c3.438,37.506 16.858,56.165 46.29,64.411c85.182,23.888 173.152,-34.868 284.522,-109.267c159.78,-106.723 358.64,-239.549 651.36,-197.331l0.51,-3.628c-294.12,-42.359 -493.6,90.844 -653.9,197.943c-110.61,73.881 -197.96,132.213 -281.503,108.796c-27.736,-7.775 -40.357,-25.491 -43.606,-61.207c-2.496,-27.281 -3.814,-55.505 -5.18,-85.378c-5.415,-117.324 -11.019,-238.558 -90.602,-301.367c-54.154,-42.642 -135.951,-52.631 -250.098,-30.532c-70.777,13.711 -189.21,57.437 -333.542,123.119c-13.139,5.984 -26.512,12.11 -40.122,18.329c-116.972,53.526 -249.579,114.167 -364.575,148.328c-173.764,51.594 -301.473,98.948 -359.677,133.344l1.836,3.157c57.875,-34.302 185.349,-81.561 358.83,-133.062Zm10.172,13.476c126.58,-31.239 278.54,-105.968 400.646,-166.044l5.227,-2.544c100.868,-49.616 239.974,-113.178 329.681,-134.193c113.489,-26.574 195.049,-19.978 249.345,20.261c80.854,59.84 89.189,186.729 97.242,309.425c1.554,23.229 3.108,47.259 5.18,70.3c3.673,40.993 17.753,62.196 44.265,66.672c84.951,53.62 187.141,-13.287 316.451,-97.959c161.66,-105.827 362.83,-237.569 624.23,-198.791l0.52,-3.628c-262.77,-38.967 -464.6,93.153 -626.78,199.357c-128.37,84.058 -229.8,150.448 -312.82,97.723l-0.707,-0.283c-24.863,-4.052 -38.096,-24.219 -41.58,-63.468c-2.072,-22.994 -3.626,-47.024 -5.18,-70.206c-7.865,-119.397 -16.011,-242.705 -90.697,-305.796c-2.59,-2.168 -5.274,-4.288 -8.005,-6.361c-55.237,-40.899 -137.787,-47.731 -252.358,-20.921c-90.085,21.109 -229.426,84.766 -330.482,134.475l-5.227,2.545c-121.917,59.981 -273.69,134.616 -399.893,165.761c-165.288,40.804 -287.629,72.562 -344.515,89.383l1.036,3.487c56.933,-16.68 179.227,-48.438 344.421,-89.195Zm10.218,13.476c124.084,-24.266 268.887,-97.487 406.58,-170.379c145.463,-77.038 255.372,-125.994 326.667,-145.501c114.478,-31.333 197.121,-27.658 252.594,11.356c84.245,59.086 94.605,189.744 105.624,327.989c1.225,15.549 2.449,31.098 3.815,46.647c3.579,41.04 16.999,62.902 42.289,68.934c86.88,69.075 200.04,-2.498 343.24,-93.153c162.04,-102.576 363.73,-230.219 602.29,-193.702l0.56,-3.628c-239.92,-36.705 -442.22,91.361 -604.78,194.22c-142.17,89.949 -254.43,161.003 -339.33,93.106l-0.33,-0.236l-0.43,-0.094c-23.778,-5.466 -36.446,-26.386 -39.883,-65.777c-1.366,-15.502 -2.59,-31.098 -3.815,-46.6c-11.066,-139.14 -21.52,-270.552 -107.131,-330.675c-56.461,-39.626 -140.047,-43.537 -255.654,-11.873c-71.531,19.601 -181.676,68.651 -327.421,145.83c-137.457,72.798 -281.978,145.878 -405.544,170.002c-157.989,30.863 -274.914,47.071 -329.163,45.563l-0.094,3.676c54.484,1.413 171.692,-14.795 329.916,-45.705Zm10.219,13.429c122.718,-17.528 268.275,-93.106 407.286,-172.17c146.264,-83.21 252.123,-134.522 323.607,-156.856c116.125,-36.281 200.182,-35.338 257.067,2.874c88.954,59.793 101.292,204.823 114.336,358.38l0.894,10.696c3.485,41.04 16.294,63.657 40.31,71.149c88.48,85.613 213.18,8.858 370.93,-88.205c161.48,-99.373 362.46,-223.057 579.4,-188.708l0.57,-3.628c-218.31,-34.538 -419.91,89.524 -581.9,189.226c-156.57,96.356 -280.33,172.452 -366.79,88.393l-0.33,-0.282l-0.42,-0.142c-22.651,-6.879 -34.8,-28.553 -38.143,-68.133l-0.895,-10.695c-12.432,-146.255 -24.158,-284.829 -102.234,-350.747c-4.379,-3.676 -8.947,-7.115 -13.703,-10.366c-57.827,-38.873 -142.92,-39.957 -260.175,-3.346c-71.719,22.428 -177.814,73.787 -324.313,157.139c-138.682,78.876 -283.862,154.312 -405.968,171.698c-149.983,21.392 -261.447,22.099 -313.811,1.979l-1.319,3.393c52.883,20.496 165.005,19.884 315.601,-1.649Zm10.172,13.475c126.485,-11.214 277.222,-94.189 407.945,-173.912c100.303,-61.16 227.4,-135.512 320.593,-168.165c118.338,-41.464 204.231,-43.16 262.624,-5.277c87.635,56.824 106.142,198.131 119.892,363.186c3.434,41.04 15.634,64.363 38.374,73.41c89.95,103.047 233.34,16.727 399.43,-83.21c168.35,-101.304 359.11,-216.084 555.71,-183.808l0.61,-3.581c-197.92,-32.512 -389.34,82.692 -558.21,184.279c-164.81,99.183 -307.22,184.797 -395.04,83.587l-0.28,-0.33l-0.43,-0.141c-21.56,-8.34 -33.15,-30.721 -36.44,-70.441c-13.001,-155.726 -30.236,-290.436 -105.769,-354.234c-4.992,-4.241 -10.266,-8.152 -15.775,-11.733c-59.429,-38.542 -146.358,-36.94 -265.827,4.901c-93.521,32.747 -220.807,107.24 -321.251,168.494c-130.394,79.488 -280.66,162.275 -406.392,173.395c-142.166,12.58 -248.214,-2.168 -298.601,-41.512l-2.26,2.875c51.046,39.862 157.988,54.892 301.097,42.217Zm10.218,13.476c130.018,-4.288 286.688,-96.121 408.652,-175.703c105.389,-68.745 225.517,-143.805 317.532,-179.52c120.834,-46.883 208.846,-51.312 268.981,-13.617c82.785,51.877 109.395,180.462 123.845,357.485c3.35,41.04 14.93,65.117 36.4,75.624c91.08,121.376 247.47,28.884 428.58,-78.169c165.9,-98.052 353.97,-209.204 531.32,-178.907l0.61,-3.581c-178.71,-30.532 -367.35,80.996 -533.82,179.379c-179.79,106.298 -335.05,198.084 -424.05,78.781l-0.28,-0.377l-0.43,-0.188c-20.43,-9.801 -31.5,-32.936 -34.75,-72.798c-14.55,-178.153 -41.438,-307.587 -125.541,-360.312c-61.171,-38.354 -150.219,-34.019 -272.231,13.287c-92.344,35.81 -212.661,111.011 -318.191,179.85c-121.54,79.3 -277.645,170.85 -406.815,175.091c-132.56,4.382 -235.877,-26.622 -283.532,-85.001l-2.826,2.309c6.263,7.68 13.374,14.842 21.332,21.58c54.296,45.846 146.829,68.698 265.214,64.787Zm10.172,13.429c132.513,3.251 288.382,-93.105 409.405,-177.447c109.156,-76.048 222.786,-151.814 314.471,-190.828c123.66,-52.584 213.932,-59.84 275.95,-22.24c72.85,44.15 110.902,149.459 127.102,352.114c3.29,41.04 14.26,65.776 34.47,77.792c42,64.316 102.84,82.88 191.42,58.426c78.73,-21.769 170.14,-75.106 266.91,-131.554c162.7,-94.895 347.1,-202.466 506.36,-174.007l0.66,-3.581c-160.53,-28.695 -345.59,79.253 -508.81,174.479c-195.19,113.837 -363.73,212.172 -453.67,73.928l-0.24,-0.377l-0.37,-0.236c-19.36,-11.261 -29.86,-35.15 -33.06,-75.153c-10.64,-133.297 -32.31,-275.829 -109.392,-340.947c-6.122,-5.183 -12.621,-9.847 -19.449,-14.041c-63.101,-38.26 -154.457,-31.051 -279.294,22.004c-92.015,39.108 -205.833,115.016 -315.13,191.159c-120.552,84.011 -275.762,179.991 -407.191,176.787c-125.12,-3.063 -223.069,-49.946 -268.652,-128.539l-3.156,1.838c12.432,21.486 28.726,40.616 48.315,57.154c53.213,45.045 130.959,71.007 223.351,73.269Zm10.172,13.476c134.773,11.308 289.936,-89.807 410.111,-179.19c99.832,-74.259 214.498,-157.281 311.457,-202.137c126.721,-58.615 219.489,-68.887 283.579,-31.334c74.309,43.538 114.289,150.59 129.739,347.167c3.2,41.039 13.56,66.483 32.54,80.006c23.16,40.286 52.97,64.835 91.07,75.106c102.04,27.517 245.58,-55.458 397.58,-143.286c166.52,-96.215 338.68,-195.681 480.8,-169.06l0.66,-3.581c-143.44,-26.904 -316.22,72.939 -483.29,169.484c-151.3,87.451 -294.22,170.002 -394.81,142.909c-37.25,-10.036 -66.35,-34.16 -89.05,-73.739l-0.19,-0.33l-0.33,-0.236c-18.22,-12.722 -28.2,-37.412 -31.36,-77.509c-13.94,-177.353 -47.94,-282.473 -109.154,-334.209c-7.064,-5.984 -14.551,-11.261 -22.368,-15.831c-65.221,-38.213 -159.072,-28.036 -286.97,31.145c-97.289,44.998 -212.096,128.161 -312.116,202.513c-110.286,82.033 -272.56,189.839 -407.616,178.484c-117.821,-9.895 -210.354,-72.609 -253.771,-172.123l-3.343,1.461c17.847,40.898 43.888,75.672 76.522,103.188c47.702,40.286 109.532,65.118 180.31,71.102Zm10.218,13.428c138.4,20.214 300.72,-93.576 410.818,-180.933c75.392,-59.84 201.595,-160.013 308.396,-213.492c130.017,-65.07 225.423,-78.452 291.726,-40.899c75.248,42.595 117.118,151.485 131.858,342.69c3.15,41.04 12.9,67.191 30.65,82.221c23.41,45.705 54.58,73.834 95.41,85.944c108.16,32.181 261.59,-55.977 424.05,-149.318c161.61,-92.869 328.74,-188.849 454.7,-163.923l0.71,-3.581c-127.29,-25.209 -295.02,71.148 -457.2,164.347c-161.76,92.917 -314.57,180.698 -421.18,148.988c-39.89,-11.874 -70.45,-39.485 -93.38,-84.436l-0.19,-0.33l-0.28,-0.235l-0.24,-0.189c-16.95,-14.324 -26.32,-39.673 -29.38,-79.723c-14.83,-192.525 -57.31,-302.357 -133.691,-345.612c-67.434,-38.212 -163.97,-24.831 -295.164,40.805c-107.131,53.62 -233.522,153.934 -309.055,213.869c-109.533,86.933 -271.006,200.204 -407.992,180.179c-110.711,-16.161 -197.781,-94.801 -238.985,-215.753l-3.438,1.177c22.038,64.646 57.027,117.325 101.716,155.066c39.744,33.642 87.306,55.411 140.141,63.138Zm10.172,13.429c140.424,29.684 302.133,-90.09 411.524,-182.724c94.699,-80.195 204.232,-170.285 305.335,-224.8c133.502,-71.95 231.733,-88.629 300.344,-51.076c75.773,41.464 119.423,152.332 133.503,338.873c3.11,41.04 12.24,67.897 28.77,84.388c23.55,51.359 56.18,83.117 99.83,97.158c114.62,36.846 285.61,-61.159 450.99,-155.914c156.01,-89.43 317.34,-181.876 428.05,-158.552l0.76,-3.581c-112.08,-23.559 -274.02,69.216 -430.65,158.976c-164.72,94.378 -335,191.959 -448.06,155.631c-42.72,-13.711 -74.64,-44.95 -97.76,-95.508l-0.38,-0.565c-15.78,-15.644 -24.91,-42.548 -27.93,-82.316c-12.52,-165.903 -48.5,-272.437 -109.717,-324.125c-8.099,-6.832 -16.67,-12.769 -25.711,-17.669c-69.788,-38.213 -169.149,-21.486 -303.828,51.076c-101.433,54.657 -211.107,144.935 -305.995,225.224c-108.826,92.163 -269.593,211.23 -408.416,181.923c-103.646,-21.91 -185.396,-116.476 -224.245,-259.432l-3.532,0.942c24.864,91.551 67.245,163.453 121.729,209.487c31.551,26.528 66.963,44.48 105.389,52.584Zm10.172,13.429c106.848,29.92 241.668,-30.392 412.23,-184.421c65.974,-59.604 188.786,-170.52 302.321,-236.108c137.081,-79.253 238.279,-99.514 309.244,-61.913c76.989,40.757 121.119,150.542 134.869,335.716c2.4,32.606 11.21,60.924 26.89,86.603c57.16,93.576 143.15,124.91 262.95,95.838c105.3,-25.538 222.83,-93.341 336.51,-158.835c148.1,-85.378 288.01,-166.044 384.12,-144.37l0.8,-3.581c-97.53,-22.004 -238,58.992 -386.76,144.747c-113.44,65.4 -230.74,133.014 -335.52,158.458c-118.05,28.648 -202.72,-2.167 -258.95,-94.189c-15.35,-25.161 -23.97,-52.961 -26.37,-84.954c-12.1,-163.028 -47.8,-268.149 -108.82,-319.696c-8.811,-7.445 -18.135,-13.758 -27.977,-18.941c-72.189,-38.213 -174.517,-17.905 -312.775,61.96c-113.865,65.824 -236.866,176.881 -302.934,236.58c-169.573,153.134 -303.263,213.209 -408.792,183.619c-96.725,-27.093 -173.059,-137.585 -209.46,-303.158l-3.578,0.801c26.512,120.67 74.261,212.361 135.762,264.285c23.498,19.884 49.068,33.925 76.24,41.559Zm10.171,13.428c108.261,38.26 243.317,-22.616 412.984,-186.163c89.331,-86.132 194.767,-182.913 299.26,-247.464c140.801,-86.98 244.918,-111.011 318.38,-73.458c78.079,39.909 122.579,148.894 135.999,333.22c2.4,32.747 10.55,61.771 25,88.817c31.93,59.793 75.58,97.912 129.78,113.319c138.55,39.438 330.82,-72.279 500.48,-170.803c141.7,-82.315 275.53,-160.06 358.03,-139.941l0.85,-3.533c-83.92,-20.45 -218.36,57.625 -360.71,140.317c-169.01,98.194 -360.58,209.44 -497.66,170.426c-53.92,-15.36 -95.64,-51.83 -127.52,-111.528c-14.17,-26.575 -22.22,-55.128 -24.58,-87.357c-13.51,-185.693 -58.67,-295.666 -137.974,-336.188c-74.686,-38.165 -179.98,-14.088 -321.958,73.599c-104.777,64.74 -210.401,161.662 -299.873,247.935c-168.537,162.51 -302.415,223.104 -409.216,185.363c-89.897,-31.805 -160.862,-158.223 -194.72,-346.837l-3.579,0.66c27.124,151.249 78.217,262.872 143.909,318.33c16.764,14.182 34.517,24.69 53.118,31.286Zm10.172,13.382c108.025,46.741 247.225,-16.492 413.69,-187.907c73.602,-75.813 184.406,-185.08 296.199,-258.773c144.474,-95.178 251.652,-123.213 327.612,-85.707c79.02,39.013 123.85,147.432 136.98,331.428c2.36,32.936 9.94,62.667 23.13,90.985c31.03,66.578 75.58,109.314 132.37,127.031c145.08,45.28 348.89,-74.211 528.78,-179.567c140.66,-82.41 262.1,-153.605 331.8,-134.994l0.94,-3.534c-71.16,-18.988 -193.26,52.537 -334.58,135.371c-179.18,105.026 -382.33,223.999 -525.81,179.237c-56.56,-17.669 -99.13,-58.568 -130.16,-125.099c-13,-27.894 -20.49,-57.248 -22.79,-89.713c-11.4,-159.164 -46.53,-262.306 -106.99,-313.382c-9.99,-8.434 -20.63,-15.455 -32.02,-21.062c-77.28,-38.165 -185.635,-10.036 -331.286,85.897c-112.076,73.975 -223.068,183.43 -296.765,259.338c-165.288,170.237 -303.122,233.187 -409.641,187.105c-83.162,-35.998 -148.759,-178.342 -179.98,-390.609l-3.626,0.519c26.842,182.724 79.348,314.089 146.782,371.055c11.396,9.612 23.215,17.104 35.365,22.381Zm10.171,13.381c136.139,70.536 300.485,-64.174 414.397,-189.603c106.99,-117.842 205.644,-208.686 293.138,-270.081c148.1,-103.848 258.292,-136.077 336.935,-98.618c78.78,37.6 125.17,148.705 137.97,330.345c2.36,33.218 9.28,63.704 21.24,93.2c29.81,73.457 75.02,120.858 134.35,140.883c151.77,51.264 367.64,-76.473 558.07,-189.179c132.8,-78.593 247.51,-146.443 305.19,-129.34l1.04,-3.486c-59.24,-17.575 -174.56,50.652 -308.07,129.669c-180.4,106.769 -404.88,239.595 -555.05,188.849c-58.3,-19.695 -102.75,-66.389 -132.14,-138.81c-11.82,-29.119 -18.69,-59.274 -21,-92.116c-12.86,-183.054 -59.99,-295.195 -140.05,-333.36c-79.91,-38.119 -191.327,-5.748 -340.604,98.901c-87.729,61.536 -186.572,152.568 -293.75,270.599c-113.018,124.486 -275.904,258.301 -410.018,188.849c-76.522,-39.626 -136.751,-197.943 -165.241,-434.382l-3.626,0.425c25.853,214.811 78.171,365.683 145.275,422.366c7.205,6.078 14.504,11.073 21.944,14.889Zm10.219,13.429c144.991,88.535 322.287,-81.844 415.103,-191.347c56.132,-66.153 168.396,-190.734 290.125,-281.389c149.654,-111.481 266.297,-149.223 346.723,-112.141c79.63,36.705 126.21,147.668 138.45,329.827c2.36,33.501 8.9,65.588 19.4,95.414c28.26,80.383 73.93,132.449 135.76,154.783c158.75,57.39 397.07,-85.19 588.59,-199.734c124.13,-74.258 231.4,-138.433 277.88,-122.742l1.18,-3.44c-48.08,-16.209 -150.83,45.233 -280.9,123.073c-190.86,114.167 -428.33,256.275 -585.47,199.45c-60.75,-21.957 -105.72,-73.315 -133.6,-152.568c-10.36,-29.496 -16.86,-61.301 -19.21,-94.472c-12.39,-183.572 -59.62,-295.572 -140.57,-332.889c-81.701,-37.694 -199.616,0.189 -350.4,112.518c-122.011,90.891 -234.51,215.659 -290.689,281.955c-92.063,108.56 -267.757,277.714 -410.441,190.592c-71.013,-43.348 -124.461,-213.209 -150.502,-478.154l-3.626,0.377c14.457,147.102 51.517,397.441 139.294,471.558c4.144,3.439 8.476,6.596 12.903,9.329Zm10.171,13.382c59.711,42.5 132.23,39.72 215.534,-8.246c64.231,-36.988 135.385,-102.623 200.276,-184.797c32.492,-41.134 149.277,-183.855 287.064,-292.698c152.903,-120.81 272.607,-163.311 355.816,-126.323c80.38,35.715 127.38,146.772 139.62,330.015c2.36,34.255 8.29,67.096 17.52,97.675c26.47,87.263 72.52,144.04 136.8,168.73c166.23,63.751 428.76,-95.272 620.46,-211.419c119.28,-72.279 213.51,-129.339 249.58,-115.109l1.32,-3.393c-37.72,-14.889 -132.65,42.595 -252.78,115.393c-191.05,115.722 -452.68,274.227 -617.26,211.136c-63.2,-24.219 -108.5,-80.195 -134.63,-166.374c-9.19,-30.297 -15.03,-62.856 -17.38,-96.828c-12.34,-184.703 -59.99,-296.796 -141.79,-333.125c-84.575,-37.553 -205.551,5.089 -359.584,126.795c-138.069,109.078 -255.089,252.082 -287.629,293.31c-57.497,72.798 -257.114,301.839 -410.817,192.336c-65.409,-46.552 -112.312,-227.062 -135.763,-521.974l-3.626,0.283c23.122,291.19 67.34,465.998 131.242,519.948c1.978,1.649 4.002,3.204 6.027,4.665Zm10.266,13.428c131.147,95.838 301.097,-37.788 416.422,-194.786c58.345,-79.441 167.736,-206.707 284.003,-304.053c155.917,-130.47 278.682,-177.965 364.859,-141.118c81.23,34.773 128.65,146.065 140.85,330.768c2.4,35.386 7.67,68.981 15.68,99.891c24.44,94.236 70.73,155.631 137.55,182.582c174.38,70.3 451.55,-100.031 653.95,-224.376c108.12,-66.437 193.49,-118.926 219.91,-106.157l1.6,-3.298c-28.21,-13.618 -110.1,36.705 -223.4,106.345c-201.73,123.968 -478.01,293.687 -650.7,224.094c-65.69,-26.481 -111.22,-87.074 -135.38,-180.133c-7.96,-30.674 -13.19,-64.033 -15.59,-99.23c-12.29,-186.211 -60.46,-298.54 -143.06,-333.879c-87.54,-37.459 -211.577,10.225 -368.624,141.637c-116.502,97.534 -226.129,225.083 -284.615,304.665c-114.289,155.584 -282.355,288.269 -411.336,194.033c-1.365,-0.99 -2.731,-2.074 -4.097,-3.204c-75.91,-64.128 -102.327,-333.549 -116.832,-562.496l-3.626,0.235c14.552,229.748 41.158,500.065 118.198,565.135c1.413,1.225 2.825,2.309 4.238,3.345Zm128.039,53.668c109.862,-11.874 226.647,-130.14 299.308,-236.816c57.168,-83.964 166.653,-214.387 282.355,-316.586c101.762,-89.854 246.095,-190.734 355.722,-160.814c92.34,25.208 145.79,138.81 158.84,337.695c9.98,151.956 56.5,250.291 138.4,292.226c181.62,93.106 495.29,-102.905 702.92,-232.622c95.5,-59.651 170.89,-106.816 188.5,-95.649l1.98,-3.11c-19.55,-12.392 -88.3,30.58 -192.37,95.603c-206.87,129.292 -519.55,324.643 -699.29,232.48c-80.62,-41.369 -126.53,-138.621 -136.42,-289.211c-13.14,-200.581 -67.53,-315.314 -161.52,-340.993c-111.232,-30.344 -256.695,71.101 -359.117,161.568c-115.937,102.387 -225.658,233.14 -282.967,317.293c-72.19,106.016 -188.033,223.434 -296.671,235.213c-43.699,4.712 -82.408,-8.575 -114.994,-39.39c-70.354,-66.531 -93.193,-345.517 -106.237,-609.614l-3.626,0.188c13.092,264.851 36.072,544.685 107.367,612.064c2.449,2.309 4.897,4.524 7.393,6.597c31.786,27.046 68.894,38.354 110.427,33.878Z" style="fill:url(#_Linear3);fill-rule:nonzero;"/></g><rect x="0.601" y="0.601" width="1815" height="1310" style="fill:none;stroke:#000;stroke-width:1.2px;"/><defs><linearGradient id="_Linear1" x1="0" y1="0" x2="1" y2="0" gradientUnits="userSpaceOnUse" gradientTransform="matrix(550.554,-215.547,215.547,550.554,-49.1346,972.503)"><stop offset="0" style="stop-color:#ffd3fe;stop-opacity:1"/><stop offset="1" style="stop-color:#fff;stop-opacity:1"/></linearGradient><linearGradient id="_Linear3" x1="0" y1="0" x2="1" y2="0" gradientUnits="userSpaceOnUse" gradientTransform="matrix(-2023.15,-589.145,589.145,-2023.15,2078.64,579.06)"><stop offset="0" style="stop-color:#27377b;stop-opacity:1"/><stop offset="0.42" style="stop-color:#4c5793;stop-opacity:1"/><stop offset="1" style="stop-color:#bb165f;stop-opacity:1"/></linearGradient></defs></svg>