<svg xmlns="http://www.w3.org/2000/svg" aria-labelledby="svg-logo-header" viewBox="0 0 145.15 49.68">
  <path fill="#fff" d="M7.81 22.33c0-.21 0-.43-.06-.65s0-.36 0-.55v-.3a11.11 11.11 0 0 1 .18-2.21 11.5 11.5 0 0 1 .26-1.13 14.64 14.64 0 0 1 3.75-6.41c.25-.25.51-.49.77-.72.27-.23.54-.45.83-.66l.13-.11c.25-.18.51-.35.77-.51l.28-.19.63-.35c.17-.1.35-.19.53-.28l.39-.26.9-.38a14.78 14.78 0 0 1 5.27-1c5.32 0 9.25 3.38 9.91 8.18v.33a11.35 11.35 0 0 1-.35 4.2C30.33 26 23.67 30.7 16.82 30.68a8.65 8.65 0 0 1-3.62-.8 9.72 9.72 0 0 1-5.39-7.55m27 7a23.56 23.56 0 0 0 2.38-3.29A21.66 21.66 0 0 0 40 18.58a17.46 17.46 0 0 0-.15-7.37 14.23 14.23 0 0 0-3-5.86 14.48 14.48 0 0 0-5.45-3.91A19.54 19.54 0 0 0 23.71 0a23.8 23.8 0 0 0-8.35 1.46A23.9 23.9 0 0 0 3.11 11.6a21.92 21.92 0 0 0-2.8 7.48 17.62 17.62 0 0 0 .16 7.37 14.48 14.48 0 0 0 2.94 5.86 14.23 14.23 0 0 0 5.41 3.91 19.61 19.61 0 0 0 7.74 1.44 24 24 0 0 0 8.33-1.47 24.83 24.83 0 0 0 4.83-2.43l3.61 3.76h9.37ZM54.09 8l-2.74 15.66c-.15.85-.27 1.71-.36 2.59a6.63 6.63 0 0 0 .15 2.39 3.12 3.12 0 0 0 1.18 1.75 4.59 4.59 0 0 0 2.75.67 5.69 5.69 0 0 0 3-.67 5.35 5.35 0 0 0 1.79-1.75 7.85 7.85 0 0 0 1-2.39c.22-.88.4-1.74.55-2.59L64.11 8h7.35l-2.93 16.7q-1.17 6.74-4.75 9.85t-9.86 3.1c-4.2 0-7.13-1-8.8-3.1S43 29.19 43.79 24.7L46.71 8Zm19.06 17.58h21l1.16-6.36H74.3ZM97.41 8H76.35l-1.15 6.31h21ZM72.25 30.48h21.06l-1.16 6.37H71.1Zm41.6 4.39a10.79 10.79 0 0 0 2.77-3.06 11.65 11.65 0 0 0 1.49-4 7 7 0 0 0-.76-5.27 9.25 9.25 0 0 0-4.87-3.24c-.58-.2-1.18-.4-1.79-.58a8.79 8.79 0 0 1-1.63-.64 3.28 3.28 0 0 1-1.12-.88 1.68 1.68 0 0 1-.25-1.34A2.77 2.77 0 0 1 109 14a6.33 6.33 0 0 1 2.91-.82 11.3 11.3 0 0 1 2.63.22 20.92 20.92 0 0 1 3.84 1.23l1.22-5.93a14.93 14.93 0 0 0-3.51-1.23 20.54 20.54 0 0 0-4.42-.36 16.1 16.1 0 0 0-4.46.81 11.75 11.75 0 0 0-3.54 1.93 11.08 11.08 0 0 0-2.56 3 11.52 11.52 0 0 0-1.42 3.86 7.51 7.51 0 0 0 0 3.5 5.26 5.26 0 0 0 1.36 2.27 7 7 0 0 0 2.25 1.46c.88.37 1.8.71 2.73 1s1.46.54 2 .77a5.48 5.48 0 0 1 1.32.76 2 2 0 0 1 .65.93 2.42 2.42 0 0 1 0 1.18 3.31 3.31 0 0 1-1.31 2 4.82 4.82 0 0 1-3 .86 14.46 14.46 0 0 1-4.52-.73 25.15 25.15 0 0 1-3.16-1.14L96.64 36a22.11 22.11 0 0 0 8.36 1.55 16.54 16.54 0 0 0 5-.7 12.9 12.9 0 0 0 3.94-2m23-20.56-4.1 22.54h-7.34l4.1-22.54h-7.17L123.47 8h21.68L144 14.31Zm-11.69 35.18v-7.4h1.93l3.55 4.53v-4.53h1.92v7.4h-1.92L127.18 45v4.52Zm-12.61-3.7a2 2 0 0 0 .17.82 2.08 2.08 0 0 0 1.11 1.07 2.18 2.18 0 0 0 .8.15 2.11 2.11 0 0 0 .8-.15 1.88 1.88 0 0 0 .67-.43 1.84 1.84 0 0 0 .46-.64 2 2 0 0 0 0-1.63 1.88 1.88 0 0 0-.46-.65 2 2 0 0 0-.67-.42 1.94 1.94 0 0 0-.8-.16 2 2 0 0 0-.8.16 2.06 2.06 0 0 0-.66.42 2 2 0 0 0-.62 1.46m-2 0a3.87 3.87 0 0 1 .31-1.53 3.56 3.56 0 0 1 .85-1.24 3.77 3.77 0 0 1 1.29-.83 4.4 4.4 0 0 1 1.65-.3 4.49 4.49 0 0 1 1.66.3 3.91 3.91 0 0 1 1.3.83 3.79 3.79 0 0 1 1.15 2.77 3.92 3.92 0 0 1-.3 1.54 4 4 0 0 1-.85 1.24 4.07 4.07 0 0 1-1.3.83 4.49 4.49 0 0 1-1.66.3 4.4 4.4 0 0 1-1.65-.3 3.92 3.92 0 0 1-1.29-.83 3.66 3.66 0 0 1-.85-1.24 3.92 3.92 0 0 1-.31-1.54m-6.42 3.7h-1.93v-7.4h1.93Zm-9.55-5.77v5.77h-1.92V43.7h-1.58v-1.63h5.09v1.63Zm-9.52 5.77h-1.92v-7.4h1.92ZM73 45.38h.36a1.46 1.46 0 0 0 .88-.23.83.83 0 0 0 .3-.68.81.81 0 0 0-.3-.68 1.4 1.4 0 0 0-.88-.23H73Zm4.24 4.09h-2.4L73 46.63v2.84h-1.93v-7.4h3a3 3 0 0 1 1.08.19 2 2 0 0 1 1.22 1.22 2.54 2.54 0 0 1 .15.88 2.19 2.19 0 0 1-.41 1.37 2 2 0 0 1-1.2.71ZM63.48 43.7v5.77h-1.93V43.7H60v-1.63h5.09v1.63Zm-14.06-1.63v4.66a2 2 0 0 0 .15.61 1 1 0 0 0 .39.45 1.37 1.37 0 0 0 .74.17 1.41 1.41 0 0 0 .75-.17 1 1 0 0 0 .38-.45 1.72 1.72 0 0 0 .16-.61v-4.66H54v4.29a3.49 3.49 0 0 1-.79 2.52 3.32 3.32 0 0 1-2.44.8 3.31 3.31 0 0 1-2.43-.8 3.45 3.45 0 0 1-.8-2.52v-4.29Zm-16.08 7.4v-7.4h1.92l3.56 4.53v-4.53h1.92v7.4h-1.92L35.26 45v4.52ZM138.41 46.54a2.13 2.13 0 1 1 2.12-2.12 2.12 2.12 0 0 1-2.12 2.12Zm-1.78-2.12a1.78 1.78 0 1 0 1.78-1.78 1.77 1.77 0 0 0-1.78 1.78Zm1.09-1a5.51 5.51 0 0 1 .61 0c.69 0 .83.3.83.55a.5.5 0 0 1-.47.51.47.47 0 0 1 .36.36 2.86 2.86 0 0 0 .2.6H139a2.37 2.37 0 0 1-.15-.5.45.45 0 0 0-.45-.39h-.4v.89h-.25Zm.25.91h.42c.34 0 .52-.15.52-.37s-.21-.38-.57-.38a1.47 1.47 0 0 0-.37 0Z" class="cls-1"/>
</svg>
