<svg xmlns="http://www.w3.org/2000/svg" fill="none" viewBox="0 0 132 25">
  <g fill="#fff" clip-path="url(#a)">
    <path d="m64.5693 8.46268-1.2375 1.73682-.0014-3.56864H59.3066v.55326c.3476.11561.4247 1.49051.4401 2.28324V19.9711h3.5851v-8.2769c.2621-.823 1.2193-1.77129 2.5479-1.77129h2.1542V6.73408h-1.1423c-1.0063 0-1.6159.6441-2.3223 1.7286ZM91.8973.55326c.4148.139.4442 2.06579.4442 2.66309v3.90311c-.6236-.56152-1.6341-.8698-2.8282-.8698-3.714 0-6.5997 2.6507-6.5997 7.47174 0 4.3381 2.5017 6.5057 5.7406 6.5057l3.6873-1.4974v1.2428h3.6103V0h-4.0545v.55326ZM92.3415 18.12H90.954c-3.3664 0-4.482-2.5117-4.482-5.6234 0-3.18887 1.2502-5.15005 3.4309-5.15005 1.5543 0 2.4386 1.1712 2.4386 3.28105V18.12ZM99.0659.55326c.3644.12249.4317 1.63226.4429 2.39747V19.9711h3.6102V0h-4.0531v.55326ZM112.174 6.24951c-3.676 0-6.416 3.03193-6.416 7.32039 0 3.9279 2.52 6.657 6.286 6.657.381 0 .759-.0922 1.161-.2546l3.768-1.5634v-.6524s-.923.3647-2.464.3647c-4.283 0-5.608-2.4332-5.502-5.9578h8.467v-.6318c-.002-3.06354-1.82-5.28209-5.3-5.28209Zm-3.117 4.92159c.207-2.34658 1.142-4.02976 2.858-4.02976 1.688 0 2.337 1.63226 2.337 4.02976h-5.195ZM75.2039 6.24414c-3.3202 0-5.4827 1.25654-5.4827 3.37325v.30415h3.2319v-.7652c0-1.22489.6881-2.01487 1.9355-2.01487 1.351 0 1.7505.91798 1.7505 2.3727v2.12223l-3.9215 1.4024c-1.9481.7143-3.5584 1.6529-3.5584 3.8467 0 2.041 1.6538 3.3416 3.4799 3.3416l.4275-.0097 3.5949-1.4794v1.2331h3.5935l-.0309-9.5899c-.0014-2.98374-1.6958-4.13706-5.0202-4.13706ZM76.6391 18.12h-1.7337c-1.5991 0-2.2663-.8767-2.2663-2.2034 0-1.4286.6756-1.9929 1.7659-2.4002l2.2341-.8932V18.12ZM128.83 6.45312v.5395c.79.15002 1.152 1.0735.534 2.74429l-2.781 6.68459-3.432-8.07187c-.339-.87393-.516-1.3281-.638-1.89651h-4.514v.55327c.477.23534.887.62483 1.654 2.15111l5.212 11.39-.419 1.0047c-.126.2477-.44.5271-.928.5271l-3.731.0165.014 2.904h1.978c1.656 0 2.499-.9607 3.055-2.0988l5.943-13.68157c.372-.91659.84-1.83732 1.224-2.14698v-.61933h-3.171ZM51.9008 10.6496c-.0533-.0041-.0561-.077-.0042-.0867 2.2999-.3839 4.4274-1.79462 4.4274-4.1508 0-2.93009-2.2747-4.33113-6.2718-4.33113H34.2277c-.0897.62758-.2551 1.06248-.4316 1.6006L29.7289 14.5046 25.6421 3.63478c-.1836-.50785-.4135-1.03358-.485-1.55519h-3.7392v.55326c.4317.14451.328 1.28682.1724 2.28874L19.6576 17.8792c-.1149.7336-.4849.9372-1.1745.9372h-1.6495c-.698 0-.9713-.3014-.9713-.9372V5.22162c.0028-.66612.0449-2.45527.4443-2.58877v-.55326H12.074v8.17511H4.25779V2.07959H0v.55326c.38682.12937.43867 1.82081.44288 2.52822V16.8897C.43728 17.5971.38682 19.2885 0 19.4179v.5532h4.25779v-8.5604h7.81201v8.5604h8.7735c0-.4431.0645-1.3721.1429-1.9144l1.7225-11.77122L27.806 19.9711h1.3202l5.1394-13.68562S35.4821 14.294 35.981 18.0567c.143 1.0818.1514 1.613.1514 1.9144h4.4358v-.5532c-.4177-.2725-.7148-2.6617-.7148-2.6617-.6531-4.5596-1.829-12.60257-1.829-12.60257-.1051-.63171.1808-.91935.7694-.91935h3.9509c.8059 0 1.0231.36747 1.0231 1.17809l.0014 12.37403c0 1.0983-.0771 2.5833-.4373 2.6301v.5533h7.1506c4.4904 0 6.8772-1.7328 6.8772-4.817.0028-2.6025-2.248-4.2761-5.4589-4.5032Zm-4.3223-7.41394h1.246c2.398.0289 3.7897 1.06248 3.7897 3.33058 0 2.39609-1.2194 3.62096-3.7631 3.62096h-1.2712V3.23566h-.0014Zm2.4134 15.59044h-.2593c-1.557 0-2.1541-.4033-2.1541-1.7782v-5.7555h1.7912c2.4764.0234 4.2045 1.5428 4.2045 3.8109-.0014 2.524-1.2474 3.7228-3.5823 3.7228Z"/>
  </g>
  <defs>
    <clipPath id="a">
      <path fill="#fff" d="M0 0h132v25H0z"/>
    </clipPath>
  </defs>
</svg>
