<svg xmlns="http://www.w3.org/2000/svg" fill="none" viewBox="0 0 97 28">
  <path fill="#252525" fill-rule="evenodd" d="M13.624 22.182v-8.825h2.932v8.713a2.613 2.613 0 0 0 2.79 2.664c2.233 0 2.977-1.287 2.977-2.031v-9.346h2.932v13.699h-1.711l-1.124-1.533a5.113 5.113 0 0 1-4.048 1.868c-2.798 0-4.748-1.89-4.748-5.21ZM46.916 8.468h2.865v6.22a4.762 4.762 0 0 1 3.794-1.659c2.709 0 4.897 1.578 4.897 5.03v4.272c0 3.452-2.233 5.03-4.792 5.03a5.097 5.097 0 0 1-4.033-1.846l-1.064 1.533h-1.667V8.468Zm5.953 16.259a2.641 2.641 0 0 0 2.745-2.612v-3.847a2.633 2.633 0 0 0-2.723-2.604c-1.927 0-3.103 1.093-3.103 2.589v3.758c-.052 1.853 1.258 2.716 3.043 2.716h.038ZM35.955 8.483h2.865v18.603h-1.667l-1.064-1.489a5.11 5.11 0 0 1-4.033 1.794c-2.582 0-4.792-1.578-4.792-5.03v-4.287c0-3.452 2.188-5.037 4.896-5.037a4.763 4.763 0 0 1 3.795 1.66V8.482ZM30.13 22.13a2.64 2.64 0 0 0 2.745 2.604c1.816 0 3.126-.863 3.081-2.716V18.26c0-1.488-1.176-2.589-3.103-2.589a2.633 2.633 0 0 0-2.723 2.612v3.847Zm30.33-13.647h2.931v18.603H60.46V8.483Zm-19.02 4.874h2.932v13.699h-2.932v-13.7Zm1.488-1.652a1.652 1.652 0 1 1 1.516-1.018 1.661 1.661 0 0 1-1.538 1.018h.022Zm28.507 13.03a3.72 3.72 0 0 0 3.311-1.57l2.128 1.301c-.788 1.83-2.723 2.925-5.439 2.925-3.602 0-5.953-1.868-5.953-5.03v-4.235c0-3.11 2.314-5.09 5.953-5.09 3.46 0 5.7 1.876 5.7 5.031v3.088h-8.676v1.131c0 1.421.997 2.448 2.976 2.448Zm-2.976-6.698v.87h5.752v-.84c0-1.421-.983-2.396-2.88-2.396-1.898 0-2.872.975-2.872 2.396v-.03Zm-62.379-5c3.72 0 5.544 1.95 5.544 4.636v9.383H9.91l-1.116-1.533a5.499 5.499 0 0 1-4.241 1.868C2.054 27.39 0 26.029 0 23.343c0-3.803 4.465-4.405 6.228-4.405h2.463v-1.08c0-1.339-.826-2.187-2.612-2.187a3.058 3.058 0 0 0-3.103 1.615L.67 15.879c.721-1.704 2.56-2.842 5.41-2.842Zm2.612 9.629v-1.704h-1.25c-1.652.06-4.353.416-4.353 2.06 0 1.162 1.012 1.712 2.403 1.712a3.66 3.66 0 0 0 2.888-1.228c.194-.238.304-.533.312-.84ZM83.952 13.84l12.783-8.029v2.166l-12.783 8.029-12.784-8.03V5.812l12.784 8.03Zm0-10.038a8.267 8.267 0 0 1 6.898 3.72l-1.883 1.184a7.954 7.954 0 0 0-11.593-1.488l-.313.275a8.267 8.267 0 0 1 6.89-3.69Zm0 3.684a4.62 4.62 0 0 1 3.787 1.986l-1.815 1.139a4.316 4.316 0 0 0-3.453-1.912 3.966 3.966 0 0 0-2.3.744 4.613 4.613 0 0 1 3.78-1.957Zm-8.64-3.237c-.486.403-.944.841-1.368 1.31a11.905 11.905 0 0 1 20.016 0l-1.95 1.22v-.045A11.481 11.481 0 0 0 75.313 4.25Z" clip-rule="evenodd"/>
</svg>
