<svg width="157" height="28" viewBox="0 0 157 28" fill="none" xmlns="http://www.w3.org/2000/svg">
<path d="M31.0223 5.96533H44.6691V9.83508H39.8355V21.5191H35.8522V9.83508H31.0186V5.96533H31.0223Z" fill="white"/>
<path d="M62.0308 5.96387V21.5176H58.0512V15.7336H51.7257V21.5176H47.7686V5.96387H51.7257V12.0059H58.0512V5.96387H62.0308Z" fill="white"/>
<path d="M70.0684 5.96387V21.5176H66.0889V5.96387H70.0684Z" fill="white"/>
<path d="M81.7047 5.96387C85.6842 5.96387 87.5117 8.55492 87.5117 11.647C87.5117 13.8193 86.5383 15.8532 84.4497 16.8104L87.8101 21.5176H83.0548L80.1121 17.3488H78.0831V21.5176H74.126V5.96387H81.7047ZM78.0869 9.59433V13.7408H81.4883C83.0809 13.7408 83.6776 12.7649 83.6776 11.6881C83.6776 10.4917 83.0809 9.59433 81.4883 9.59433H78.0869Z" fill="white"/>
<path d="M91.0361 5.96387H98.2381C103.09 5.96387 105.578 9.51207 105.578 13.7408C105.578 17.9881 103.09 21.5176 98.2381 21.5176H91.0361V5.96387ZM95.0157 9.83362V17.6703H97.9397C100.308 17.6703 101.561 16.0738 101.561 13.7408C101.561 11.4077 100.308 9.83362 97.9397 9.83362H95.0157Z" fill="white"/>
<path d="M109.636 5.91162H121.552V9.78137H113.615V12.0135H120.138V15.6215H113.615V17.6143H121.552V21.4617H109.636V5.91162Z" fill="white"/>
<path d="M134.181 5.91113L140.447 21.4649H136.109L135.255 19.1917H129.15L128.296 21.4649H123.958L130.242 5.91113H134.181ZM132.212 11.0147L130.5 15.5799H133.901L132.212 11.0147Z" fill="white"/>
<path d="M150.893 5.91113C154.873 5.91113 156.7 8.50218 156.7 11.5942C156.7 13.7665 155.727 15.8005 153.638 16.7576L156.999 21.4649H152.243L149.301 17.296H147.272V21.4649H143.314V5.91113H150.893ZM147.272 9.5416V13.688H150.673C152.266 13.688 152.862 12.7122 152.862 11.6354C152.862 10.4389 152.266 9.5416 150.673 9.5416H147.272Z" fill="white"/>
<path d="M18.4569 23.5586L18.7366 24.1194H3.542H3.42639C3.32941 24.1194 3.2399 24.0708 3.18768 23.9885C3.13547 23.9063 3.13174 23.8016 3.17649 23.7156L3.19515 23.6745L10.8521 8.31885L11.1654 8.94324L3.87767 23.5586H18.4569Z" fill="white"/>
<path d="M23.182 23.5582H19.0794L19.3591 24.1153H22.9619L23.7116 23.3637L13.869 3.62988L12.5114 4.99084L11.165 7.68658L11.4783 8.31471L13.5296 4.1982L23.182 23.5582Z" fill="white"/>
<path d="M27.039 20.5524L16.9353 0.287627C16.8533 0.126855 16.6257 0.111895 16.4989 0.224061L16.4877 0.212845L10.1846 6.53157L10.1958 6.54279C10.1734 6.56148 10.1473 6.57644 10.1324 6.60635L0.028743 26.8711C-0.016013 26.9571 -0.00855408 27.0618 0.0399315 27.1441C0.0921468 27.2263 0.181664 27.2749 0.278635 27.2749H20.4897C20.5643 27.2749 20.6277 27.2375 20.6799 27.1852L20.6873 27.1927L23.824 24.0483L23.8613 24.0109L26.9905 20.8739L26.983 20.8665C26.9979 20.8515 27.0166 20.8403 27.0278 20.8216C27.0762 20.7431 27.08 20.6384 27.039 20.5524ZM0.946236 26.7178L3.53836 24.1193H3.42274C3.32577 24.1193 3.23625 24.0707 3.18403 23.9884C3.13182 23.9062 3.12809 23.8015 3.17284 23.7155L3.1915 23.6744L1.28937 25.5812L10.3748 7.3616L10.8522 8.31502L11.1655 8.93942L11.6429 9.89283L6.35052 20.5075L4.44839 22.4144L3.88149 23.551H4.10526L6.69738 20.9525H17.1628L18.4607 23.551L18.7405 24.1118L20.0384 26.7104H0.946236V26.7178ZM11.9562 10.521L16.8793 20.3954H7.02932L11.9562 10.521ZM23.7121 23.364L22.9624 24.1156L20.5605 26.5234L19.3596 24.1156L19.0799 23.5547L17.7819 20.9562H21.8846L21.6048 20.3954H17.5022L12.2658 9.89283L14.3171 5.78005L14.0038 5.15566L11.9525 9.27218L11.4751 8.31876L11.1618 7.69437L10.7142 6.79329L12.5082 4.99489L13.8658 3.63393L15.6598 1.83553L14.3134 4.53126L14.6266 5.15566L16.678 1.03914L26.3303 20.3954H22.2277L22.5074 20.9562H26.1103L23.7121 23.364Z" fill="white"/>
</svg>
