<svg width="828" height="973" viewBox="0 0 828 973" fill="none" xmlns="http://www.w3.org/2000/svg">
<rect width="828" height="973" fill="#ABC1B0"/>
<path d="M298.922 529.564L289.719 532.124L308.968 324.44L309.116 322.842C309.238 321.529 310.135 320.399 311.514 319.914C312.897 319.394 314.505 319.589 315.852 320.359L316.484 320.737L549.547 460.35L539.234 463.182L317.391 330.292L298.922 529.564Z" fill="#FFD167"/>
<path d="M290.307 599.246L295.493 544.352L286.448 546.87L281.898 595.028L292.632 606.718L611.505 518.559L592.08 497.403L551.902 473.482L541.763 476.303L603.079 512.79L290.307 599.246Z" fill="#FFD167"/>
<path d="M331.708 655.324L665.007 563.267C667.662 562.533 668.202 559.408 666.551 557.407L666.729 557.288L574.789 456.712L574.611 456.83C574.308 456.499 574.135 456.114 573.702 455.836L266.017 271.484C264.714 270.685 263.061 270.519 261.677 271.04C260.294 271.56 259.4 272.655 259.278 273.969L233.664 550.378C233.569 551.408 234.063 552.379 234.82 553.208L234.731 553.267L280.493 603.327L281.062 603.949L326.71 653.885L326.799 653.826C327.026 654.074 327.168 654.346 327.439 654.566C328.694 655.43 330.294 655.732 331.708 655.324ZM267.275 284.477L305.119 325.876L305.267 324.278C305.389 322.964 306.286 321.834 307.667 321.349C309.05 320.828 310.659 321.023 312.006 321.793L312.639 322.172L284.83 291.79L561.487 457.533L545.774 461.857L535.456 464.69L519.743 469.015L358.587 372.475L330.819 342.099L313.544 331.767L313.261 334.822L351.105 376.221L337.842 519.344L295.068 531.145L285.86 533.707L243.086 545.508L267.275 284.477ZM509.505 471.895L347.053 516.747L359.536 382.041L509.505 471.895ZM291.457 603.43L280.509 591.453L245.468 553.121L285.074 542.195L294.281 539.633L337.056 527.832L331.856 583.945L341.064 581.383L346.263 525.27L518.991 477.58L581.487 515.005L591.804 512.172L529.309 474.746L545.022 470.422L555.298 467.582L570.073 463.483L596.249 492.118L616.062 513.792L642.239 542.427L601.288 517.891L590.97 520.725L653.465 558.15L335.067 646.091L340.267 589.978L331.059 592.539L326.495 641.798L291.457 603.43Z" fill="#FFD167"/>
</svg>
