<svg xmlns="http://www.w3.org/2000/svg" fill="none" viewBox="0 0 163 22">
  <path fill="#fff" d="M160.15 21.3672h-3.293V22h3.293v-.6328ZM111.787 13.9653h-4.512v.6556h4.512v-.6556ZM163 14.0215h-1.239v1.2119H163v-1.2119ZM162.812 3.29248h-3.695v.90788h3.695v-.90788ZM151.937 13.6824h5.798v-.9079h-6.295c-.4-.7321-.802-1.4704-1.216-2.2273-.503-.92234-1.007-1.84469-1.51-2.76704 1.51-1.62963 3.024-3.2634 4.559-4.92198.932-1.00714.998-1.77026.226-2.43204-.738-.63282-1.461-.4984-2.358.46738-1.917 2.05979-3.683 3.97068-5.597 6.03666-.315.34123-.63.6804-.945 1.02163 0-1.97293 0-3.95206-.002-5.96015 0-1.35871-.476-1.96672-1.501-1.95018-.982.01655-1.423.59147-1.428 1.89435-.006 2.78567-.002 5.36247-.002 8.14817 0 2.7464-.002 5.4927.002 8.2412.002 1.367.48 1.9874 1.489 1.9626.99-.0248 1.44-.6515 1.44-2.0247 0-2.0349.002-4.043.002-6.0428.677-.73 1.349-1.4559 2.022-2.1818.496.9141.996 1.8261 1.492 2.7381h-1.053v.9079h1.548c.967 1.7723 1.937 3.5508 2.92 5.3542.656 1.1994 1.366 1.5159 2.263 1.0299.859-.4654.973-1.1768.347-2.3287-.747-1.3918-1.472-2.7215-2.201-4.0575ZM137.598 7.76515c0-1.84264-.002-3.7225-.004-5.74299 0-1.3732-.463-1.9874-1.47-2.00188-1.03-.01448-1.495.58112-1.497 1.96258-.006 3.21997 0 6.23106-.006 9.45314 0 .397-.017 1.216-.019 1.6379-.383-.6143-.639-1.0258-.812-1.3236-1.282-2.22523-2.561-4.3636-3.841-6.52679 0 .00207 0 .00414-.002.0062-.706-1.19326-1.41-2.39481-2.114-3.62323-.476-.8293-.918-1.8261-2.119-1.5345-1.286.31228-1.127 1.45798-1.129 2.43203-.009 2.00809-.006 3.90657-.004 5.85261h-.002c0 1.3401 0 2.65748.002 3.98928-.002 1.5242 0 3.0483.002 4.5725v1.3421c0 .0228.002.0455.002.0683v.2275c.006 1.1415.56 1.7826 1.495 1.7103.013 0 .025-.0021.038-.0042.983-.0124 1.429-.6101 1.434-1.9605.006-3.22 0-6.231.006-9.45308 0-.09307.002-1.42903.002-2.14044.15.21714.417.71554.503.86858 1.362 2.39481 2.561 4.54144 3.815 6.73774 0-.0021.002-.0021.002-.0041.554.9719 1.121 1.9543 1.715 2.9718.112.1923.639 1.2036.749 1.398.475.8293.917 1.8261 2.118 1.5345 1.286-.3123 1.127-1.458 1.129-2.4321 0-.2047.003-.4053.003-.6059.002-.2503.004-.3661.004-.1241 0-3.2613 0-6.1504-.002-9.1222.002-.05584.002-.10961.002-.16545ZM57.4734 1.27969c-.0338-.09513-.0973-.27505-.1522-.37018h-.0022c-.2326-.46531-.7189-.78793-1.2856-.78793-.0085 0-.019.00207-.0275.00207-.0084 0-.019-.00207-.0275-.00207-.5646 0-1.053.32262-1.2856.78793h-.0021c-.055.09513-.1163.27505-.1523.37018-2.0722 5.68096-3.969 11.09101-5.9292 16.80921-.3679 1.0774-.0021 1.8757.8564 2.1404.9135.2813 1.5902-.1696 1.9898-1.3463.3849-1.1333.7634-2.2397 1.1419-3.3358h6.813c.3785 1.0961.7592 2.2025 1.1419 3.3358.3996 1.1767 1.0763 1.6276 1.9898 1.3463.8585-.2647 1.2243-1.063.8564-2.1404-1.956-5.7203-3.8527-11.12825-5.925-16.80921ZM53.4029 13.2269c.2136-.6142.425-1.2285.6386-1.8427l1.9644-5.51135 1.9644 5.51135c.2136.6142.4251 1.2285.6386 1.8427h-5.206ZM48.2686.0806c-.9135-.28126-1.5902.16958-1.9898 1.3463-.8733 2.57473-1.7276 5.02538-2.584 7.49878l-1.9644 5.51142-1.9644-5.51142c-.8585-2.4734-1.7128-4.92405-2.5861-7.49878C36.7802.25018 36.1036-.20066 35.1901.0806c-.8585.2647-1.2244 1.06298-.8564 2.14044 1.9602 5.72024 3.8569 11.12826 5.9292 16.80916.0338.0951.0972.2751.1522.3702h.0021c.2326.4653.719.7879 1.2857.7879.0084 0 .019-.002.0275-.002.0084 0 .019.002.0275.002.5645 0 1.053-.3226 1.2856-.7879h.0021c.055-.0951.1163-.2751.1523-.3702 2.0722-5.6809 3.969-11.09098 5.9292-16.80916.3658-1.07746 0-1.87573-.8585-2.14044ZM15.305 2.29149c0-.07859-.0063-.28953-.0063-.31641 0-.16752-.0318-.32469-.0762-.47772-.0126-.0455-.0253-.09307-.0423-.1365-.2537-.65557-.8965-1.12502-1.6578-1.12502-.7168 0-1.33.41568-1.6112 1.01335 0 0-.0022.00207-.0022.00413-.0126.02896-.0275.05791-.038.08686-.0254.05584-.0508.10754-.0719.16338C10.7397 4.51672 9.77334 7.108 8.72241 10.1232c-.34044.9761-.683 1.9502-1.02555 2.9263l-.02961.0807-.0296-.0807c-.34256-.9761-.68511-1.9502-1.02556-2.9263C5.56116 7.108 4.59481 4.51879 3.53754 1.50356c-.02115-.05584-.04652-.10754-.07189-.16131l-.03807-.08686c0-.00207-.00211-.00207-.00211-.00413C3.14423.65359 2.53101.23791 1.81418.23791c-.75912 0-1.40406.46738-1.6578 1.12502-.01692.04136-.0296.08893-.0423.13443-.0444.15303-.07612.3102-.07612.47772 0 .02688-.00634.23782-.00634.31641C.02104 8.27645.0147 12.5284.00624 18.5133c0 .0249-.0148.3537 0 .3744 0 .7672.63648 1.3918 1.42309 1.3918.7845 0 1.59437-.6225 1.59437-1.3918 0-.4757 0-.9121.00423-1.9895.01269-3.1807.02538-6.0305.03807-9.20908 0-.09927-.00212-.22955 0-.37018l.6111 1.71442c.06978.2006.14379.40947.22203.63696.46943 1.34628.93886 2.63468 1.40617 3.92728l1.28142 3.588h.00211c.00212.0042.00212.0083.00423.0104.05287.153.10996.2833.17551.3908.19454.3227.45463.4509.88388.4633.00635 0 .00846-.0021.0148-.0021.00635 0 .00846.0021.01481.0021.42925-.0124.69145-.1406.88388-.4633.06555-.1075.12264-.2357.1755-.3908.00212-.0042.00212-.0083.00423-.0104h.00212l1.28141-3.588c.4694-1.2926.9368-2.581 1.4062-3.92728.0782-.22749.1522-.43636.222-.63696l.6111-1.71442c.0021.13856 0 .27091 0 .37018.0127 3.18068.0233 6.03048.0381 9.20908.0042 1.0774.0042 1.5138.0042 1.9895 0 .7672.8078 1.3918 1.5944 1.3918.7845 0 1.4231-.6225 1.4231-1.3918.0148-.0207 0-.3495 0-.3744-.0064-5.9849-.0148-10.23685-.0233-16.22181ZM92.4734 17.3864c-.3997-.0228-.8035-.0104-1.2032-.0104h-5.2737v-1.3918c0-4.8289-.0042-9.44688.0042-14.27579.0021-.96372-.3742-1.63377-1.4252-1.66479-1.0403-.03102-1.5098.57285-1.5098 1.56552.0021 5.77195.0021 11.33296 0 17.10286 0 1.0216.5583 1.5448 1.5521 1.5552 2.6094.0289 5.2187.031 7.8281-.0021.9346-.0124 1.5119-.5336 1.4929-1.4869-.0233-.8893-.5773-1.3381-1.4654-1.3918ZM119.011.03109c-.981.01654-1.423.59146-1.427 1.89434-.002.71555-.002 1.41662-.002 2.10942h-3.705v1.03817h3.705c0 1.65237.002 3.28614.002 5.00058v4.2581h-1.252v1.9853h1.252v1.9957c.002 1.367.48 1.9874 1.488 1.9626.99-.0248 1.44-.6514 1.44-2.0246.002-5.4928.002-10.77667 0-16.2715 0-1.35665-.475-1.96465-1.501-1.94811ZM32.2828 5.70158C31.9635 2.44853 29.4515.1778 26.2373.07233c-.0972-.00414-.2262-.00414-.3658-.00414-.1839-.00206-.3637 0-.5117.00414-.1544.00414-.3066.01654-.4589.03102-.0296.00207-.0634.00414-.0909.00827-2.9477.33296-5.1954 2.52303-5.4957 5.5879-.148 1.51588-.0846 4.33878-.0867 4.66758 0 1.2181-.0106 2.1446.0042 3.3606.0423 3.617 2.4445 6.2869 5.8806 6.5806v.002c.4208.0435.9812.0269 1.2455.0104 3.5059-.2358 5.9651-2.9305 6.0074-6.5909.0148-1.2181.0042-2.1446.0042-3.3606-.0021-.3288.0614-3.15173-.0867-4.66762Zm-2.9244 8.28462c-.0994 1.9502-1.3025 3.22-3.0915 3.3999-.1416.0104-.4123.0248-.5349.0228-.1163-.0021-.2305-.0083-.3426-.0166-.019-.0021-.0381-.0041-.0571-.0062-1.791-.1778-2.9942-1.4476-3.0936-3.3999-.0655-1.2884-.0127-2.3741-.0148-3.6666 0-1.29258-.0507-2.58718.0106-3.87558.1015-2.13631 1.5288-3.50123 3.5651-3.50123s3.4615 1.36492 3.5652 3.50123c.0613 1.2884.0105 2.583.0105 3.87558-.0042 1.2925.0487 2.3782-.0169 3.6666Z"/>
  <path fill="#fff" d="M99.3372 2.94084h5.2718c.401 0 .803.01447 1.203-.01035.89-.05376 1.442-.50253 1.461-1.39387.021-.95337-.558-1.47452-1.493-1.48693-2.609-.03309-5.218-.03102-7.8278-.00207-.9939.01034-1.5521.53356-1.5521 1.55518v.63696c0 2.78981.0021 5.38523.0021 7.97234 0 2.6058 0 5.2177-.0021 7.9703v.5294c0 1.0217.5582 1.5449 1.5521 1.5552 2.6098.029 5.2188.031 7.8278-.002.935-.0125 1.512-.5336 1.493-1.487-.019-.8913-.571-1.3421-1.461-1.3938-.4-.0228-.804-.0104-1.203-.0104h-5.2718c0-.7135-.0021-1.4166-.0021-2.1094v-4.3326h4.6249c.697 0 1.262-.5522 1.262-1.23462 0-.68246-.565-1.23463-1.262-1.23463h-4.6249V5.25706c0-.75277.0021-1.52416.0021-2.31622ZM76.8447 9.64344c.9347-1.01749 1.5056-2.35966 1.5056-3.83625 0-3.16413-2.5332-5.75127-5.7621-5.77195-.1417 0-.129-.00207-.1544 0-1.6832-.0062-2.751.00207-4.4321.02068-.9938.01034-1.5521.53356-1.5521 1.55518v.63696c0 1.2429 0 2.44651.0021 3.62944h-2.7298v.90788h2.7298v3.43502c0 2.6058 0 5.2177-.0021 7.9703v.5294c0 1.0217.5583 1.5449 1.5521 1.5552 1.8735.0207 3.508.0269 5.3815.0166.1015-.0042.2432-.0062.294-.0104 3.121-.2502 5.5295-2.827 5.5295-5.9456-.0021-1.9047-.9262-3.6067-2.362-4.69246Zm-7.4664-4.37188c0-.75691.0021-1.52829.0021-2.32036h3.4446c1.7466 0 2.7278 1.51382 2.7278 2.85806 0 1.68753-1.3618 3.00075-2.9435 3.00075h-3.231V5.27156Zm3.7766 12.11464h-3.7766c0-.7134-.0021-1.4166-.0021-2.1094v-3.9996h3.9499c1.7128 0 2.9837 1.4931 2.9837 3.0649.0021 1.8302-1.4083 3.0441-3.1549 3.0441Z"/>
</svg>
