<svg width="173" height="22" viewBox="0 0 173 22" fill="none" xmlns="http://www.w3.org/2000/svg">
<g clip-path="url(#clip0_2801_2450)">
<path d="M134.008 4.76918H140.152V20.8467H144.591V4.76918H150.722V0.687072H134.008V4.76918ZM65.524 13.1052L56.0766 0.687072H51.9805V20.8467H56.3673V8.03224L66.1318 20.8467H69.8975V0.687072H65.524V13.1052ZM103.512 13.6732H109.352C109.074 15.2057 107.568 17.4647 103.816 17.4647C102.942 17.4648 102.078 17.2918 101.272 16.9557C100.466 16.6196 99.7349 16.1272 99.1206 15.5068C98.5062 14.8864 98.021 14.1504 97.6929 13.3414C97.3648 12.5323 97.2004 11.6663 97.2091 10.7933C97.1966 9.90804 97.3621 9.02925 97.696 8.20922C98.0299 7.3892 98.5252 6.64468 99.1526 6.01987C99.78 5.39505 100.527 4.90271 101.348 4.57212C102.17 4.24153 103.049 4.07944 103.935 4.09546C105.078 4.09965 106.202 4.39244 107.202 4.9467C108.202 5.50095 109.046 6.29872 109.656 7.26603L113.105 5.13912C112.154 3.56214 110.808 2.26081 109.199 1.36406C107.591 0.467311 105.776 0.00623515 103.935 0.0265357C101.066 0.0018757 98.3038 1.11601 96.2553 3.12454C94.2068 5.13306 93.0387 7.87199 93.0073 10.7405C92.9931 12.1588 93.2625 13.5657 93.7996 14.8785C94.3368 16.1914 95.1309 17.3836 96.1352 18.3854C97.1396 19.3871 98.3341 20.1781 99.6485 20.7119C100.963 21.2458 102.371 21.5116 103.789 21.494C105.074 21.5526 106.357 21.3517 107.563 20.9032C108.768 20.4547 109.87 19.7677 110.804 18.8835C111.738 17.9993 112.484 16.9359 112.997 15.757C113.51 14.578 113.78 13.3077 113.792 12.0219V9.68358H103.565L103.512 13.6732ZM84.6698 9.24764C81.7629 8.16436 78.8824 7.78127 78.8824 5.83929C78.8824 4.71638 80.0716 3.87086 82.5425 3.87086C84.9713 4.02183 87.3341 4.722 89.4529 5.91855V1.61184C87.1893 0.598232 84.7448 0.0501277 82.265 0.000128776C77.3893 0.000128776 74.0993 2.47055 74.0993 6.03744C74.0993 10.0007 77.429 11.3217 79.7413 12.1937C82.6482 13.2901 85.4362 13.6864 85.4362 15.6284C85.4362 16.7513 84.1148 17.5968 81.6176 17.5968C79.1845 17.4327 76.8168 16.7383 74.6807 15.5624V19.8691C76.9481 20.8977 79.4052 21.4421 81.895 21.4676C86.8235 21.4676 90.2326 18.9972 90.2326 15.4303C90.2326 11.5463 86.9953 10.146 84.6698 9.24764ZM37.2875 0.000128776C35.1599 -0.0102923 33.0772 0.611991 31.3042 1.78786C29.5312 2.96373 28.1479 4.64007 27.3301 6.60388C26.5123 8.5677 26.2969 10.7303 26.7114 12.8168C27.1258 14.9033 28.1514 16.8194 29.6577 18.3217C31.164 19.824 33.0831 20.8447 35.171 21.2539C37.2588 21.6631 39.4213 21.4424 41.3834 20.6199C43.3455 19.7974 45.0188 18.4102 46.1905 16.6346C47.3622 14.859 47.9794 12.7752 47.9637 10.648C47.9637 9.24746 47.6874 7.8607 47.1505 6.56711C46.6137 5.27353 45.8269 4.09855 44.8351 3.10946C43.8434 2.12037 42.6663 1.33661 41.3711 0.803061C40.076 0.269513 38.6883 -0.00334646 37.2875 0.000128776V0.000128776ZM37.2875 17.2533C36.0009 17.2637 34.74 16.8928 33.664 16.1876C32.588 15.4823 31.7449 14.4742 31.2412 13.2905C30.7374 12.1068 30.5956 10.8004 30.8336 9.53622C31.0715 8.27201 31.6786 7.10654 32.5782 6.18685C33.4778 5.26717 34.6297 4.63444 35.8885 4.36848C37.1474 4.10252 38.4568 4.21524 39.6516 4.69242C40.8465 5.1696 41.8732 5.98988 42.6024 7.04978C43.3315 8.10967 43.7304 9.3617 43.7487 10.648C43.7871 11.519 43.6458 12.3886 43.3335 13.2027C43.0213 14.0167 42.5448 14.7579 41.9338 15.3799C41.3228 16.002 40.5903 16.4917 39.7818 16.8185C38.9734 17.1453 38.1064 17.3023 37.2346 17.2798L37.2875 17.2533ZM4.43962 0.660665H0V20.8203H14.4023V16.857H4.38675L4.43962 0.660665ZM167.913 16.8702H158.426V12.6428H167.067C167.001 11.9294 166.961 11.216 166.961 10.4895C166.961 9.76286 166.961 9.28726 167.041 8.69277H158.426V4.59748H167.741C168.12 3.23487 168.62 1.90861 169.234 0.634259H154.039V20.7938H169.379C168.753 19.5445 168.245 18.2399 167.86 16.8967L167.913 16.8702ZM18.0888 20.8334H22.5284V0.687072H18.0888V20.8334ZM123.265 0.673889L114.69 20.8334H119.209L120.821 16.8702H129.819L131.418 20.8334H135.963L127.375 0.673889H123.265ZM122.314 13.1448L125.313 5.85247L128.326 13.1448H122.314Z" fill="#252525"/>
<path d="M171.441 0C171.808 0 172.159 0.145431 172.418 0.404329C172.677 0.663227 172.822 1.01436 172.822 1.3805C172.822 1.74664 172.677 2.09777 172.418 2.35667C172.159 2.61557 171.808 2.76104 171.441 2.76104C171.075 2.76104 170.724 2.61557 170.465 2.35667C170.206 2.09777 170.061 1.74664 170.061 1.3805C170.061 1.01436 170.206 0.663227 170.465 0.404329C170.724 0.145431 171.075 0 171.441 0ZM171.441 0.277414C171.15 0.277414 170.872 0.392939 170.666 0.598571C170.46 0.804203 170.345 1.08308 170.345 1.37389C170.345 1.6647 170.46 1.94361 170.666 2.14924C170.872 2.35488 171.15 2.4704 171.441 2.4704C171.732 2.4704 172.011 2.35488 172.217 2.14924C172.422 1.94361 172.538 1.6647 172.538 1.37389C172.538 1.08308 172.422 0.804203 172.217 0.598571C172.011 0.392939 171.732 0.277414 171.441 0.277414V0.277414ZM171.23 2.08728H170.913V0.766205C171.088 0.74679 171.266 0.74679 171.441 0.766205C171.607 0.751522 171.773 0.788461 171.917 0.871913C171.958 0.90855 171.991 0.953309 172.014 1.00334C172.036 1.05338 172.048 1.10759 172.049 1.16255C172.045 1.24217 172.013 1.31793 171.961 1.3778C171.908 1.43767 171.837 1.47818 171.758 1.49282V1.49282C171.829 1.52029 171.89 1.56716 171.934 1.628C171.978 1.68883 172.005 1.76108 172.009 1.83627C172.009 2.03443 172.076 2.12691 172.115 2.16654H171.772C171.72 2.06221 171.685 1.95093 171.666 1.83627C171.666 1.69095 171.56 1.62489 171.375 1.62489H171.23V2.08728ZM171.23 1.32107H171.388C171.56 1.32107 171.706 1.25502 171.706 1.1097C171.706 0.964379 171.613 0.89832 171.415 0.89832H171.23V1.32107Z" fill="#252525"/>
</g>
<defs>
<clipPath id="clip0_2801_2450">
<rect width="172.822" height="21.5039" fill="white"/>
</clipPath>
</defs>
</svg>
