<svg xmlns="http://www.w3.org/2000/svg" fill="none" viewBox="0 0 80 42">
  <path fill="#fff" d="M79.3202 16.833c-.1354-.4729-.2878-.9543-.5164-1.385-.3894-.7601-.8297-1.4949-1.2784-2.2212-.6942-1.1317-1.6-2.0944-2.5736-2.9896-.5503-.50677-1.1175-.99661-1.7101-1.46111-.6434-.50672-1.3038-1.01345-1.9895-1.46105-.7704-.49828-1.5662-.95433-2.3705-1.38505-.8296-.44761-1.6762-.88677-2.5482-1.24992-1.4562-.60807-2.9208-1.16547-4.4277-1.63841-1.49-.4645-2.98-.89522-4.5123-1.22459-1.1429-.24491-2.2943-.47294-3.4372-.69252-.5842-.10979-1.1852-.194246-1.7779-.278701-.9651-.135126-1.9302-.295588-2.8953-.388488C48.0132.33068 46.7433.246224 45.4734.16177c-.3725-.025337-.745.025337-1.1175-.025336-1.0582-.152017-2.1165-.0929004-3.1747-.12668207-.6857-.01689084-1.3715-.00844542-2.0657 0-1.0498.01689087-2.0911.03378137-3.1408.05911767-.3387.0084454-.6858.0084462-1.0244.0337824-.999.076009-1.998.143571-2.997.253362-1.4561.160463-2.9207.329372-4.3684.532062-1.0244.143574-2.0403.346264-3.0562.523614-.4571.08445-.9143.17736-1.363.2787-1.0667.24492-2.1334.47295-3.1916.76009-.9398.25336-1.8541.58273-2.7853.88677-1.9049.61651-3.7335 1.40193-5.5198 2.29715-1.4646.73475-2.86151 1.57929-4.19066 2.54207-.31324.22803-.64341.43916-.93972.69252-.43176.36316-.86352.73475-1.26142 1.14011-.59262.5912-1.1937 1.1824-1.73552 1.8158-.65187.7432-1.24449 1.5371-1.69318 2.4238-.33017.6588-.66881 1.3091-.956652 1.9847-.321706.7432-.533354 1.5286-.651877 2.3309-.084659.5321-.135455 1.0642-.1947161 1.5962-.0169318.152-.0169322.2956-.0169322.4476-.0084659.4307-.0592615.8615 0 1.2837.0846593.6841.2285803 1.3513.3640353 2.0269.313239 1.5962 1.007442 3.0319 1.870972 4.4001.15238.2365.35557.4476.50795.6925.76194 1.1908 1.75245 2.1705 2.78529 3.1164.53336.4814 1.15137.8698 1.70166 1.3343 1.16829.9882 2.49744 1.7145 3.81817 2.4661.728.4138 1.4984.7516 2.2688 1.0979.8636.3885 1.7186.7939 2.616 1.0979 1.4138.4899 2.853.929 4.2922 1.3259 1.3546.3801 2.7261.7095 4.106.9966 1.0667.228 2.1503.3885 3.234.549 1.1598.1689 2.3197.304 3.4795.4391.5333.0676 1.0752.1267 1.6085.1605.8551.0591 1.7101.0844 2.5652.1267 1.1683.0506 2.3366.1266 3.5049.1435 1.5746.0254 3.1578.0085 4.7324.0085v-.0422c1.2445-.0761 2.489-.1521 3.7335-.2365.4148-.0254.8381-.076 1.253-.1183.8466-.0929 1.6931-.1942 2.5397-.304.8043-.1013 1.6086-.1858 2.4044-.3209.9736-.1689 1.9471-.3632 2.9038-.5828 1.2699-.2871 2.5398-.5827 3.8012-.9121.7789-.2026 1.5492-.4645 2.3196-.7178.8382-.2787 1.6848-.5321 2.506-.8614.8212-.321 1.6254-.701 2.4212-1.0811.7958-.38 1.5916-.7769 2.362-1.2077.6096-.3462 1.2022-.7432 1.7779-1.1401.8212-.5743 1.6593-1.1401 2.4297-1.7735.9905-.8108 1.9133-1.6976 2.6837-2.7194.5587-.7348 1.1259-1.4864 1.5831-2.2972.4318-.7516.7535-1.5624 1.0752-2.3647.2032-.5236.3471-1.0895.4571-1.6384.1101-.5574.144-1.1233.2032-1.6891.1016-.9712.0847-1.9425-.1016-2.9052-.1439-.7179-.3132-1.4273-.5164-2.1283Zm-1.0074 7.3222c-.3895 1.309-.9821 2.5336-1.7355 3.6822-.745 1.1232-1.634 2.1029-2.5822 3.0488-.4063.4054-.8973.7347-1.3376 1.1148-.8889.7685-1.8625 1.4188-2.8699 2.0015-.8805.5152-1.7863.9797-2.7007 1.4358-.6942.3462-1.4053.6672-2.1249.9712-.491.2111-.999.4054-1.5069.5827-.9228.321-1.8371.6588-2.7684.9375-.8889.2702-1.7948.4729-2.6922.6925-.4487.1098-.8974.228-1.3545.3209-.9397.1943-1.8795.3885-2.8192.5743-.6603.1267-1.3291.2534-1.9895.3463-.7534.1013-1.5154.152-2.2773.228-.5333.0591-1.0667.1267-1.6085.1773-.7112.0676-1.4308.1267-2.1419.1774-.7027.0507-1.4053.1098-2.108.1351-.9905.0338-1.981.0423-2.9716.0423-1.1005 0-2.1926 0-3.2932-.0338-1.109-.0338-2.2181-.0845-3.3271-.152-1.0921-.0676-2.1842-.1521-3.2679-.2703-1.0243-.1098-2.0487-.2534-3.0731-.4138-1.0836-.1689-2.1588-.3632-3.234-.5659-.7958-.152-1.5746-.3547-2.362-.532-.5079-.1183-1.0244-.2196-1.5323-.3632-.6942-.1942-1.38-.4138-2.0657-.6334-.3979-.1267-.7958-.2618-1.1937-.3885-1.3291-.4222-2.6075-.9881-3.8858-1.5539-1.2699-.5574-2.4552-1.2584-3.64887-1.9509-1.27835-.7348-2.42972-1.6553-3.53029-2.6181-.64341-.5574-1.15136-1.2668-1.76091-1.858-.51642-.4983-.86353-1.1148-1.25296-1.6891-.73653-1.0894-1.26142-2.2802-1.60852-3.547-.33018-1.2162-.50796-2.4661-.43177-3.7245.08466-1.3512.38097-2.6603.89739-3.9187.71114-1.7228 1.76091-3.2261 3.0308-4.5858.90586-.9712 1.89637-1.83267 2.96308-2.60964C9.77261 8.02445 11.5166 7.01945 13.3537 6.1918c1.1852-.54051 2.3874-1.03879 3.6149-1.47795 1.1514-.41383 2.3282-.76009 3.5134-1.08101 1.3461-.36316 2.7006-.68408 4.0637-.98812.7873-.17735 1.5915-.27025 2.3958-.39693.7535-.11824 1.5069-.26181 2.2604-.36315.7535-.10135 1.5154-.18581 2.2773-.26181.7874-.07601 1.5832-.12668 2.379-.1858.8381-.05912 1.6762-.14357 2.5144-.15202 1.6169-.02533 3.2339-.01689 4.8594-.02533.3471 0 .6942-.00845 1.0328 0 .9906.02533 1.9811.04222 2.9716.09289.9312.05068 1.854.14358 2.7768.23648 1.253.12668 2.5059.24491 3.7589.39693.6519.08445 1.2953.22803 1.9471.35471.6011.10979 1.2107.21958 1.8118.33781.5333.10135 1.0582.2027 1.5831.32938 1.0752.2618 2.1503.5405 3.217.82765.5673.15201 1.1175.33781 1.6678.53206 1.0413.37159 2.0911.75164 3.124 1.15702.6434.25336 1.2614.54895 1.8879.84454.618.29559 1.2444.60807 1.8455.93744.6688.3716 1.3122.79387 1.9641 1.18236 1.1852.71786 2.1927 1.66375 3.2763 2.51675.2455.1942.4149.4729.635.6925 1.3969 1.4442 2.489 3.0741 3.2424 4.9321.3725.9206.6096 1.8749.6858 2.863.0338.4476.0931.8868.1439 1.3344-.0254 1.1486-.1778 2.2549-.491 3.3275Z"/>
  <path fill="#fff" d="M20.5404 20.8193c.872-.2365 1.7271-.4814 2.5991-.7179.9735-.2618 1.9471-.5067 2.9207-.7685.7111-.1943 1.4138-.4054 2.125-.5912.9397-.2449 1.8879-.4729 2.8276-.7179.6942-.1858 1.3884-.3884 2.0826-.5742.7365-.2027 1.4815-.3801 2.2181-.5828.7704-.2111 1.5238-.4391 2.2942-.6503 1.2615-.3378 2.5229-.6503 3.7843-.9881 1.2868-.3463 2.5736-.701 3.8605-1.0472 1.0413-.2872 2.0826-.5659 3.1239-.8446 1.0159-.2787 2.0234-.5489 3.0393-.8276.9989-.2703 1.9979-.5236 2.9969-.7939.7958-.2111 1.5831-.4391 2.3789-.6503.6688-.1773 1.3376-.3378 2.0065-.5152 1.3884-.3716 2.7768-.75159 4.1652-1.13164.8212-.21958 1.6508-.42227 2.472-.64185.7112-.1858 1.4139-.38849 2.125-.59118.2032-.05912.4064-.15202.6011-.21958 0-.04223 0-.08446-.0085-.12668-.1101-.07601-.2032-.17736-.3217-.23648-.8805-.43071-1.744-.89521-2.6414-1.26681-1.0497-.43071-2.1334-.81076-3.217-1.16547-1.1006-.3547-2.2096-.67563-3.3271-.96277-1.2445-.32938-2.4975-.63341-3.7589-.89522-1.0075-.21114-2.0488-.30403-3.0562-.48983-1.6932-.32093-3.4202-.42227-5.1304-.60807-.9651-.10135-1.9471-.13513-2.9207-.16047-1.2699-.03378-2.5482-.05067-3.8181-.02533-.6434.00844-1.2784-.06757-1.9303-.00845-.728.06757-1.4646.01689-2.1926.08446-1.0414.0929-2.0911.10979-3.1409.1858-.8381.05911-1.6763.13512-2.5059.24491-1.3969.1858-2.7938.33782-4.1737.64185-1.0837.24492-2.1758.41383-3.2594.6503-.6434.13513-1.2784.33782-1.9133.49828-.5164.13513-1.0498.24492-1.5577.41383-.9228.30403-1.8456.61651-2.7599.96278-.8551.32092-1.7186.6334-2.5398 1.03034-1.1598.56584-2.2943 1.17391-3.4202 1.80732-1.44771.82765-2.77687 1.83266-3.99596 2.97276-1.05824.9881-1.98103 2.086-2.75143 3.3191-.64341 1.0388-1.12596 2.1536-1.45614 3.319-.17778.625-.26244 1.2922-.3217 1.9509-.14392 1.6975.18625 3.336.7704 4.9321.01693.0592.0508.1098.07619.1605.14392.2534.22012.2956.50796.2196.52489-.1351 1.04131-.2787 1.5662-.4223.80426-.2196 1.60852-.456 2.42125-.6756 1.32068-.3463 2.64133-.6757 3.96203-1.0304 1.8202-.4898 3.6404-1.005 5.4605-1.4948 1.2361-.3209 2.489-.6334 3.7335-.9712ZM51.822 4.60407c.254.01689.508.06756.762.06756.2878 0 .4571.11824.6349.34627.4487.58273.9313 1.14013 1.4054 1.69753.1015.11823.2455.20269.4486.36315.1948-.73475.017-1.38505.127-2.06913.5334.06756 1.0413.13513 1.5747.20269 0 .38004.0085.70097 0 1.03034-.0169.58274-.0423 1.16547-.0508 1.7482 0 .35471.0423.71786.0423 1.07257 0 .52362-.3217.69253-.7704.41383-.2793-.16891-.5587-.35471-.8127-.56585-.5418-.47294-1.0582-.97122-1.5916-1.45261-.127-.10979-.2116-.30403-.4741-.23647-.0254.13513-.0762.27026-.0762.41383-.0084.41382.017.82765.017 1.24147 0 .13513-.017.27026-.0254.39694-.0339.3716-.0593.74321.1269 1.10631-.5164.4139-1.1937.2956-1.7524.6588-.0169-.152-.0339-.2365-.0339-.3125.0254-.2956.0932-.5912.0932-.88677.0084-.98811-.0085-1.97623-.0085-2.96434 0-.2787.0085-.56584.0508-.84454.0593-.44761.0423-.89522-.1355-1.3935.1694-.01689.3133-.04222.4487-.03378Zm-8.3135 1.934c.2032-.82765.5418-1.58774 1.1598-2.18736.5164-.49828 1.1345-.77698 1.871-.75165 1.2953.03379 2.2096.65875 2.7937 1.79044.4233.81076.4995 1.66374.4318 2.5674-.1185 1.49484-.7281 2.7025-1.8879 3.64-.5841.4645-1.2445.7432-2.0064.8445-.9482.1183-1.6763-.5574-2.0234-1.157-.3894-.6756-.5164-1.41883-.5418-2.19581-.0339-.87833-.0085-1.72287.2032-2.55052Zm-5.2658-2.22959c.6688-.54895 1.4392-.70941 2.2689-.70097.3301 0 .6603.04223.982.05912.1862.01689.2794.13512.2794.29559.0084.4645 0 .92055 0 1.43572-.1186-.05912-.2032-.0929-.2879-.14357-.3047-.19425-.618-.36315-.9905-.39694-.5757-.05911-1.0074.34626-1.0413.91211-.0254.48139.1778.83609.5249 1.13168.3725.32093.7704.62497 1.109.98812.3556.38004.6942.79387.9736 1.23303.381.60807.4656 1.26683.2794 1.98463-.2794 1.0473-.9397 1.7314-1.871 2.2296-.7196.3801-1.4646.5912-2.2858.549-.1354-.0085-.2794-.0085-.3979-.0591-.0931-.0423-.2116-.1605-.2116-.2449-.0254-.4814-.017-.9544-.0254-1.4358 0-.0422.0338-.076.0762-.1773.1016.0844.1777.1267.237.1942.5334.5574 1.4646.5912 2.0657.076.7535-.6587.8381-1.5455.2286-2.3478-.3725-.49828-.8297-.89521-1.3207-1.27525-.8381-.6503-1.3969-1.4864-1.3884-2.59275.0169-.70097.2455-1.26681.7958-1.71442Zm-6.8998.07601c.872-.11824 1.7525-.24492 2.6245-.33782.9397-.10134 1.744.50673 2.0741 1.3766.3471.89522.2625 1.78199.0085 2.64342-.1778.60807-.4572 1.21614-.9482 1.66375-.2455.21958-.3132.45606-.2032.76006.2201.6081.4233 1.2162.6519 1.8158.2455.6503.5164 1.3006.7958 1.9931-.0677.0338-.1608.1098-.2624.1436-.3725.1182-.745.2196-1.1175.3462-.2201.0761-.3387.0338-.3979-.1942-.2286-.8192-.4741-1.6384-.7196-2.4576-.1186-.4138-.2455-.8361-.3641-1.2499-.0423-.1436-.1185-.2703-.2709-.2365-.1185.0253-.254.1013-.3217.1942-.0677.1014-.0592.2618-.0592.3885 0 1.0895-.0085 2.1874.0084 3.2768 0 .2027.0847.4054.1439.6081.0339.1351.0254.2618-.11.3041-.5588.1689-1.1175.3209-1.6763.4813-.0084 0-.0254-.0168-.0762-.0591.0339-.1942.0932-.4054.1016-.6165.0339-.5996.0508-1.1992.0593-1.7989 0-.3293-.0508-.6587-.0508-.9881-.0085-.8783 0-1.7651 0-2.6434V7.60219c0-.54895.0169-1.10634-.0085-1.6553-.0169-.38849-.0762-.76853-.1354-1.15702-.0424-.27025 0-.3716.2539-.40538ZM9.78869 22.1283c-.38943.1183-.77886.2196-1.16829.3294-.24551.0676-.33864.0169-.32171-.2618.03386-.5152-.11852-.9797-.27938-1.4442-.10159-.2956-.17778-.3547-.44869-.2787-.30477.0845-.60955.1774-.88892.3125-.12699.0591-.24551.2196-.28784.3631-.13546.4392-.22858.8953-.33864 1.3513-.01693.0591-.00847.1183-.00847.1774.01694.38.01694.38-.36403.5405-.41483.1689-.84659.2449-1.34608.3209.18625-.6841.35556-1.2921.50795-1.9002.16085-.6503.30477-1.3091.45716-1.9678.21165-.929.4233-1.8664.63495-2.7954.21164-.9037.42329-1.8074.63494-2.7026.06773-.2956.11006-.5912-.10159-.8952.3471-.2871.745-.4645 1.12597-.6418.16085-.076.23704.076.27091.2111.11005.4223.22858.8361.33864 1.2584.36403 1.4357.73653 2.8714 1.0921 4.3071.17779.7263.33017 1.4526.50795 2.179.11006.4307.23708.8614.37248 1.3597-.11.0422-.24549.1351-.38941.1773ZM26.0179 5.31349c.7027-.16047 1.4053-.31248 2.108-.4645.3471-.07601.7027-.15202 1.0498-.22803.1439-.02533.237.03378.2455.17736.0508.56584.0677 1.12324-.0423 1.72286-.0932 0-.1948.02534-.2625 0-.6265-.27025-1.2106.03378-1.7948.14357-.1016.01689-.2201.19425-.2539.32093-.0593.19424-.0678.41382-.0678.62496.0085.59118.0254 1.1908.0593 1.78198.0169.30404.1185.38849.4064.30404.2793-.08446.5418-.22803.8211-.34626.0932-.04223.1863-.06757.3302-.12669v1.90019c-.1185.0085-.2201.0254-.3132.0338-.1016 0-.2117-.0169-.3133-.0169-.7534.0169-.9227.1858-.9227.929 0 .9881.0084 1.9678.0084 2.9559 0 .2956.0931.4054.3725.3378.6858-.1604 1.3884-.2871 1.9303-.7854.0677-.0591.1439-.0929.3301-.2111 0 .6503.017 1.1992-.0169 1.7482-.0085.1013-.1693.2449-.2963.2871-1.0413.3378-2.0911.6503-3.1324.9797-.2963.0929-.5926.1773-.8889.2702-.0339-.076-.0762-.1266-.0678-.152.1778-.4645.1609-.9459.1524-1.4188-.0084-1.3513-.0254-2.7025-.0254-4.0538-.0084-1.4526 0-2.90523 0-4.36629 0-.67563.0508-1.35126-.1947-2.00156.2286-.21958.508-.2787.7789-.34626Zm-7.3315 1.7482c.4233-.15202.855-.28715 1.2783-.43072.3979-.13513.7958-.26181 1.1853-.39693.9736-.35471 1.8201.21958 2.1842 1.005.4233.90366.6434 1.85799.7365 2.85456.0762.7939.1185 1.5793.0762 2.3732-.0931 1.6468-.4064 3.243-1.3037 4.6618-.5588.8784-1.2953 1.5624-2.3282 1.8834-.4995.152-.999.3378-1.4984.4982-.127.0423-.254.0507-.4572.0929.0169-.1858-.0085-.3293.0339-.456.11-.3378.1777-.6588.0762-1.0135-.0339-.1098-.0085-.2364-.0085-.3631 0-1.1655.0085-2.3394 0-3.5049-.0169-1.3512-.0423-2.6941-.0677-4.0453-.0085-.67566 0-1.34285-.0254-2.01848-.0085-.31248-.0847-.61652-.144-.97967.0762-.03378.1609-.12668.2625-.16046ZM16.6207 20.0845c-.1863.0423-.3217-.0506-.4064-.2111-.2201-.4138-.4402-.8192-.6518-1.233-.6604-1.2669-1.3123-2.5337-1.9726-3.792-.1016-.1858-.1609-.4223-.4656-.4899-.127 1.1233-.0254 2.2296-.0339 3.3275-.0085 1.0895-.0085 2.1705.1439 3.2431.0339.0084.0678.0169.1016.0338-.0846.0675-.1693.1689-.2624.2111-.5334.1858-1.0667.3631-1.634.456-.0338-.0844-.0677-.1351-.0592-.1604.1947-.625.1354-1.2753.1439-1.9171.0085-.5997-.0423-1.1908.0085-1.7905.0423-.5151-.0424-1.0472-.0678-1.5708 0-.0591-.0084-.1182-.0084-.1774-.0085-.7601-.0593-1.5286-.0085-2.2802.0423-.6926 0-1.3682-.0254-2.0523-.0084-.2787-.0508-.5658-.1185-.8445-.0423-.1689.0085-.2618.1439-.3294.3894-.1942.7704-.3969 1.1683-.58271.2201-.10135.381-.02534.5164.21111.5503.9966 1.0921 2.0016 1.6424 2.9981.0762.1352.0932.321.3471.3548.017-.1436.0424-.2619.0424-.3885 0-1.1064.0169-2.2212-.0085-3.32753-.0085-.32093-.1101-.64185-.1863-1.0219.5757-.34626 1.2276-.56584 1.9387-.77698-.2624 1.08946-.0846 2.11981-.11 3.14171-.0169.777-.0085 1.5539 0 2.3309.0169 1.0979.0592 2.1958.0762 3.3022.0084.9881-.0085 1.9678-.017 2.9559-.0169.1689-.0338.3294-.237.38ZM77.2628 17.0866c-.1186-.3209-.2371-.3547-.5503-.2702-1.2868.3463-2.5737.6925-3.8605 1.0388-1.6932.456-3.3948.9036-5.088 1.3512-1.0667.2872-2.1334.5743-3.2001.8615-1.1853.3209-2.379.6334-3.5642.9459-1.1175.304-2.2265.608-3.344.9121-1.2107.3293-2.4298.6503-3.6488.9712-.7535.2027-1.4985.4054-2.252.6081-.999.2702-1.9979.5405-2.9885.8107-.982.2618-1.9725.5321-2.9546.7939-1.0413.2787-2.0826.5574-3.1324.8276-.8381.2196-1.6847.4308-2.5228.6588-.9397.2534-1.8794.5236-2.8107.7854-1.0667.2956-2.1419.5743-3.217.8614-.8974.245-1.7864.4983-2.6837.7432-.5503.1436-1.1091.2703-1.6509.4139-.9228.2449-1.8456.5067-2.7768.7516-.9736.2618-1.9387.5152-2.9123.777-1.0752.2871-2.1419.5743-3.2171.8614-.855.2281-1.7101.4561-2.5567.6925-.8974.245-1.7863.5152-2.6837.7517-.9566.2534-1.9217.4814-2.8784.7263-.1354.0338-.2624.1182-.3979.1773-.0084.0423-.0169.0929-.0169.1352.1862.1098.364.2449.5587.3378.2794.1351.5842.2449.872.3716.4826.2196.9397.4729 1.4308.6587 1.4222.5321 2.8191 1.1233 4.2922 1.5033 1.1429.2956 2.2858.6081 3.4372.9037 1.1937.304 2.3958.532 3.6149.7094 1.2445.1858 2.4721.456 3.7335.5236.3302.0169.6603.0507.982.1014 1.5747.2618 3.1663.2955 4.7494.3884 1.2276.0676 2.4551.1183 3.6912.0507.3725-.0169.745.0591 1.1259.0507 1.1429-.0338 2.2774-.0929 3.4203-.1436.7788-.0338 1.5577-.076 2.3366-.1098.0931-.0084.1778-.0169.2709-.0253.8381-.0845 1.6678-.1689 2.5059-.2618.5672-.0591 1.1344-.1014 1.7016-.1858.8128-.1183 1.6255-.2618 2.4382-.4054.999-.1774 2.0065-.3547 3.0054-.5658.9398-.1943 1.871-.397 2.7938-.6672 1.1768-.3378 2.3451-.7348 3.5049-1.1317 1.4646-.4983 2.8784-1.0979 4.2668-1.7904.9397-.473 1.871-.9459 2.743-1.5371.6095-.4138 1.236-.8023 1.8202-1.2415 1.5154-1.1232 2.8699-2.4154 3.9705-3.944.9228-1.2753 1.6085-2.6603 2.0233-4.1805.2455-.9036.3641-1.8242.3641-2.7532 0-.7854-.127-1.5793-.2625-2.3563-.11-.4982-.3048-.9965-.4825-1.4864ZM27.2037 36.6125c-.5249.3209-1.0836.4476-1.6762.3969-.4741-.0338-.9482-.1098-1.4223-.1858-.4995-.076-.999-.1774-1.4985-.2703-.11-.0253-.2116-.076-.3301-.1182.1439-.6672.0762-1.3175.0762-1.9593.0084-.4899-.017-.9797-.0424-1.478-.0084-.1942.0762-.2702.2455-.304.6434-.1436 1.2869-.2872 1.9218-.4307.2794-.0592.5588-.1098.8381-.1689.4064-.0761.8128-.0676 1.1937.0844.762.304.8889 1.0557.2879 1.6131-.1016.0929-.1948.1858-.2879.2787-.0169.0169-.0169.0591-.0338.1182.0846.0591.1693.1351.2624.1943.1863.1266.381.2364.5588.3716.6603.4814.4656 1.5117-.0932 1.858Zm7.3569 1.2837c-.5926.0844-1.109.0253-1.6254-.0676-.1101-.0169-.2286-.1436-.2794-.2534-.3725-.8192-.7281-1.6468-1.0752-2.4745-.0762-.1773-.1354-.3378-.3556-.3378-.237 0-.3471.152-.3894.3632-.0254.1351-.0508.2618-.0508.3969.0169.6587.0508 1.3175.0762 1.9762 0 .0591-.0169.1098-.0339.2281-.6434-.0761-1.2614-.1521-1.9471-.2365.237-.4561.1778-.8868.1862-1.3175.017-.5067.0424-1.0135.0593-1.5202.0169-.7009.0339-1.4019.0254-2.1029 0-.4138-.0423-.8276-.0593-1.309-.0254.0169.0085-.0254.0508-.0338 1.1091-.2449 2.2181-.5152 3.3356-.7179.6688-.1267 1.2868.0423 1.744.5828.3471.4053.4148.8867.3132 1.3935-.1608.7854-.5418 1.4272-1.236 1.8495-.0593.0422-.1185.0929-.1693.1436-.0508.0506-.1016.1098-.1863.2027.4741 1.081 1.0837 2.1029 1.617 3.2346Zm7.4754-2.2381c-.3301.8699-.8635 1.63-1.6847 2.1029-.6349.3716-1.3715.5236-2.1249.3547-1.4477-.3209-2.2774-1.2583-2.6583-2.6434-.4149-1.5117-.254-2.9728.4402-4.3747.4064-.8277 1.0159-1.4948 1.8032-1.9593.5249-.3125 1.1091-.5152 1.7355-.5743 1.0498-.1014 1.9303.5067 2.3536 1.4019.4063.8614.6011 1.782.6265 2.8123.0084.9375-.127 1.934-.4911 2.8799Zm6.849-7.4826c-.127 0-.2371.0253-.3302 0-.4233-.1183-.8297-.076-1.2445.0507-.3725.1097-.4233.152-.4402.5658-.017.4054 0 .8108 0 1.2161 0 .4139-.0085.8277 0 1.2415.0084.2872.0423.5659.0508.853.0084.3294 0 .6503 0 .9797 0 .5067.0169 1.0134.0084 1.5201-.0084.3548-.0592.7179-.0508 1.0726.0085.5067.0339 1.0135.0762 1.5202.0085.1098.0932.2196.1355.3209.0508.1014.0931.2027.1693.3547-.7958.0929-1.5239.1858-2.3027.2703 0-.1436-.0254-.2449 0-.3125.2709-.6503.1608-1.3259.1608-1.9931 0-.9712.017-1.9425.0254-2.9221 0-.5068-.0169-1.0135-.0169-1.5287 0-.5067.0169-1.0134.0169-1.5286 0-.3125-.0254-.6165-.0338-.9121-.8043-.2111-1.3292.2872-1.9726.6503 0-.6334-.0085-1.1739.0085-1.7229.0084-.228.2201-.2618.3894-.3124.3725-.1098.7535-.1943 1.1344-.2956.8974-.228 1.7948-.4561 2.6922-.6925.364-.0929.7196-.2196 1.0836-.3125.1355-.0338.2794-.0169.4487-.0338-.0084.6841-.0084 1.309-.0084 1.9509Zm5.3843 8.4961c-.0169-.0254-.0423-.0507-.0423-.076.2709-1.2753.0931-2.5674.127-3.8596.0084-.3885 0-.777-.017-1.1655-.0169-.3716-.127-.4476-.4825-.3716-.3471.076-.7027.1605-1.0413.2534-.3725.1014-.4572.2111-.4572.6081 0 1.3766.0085 2.7532.0339 4.1298.0084.2702.1439.5405.2455.9121-.6604.152-1.2953.2956-1.9387.4307-.0931.0169-.2032-.0169-.3217-.0338.0423-.2871.1016-.5574.11-.8192.017-.5996.0085-1.1908.0085-1.7904 0-.1351 0-.2703-.0085-.4054-.0084-1.4442-.0254-2.8883-.0254-4.3409 0-.9121.0254-1.8327.0085-2.7448-.0085-.4392.0593-.9037-.1693-1.3259-.0339-.0676-.0085-.1689-.0085-.2956.7196-.1436 1.38-.473 2.1165-.4983.0254.0676.0508.1014.0423.1182-.2032.4561-.1778.929-.1693 1.4104.0169.7939.0085 1.5878.0085 2.3816 0 .1014-.0085.2112.0084.3125.0424.2196.1694.304.3895.2449.3894-.0929.7873-.1942 1.1767-.304.3471-.0929.4487-.2196.4657-.5658.0084-.2196-.0254-.4477-.0339-.6672-.0085-.4983-.0085-1.0219-.0254-1.5371-.0169-.549.0508-1.1064-.1778-1.6384-.0931-.2196.0847-.304.2455-.3463.4741-.1267.9567-.2449 1.4392-.3631.1101-.0254.2286-.0423.3725-.076.0085.0929.0424.1689.017.2195-.2963.549-.1694 1.1402-.1524 1.7145.0084.2195-.0085.4391-.0085.6671.0085.2365.0339.473.0339.7095.0169.9121.0254 1.8242.0338 2.7447.0085.701 0 1.402 0 2.1029 0 .2365.0339.473.0593.7095.0085.076.0339.152.0254.2195-.127.5659 0 1.1317-.0085 1.6976-.0084.2871.1101.5827.1694.8783.0084.0591.0084.1182.0169.1689-.3556.2534-1.6932.6334-2.0657.5912Zm8.2881-2.255c-.9735.3548-1.9387.7264-2.9122 1.0811-.3979.1435-.8043.2533-1.2022.38-.1101.0338-.2286.0507-.364.0845-.0085-.1098-.0339-.1774-.0254-.245.0338-.3716.1016-.7432.1016-1.1148 0-1.3935-.0085-2.7785-.0254-4.172-.0254-1.858-.0593-3.7075-.0932-5.5655 0-.1943-.0592-.3801-.0931-.5743-.0254-.1436-.0593-.2872-.1016-.4898.4656-.1183.8551-.2112 1.2445-.3125.6519-.1774 1.2953-.3716 1.9387-.5574.3132-.0929.635-.1858.9482-.2703.3048-.076.381-.0338.4064.2787.0423.4307.0592.8615.0762 1.3006.0084.1774-.1016.2872-.2879.2618-.6349-.1098-1.2191.0929-1.8117.2534-.5164.1351-.5757.2027-.5672.7432.0085.701.0254 1.4104.0592 2.1113.017.3041.1186.3801.4064.2872.2794-.0845.5503-.2365.8212-.3547.1439-.0591.2794-.1267.4487-.2027.1609.6165.0508 1.1823.0508 1.7482 0 .2027-.1778.1858-.3386.2027-.3217.0338-.6519.0844-.9736.152-.2625.0591-.4149.2111-.4064.5067.0254.9712.0423 1.9425.0593 2.9221 0 .1521 0 .3041.0169.4476.0254.245.0931.2956.3556.2872.0592 0 .127.0084.1778-.0169.6772-.304 1.4561-.3969 2.0064-.9712.0508-.0507.1185-.0929.1778-.1352.0254-.0168.0592-.0084.1185-.0168.0254.0591.0762.1182.0762.1858.0085.4476 0 .8952.0085 1.3512.0169.2196-.0932.3378-.2964.4138Zm5.7145-2.8461c-.0762-.1351-.1608-.2364-.2031-.3547-.3556-.9543-.7027-1.9086-1.0583-2.863-.0423-.1098-.0592-.2449-.1185-.3378-.0677-.1013-.1947-.2449-.2878-.228-.127.0169-.2625.1267-.3387.2449-.0677.1014-.0677.2618-.0677.3885.0169 1.081.0339 2.1536.0677 3.2346.0085.1605.0593.3209.127.4729.0847.1943.0254.3125-.1524.397-.127.0591-.2455.1098-.3725.1604-.3471.1521-.6857.3041-1.0328.4476-.1185.0507-.2455.0676-.4402.1183.0423-.2956.0846-.5236.0931-.7601.0254-.4138.0508-.8277.0423-1.2415-.0085-.6587-.0339-1.3175-.0593-1.9762-.0169-.6588-.0423-1.3175-.0677-1.9762-.0085-.3885-.0085-.7686-.0169-1.1571-.0085-.9712-.0085-1.9509-.0423-2.9221-.0085-.3378-.127-.6672-.2032-1.0641.11-.0507.2201-.1098.3301-.1351.9906-.2449 1.9811-.4899 2.9716-.7179.872-.2027 1.5662.1689 2.0403.8361.3217.4561.364 1.0726.3132 1.6469-.0677.8192-.3302 1.5793-.7873 2.2633-.1609.245-.3641.473-.5588.701-.11.1436-.2285.2618-.127.4814.3471.7179.6688 1.4442 1.016 2.1536.2031.4138.4571.8023.7196 1.2583-.4741.4477-1.1429.6081-1.7864.929Zm5.9855-4.2987c-.6858.7432-1.5239 1.2499-2.4975 1.5286-.2878.0845-.4148 0-.4402-.3124-.0254-.3547-.0508-.7095-.0762-1.1064.1354.0169.2286.0085.2963.0422.4064.2365.8127.1858 1.2022-.0169.6349-.3209.9989-.8361 1.0497-1.5539.017-.304-.0677-.5658-.3047-.7601-.2879-.2365-.5927-.456-.8974-.6756-.3217-.2365-.7027-.4307-.9736-.7179-.5418-.5743-.6773-1.2837-.4233-2.0438.3048-.9121 1.0413-1.3597 1.8879-1.6468.3556-.1183.7281-.1943 1.0921-.2618.3217-.0592.6265.0591.5841.4644-.0338.2703-.0084.549-.0084.8361-.3556-.0591-.6604-.1435-.9651-.1689-.4318-.0337-.7789.1858-.9482.5574-.1778.3801-.0677.777.237 1.0726.1609.152.3556.2787.5503.3801.5926.2955 1.0667.7178 1.4561 1.2414.1694.2281.2371.473.2456.7517.0084.9627-.4403 1.7144-1.0667 2.39ZM12.6937 31.2154c.0169.3293.1439.3969.4826.3124.3047-.076.601-.1858.9058-.2449.9482-.1942 1.4816-.8107 1.744-1.6891.2286-.7347.2878-1.4948.3217-2.2633-.0423-.5068-.0762-1.0135-.1355-1.5118-.0254-.2364-.0846-.4729-.1693-.6925-.2709-.7347-.7365-1.005-1.5069-.853-.4402.0845-.872.2027-1.2953.3378-.3132.0929-.4148.2534-.4148.6081 0 .2534.0508.5067.0508.7601-.0085.5067-.0424 1.005-.0508 1.5117 0 .1774.0338.3547.0338.5321.0085.38 0 .7685 0 1.1486.0085.684.0085 1.3681.0339 2.0438Zm1.1768-4.3241c0-.3125.0254-.625.0169-.9374 0-.2112.0254-.3885.2709-.4476.2286-.0507.4487.0591.5334.304.0762.2365.1523.4898.1523.7432 0 .8023-.0253 1.6131-.0677 2.4154-.0169.3125-.1185.6165-.3302.8698-.1269.1521-.2624.2365-.5333.2112-.0169-.4392-.0339-.853-.0423-1.2668-.0085-.6419-.0085-1.2668 0-1.8918ZM34.4596 20.2617c0-.1182-.0085-.2449-.0424-.3547-.0254-.076-.1016-.1604-.1693-.1858-.3048-.1013-.5418.1267-.8043.2196-.1862.0676-.1524.2703-.1524.4392v1.2161c0 .1098-.0253.2196-.0592.4138-.1016-.1435-.1693-.2026-.2032-.2787-.1524-.3547-.2878-.7178-.4318-1.081-.1608-.4053-.3132-.4814-.728-.3462-.4911.152-.5672.2956-.5672.8192.0084.9374 0 1.8833 0 2.8207v2.2887c0 .169.0508.2956.237.3294.508.1014.9736-.3293.9397-.8361-.0338-.456-.0084-.9121 0-1.3681 0-.076.0424-.1436.1101-.3294.1185.2618.1862.4223.254.5827.1523.3716.3047.7517.4656 1.1148.1185.2534.2709.3125.5503.2618.3386-.0675.5164-.2111.5333-.456.0339-.3378.0593-.6841.0593-1.0304 0-.4307-.0508-.8698-.0508-1.3006 0-.3716.0508-.7432.0508-1.1148.0169-.5996.0085-1.2161.0085-1.8242ZM44.0679 22.1114c-.1863.0338-.3133-.1182-.381-.3125-.1439-.3884-.1524-.3884-.5503-.2955-.0847.0168-.1778.0422-.2624.0675-.4064.1183-.4318.1351-.4826.5743.0762.2027.127.4223.2371.6081.3132.5067.7534.6672 1.3714.5912 1.5493-.1943 2.3959-1.8496 1.6255-3.2515-.2371-.4223-.5334-.7939-.9228-1.0895-.1947-.1436-.364-.3125-.5418-.4729-.2794-.2365-.3302-.5321-.1947-.853.0508-.1183.1693-.2449.2963-.2956.1524-.0676.2878.0253.3555.1858.1016.2365.2963.2787.5249.2196.127-.0338.2625-.0592.3895-.1098.3386-.1352.4063-.2703.3132-.6334-.1439-.5828-.6603-.9544-1.3122-.9459-.7027.0169-1.5154.5658-1.7355 1.2415-.1101.3462-.3133.6587-.2201 1.0725.1185.5321.3809.929.7534 1.2922.3556.3462.7027.701 1.0329 1.0726.2709.3124.3301.7685.1354 1.0472-.11.1351-.2794.2618-.4317.2871ZM48.0299 16.2839c-.0169-.0844-.1185-.228-.1608-.2196-.2625.0507-.5249.1098-.7704.2112-.1863.0844-.1693.2956-.1693.4814v1.8326c0 .7432-.017 1.4949.0084 2.2381.0085.2955.0847.5911.1863.8698.1524.3801.491.5659.9058.5236 1.2191-.1351 1.9811-.8107 1.998-2.1029.0085-.6587 0-1.3175 0-1.9846 0-.7348.0085-1.4695 0-2.2043-.0085-.4223-.1101-.4898-.491-.3547-.0678.0253-.1355.0591-.2117.076-.3894.1098-.491.2449-.4656.625.0254.3209.0508.6503.0508.9712.0085.8783.0085 1.7566 0 2.635 0 .2364-.0254.4814-.0762.7094-.0254.1267-.0931.2618-.1863.3462-.0931.076-.2455.1183-.364.1014-.0762-.0169-.1609-.1605-.1778-.2618-.0423-.2027-.0677-.4139-.0677-.625 0-1.157 0-2.314.0085-3.4711 0-.1266.0169-.2702-.017-.3969ZM28.8803 22.0779c.0592.0506.11.0675.1354.1013.2455.3547.2455.3547.6773.2618.0762-.0169.1524-.0169.2201-.0422.254-.076.3302-.2112.2794-.473-.1609-.8867-.999-1.0388-1.5408-.853-.7027.245-1.1429.7432-1.2953 1.4358-.1439.6503-.2455 1.3259-.2624 1.9931-.017.6334.0677 1.2837.1862 1.9087.1101.6165.4233 1.081 1.1175 1.0725.6265 0 1.3884-.5152 1.6339-1.0894.3133-.7348.2117-1.5033.1609-2.255-.017-.2364-.1439-.304-.381-.2533-.3217.0675-.6434.152-.9566.2533-.2794.0929-.4318.7348-.2371.9628.0339.0422.0931.076.1439.1014.3895.1858.3895.1858.3133.5742-.0593.3041-.2117.4814-.381.4899-.1862 0-.3217-.1689-.3556-.4983-.0254-.2365-.0084-.4814-.0423-.7179-.0931-.7938-.0423-1.5793.0762-2.3647.0423-.2871.2286-.4729.508-.608ZM21.7764 27.8797c-.0338-.0676-.0338-.1605-.0846-.2027-.0847-.076-.2032-.1858-.2879-.1605-.2286.0507-.4571.1352-.6688.245-.0762.0337-.1354.1689-.1439.2618-.0508.608.491 1.2583 1.0921 1.2668.7365.0084 1.3799-.2956 1.744-.9206.4656-.7938.4741-1.7566-.2709-2.4745-.3048-.2871-.6096-.5743-.9143-.8614-.2794-.2703-.3725-.5659-.2625-.8446.1185-.2787.3217-.3209.491-.0844.1355.1942.3048.2196.508.1942.1185-.0169.237-.0422.3556-.0675.2201-.0507.3555-.1605.3217-.3885 0-.7179-.7281-1.2331-1.4392-1.0388-.745.2027-1.2276.6841-1.4139 1.4188-.1693.6334-.0423 1.1993.5165 1.6469.3386.2702.6264.5996.9228.9205.1015.1098.1777.245.237.3801.127.2702.0762.532-.0931.7601-.1947.2533-.4572.228-.6096-.0507ZM56.8937 17.0444c.127-.0507.2624-.076.3809-.1351.872-.4307 1.4985-1.5455 1.0921-2.5506-.2285-.5658-.6518-.8529-1.2614-.7685-.381.0507-.7619.1436-1.1429.2449-.5164.1436-.5926.2534-.6011.7939v4.8139c0 .1351.017.2702.0339.3969.0254.1774.1355.2449.3132.2534.5165.0338.8128-.2534.8128-.8361.0084-.5405-.0085-1.0726-.017-1.6131-.0084-.4222.0085-.456.3895-.5996Zm-.3895-2.0016c.0085-.1942.1016-.304.3133-.2956.1947.0085.3979-.0337.4741.2196.1439.4814-.1778.9206-.7958.9544.0084-.3125 0-.5997.0084-.8784ZM17.07 30.0248c.0508.3294.1863.4054.4995.3209.5757-.152 1.1599-.2956 1.7355-.456.144-.0422.2879-.1014.4064-.1858.2117-.152.2625-.4899.1439-.777-.0846-.2027-.1693-.2196-.5333-.1436-.3302.076-.6688.152-1.0752.2365-.0169-.1774-.0423-.2956-.0423-.4054 0-.2533.0254-.5067.0254-.7601 0-.4729.0423-.5236.4995-.6503.5164-.1351.6518-.3631.5418-.8867-.0423-.2196-.1524-.3041-.381-.2618-.1778.0253-.3471.0675-.5079.1013-.1694-.3294-.1694-.3547-.1524-.7094.0169-.3125.0677-.3969.3555-.4898.2456-.076.4911-.1267.7366-.1943.4317-.1182.5757-.3716.4656-.8023-.0847-.3294-.1439-.3716-.4741-.2871-.5841.152-1.1598.3124-1.7355.4645-.2878.076-.491.2026-.4741.5489.0085.3294-.0085.6503-.0169.9797 0 .1942.0084.3885 0 .5827-.0085.4561-.0339.9206-.0339 1.3766 0 .2196.0508.4476.0508.6672-.0085.4307-.0339.8614-.0508 1.2837 0 .152-.0085.304.0169.4476ZM52.678 18.176c.2286-.0761.4741-.1436.6604-.2872.6772-.5321 1.0582-1.2077.9143-2.1113-.1185-.7517-.7281-1.1993-1.49-1.0473-.381.076-.762.1689-1.1345.2787-.4148.1183-.4487.1689-.4487.5996v2.5252c0 .8446-.0084 1.6807 0 2.5252.0085.5912.1694.6925.7196.4814.0678-.0253.1524-.0422.2032-.0845.0762-.0675.1609-.1604.1694-.2449.0423-.2787.0677-.5658.0592-.8445 0-.4054-.0169-.8108-.0508-1.2077-.0254-.3294.1185-.4898.3979-.5827Zm-.3894-1.3935c-.0085-.0929 0-.1774 0-.2703 0-.1013-.0085-.2111 0-.3125.0254-.2449.1693-.3631.4233-.3716.2032 0 .3471.1352.3809.3632.0508.3547-.1015.6925-.3979.8276-.2624.1352-.3894.0591-.4063-.2364ZM64.1322 17.4834c0 .1098.1016.2196.1608.3294.1947-.0591.3302-.1182.4741-.152.4403-.1098.4911-.152.4995-.5912.0085-.6418 0-1.2837.0085-1.934 0-.1351 0-.2787.0423-.3969.2709-.7432.5503-1.4864.8212-2.2296.1355-.3632.2709-.7263.3979-1.0979.0762-.228-.0339-.3547-.2709-.3294-.1439.0169-.2878.0676-.4402.1014-.2879.0591-.4657.2195-.5588.5151-.11.3547-.2455.7094-.381 1.0557-.0423.1014-.1015.2027-.1523.3125-.2456-.1858-.2456-.1858-.4995-.701-.3471-.701-.3979-.7178-1.1175-.4476-.2794.1014-.3302.2111-.2117.473.3387.7347.6688 1.4695 1.0159 2.2042.1609.3378.2117.6756.2032 1.0388-.0338.625-.0169 1.2415.0085 1.8495ZM59.8657 18.9785c.6603-.152 1.3038-.3294 1.9556-.4983.0424-.0084.0847-.0253.127-.0422.2455-.1436.3302-.5152.1947-.8446-.0931-.228-.2031-.2702-.5587-.1689-.2286.0676-.4487.1605-.6858.2196-.2201.0507-.3132-.0253-.3301-.2449-.0254-.3547-.0593-.7179-.0593-1.0726 0-.4645.0339-.9205.0423-1.385.0085-.5912.0085-1.1908.0085-1.782 0-.3716-.1355-.4899-.491-.397-.0847.0254-.1778.0423-.2625.0676-.3386.1014-.3725.1267-.3979.4983-.0169.3125-.0084.625-.0169.9374v1.7482h.0169c0 .853.0085 1.706 0 2.559 0 .4054.0678.4983.4572.4054ZM24.7905 27.6853c0 .701 0 .701.6689.5321.4402-.1098.4402-.1098.4402-.5743v-2.8208c0-.8023.0084-1.613 0-2.4153 0-.4139-.1101-.4814-.4995-.3632-.1016.0338-.2032.0591-.2963.1013-.2963.1098-.3979.2787-.3725.5828.0254.2365.0508.4729.0508.7094-.0085.4645-.0508.9205-.0508 1.385 0 .3716.0508.7432.0762 1.1148h-.0254c.0084.5912.0084 1.1655.0084 1.7482ZM39.547 20.5236c-.0084-.1435-.0169-.2871-.0254-.4307-.364-.0253-.4233.0084-.4571.2703-.0254.2026-.0254.4053-.0423.5996-.0424.0084-.0762.0084-.1186.0169-.0846-.076-.1778-.152-.2624-.2365-.0931-.0929-.1778-.2027-.2879-.2787-.2963-.2111-.5333-.1182-.5502.2449-.0254.4814-.0085.9544-.0085 1.4357 0 .2956.237.3463.4318.1858.0761-.0591.11-.1942.1185-.304.0169-.1942.0084-.3969.0169-.5912.0339-.0084.0677-.0253.1016-.0338.1355.1436.2878.2787.4064.4392.1185.1605.2539.2534.4571.2111.2201-.0422.2032-.2364.2371-.3884.0254-.1014.0338-.2112.0254-.3125 0-.2618-.0254-.549-.0424-.8277ZM37.812 24.8902c.017.2365.127.321.3471.2956.8043-.0929 1.3123-.5827 1.4308-1.3681.0677-.4392-.2625-.9037-.6604-.8952-.237.0084-.4741.0591-.7026.1267-.3725.1182-.4149.2026-.4233.5827-.0085.1773 0 .3547 0 .5405 0 .2365-.0085.4814.0084.7178Zm.7789-1.461c.1693-.0253.2963.0422.3725.1858.2032.4054-.0423.8699-.5757.9543-.0169-.2956-.0254-.5658-.0338-.8276-.017-.1689.0592-.2872.237-.3125ZM39.6568 19.0117c-.2032-.4645-.4063-.9374-.6349-1.385-.1101-.2196-.3471-.2281-.5249-.0507-.0593.0676-.1101.1436-.1439.228-.2371.5912-.4741 1.1908-.7281 1.8158.3979.1436.4233.1351.5672-.1098.0339-.0507.0508-.1098.0762-.1605.2117-.3969.5588-.4645.8974-.1604.0423.0422.0931.1013.1355.1013.0931.0085.2116 0 .2793-.0506.0678-.0338.1016-.169.0762-.2281Z"/>
  <path fill="#fff" d="M20.2869 15.4562c-.1016.5574.0338 1.0979 0 1.6553-.017.2872.1439.3632.4148.245.4148-.1774.745-.473.9228-.8868.2201-.5236.4487-1.0557.5503-1.6046.1524-.8699.1947-1.7482.2794-2.6266-.0254-.8952-.0847-1.7735-.271-2.64338-.0761-.34626-.1777-.70096-.3132-1.02189-.2624-.62496-.4148-.68408-1.0836-.4645-.0847.02533-.1694.06756-.254.08445-.2286.05912-.3133.20269-.3133.43072.0085.40538.0085.81076 0 1.21614-.0169.54896.0085 1.09786-.0084 1.64686-.0254.9797.0423 1.9678.0677 2.9474.0085.3379.0677.6926.0085 1.0219ZM32.8424 7.48398c0 .43071-.0169.86987.0085 1.30059.0169.28715.1524.36315.4233.29559.5249-.13513.8974-.45605 1.109-.96278.1524-.36315.2202-.7432.2032-1.14013-.0338-.79387-.4233-1.16547-1.2275-1.14857-.4403.00844-.508.076-.5165.53205-.0084.3716 0 .75165 0 1.12325 0 0-.0084 0 0 0ZM45.6086 10.6254c.3301.4561.728.5828 1.2021.321.3641-.2027.5757-.5574.7535-.9206.3894-.79385.3979-1.64684.4572-2.71096-.0424-.2787-.0932-.76853-.2117-1.24148-.0931-.38849-.254-.76853-.5757-1.04723-.3725-.32092-.7873-.32937-1.1852-.05067-.364.26181-.5164.6503-.6603 1.03879-.3725 1.03034-.3641 2.1029-.2456 3.16703.0593.50672.1524 1.01342.4657 1.44412ZM7.19862 17.4834c-.11852.2871-.21165.4729-.25397.6672-.0762.3378-.11853.6756-.16086 1.0134-.00846.0592.07619.1774.13546.2027.27937.1098.72806-.2533.67726-.5489-.05079-.2956-.10158-.5912-.17778-.8783-.0254-.1352-.11005-.245-.22011-.4561ZM66.8752 23.0743c-.1439.0169-.2963.0507-.4402.0676-.2117.0253-.3217.1604-.3217.3631.0084.9037.0254 1.8158.0338 2.7363.3387.1183.5588.0422.7704-.0844.9144-.549 1.1599-1.3851 1.0329-2.3056-.0677-.5405-.5418-.853-1.0752-.777ZM39.9794 30.455c-.3725-.5236-.855-.684-1.3545-.3631-.4148.2618-.7027.6587-.872 1.1148-.2878.777-.4487 1.5793-.4064 2.2802 0 .8108.0424 1.4864.2794 2.1283.1355.3631.3217.6756.6096.929.3301.2956.6857.304 1.0667.1098.5587-.2872.7958-.8023.9482-1.3597.1862-.6757.2878-1.3682.2793-2.0776-.0084-.6419-.0254-1.2837-.1693-1.9087-.0762-.2956-.2032-.5996-.381-.853ZM31.8595 31.6887c-.1778-.0084-.364 0-.5333.0253-.3302.0592-.4318.1858-.4403.5152-.0084.1943 0 .3885 0 .5828h-.0169c0 .2364-.0085.4813 0 .7178.0085.1943.1101.3125.3132.3041.508-.0254.9652-.1859 1.3123-.5828.2963-.3378.2963-.7347.1524-1.1317-.144-.3462-.4657-.4053-.7874-.4307ZM25.2486 34.7288c-.2709-.0591-.5672-.0506-.8466-.0506-.2032 0-.3301.1182-.3301.3462 0 .2111.0084.4223-.017.625-.0846.6165 0 .7178.618.7178h.1355c.1185 0 .237.0085.364 0 .508-.0422.7789-.38.745-.8783-.0423-.3631-.2878-.6756-.6688-.7601ZM25.3759 33.7239c.1778-.1351.3047-.2956.2455-.5321-.0508-.2111-.2625-.38-.5503-.3884-.2201-.0085-.4487.0337-.6688.0506-.2201.0169-.3217.152-.3302.3547-.0084.2703 0 .5321 0 .8192.5334.2027.9228-.0169 1.3038-.304Z"/>
</svg>
