<svg viewBox="0 0 90 31" xmlns="http://www.w3.org/2000/svg" xml:space="preserve" fill-rule="evenodd" clip-rule="evenodd" stroke-linejoin="round" stroke-miterlimit="2">
  <path d="M28.04.84H3.67a2.713 2.713 0 0 0-2.7 2.7V27.9c0 1.5 1.21 2.7 2.7 2.7h24.37c1.49 0 2.7-1.2 2.7-2.7V3.54c0-1.5-1.21-2.7-2.7-2.7Z" fill="#868686" fill-rule="nonzero"/>
  <path d="M42.77 23.94h2.85V11.51h-2.85v12.43Zm10.42-7.34c-1.5-.47-2.8-.85-2.8-1.75v-.04c0-.74.63-1.25 1.74-1.25.6.02 1.2.13 1.76.34l.17.06c.44.14 1.66.34 2.68-1.26a8.625 8.625 0 0 0-4.57-1.4c-2.47 0-4.42 1.43-4.42 3.79v.04c0 2.38 2.05 3.13 3.89 3.65 1.49.44 2.77.78 2.77 1.74v.05c0 .83-.74 1.34-1.92 1.34a6.19 6.19 0 0 1-2.6-.63c-.25-.1-1.58-.57-2.72 1.05a8.76 8.76 0 0 0 5.2 1.84c2.6 0 4.62-1.3 4.62-3.9v-.06c.04-2.22-2-3.05-3.82-3.61h.02ZM35 20.64l-3.34-9.13h-3.07l5.12 12.53h2.56l5.09-12.53h-2.98L35 20.64Zm35.26-9.39-.137-.001c-3.566 0-6.5 2.934-6.5 6.5A6.51 6.51 0 0 0 67.7 23.78c.8.31 1.66.47 2.52.44.091.004.183.006.274.006 3.56 0 6.49-2.93 6.49-6.49 0-3.561-2.93-6.49-6.49-6.49-.078 0-.156.001-.234.004Zm0 10.5a3.867 3.867 0 0 1-3.78-4.02 3.737 3.737 0 0 1 3.711-3.98c.52 0 1.034.109 1.509.32a3.856 3.856 0 0 1 2.3 3.7 3.737 3.737 0 0 1-3.711 3.98h-.029Zm15.07-10.5a4.465 4.465 0 0 0-3.88 2.2V11.5H78.6v12.43h2.85v-7.02c0-1.92 1.15-3.08 2.8-3.08 1.64 0 2.66 1.11 2.66 3.04v7.06h2.85v-7.9c0-2.9-1.63-4.79-4.43-4.79v.01ZM58.92 23.9h2.82V11.51h-2.82v12.4-.01Z" fill="#868686" fill-rule="nonzero"/>
  <path d="M11.55 10.84c.98-.011 1.78-.82 1.78-1.8 0-.988-.812-1.8-1.8-1.8h-.02c-.98.011-1.78.82-1.78 1.8 0 .988.812 1.8 1.8 1.8h.02ZM7.8 20.43c-.12.44-.17.9-.17 1.34a2.412 2.412 0 0 0 2.67 2.63c1.49 0 2.73-.9 3.61-2.34l-.54 2.16h2.98l1.7-6.87c.43-1.74 1.27-2.64 2.52-2.64a1.498 1.498 0 0 1 1.6 1.63c.01.33-.03.65-.13.96l-.86 3.16c-.12.43-.18.88-.18 1.34 0 1.49.88 2.6 2.72 2.6 1.58 0 2.84-1.03 3.53-3.46l-1.18-.45c-.58 1.63-1.1 1.92-1.48 1.92-.4 0-.62-.26-.62-.8a4.02 4.02 0 0 1 .13-.83l.86-3.08c.2-.63.3-1.28.3-1.94 0-2.3-1.4-3.5-3.08-3.5-1.68 0-3.18 1.42-3.99 2.92l.6-2.7H14.2l-.64 2.37h2.14l-1.32 5.28c-1 2.28-2.93 2.34-3.17 2.28-.4-.08-.64-.23-.64-.74 0-.41.07-.83.18-1.23l2.01-7.95H7.68l-.64 2.36h2.11L7.8 20.43Z" fill="#fff" fill-rule="nonzero"/>
</svg>