<svg xmlns="http://www.w3.org/2000/svg" fill="none" viewBox="0 0 171 37">
  <path fill="#fff" fill-rule="evenodd" d="M77.3 31.28v-6.37c0-1.04.24-1.82.72-2.34a2.47 2.47 0 0 1 1.91-.78c1.45 0 2.17.9 2.17 2.7v6.8h4.62v-7.55c0-1.97-.5-3.43-1.5-4.4a5.42 5.42 0 0 0-3.95-1.47c-.78 0-1.5.12-2.19.37-.68.24-1.27.6-1.78 1.07v-6.09h-4.62v18.06h4.62Zm-47.48 0v-4.45h2.97c1.54 0 2.88-.26 4.01-.77a5.98 5.98 0 0 0 2.63-2.18c.62-.94.93-2.05.93-3.33a6 6 0 0 0-.93-3.35 5.96 5.96 0 0 0-2.63-2.19 9.72 9.72 0 0 0-4.01-.77H25v17.04h4.82Zm2.68-8.25h-2.68v-4.99h2.68c.99 0 1.73.22 2.23.66.5.44.76 1.05.76 1.85s-.25 1.4-.76 1.84c-.5.43-1.24.64-2.23.64Zm18.28 6.55c-.67 1.28-1.97 1.92-3.9 1.92a6.1 6.1 0 0 1-2.65-.53 3.93 3.93 0 0 1-1.7-1.45c-.37-.61-.57-1.3-.57-2.08 0-1.25.48-2.22 1.44-2.91.96-.7 2.43-1.04 4.43-1.04h2.63c-.08-1.4-1.02-2.09-2.8-2.09-.63 0-1.27.1-1.92.3-.65.2-1.2.49-1.66.84l-1.56-3.14a8.63 8.63 0 0 1 2.67-1.13c1.05-.27 2.1-.4 3.15-.4 2.2 0 3.86.5 5.02 1.5 1.15 1 1.72 2.53 1.72 4.59v7.32h-4.3v-1.7Zm-2.6-1a2 2 0 0 1-1.27-.36c-.31-.25-.47-.57-.47-.98 0-.9.68-1.34 2.02-1.34h2v1.15c-.18.5-.47.88-.88 1.14-.4.26-.87.39-1.4.39Zm20.43 1.96a7.48 7.48 0 0 1-3.86.96c-1.47 0-2.77-.3-3.92-.88a6.58 6.58 0 0 1-2.7-2.43 6.58 6.58 0 0 1-.95-3.53c0-1.31.32-2.48.96-3.52a6.52 6.52 0 0 1 2.69-2.4 8.64 8.64 0 0 1 3.92-.87c1.49 0 2.78.32 3.86.96a5.32 5.32 0 0 1 2.32 2.67l-3.58 1.82c-.6-1.18-1.48-1.77-2.63-1.77-.83 0-1.51.27-2.06.82a3.12 3.12 0 0 0-.81 2.3c0 .98.27 1.76.81 2.32.55.56 1.23.84 2.06.84 1.15 0 2.03-.6 2.63-1.78l3.58 1.82a5.32 5.32 0 0 1-2.32 2.67Zm26.78 4.7c-.96.65-2.13.98-3.5.98-.7 0-1.4-.1-2.11-.33-.7-.21-1.28-.5-1.72-.86l1.6-3.24a3.11 3.11 0 0 0 2.04.78 2 2 0 0 0 1.1-.27c.28-.17.52-.46.71-.85L87.87 18.1h4.74l3.24 8.06 3.26-8.06h4.4l-5.69 13.73c-.66 1.62-1.47 2.76-2.43 3.42Zm15.06-3.74c1.72 0 3.01-.51 3.87-1.53v1.31h4.4V13.22h-4.62v6.01a4.78 4.78 0 0 0-3.65-1.36c-1.2 0-2.3.28-3.28.83a6 6 0 0 0-2.35 2.37 7.23 7.23 0 0 0-.86 3.6c0 1.35.28 2.56.86 3.6a6.07 6.07 0 0 0 2.35 2.4c.99.55 2.08.83 3.28.83ZM109.43 27a2.6 2.6 0 0 0 2 .84c.8 0 1.45-.28 1.97-.84.52-.56.78-1.34.78-2.33 0-.97-.26-1.73-.77-2.29a2.58 2.58 0 0 0-1.98-.82c-.81 0-1.48.27-2 .82a3.2 3.2 0 0 0-.78 2.3c0 .98.26 1.76.78 2.32Zm19.18 4.51c2.47 0 4.34-.71 5.62-2.14l-2.43-2.53c-.47.4-.94.7-1.4.87-.46.18-1.01.27-1.64.27-.85 0-1.55-.18-2.1-.55a2.68 2.68 0 0 1-1.14-1.57h9.59l.07-1.14c0-1.41-.31-2.63-.94-3.66a6.2 6.2 0 0 0-2.54-2.36 7.8 7.8 0 0 0-3.58-.82c-1.38 0-2.62.3-3.72.88a6.55 6.55 0 0 0-3.53 5.91c0 1.32.32 2.5.96 3.53a6.55 6.55 0 0 0 2.72 2.43c1.17.59 2.52.88 4.06.88Zm-2.25-9.73c-.48.4-.78.95-.92 1.65h5.4a2.75 2.75 0 0 0-.9-1.65c-.48-.41-1.08-.61-1.8-.61-.7 0-1.3.2-1.78.6Zm15.59 9.51v-6.06c0-1.1.28-1.92.84-2.46.56-.53 1.33-.8 2.32-.8.28 0 .63.02 1.05.07v-4.16c-.97 0-1.84.15-2.6.45a4.3 4.3 0 0 0-1.83 1.35V18.1h-4.4v13.2h4.62Zm10.78-6.55v6.55h-4.63V18.1h4.41v1.39a4.64 4.64 0 0 1 1.74-1.2c.67-.28 1.4-.4 2.2-.4.93 0 1.76.16 2.49.5.73.34 1.32.86 1.77 1.56a5.11 5.11 0 0 1 1.97-1.53c.8-.36 1.67-.54 2.6-.54 1.63 0 2.93.49 3.9 1.46.96.98 1.44 2.44 1.44 4.4v7.55h-4.63V24.5c0-.92-.17-1.6-.52-2.04a1.78 1.78 0 0 0-1.47-.66c-.7 0-1.26.24-1.68.73-.42.49-.63 1.22-.63 2.21v6.55h-4.63V24.5c0-1.8-.66-2.7-2-2.7-.7 0-1.28.24-1.7.73-.42.49-.63 1.22-.63 2.21Z" clip-rule="evenodd"/>
  <path fill="#D06868" fill-rule="evenodd" d="m12.43 26.64-.83.92v2.96l.83-.91v-2.97Z" clip-rule="evenodd"/>
  <path fill="url(#a)" fill-rule="evenodd" d="M12.43 26.65h-3.1l-1.11.92h3.38l.83-.92Z" clip-rule="evenodd"/>
  <path fill="url(#b)" fill-rule="evenodd" d="M12.43 26.65h-3.1l-1.11.92h3.38l.83-.92Z" clip-rule="evenodd"/>
  <path fill="#A5597E" fill-rule="evenodd" d="M11.6 27.55H8.22v2.97h3.38v-2.97Z" clip-rule="evenodd"/>
  <path fill="#C1BBA7" fill-rule="evenodd" d="M12.73 15.74c0-.16-.12-.82.54-.84.53-.02 1.63.17 2.57-.07 1-.26 2.03-1.21 2.15-1.1.13.1-1.08 1.58-2.6 1.99-.9.24-2.1.14-2.66.02-.22-.05.11.14-.68 0" clip-rule="evenodd"/>
  <path fill="#4B2357" fill-rule="evenodd" d="M4.77 29.65s.61.09 1.07.09c.46 0 .8-.16.92-.22.13-.06.19-.48-.12-.7-.2-.14-.06-1.46-.37-1.95-.37-.58.28-2.32.28-2.32l-2.12 1.23s.46 2.4.49 2.62c.03.21-.28 1.15-.15 1.25" clip-rule="evenodd"/>
  <path fill="#4B2A5C" fill-rule="evenodd" d="M10.02 21.64s-.19.88.2 1.86c.38.98 1.24 1.3 1.27 1.76 0 .2-.1.42-.17.77-.08.42.21.84.03 1.2-.16.3-2.28.21-2.02-.29.26-.5.33-1.19.34-1.31 0-.12-1.3-1.48-1.2-2.33.1-.85-.46-1.08-.46-1.08l2.01-.58Z" clip-rule="evenodd"/>
  <path fill="url(#c)" fill-rule="evenodd" d="M13.02 8.49c-1.14-.63-.8-2.32-.8-2.32s.06-.43-.25-.49c-.3-.06-.4-.15-.37.4.03.55-.3 2.07.62 2.86.67.58 1.63.46 2.3 1.37.68.91-.25 2.2-.46 2.3-.64.3-.61.42-1.13.48-.53.06-1.9-.1-2.67.18s-.56.55-1.3 1.01c-.73.46-1.96 1.07-2.49 1.65-.2.22-.34.49-.42.74-.5.15-1.6.3-2.46.78-.5.29-1.84 1.2-2.46 2.08a6.6 6.6 0 0 0-.98 2.56c-.1.5-.15 1.5-.15 2.1 0 .6.09 1.08.2 1.67.04.26.09.72.09 1.01 0 .3-.1.37-.1.57 0 .2.07.27.12.32.05.05 0-.15 0-.2 0-.06.07-.2.1-.16.02.05-.01 0-.03.24-.02.23.17.67.17.47 0-.2 0-.47.05-.6.05-.11.05-.02.05 0 0 .04-.01.1.02.09.03-.01.08-.07.03-.34-.06-.27-.09-.27-.1-.39-.07-.39-.07-.58-.1-.85-.07-.43-.1-1.77-.07-2.22.05-.7.23-.78.3-.92.13-.21.26 1.3.8 2.62.47 1.13 1.11 1.13 1.36 1.37.25.25-.21 1.31-.03 2.08.17.68-.06 1.12 0 1.3.06.19.8.4 1.35.4.56 0 1.23-.15 1.23-.4 0-.64-.24-.51-.3-.9-.07-.4.57-.99.64-1.47.12-.86 0-1.04-.19-1.68l-.09-.8s1.02.16 1.7-.3c1.1-.75 1.53-2.01 1.53-2.01s.46.5.73.73c.4.32.59.36.8.43.28.09 1.01.27 1.01.27s-.36.43-.58.58c-.15.1-.58.46-.5.64.1.18.4.68.72.88.55.37 1.01.5 1.17.46.15-.03.33-1.04.55-1.22.21-.18.61-.8.58-1.1-.03-.3-.09-1.46-.86-1.89-.41-.23-.93-.36-1.14-1.15-.18-.73-1.35-1.22-1.35-1.22.37-.53 1-1.21 1.16-1.39.18.09.34.15.53.14.33-.02.23-.38.04-.89l.05.1s.6-.37.8-.77c.22-.42.77-1.4 1.23-1.55.53-.18 1.47-.67 1.38-.86-.13-.25-.95-.27-.95-.27s1.05-.4 1.1-.49c.43-.76 1.04-2.2.68-3.81-.43-1.95-2.3-1.92-2.86-2.22Z" clip-rule="evenodd"/>
  <mask id="d" width="16" height="26" x="0" y="5" maskUnits="userSpaceOnUse" style="mask-type:alpha">
    <path fill="#fff" fill-rule="evenodd" d="M13.02 8.49c-1.14-.63-.8-2.32-.8-2.32s.06-.43-.25-.49c-.3-.06-.4-.15-.37.4.03.55-.3 2.07.62 2.86.67.58 1.63.46 2.3 1.37.68.91-.25 2.2-.46 2.3-.64.3-.61.42-1.13.48-.53.06-1.9-.1-2.67.18s-.56.55-1.3 1.01c-.73.46-1.96 1.07-2.49 1.65-.2.22-.34.49-.42.74-.5.15-1.6.3-2.46.78-.5.29-1.84 1.2-2.46 2.08a6.6 6.6 0 0 0-.98 2.56c-.1.5-.15 1.5-.15 2.1 0 .6.09 1.08.2 1.67.04.26.09.72.09 1.01 0 .3-.1.37-.1.57 0 .2.07.27.12.32.05.05 0-.15 0-.2 0-.06.07-.2.1-.16.02.05-.01 0-.03.24-.02.23.17.67.17.47 0-.2 0-.47.05-.6.05-.11.05-.02.05 0 0 .04-.01.1.02.09.03-.01.08-.07.03-.34-.06-.27-.09-.27-.1-.39-.07-.39-.07-.58-.1-.85-.07-.43-.1-1.77-.07-2.22.05-.7.23-.78.3-.92.13-.21.26 1.3.8 2.62.47 1.13 1.11 1.13 1.36 1.37.25.25-.21 1.31-.03 2.08.17.68-.06 1.12 0 1.3.06.19.8.4 1.35.4.56 0 1.23-.15 1.23-.4 0-.64-.24-.51-.3-.9-.07-.4.57-.99.64-1.47.12-.86 0-1.04-.19-1.68l-.09-.8s1.02.16 1.7-.3c1.1-.75 1.53-2.01 1.53-2.01s.46.5.73.73c.4.32.59.36.8.43.28.09 1.01.27 1.01.27s-.36.43-.58.58c-.15.1-.58.46-.5.64.1.18.4.68.72.88.55.37 1.01.5 1.17.46.15-.03.33-1.04.55-1.22.21-.18.61-.8.58-1.1-.03-.3-.09-1.46-.86-1.89-.41-.23-.93-.36-1.14-1.15-.18-.73-1.35-1.22-1.35-1.22.37-.53 1-1.21 1.16-1.39.18.09.34.15.53.14.33-.02.23-.38.04-.89l.05.1s.6-.37.8-.77c.22-.42.77-1.4 1.23-1.55.53-.18 1.47-.67 1.38-.86-.13-.25-.95-.27-.95-.27s1.05-.4 1.1-.49c.43-.76 1.04-2.2.68-3.81-.43-1.95-2.3-1.92-2.86-2.22Z" clip-rule="evenodd"/>
  </mask>
  <g mask="url(#d)">
    <mask id="e" width="14" height="15" x="0" y="16" maskUnits="userSpaceOnUse" style="mask-type:alpha">
      <path fill="#fff" fill-rule="evenodd" d="M1.13 19.53a6.6 6.6 0 0 0-.98 2.56 10.93 10.93 0 0 0 .03 3.96c.16.86.34 1.83.47 1.8.06-.01-.03-.93-.16-1.83C.43 25.6.4 24.25.43 23.8c.05-.7.23-.78.3-.92.13-.21.26 1.3.8 2.62.47 1.13 1.11 1.13 1.36 1.37.25.25-.21 1.31-.03 2.08.17.68-.06 1.12 0 1.3.06.19.8.4 1.35.4.56 0 1.23-.15 1.23-.4 0-.64-.24-.51-.3-.9-.07-.4.57-.99.64-1.47.12-.86 0-1.04-.19-1.68l-.09-.8s1.02.16 1.7-.3c1.1-.75 1.53-2.01 1.53-2.01s.46.5.73.73c.4.32.59.36.8.43.28.09 1.01.27 1.01.27s-.36.43-.58.58c-.15.1-.58.46-.5.64.1.18.4.68.72.88.55.37 1.01.5 1.17.46.15-.03.33-1.04.55-1.22.21-.18.61-.8.58-1.1-.03-.3-.09-1.46-.86-1.89-.42-.23-.93-.36-1.14-1.15-.18-.73-1.35-1.22-1.35-1.22.43-.61 1.2-1.44 1.2-1.44l-4.84-2.45c-.36.18-1.65.3-2.63.84-.5.29-1.84 1.2-2.46 2.08Z" clip-rule="evenodd"/>
    </mask>
    <g fill-rule="evenodd" clip-rule="evenodd" mask="url(#e)">
      <path fill="#4F6486" d="M.2 23.44s.27-2.9 1.65-3.08c1.39-.18 1.6-.17 2.2.35.74.64.46.93.63.93.16 0 .99-.53.83-1.5-.15-.95.88-1.94 3.07-1.85 2.19.09-2.52-.64-2.52-.64l-4.51 1.77s-1.26 1.64-1.3 2.9L.2 23.43Z"/>
      <path fill="#4C3D6A" d="M7.76 25.64s-2.23-.02-2.21-.3c.01-.3.12-.7.03-1.1-.02-.07 1 .16 1.6-.33 1.2-.96.1-1.84.1-1.84s1.36.73 1.46 1.09c.18.64-.98 2.48-.98 2.48"/>
      <path fill="#4F728F" d="m.17 26.04.06-2.47c.03-1.5.26-2.48.8-3.26.45-.67 2.24-.1 2.91-.98 1.38-1.83 3.54-1.16 3.54-1.16l3.93.85s-.95 1.72-1.45 1.5l-1.1-.55s.2.4.61.57c.99.43 1.33.8 1.54 1.4.1.26.45.73.7.84.25.1.45.23.62.37.03.03-.1.18-.06.21.03.03.27-.1.3-.08.03.03-.16.26-.13.29.02.03.26-.11.28-.08.04.04-.23.2-.2.24.01.03.26-.03.28 0 .06.13.1.25.12.35.06.4.28.67-.3 1.8-.43.82 1.8-1.22 1.8-1.22L8.98 14.5l-9.8 4.85.74 6.7.25-.02Z"/>
      <path fill="#4C416D" d="M12.1 21.12s-1.07-2.82-1.06-3.1c.02-.3-2.88.3-2.88.3l1.84.6c1.1.37-.46 1.38-.46 1.38l2.03.91.52-.09Z"/>
      <path fill="#4C3D6A" d="M2.32 30.18S.58 24.01.6 23.72c.01-.29-.1-2.33.24-1.59.13.28.77 3.7 2.13 3.84.79.1.29 2.13.4 2.56.27 1.07-.37 2.14-.37 2.14l-.68-.49Z"/>
      <path fill="#5191A6" d="M.2 21.64c.18-1.1 1.5-2.76 2.8-3.5 1.3-.73 1.88-1.05 3.48-1.05s-1.22-.97-1.22-.97L.38 18.14s-.88.18-.92 1.43l.73 2.07Z"/>
    </g>
    <g filter="url(#f)">
      <mask id="g" width="11" height="15" x="5" y="5" maskUnits="userSpaceOnUse" style="mask-type:alpha">
        <path fill="#fff" fill-rule="evenodd" d="M12.22 8.94c.67.58 1.63.46 2.3 1.37.68.91-.25 2.2-.46 2.3-.64.3-.61.42-1.13.48-.18.02-.45.02-.76.01-.62 0-1.4 0-1.91.17-.77.28-.56.55-1.3 1.01-.73.46-1.96 1.07-2.48 1.65-.53.58-.62 1.4-.4 1.74.21.33.86.7 2.61.73 1.75.03 2.18.88 2.86.85.33-.02.23-.38.04-.89l.05.1s.6-.37.8-.77c.22-.42.77-1.4 1.23-1.55.53-.18 1.47-.67 1.38-.86-.13-.25-.95-.27-.95-.27s1.05-.4 1.1-.49c.43-.76 1.04-2.2.68-3.81-.43-1.95-2.3-1.92-2.86-2.22-1.14-.63-.8-2.32-.8-2.32s.06-.43-.25-.49l-.25-.04c-.1 0-.14.08-.12.44.03.55-.3 2.07.62 2.86Z" clip-rule="evenodd"/>
      </mask>
      <g fill-rule="evenodd" clip-rule="evenodd" mask="url(#g)">
        <path fill="url(#h)" d="M12.22 8.94c.67.58 1.63.46 2.3 1.37.68.91-.25 2.2-.46 2.3-.64.3-.61.42-1.13.48-.18.02-.45.02-.76.01-.62 0-1.4 0-1.91.17-.77.28-.56.55-1.3 1.01-.73.46-1.96 1.07-2.48 1.65-.53.58-.62 1.4-.4 1.74.21.33.86.7 2.61.73 1.75.03 2.18.88 2.86.85.33-.02.23-.38.04-.89l.05.1s.6-.37.8-.77c.22-.42.77-1.4 1.23-1.55.53-.18 1.47-.67 1.38-.86-.13-.25-.95-.27-.95-.27s1.05-.4 1.1-.49c.43-.76 1.04-2.2.68-3.81-.43-1.95-2.3-1.92-2.86-2.22-1.14-.63-.8-2.32-.8-2.32s.06-.43-.25-.49l-.25-.04c-.1 0-.14.08-.12.44.03.55-.3 2.07.62 2.86Z"/>
        <path fill="#4E567C" d="M11.64 18.45s.6-.35.8-.76c.22-.42.77-1.4 1.23-1.55.53-.18 1.47-.67 1.38-.86-.13-.25-.95-.27-.95-.27s1.05-.4 1.1-.49c.43-.76 1.02-1.44.45-3-.37-1-2.37-2.29-2.92-2.6-1.14-.62-.9-2.4-.9-2.4s0-.52-.3-.58c-.31-.06-.19-.06-.16.49.04.55-.07 1.72.85 2.51.67.58 1.68.9 2.35 1.82.68.9 1.66 1.89.74 2.92-.47.53-2.18 1.5-2.73 1.71a4.9 4.9 0 0 1-1.54.28c-.8-.14-1.35-.92-1.78-.64-.73.46.95 1.12.43 1.7-.52.58-2.49.5-2.52.89-.03.37.1.58 1.85.6 1.75.04 1.85 1.06 2.53 1.03.67-.03-.43-1.5-.46-2.62-.04-1.13-1.36-1.31-1.36-1.31"/>
        <path fill="#5DA7B5" d="M9.5 14.27c.5-.65.68-.7 1.17-.8.33-.06 1.28-.02 2.07-.1.05 0 .1.18.18.18.06 0-.01-.35.06-.36.08-.01.23.39.3.36.07-.02-.1-.38 0-.4.09-.03.27.33.33.3.05-.03-.1-.3-.06-.38.06-.07.1.11.1.1.86-.45 1.2-1.14 1.23-1.65.03-.52-.58-1.25-.58-1.25l-4.58-2.4s.1-1.79 1.93-2.05c.64-.1-.07 1 .68 2.32.38.67 1.32.55 2.22 1.14.06.04.16-.07.2-.04.04.03-.1.13.05.26.16.13.23-.08.29-.03.06.06-.16.17 0 .3.16.14.24-.04.3.03.05.06-.12.15-.05.22.22.25.23.34.34.77.33 1.33.2 1.05.64 1.58.85 1.01-3.96 2.47-3.96 2.47l5.69-.89-.35-1.2L9.86-1.8 5.51 17.93s.83-1.74 1.9-2.44c1.3-.85 1.6-.58 2.1-1.22Z"/>
        <path fill="#4C416D" d="m12 18.62-.45-.3s-.3-1.14-.45-1.5c-.18-.42-.2-.63-.74-.76-1.6-.36-.64-.82-.64-.82s1.04.27 1.29 1c.1.31.19 1.13.65 1.13s.61-.7 1.01-.94c.4-.25.68-.55 1.04-.61.37-.06 1.36-.06 1.36-.06L12 18.62Z"/>
        <path fill="#4E567C" d="M11.47 14.54c.46-.25.56-.1.83-.28.28-.18-1.01-.48-1.44-.24-.25.14-.35 1.02-.1 1.16.68.36.33-.44.71-.64Z"/>
      </g>
    </g>
  </g>
  <path fill="#4F6486" fill-rule="evenodd" d="M5.6 25.25c.2-.88.27-1-.28-1.65-.56-.65-.62-.97-.62-.97s-.02.44.54 1.06c.56.63.03 1.72.28 2.45.24.72.3 1.06.3 1.06s-.07-.64-.17-1.1c-.04-.16-.14-.5-.05-.85Z" clip-rule="evenodd"/>
  <path fill="#4B2A5C" fill-rule="evenodd" d="M12.91 15.57s.83-.02 1.08-.09c.34-.1.83-.12.83-.34l-.53-.15-.84.29-.03.08-.5.21Z" clip-rule="evenodd"/>
  <path fill="url(#i)" fill-rule="evenodd" d="M15.88 13.24c-.76.6-1.81.95-2.28 1.19-.58.3-.21.76-.15.88a7.58 7.58 0 0 0 2.36-1.19c1.21-.99 1.72-2.65 1.57-2.68-.17 0-.72 1.17-1.5 1.8" clip-rule="evenodd"/>
  <path fill="#D3CBAF" fill-rule="evenodd" d="M13.45 15.31c-.23-.35-.17-.5-.17-.5s.25.21.68.06c.5-.17 1.15-.43 1.9-1.04.8-.64 1.36-1.7 1.36-1.7s-.2 1-1.4 2a7.58 7.58 0 0 1-2.37 1.18" clip-rule="evenodd"/>
  <path fill="#fff" fill-rule="evenodd" d="M11.16 14.27c0-.11.1-.2.21-.2.11 0 .2.09.2.2 0 .11-.09.2-.2.2a.2.2 0 0 1-.2-.2" clip-rule="evenodd"/>
  <path fill="#D5B8D8" fill-rule="evenodd" d="M11.47 14.17c0 .04-.02.06-.06.06a.06.06 0 1 1 0-.12c.04 0 .06.03.06.06" clip-rule="evenodd"/>
  <path fill="#FE9B7C" fill-rule="evenodd" d="m11.96 0 2.16 2-.11 1.14-2.29-2.1.24-1.03Z" clip-rule="evenodd"/>
  <path fill="#D06868" fill-rule="evenodd" d="m11.97 0-.25 1.03L9.7 3.2l.24-1.03L11.97 0Z" clip-rule="evenodd"/>
  <path fill="#A5597E" fill-rule="evenodd" d="m11.73 1.03 2.29 2.1-2.04 2.18L9.69 3.2l2.04-2.17Z" clip-rule="evenodd"/>
  <defs>
    <linearGradient id="a" x1="8.24" x2="8.02" y1="26.23" y2="28.28" gradientUnits="userSpaceOnUse">
      <stop stop-color="#FE9B7C"/>
      <stop offset="1" stop-color="#D06868"/>
    </linearGradient>
    <linearGradient id="c" x1="9.56" x2="27.46" y1="40.07" y2="26.26" gradientUnits="userSpaceOnUse">
      <stop stop-color="#4C416C"/>
      <stop offset="1" stop-color="#4F7995"/>
    </linearGradient>
    <linearGradient id="h" x1="7.81" x2="-.09" y1="1.91" y2="13.69" gradientUnits="userSpaceOnUse">
      <stop stop-color="#5190A5"/>
      <stop offset="1" stop-color="#4E6586"/>
    </linearGradient>
    <linearGradient id="i" x1="15.21" x2="12.27" y1="11.4" y2="14.04" gradientUnits="userSpaceOnUse">
      <stop stop-color="#EFE8CD"/>
      <stop offset="1" stop-color="#D3CAAF"/>
    </linearGradient>
    <radialGradient id="b" cx="0" cy="0" r="1" gradientTransform="matrix(0 .55116 -7.76472 0 9.95 26.9)" gradientUnits="userSpaceOnUse">
      <stop stop-opacity=".5"/>
      <stop offset="1" stop-opacity=".01"/>
    </radialGradient>
    <filter id="f" width="14.02" height="17.61" x="3.97" y="3.64" color-interpolation-filters="sRGB" filterUnits="userSpaceOnUse">
      <feFlood flood-opacity="0" result="BackgroundImageFix"/>
      <feColorMatrix in="SourceAlpha" result="hardAlpha" values="0 0 0 0 0 0 0 0 0 0 0 0 0 0 0 0 0 0 127 0"/>
      <feOffset/>
      <feGaussianBlur stdDeviation="1"/>
      <feColorMatrix values="0 0 0 0 0 0 0 0 0 0 0 0 0 0 0 0 0 0 0.5 0"/>
      <feBlend in2="BackgroundImageFix" result="effect1_dropShadow_885_441"/>
      <feBlend in="SourceGraphic" in2="effect1_dropShadow_885_441" result="shape"/>
    </filter>
  </defs>
</svg>
