<svg xmlns="http://www.w3.org/2000/svg" fill="none" viewBox="0 0 30 30">
  <circle cx="15" cy="15" r="15" fill="#E1E444"/>
  <path fill="#000" d="M15.783 7.081a.607.607 0 0 0-.607 0l-5.323 3.57H7.607a.607.607 0 0 0-.607.606v8.498a.607.607 0 0 0 .607.606h2.246l5.31 3.539a.607.607 0 0 0 .941-.504V7.616a.607.607 0 0 0-.321-.535zm-7.57 4.783h1.215v7.284H8.214v-7.284zm6.677 10.403-4.248-2.834v-7.854l4.248-2.835v13.523zm5.402-12.77a.607.607 0 0 0-.856.856 7.284 7.284 0 0 1 0 10.318.607.607 0 1 0 .856.844 8.497 8.497 0 0 0 0-12.012v-.006z"/>
  <path fill="#000" d="M18.15 11.646a.607.607 0 0 0-.832.825 4.248 4.248 0 0 1 0 6.07.607.607 0 1 0 .862.855 5.46 5.46 0 0 0 0-7.726l-.03-.024z"/>
</svg>
