<svg viewBox="0 0 94 94" xmlns="http://www.w3.org/2000/svg" fill-rule="evenodd" clip-rule="evenodd" stroke-linejoin="round" stroke-miterlimit="2"><g fill-rule="nonzero"><path d="M81.212 25.18l.494-.323-1.787-2.73 1.7-1.112 1.585 2.42.5-.327-1.583-2.42 1.707-1.118 1.782 2.722.493-.323-2.163-3.305-4.896 3.204 2.168 3.313zM82.797 27.78l1.525 3.538.542-.234-1.246-2.89 4.83-2.083-.28-.647-5.371 2.317zM86.373 37.99l.574-.138-.77-3.17 1.976-.48.682 2.813.58-.141-.681-2.812 1.984-.481.767 3.162.573-.14-.931-3.838-5.687 1.379.933 3.847zM89.919 40.439c-1.841.106-2.963 1.295-2.875 2.84.045.778.532 1.538 1.174 1.723l-.97.12.032.558 2.913-.167-.12-2.07-.555.032.079 1.383-.302.017c-.95.054-1.597-.64-1.653-1.621-.071-1.236.862-2.011 2.318-2.095 1.456-.083 2.456.598 2.527 1.842.05.892-.393 1.45-1.112 1.648l.04.704c1.068-.267 1.744-1.085 1.669-2.386-.088-1.547-1.332-2.633-3.165-2.528zM86.819 52.602l-.092.732 6.102-1.63.099-.788-5.511-3.08-.088.7 1.538.846-.35 2.78-1.698.44zm5.363-1.4l-.003.025-3.055.78.292-2.325 2.766 1.52zM91.62 58.525l.269-.826-5.565-1.81-.212.655 4.746 1.543-.005.016-5.775 1.62-.203.625 5.565 1.809.21-.647-4.442-1.445.005-.015 5.408-1.525zM82.829 65.09l-.342.617 4.6 2.552-1.061 1.914.516.286 2.46-4.436-.515-.287-1.057 1.907-4.601-2.552zM78.898 74.224c-.96-.847-2.103-.484-3.002.413-.877.873-1.006 1.997-.3 2.705.654.656 1.355.547 2.12.039l.98-.642c.605-.405.98-.491 1.392-.08.434.436.41 1.132-.194 1.733-.592.59-1.264.728-1.797.334l-.481.48c.827.668 1.795.466 2.683-.42.859-.855.936-1.95.259-2.63-.711-.713-1.465-.471-2.126-.02l-.946.63c-.667.457-1.084.42-1.431.073-.498-.5-.346-1.217.246-1.808.615-.613 1.386-.93 2.115-.327l.482-.48zM69.059 80.478l.34.482 2.666-1.88 1.17 1.662-2.363 1.667.345.489 2.364-1.667 1.176 1.667-2.66 1.875.34.483 3.23-2.277-3.373-4.782-3.235 2.28zM62.81 83.883l-.668.312 4.632 4.293.72-.337-.335-6.304-.638.299.105 1.75-2.54 1.189-1.276-1.202zm4.044 3.789l-.022.01-2.29-2.167 2.123-.993.189 3.15zM60.815 87.945c-.455-1.787-1.836-2.662-3.337-2.28-.754.192-1.408.815-1.467 1.48l-.304-.928-.54.138.72 2.827 2.009-.511-.137-.54-1.342.34-.075-.293c-.235-.921.323-1.688 1.276-1.931 1.199-.305 2.138.462 2.498 1.876.36 1.414-.12 2.525-1.326 2.832-.865.22-1.5-.11-1.83-.778l-.683.174c.466.998 1.398 1.505 2.66 1.184 1.502-.382 2.33-1.811 1.878-3.59zM47.963 89.62l.224 3.46.703-.045-.226-3.5c-.08-1.243.51-1.881 1.54-1.948 1.024-.066 1.7.49 1.78 1.733l.227 3.5.703-.045-.222-3.443c-.105-1.611-1.037-2.438-2.525-2.342-1.505.097-2.307 1.036-2.204 2.63zM44.945 87.3l-3.83-.424-.064.586 3.128.347-.58 5.229.7.078.646-5.816zM38.049 86.436l-3.701-1.07-.164.567 3.024.874-1.461 5.054.677.196 1.625-5.621zM31.028 86.15c.483-1.186-.237-2.144-1.38-2.698-1.114-.54-2.218-.29-2.653.61-.403.834-.07 1.46.664 2.015l.929.714c.58.436.787.763.534 1.287-.268.553-.932.76-1.7.388-.752-.364-1.104-.953-.907-1.586l-.613-.296c-.357 1.002.153 1.849 1.282 2.395 1.09.528 2.15.239 2.568-.624.439-.907-.038-1.54-.682-2.014l-.907-.685c-.652-.48-.756-.884-.542-1.327.307-.634 1.036-.728 1.788-.364.782.378 1.336 1.002 1.007 1.889l.612.296zM11.31 66.859l-.503.308 1.7 2.783-1.733 1.06-1.51-2.468-.51.312 1.51 2.468-1.741 1.064-1.697-2.776-.504.308 2.06 3.37 4.993-3.052-2.065-3.377zM9.822 64.242L8.405 60.66l-.55.217 1.159 2.926-4.892 1.936.26.656 5.44-2.154zM6.578 54.049L6 54.17l.674 3.19-1.988.42-.598-2.83-.586.124.599 2.83-1.997.422-.673-3.183-.577.122.817 3.865 5.725-1.21-.82-3.872zM3.102 51.654c1.843-.06 2.995-1.218 2.946-2.767-.024-.778-.492-1.55-1.13-1.751l.973-.097-.017-.557-2.916.092.065 2.073.557-.018-.044-1.384.304-.01c.95-.03 1.579.68 1.61 1.663.039 1.237-.913 1.989-2.371 2.035-1.458.046-2.44-.661-2.48-1.906-.027-.893.43-1.44 1.155-1.62l-.022-.703c-1.075.238-1.771 1.039-1.73 2.342.049 1.548 1.265 2.666 3.1 2.608zM6.519 39.426l.113-.73L.486 40.15l-.122.785 5.419 3.238.108-.697-1.512-.89.429-2.77 1.71-.39zM1.118 40.67l.004-.025 3.076-.692-.36 2.317-2.72-1.6zM1.843 33.448l-.293.818 5.51 1.97.232-.647-4.7-1.682.006-.015 5.82-1.451.22-.618-5.508-1.971-.23.64L7.3 32.066l-.006.016-5.45 1.366zM10.803 27.105l.36-.606-4.522-2.688 1.118-1.881-.507-.302-2.592 4.36.507.303 1.114-1.874 4.522 2.688zM14.938 18.1c.937.874 2.089.542 3.012-.331.9-.85 1.059-1.97.373-2.696-.636-.674-1.34-.583-2.12-.096l-.997.616c-.614.388-.993.464-1.392.04-.422-.446-.38-1.14.24-1.725.608-.575 1.284-.694 1.806-.285l.494-.467c-.81-.69-1.782-.515-2.694.346-.882.833-.988 1.926-.33 2.623.692.732 1.452.51 2.126.078l.962-.605c.679-.44 1.095-.392 1.433-.034.484.512.313 1.226-.295 1.8-.632.596-1.411.893-2.124.27l-.494.467zM25.04 12.027l-.326-.493-2.722 1.797-1.12-1.696 2.415-1.594-.33-.5-2.414 1.594-1.124-1.703 2.715-1.792-.325-.493-3.296 2.176 3.223 4.884 3.304-2.18zM31.266 8.846l.677-.292-4.5-4.432-.73.315.143 6.31.647-.278-.051-1.754 2.573-1.11 1.24 1.24zm-3.928-3.911l.023-.01 2.223 2.237-2.152.928-.094-3.155zM33.546 4.764c.4 1.8 1.756 2.716 3.268 2.379.759-.17 1.43-.773 1.51-1.437l.276.937.544-.121-.635-2.847-2.024.45.12.545 1.353-.302.066.296c.207.928-.373 1.679-1.333 1.893-1.207.269-2.124-.526-2.441-1.95-.318-1.423.194-2.52 1.41-2.791.87-.194 1.495.154 1.805.832l.688-.154C37.718 1.483 36.8.949 35.529 1.232c-1.512.337-2.383 1.74-1.983 3.532zM46.41 3.465L46.288 0l-.704.025.123 3.505c.044 1.245-.565 1.865-1.597 1.902-1.024.036-1.684-.54-1.728-1.784L42.258.142l-.704.025.122 3.448c.057 1.614.964 2.467 2.455 2.415 1.507-.054 2.335-.968 2.279-2.565zM49.265 5.852l3.814.535.082-.584-3.116-.438.73-5.21-.697-.098-.813 5.795zM56.25 6.929l3.668 1.177.18-.562-2.996-.961 1.608-5.01-.671-.216-1.79 5.572zM63.249 7.406c-.518 1.172.173 2.15 1.3 2.738 1.097.572 2.208.355 2.67-.531.428-.821.112-1.457-.604-2.034l-.908-.741c-.567-.453-.764-.786-.495-1.302.284-.545.955-.732 1.71-.338.742.386 1.076.986.86 1.613l.604.314c.387-.991-.098-1.853-1.21-2.432-1.075-.561-2.143-.304-2.586.547-.465.894-.007 1.539.623 2.034l.886.71c.637.499.729.908.502 1.344-.326.625-1.057.697-1.798.31-.77-.401-1.306-1.04-.95-1.918l-.604-.314z"/></g></svg>
