<?xml version="1.0" encoding="UTF-8" standalone="no"?><!DOCTYPE svg PUBLIC "-//W3C//DTD SVG 1.1//EN" "http://www.w3.org/Graphics/SVG/1.1/DTD/svg11.dtd"><svg width="100%" height="100%" viewBox="0 0 753 1657" version="1.1" xmlns="http://www.w3.org/2000/svg" xmlns:xlink="http://www.w3.org/1999/xlink" xml:space="preserve" xmlns:serif="http://www.serif.com/" style="fill-rule:evenodd;clip-rule:evenodd;stroke-linejoin:round;stroke-miterlimit:2;"><path d="M752.674,13.548l-10.258,1643.44c-0,-0 -560.765,-18.624 -570.23,-30.4c-15.598,-19.406 -22.806,-51.511 -29.596,-69.057c-10.087,-26.013 -19.312,-52.34 -29.432,-78.353c-5.348,-13.741 -10.151,-27.835 -19.407,-39.713c-0.992,-1.292 -1.697,-2.95 -2.113,-4.526c-1.442,-5.885 1.505,-9.351 7.462,-8.223c4.58,0.856 8.934,2.813 13.418,4.227c2.146,0.666 4.356,1.209 8.071,2.242c-12.137,-19.258 -20.592,-38.15 -21.426,-60.603c15.95,3.493 26.967,15.888 42.018,17.615c0.512,-0.612 0.993,-1.224 1.505,-1.822c-1.569,-2.337 -2.818,-4.974 -4.739,-6.986c-30.456,-31.912 -48.455,-70.85 -62.322,-111.882c-5.925,-17.465 -11.017,-35.364 -14.347,-53.495c-5.508,-30.213 -0.673,-59.611 11.593,-87.677c1.857,-4.254 4.451,-8.358 7.494,-11.851c3.811,-4.417 8.263,-3.045 9.191,2.827c4.163,26.747 18.896,48.561 32.986,70.62c2.178,3.438 5.573,6.088 8.391,9.065c0.769,-0.313 1.57,-0.639 2.337,-0.952c0,-3.112 0.706,-6.442 -0.16,-9.296c-1.537,-5.124 -3.394,-10.275 -6.149,-14.828c-22.993,-38.123 -41.088,-78.598 -58.094,-119.643c-11.464,-27.631 -22.865,-55.275 -34.171,-82.988c-1.185,-2.908 -1.44,-6.184 -2.465,-10.886c14.316,2.623 19.664,15.752 31.864,20.781c0,-3.384 0.482,-5.926 -0.063,-8.169c-3.139,-12.707 -6.565,-25.361 -9.8,-38.082c-1.152,-4.54 -2.401,-9.12 -3.107,-13.768c-1.473,-9.935 -0.255,-11.498 10.377,-14.678c3.363,3.778 6.789,7.665 11.913,13.428c1.089,-5.45 2.146,-8.495 2.274,-11.566c1.57,-39.687 1.345,-79.4 -2.21,-118.964c-1.762,-19.381 -13.322,-34.114 -25.876,-47.977c-2.69,-2.99 -5.828,-5.681 -8.135,-8.943c-5.188,-7.298 -3.266,-12.49 5.317,-15.208c5.316,-1.672 10.696,-3.086 16.717,-4.839c-14.924,-21.175 -23.411,-43.505 -31.833,-68.581c6.309,1.658 10.503,2.338 14.347,3.874c17.454,7.013 34.555,15.059 52.33,21.107c11.305,3.846 23.539,5.001 35.387,7.108c2.114,0.394 4.42,-0.353 6.47,-0.571c-0,-1.318 0.288,-2.175 -0.033,-2.528c-13.643,-15.888 -27.99,-30.92 -47.46,-39.944c-10.377,-4.812 -20.561,-10.031 -30.841,-14.991c-8.392,-4.037 -15.02,-9.936 -20.24,-17.683c-14.764,-21.841 -26.613,-45.285 -35.741,-69.885c-3.395,-9.161 -3.042,-19.775 -3.875,-29.765c-0.192,-2.215 1.761,-4.607 3.459,-8.78c13.515,15.222 25.46,29.602 41.441,40.651c-1.249,-3.615 -2.37,-7.298 -3.811,-10.859c-10.472,-26.204 -15.725,-53.454 -16.878,-81.588c-0.191,-4.675 -0.16,-9.514 0.865,-14.026c0.545,-2.4 3.459,-5.923 5.284,-5.923c2.146,-0 5.093,2.883 6.276,5.216c2.276,4.458 3.396,9.46 5.285,14.135c11.401,28.12 30.873,50.219 52.778,70.498c16.621,15.371 34.652,28.894 54.475,39.781c25.621,14.067 51.561,27.576 77.439,41.263c3.105,1.631 6.564,2.623 10.472,4.159c1.504,-7.109 -0.961,-11.539 -4.9,-15.44c-2.37,-2.338 -5.189,-4.417 -6.982,-7.149c-17.454,-26.747 -42.113,-45.476 -69.88,-59.57c-29.751,-15.127 -53.066,-37.77 -76.285,-60.576c-16.684,-16.364 -23.345,-37.058 -20.304,-60.857c2.755,-21.429 7.334,-42.345 13.483,-63.006c9.416,-31.775 14.892,-64.414 14.988,-97.407c0.097,-26.841 20.439,-195.699 25.371,-221.805c4.387,-23.127 640.085,4.271 640.085,4.271Z" style="fill-rule:nonzero;"/></svg>