<svg viewBox="0 0 805 1779" xmlns="http://www.w3.org/2000/svg" fill-rule="evenodd" clip-rule="evenodd" stroke-linejoin="round" stroke-miterlimit="2"><path d="M761.624 1006.12c1.425.486 9.685-13.359 12.806-19.124 2.229-4.109 4.209-8.431 6.815-12.31.913-1.355 3.524-2.676 4.92-2.3 1.429.377 3.044 2.733 3.242 4.372.344 2.936-.309 5.986-.543 8.956-1.836 22.796-10.903 71.406-7.232 75.244 1.911 1.997 11.527-45.665 15.426-45.814 3.73-.143 7.577 8.286 7.292 11.798-.403 5.018-.652 10.231-2.23 14.948-7.358 22.178-8.859 45.489-13.958 68.101-1.372 6.139-5.262 18.513-3.837 20.508 1.424 1.996 9.516-9.283 12.384-8.535 2.868.748 4.216 8.514 4.825 13.023 2.148 16.192.554 32.197-2.034 48.193-2.062 12.942-4.126 25.911-5.295 38.979-1.465 15.942-8.231 29.586-16.301 42.954-20.125 33.352-45.689 61.057-79.146 81.831-32.048 19.885-61.289 43.747-89.729 68.534-9.955 8.69-18.79 18.345-25.697 29.632a5778.246 5778.246 0 00-34.266 57.056c-2.319 3.916-3.98 8.291-5.923 12.451.461.561.921 1.121 1.35 1.68 2.951-.983 6.052-1.675 8.855-2.99 45.571-21.676 87.036-49.563 124.051-83.892 7.821-7.257 14.598-15.787 21.117-24.314 13.51-17.621 26.644-35.527 39.622-53.521 3.909-5.409 6.976-11.447 10.104-17.402 3.297-6.22 7.817-10.751 14.485-12.622 4.395 2.563 2.927 6.006 2.206 9.15-1.623 6.891-1.545 12.796 1.529 20.086 3.636 8.589 3.648 19.075 3.785 28.749.351 30.666-1.278 61.181-6.331 91.519-1.341 7.989-3.172 16.22-.628 26.674 9.626-11.163 13.422-25.077 26.881-32.282.076 3.266.543 5.459.116 7.538-5.566 27.654-9.195 55.827-22.819 81.209-.31.587-.652 1.187-.834 1.82-10.423 38.089-100.373 194.085-124.71 217.032C624.251 1789.695 0 1765.714 0 1765.714L20.384 1.554s666.19-9.958 672.892 20.569c11.358 51.878 23.169 103.644 34.527 155.523 7.281 33.176 6.886 66.816 4.76 100.458-.67 10.713-3.567 34.522-3.404 38.085 8.695-8.441 10.933-18.233 14.866-26.971 4.07-9.023 7.527-30.304 14.383-29.613 6.713.677 1.659 70.469-7.341 99.222-.704 2.249-2.624 7.539-.971 8.44 1.583.864 21.713-40.967 26.328-46.546 3.16-3.819 3.036 10.172 1.911 14.748-4.765 19.575-9.659 39.143-14.806 58.608-2.848 10.701-6.267 21.253-9.58 32.417 6.669.814 6.88 5.693 6.011 10.278-2.096 11.208-4.735 22.331-7.151 33.496-2.113 9.864-4.289 19.687-6.307 29.556-.387 1.904-.742 6.646.011 6.905.947.326 9.007-10.828 10.857-10.328 2.273.615.959 7.883.327 11.247-2.457 13.213-5.486 26.311-7.624 39.576-2.92 18.134-.776 36.257 1.981 54.239 2.237 14.59 5.566 29.111 6.87 43.804 2.178 24.394 3.42 48.931 4.504 73.422.494 11.332-3.598 21.89-8.599 31.844-18.14 36.115-37.189 71.654-64.543 101.934-1.534 1.672-2.725 3.656-5.622 7.593 4.194-1.674 6.235-2.308 8.098-3.303 23.287-12.35 39.592-31.993 54.811-52.668 6.97-9.462 13.003-19.597 19.63-29.33 3.145-4.635 8.073-12.805 11.745-12.189 2.417.406 3.362 8.197 2.962 12.222-1.472 14.377-3.392 28.725-4.993 43.097-.469 4.186-.363 8.419-.549 13.662 10.69-3.237 16.005-18.41 22.019-19.063 2.421-.263 1.446 6.216.774 7.987-3.11 8.158-6.41 16.242-10.057 24.19-13.16 28.541-19.58 58.599-19.797 89.912-.141 19.293-1.712 38.236-6.671 56.936-.997 3.718-3.59 13.727-1.012 14.607zm-35.83-582.709c9.379-5.116 15.123-15.233 13.953-23.8-13.111 4.631-17.906 12.408-13.953 23.8z" fill-rule="nonzero"/></svg>
