<?xml version="1.0" encoding="UTF-8" standalone="no"?>
<!DOCTYPE svg PUBLIC "-//W3C//DTD SVG 1.1//EN" "http://www.w3.org/Graphics/SVG/1.1/DTD/svg11.dtd">
<svg width="100%" height="100%" viewBox="0 0 1800 835" version="1.1" xmlns="http://www.w3.org/2000/svg" xmlns:xlink="http://www.w3.org/1999/xlink" xml:space="preserve" xmlns:serif="http://www.serif.com/" style="fill-rule:evenodd;clip-rule:evenodd;stroke-linejoin:round;stroke-miterlimit:2;">
    <g transform="matrix(1,0,0,1,-208.592,835.521)">
        <g>
            <g transform="matrix(0.990026,0,0,1.00013,219.631,-832.847)">
                <rect x="-11.149" y="-2.673" width="1818.13" height="834.888" style="fill:url(#_Radial1);"/>
            </g>
            <g transform="matrix(0.990026,0,0,1.00013,219.631,-832.847)">
                <rect x="-11.149" y="-2.673" width="1818.13" height="834.888" style="fill:url(#_Radial2);"/>
            </g>
            <g transform="matrix(0.990026,0,0,1.00013,219.631,-832.847)">
                <rect x="-11.149" y="-2.673" width="1818.13" height="834.888" style="fill:url(#_Radial3);"/>
            </g>
            <g transform="matrix(0.990026,0,0,1.00013,219.631,-832.847)">
                <rect x="-11.149" y="-2.673" width="1818.13" height="834.888" style="fill:url(#_Radial4);"/>
            </g>
        </g>
        <g>
            <g transform="matrix(0.990026,0,0,1.00013,219.631,-832.847)">
                <rect x="-11.149" y="-2.673" width="1818.13" height="834.888" style="fill:url(#_Radial5);"/>
            </g>
            <g transform="matrix(0.990026,0,0,1.00013,219.631,-832.847)">
                <rect x="-11.149" y="-2.673" width="1818.13" height="834.888" style="fill:url(#_Radial6);"/>
            </g>
            <g transform="matrix(0.990026,0,0,1.00013,219.631,-832.847)">
                <rect x="-11.149" y="-2.673" width="1818.13" height="834.888" style="fill:url(#_Radial7);"/>
            </g>
            <g transform="matrix(0.990026,0,0,1.00013,219.631,-832.847)">
                <rect x="-11.149" y="-2.673" width="1818.13" height="834.888" style="fill:url(#_Radial8);"/>
            </g>
        </g>
        <g transform="matrix(1,0,0,1,202.892,-867.537)">
            <path d="M397.292,995.603C522.412,987.499 612.119,889.635 698.86,794.975C789.274,696.356 874.649,603.204 995.107,608.01C1088.68,611.78 1154.51,669.499 1224.2,730.658C1292.25,790.404 1362.65,852.129 1467.38,876.112C1559.39,897.221 1590.43,777.211 1626.4,638.26C1663.84,493.513 1706.32,329.495 1827.62,285.44L1826.35,282C1703.25,326.762 1660.54,491.77 1622.87,637.365C1587.36,774.478 1556.76,892.839 1468.23,872.578C1364.44,848.783 1294.37,787.341 1226.65,727.926C1156.44,666.342 1090.14,608.199 995.248,604.382C873.095,599.482 787.155,693.247 696.176,792.524C609.906,886.619 520.717,983.965 397.057,991.975C259.694,1000.88 51.035,653.432 -61.087,466.797C-83.644,429.244 -103.139,396.78 -116.937,375.765L-119.997,377.791C-106.247,398.712 -86.751,431.129 -64.195,468.682C19.862,608.623 157.978,838.606 280.649,942.219C322.183,977.274 361.974,997.865 397.292,995.603ZM380.716,976.097C506.495,965.401 597.286,871.165 685.063,780.085C719.156,744.7 751.366,711.246 785.507,682.504C854.683,624.172 917.502,599.01 983.146,603.251C1076.06,609.282 1137.93,668.792 1203.39,731.789C1268.33,794.268 1335.48,858.867 1439.88,881.389C1530.81,900.99 1564.62,785.645 1603.8,652.113C1646.28,507.272 1694.45,343.112 1826.54,302.355L1825.45,298.868C1691.48,340.191 1643.03,505.34 1600.31,651.076C1561.65,782.865 1528.27,896.655 1440.63,877.808C1337.27,855.521 1270.49,791.299 1205.93,729.151C1139.96,665.683 1077.66,605.701 983.381,599.623C916.748,595.288 853.129,620.732 783.152,679.724C748.87,708.607 716.613,742.108 682.426,777.588C595.12,868.196 504.847,961.914 380.434,972.516C242.411,984.248 43.218,682.457 -75.827,502.089C-103.657,459.918 -125.648,426.605 -141.471,405.591L-144.39,407.805C-128.662,428.773 -106.718,462.038 -78.887,504.162C4.651,630.674 127.463,816.79 241.752,913.288C290.915,954.752 338.57,979.677 380.716,976.097ZM364.188,956.637C490.579,943.397 582.452,852.836 671.265,765.243C705.971,731.035 738.746,698.712 773.028,671.384C842.91,615.737 905.917,592.555 971.232,598.445C1063.81,606.738 1121.92,668.227 1183.52,733.297C1245.06,798.367 1308.73,865.699 1412.42,886.619C1502.32,904.76 1538.77,793.844 1580.96,665.447C1628.52,520.653 1682.49,356.541 1825.55,319.27L1824.65,315.737C1679.66,353.478 1625.41,518.627 1577.52,664.316C1535.85,791.064 1499.87,900.566 1413.18,883.038C1310.61,862.353 1247.37,795.493 1186.2,730.8C1124.14,665.211 1065.55,603.251 971.609,594.817C905.305,588.88 841.497,612.298 770.814,668.557C736.391,695.98 703.522,728.35 668.769,762.652C580.38,849.82 489.025,939.91 363.905,953.056C225.27,967.568 27.631,696.686 -90.472,534.836C-122.682,490.686 -148.111,455.819 -165.911,435.416L-168.642,437.82C-150.983,458.127 -125.554,492.948 -93.438,537.003C-16.916,641.888 92.805,792.289 198.9,881.86C257.104,931.005 314.319,961.867 364.188,956.637ZM347.659,937.13C474.615,921.44 567.525,834.507 657.373,750.401C692.691,717.324 726.079,686.085 760.502,660.264C831.043,607.303 894.192,586.147 959.224,593.592C1051.71,604.241 1106.33,667.803 1164.21,735.135C1222.22,802.655 1282.17,872.437 1384.88,891.755C1473.78,908.482 1512.68,801.76 1557.74,678.216C1610.49,533.611 1670.24,369.687 1824.47,336.092L1823.67,332.511C1667.47,366.53 1607.33,531.443 1554.31,676.991C1509.85,798.98 1471.43,904.336 1385.53,888.174C1284.1,869.138 1224.58,799.828 1166.99,732.779C1108.64,664.882 1053.55,600.754 959.648,589.964C893.627,582.378 829.631,603.769 758.289,657.343C723.724,683.305 690.243,714.591 654.831,747.715C565.406,831.397 472.92,917.953 347.141,933.502C207.988,950.7 11.95,709.314 -105.164,565.133C-141.847,519.946 -170.855,484.278 -190.586,465.101L-193.129,467.739C-173.539,486.775 -144.626,522.396 -108.036,567.488C-40.273,650.888 53.72,766.704 148.277,846.522C217.971,905.231 287.807,944.527 347.659,937.13ZM331.13,917.67C458.557,899.624 556.741,812.503 643.435,735.7C679.459,703.754 713.505,673.598 748.023,649.191C818.235,599.623 883.455,579.833 947.31,588.833C1039.89,601.838 1091.22,667.709 1145.56,737.491C1199.86,807.225 1255.99,879.363 1357.42,897.032C1445.43,912.346 1486.64,809.628 1534.34,690.702C1592.26,546.38 1657.86,382.833 1823.48,352.96L1822.82,349.379C1748.08,362.855 1686.73,404.837 1635.21,477.729C1590.38,541.197 1558.78,619.884 1530.95,689.336C1483.81,806.801 1443.13,908.199 1358.03,893.404C1258.01,876.018 1202.31,804.445 1148.43,735.229C1093.67,664.834 1041.91,598.351 947.828,585.158C882.984,576.064 816.963,596.042 745.951,646.176C711.245,670.677 677.151,700.927 641.033,732.92C554.763,809.44 456.956,896.137 330.659,914.042C191.083,933.832 4.275,728.962 -119.338,593.356C-160.684,548.029 -193.365,512.219 -215.026,494.832L-217.287,497.707C-195.813,514.905 -163.274,550.573 -122.069,595.806C-62.547,661.112 11.574,742.391 88.237,807.131C171.399,877.384 257.48,928.083 331.13,917.67ZM314.601,898.163C442.358,877.855 541.719,794.551 629.355,721.046C666.132,690.184 700.885,661.065 735.544,638.071C806.415,591.142 871.777,573.425 935.396,583.98C1028.35,599.387 1076.43,667.756 1127.34,740.176C1177.82,811.984 1230.04,886.242 1329.92,902.215C1416.99,916.162 1460.36,817.261 1510.61,702.765C1570.6,565.981 1645.29,395.79 1822.44,369.828L1821.92,366.2C1642.74,392.445 1567.63,563.672 1507.26,701.257C1457.63,814.34 1414.82,912.063 1330.49,898.587C1232.11,882.85 1180.36,809.251 1130.3,738.056C1081.19,668.227 1030.42,596.042 935.961,580.352C871.4,569.656 805.144,587.514 733.519,635.009C698.672,658.097 663.872,687.31 627,718.219C539.694,791.441 440.804,874.369 314.036,894.535C174.224,916.775 -10.747,737.915 -133.183,619.554C-179.379,574.886 -215.874,539.595 -239.655,524.564L-241.585,527.674C-218.134,542.516 -181.78,577.666 -135.726,622.193C-93.533,662.997 -43.946,710.916 8.701,755.395C109.475,840.538 221.55,912.958 314.601,898.163ZM-148.817,646.6C-27.229,748.94 156.565,903.535 298.072,878.656C426.065,856.181 526.462,776.646 615.039,706.487C652.711,676.661 688.265,648.532 723.065,626.952C794.548,582.661 860.098,567.017 923.482,579.174C1016.96,597.079 1064,671.384 1109.44,743.239C1156.06,816.932 1204.28,893.122 1302.47,907.446C1388.69,920.026 1434.09,824.8 1486.69,714.544C1551.67,578.279 1632.57,408.653 1821.5,386.744L1821.08,383.115C1630.12,405.261 1548.75,575.876 1483.39,712.989C1431.45,821.926 1386.57,916.068 1302.98,903.864C1206.45,889.823 1158.7,814.34 1112.5,741.354C1066.64,668.839 1019.17,593.875 924.141,575.64C859.816,563.295 793.418,579.08 721.134,623.936C686.146,645.61 650.498,673.834 612.779,703.754C524.531,773.63 424.511,852.836 297.46,875.217C157.648,899.812 -25.345,745.83 -146.415,643.961C-197.838,600.613 -238.43,566.452 -264.283,554.343L-265.837,557.641C-240.408,569.562 -200.004,603.581 -148.817,646.6ZM-161.155,669.122C-33.869,760.767 140.46,886.289 281.497,859.197C409.536,834.648 510.922,758.929 600.394,692.163C639.055,663.327 675.55,636.092 710.539,615.832C782.634,574.132 848.373,560.562 911.521,574.321C1005.7,594.864 1049.45,672.044 1091.78,746.679C1136.47,825.507 1178.67,899.954 1274.97,912.628C1360.34,923.843 1407.67,832.151 1462.43,725.947C1532.46,590.247 1619.57,421.375 1820.46,403.565L1820.13,399.937C1617.22,417.889 1529.58,587.796 1459.18,724.297C1405.03,829.277 1358.27,919.932 1275.44,909.048C1180.93,896.608 1139.16,822.963 1094.94,744.935C1052.23,669.593 1008.06,591.66 912.275,570.787C848.184,556.84 781.598,570.551 708.702,612.722C673.526,633.077 636.936,660.358 598.228,689.289C509.085,755.819 408.029,831.256 280.837,855.663C141.355,882.426 -32.221,757.469 -158.988,666.201C-215.874,625.255 -260.798,592.885 -288.911,584.168L-289.994,587.655C-262.493,596.136 -217.757,628.365 -161.155,669.122ZM-172.503,689.619C-47.054,765.243 124.826,868.762 264.968,839.69C392.819,813.162 495.146,741.354 585.419,677.98C625.211,650.039 662.836,623.653 698.06,604.712C769.779,566.169 837.589,554.343 899.607,569.515C994.589,592.744 1035.13,672.939 1074.31,750.542C1114.91,830.926 1153.24,906.833 1247.51,917.859C1332.04,927.753 1381.16,839.407 1437.99,737.114C1513.06,602.073 1606.48,434.003 1819.52,420.433L1819.29,416.805C1604.27,430.469 1510.32,599.529 1434.84,735.37C1378.61,836.533 1330.06,923.89 1247.98,914.278C1155.64,903.488 1117.73,828.428 1077.61,748.94C1038.05,670.63 997.179,589.634 900.549,566.028C837.636,550.667 768.931,562.588 696.411,601.555C660.999,620.543 623.327,647.024 583.441,675.012C493.451,738.15 391.5,809.77 264.356,836.156C125.627,864.945 -45.5,761.803 -170.479,686.509C-233.344,648.626 -283.025,618.706 -313.493,613.947L-314.058,617.575C-284.438,622.145 -235.04,651.924 -172.503,689.619ZM-182.628,708.089C-59.298,768.447 109.616,851.139 248.392,820.23C375.819,791.865 478.853,724.015 569.785,664.081C611.036,636.941 649.933,611.261 685.486,593.639C757.865,557.688 825.863,547.982 887.599,564.709C983.57,590.765 1020.82,674.117 1056.8,754.783C1093.29,836.486 1127.76,913.665 1219.92,923.089C1303.6,931.664 1354.36,846.522 1413.18,747.998C1493.32,613.664 1593.02,446.489 1818.39,437.301L1818.25,433.673C1590.9,442.955 1490.59,611.073 1410.02,746.16C1351.86,843.648 1301.67,927.801 1220.29,919.508C1130.21,910.273 1096.16,834.035 1060.09,753.322C1034.85,696.781 1009,638.92 962.85,599.953C942.554,582.802 918.302,569.326 888.494,561.222C825.863,544.212 757.017,554.06 683.791,590.388C648.05,608.151 609.058,633.831 567.713,661.065C477.064,720.764 374.265,788.472 247.497,816.696C109.946,847.323 -58.262,764.96 -181.121,704.838C-250.58,670.818 -305.44,643.961 -338.451,643.82L-338.451,647.495C-306.194,647.589 -248.931,675.624 -182.628,708.089ZM-191.245,724.297C-63.724,772.829 95.018,833.187 231.863,800.723C358.443,770.709 466.562,704.037 553.445,650.463C596.438,623.983 637.03,598.916 673.007,582.519C746.045,549.16 814.232,541.526 875.685,559.902C972.739,588.88 1006.64,675.577 1039.47,759.353C1071.91,842.187 1102.52,920.45 1192.51,928.319C1275.39,935.575 1327.71,853.59 1388.27,758.647C1473.5,625.114 1579.55,458.881 1817.5,454.169L1817.4,450.494C1577.52,455.3 1470.86,622.381 1385.16,756.668C1325.21,850.574 1273.46,931.711 1192.79,924.644C1105.06,916.963 1074.83,839.737 1042.86,757.987C1009.7,673.363 975.47,585.865 876.721,556.369C814.42,537.757 745.386,545.437 671.501,579.174C635.335,595.712 594.649,620.779 551.561,647.354C464.914,700.786 357.03,767.269 231.063,797.142C95.301,829.324 -62.83,769.154 -189.88,720.858C-266.637,691.645 -327.29,668.557 -362.985,673.646L-362.467,677.274C-327.761,672.326 -264.471,696.404 -191.245,724.297ZM-197.885,738.009C-73.566,772.264 81.173,814.953 215.334,781.216C340.548,749.741 448.904,687.357 536.021,637.223C583.159,610.083 623.892,586.666 660.528,571.352C734.319,540.537 802.695,535.071 863.771,555.002C961.955,587.09 992.564,677.132 1022.09,764.254C1050.53,848.03 1077.37,927.094 1165.01,933.455C1247.04,939.392 1300.77,860.422 1363.03,769.013C1453.35,636.281 1565.8,471.132 1816.51,470.944L1816.51,467.268C1563.91,467.457 1450.85,633.501 1360.01,766.939C1295.87,861.176 1245.2,935.575 1165.29,929.779C1080.06,923.607 1053.55,845.627 1025.53,763.029C997.085,679.158 964.828,584.121 864.854,551.468C802.93,531.255 733.707,536.767 659.069,567.913C622.244,583.273 581.416,606.785 534.137,633.972C447.255,683.964 339.088,746.207 214.393,777.541C81.173,810.995 -73.048,768.494 -196.943,734.334C-281.942,710.916 -349.093,692.399 -387.707,703.424L-386.718,706.958C-349.046,696.356 -279.022,715.675 -197.885,738.009ZM-202.123,748.94C-81.713,770.049 68.176,796.341 198.759,761.756C321.9,729.151 430.067,671.148 516.949,624.596C567.101,597.738 610.424,574.509 647.955,560.327C722.547,532.15 791.111,528.757 851.763,550.29C951.218,585.629 979.567,683.399 1004.57,769.672C1029.06,854.155 1052.18,933.926 1137.51,938.779C1218.69,943.444 1273.74,867.395 1337.5,779.379C1433,647.542 1551.81,483.477 1815.47,487.953L1815.52,484.278C1549.97,479.802 1430.51,644.715 1334.54,777.211C1268.8,867.961 1216.9,939.674 1137.7,935.104C1054.96,930.345 1033.25,855.427 1008.06,768.636C982.769,681.514 954.138,582.755 852.94,546.851C791.487,525.035 722.076,528.428 646.637,556.934C608.87,571.211 565.453,594.487 515.207,621.392C428.466,667.897 320.535,725.758 197.77,758.27C67.988,792.666 -81.43,766.468 -201.511,745.406C-292.208,729.48 -370.472,715.769 -412.383,733.58L-410.97,736.925C-370.001,719.491 -292.208,733.156 -202.123,748.94ZM-203.112,756.573C-87.505,765.761 56.404,777.258 182.183,742.249C302.264,708.843 409.489,655.458 495.664,612.581C549.771,585.629 596.532,562.353 635.429,549.207C710.962,523.622 779.715,522.349 839.802,545.437C940.529,584.121 965.204,685.708 986.96,775.326C1008.48,863.955 1027.08,940.522 1109.96,943.962C1190.3,947.307 1246.57,874.133 1311.7,789.368C1412.33,658.474 1537.59,495.492 1814.44,504.727L1814.58,501.052C1535.85,491.77 1409.97,655.505 1308.82,787.106C1241.63,874.51 1188.55,943.538 1110.15,940.287C1030,936.941 1011.73,861.647 990.539,774.431C968.548,683.964 943.637,581.388 841.121,541.998C780.186,518.627 710.586,519.852 634.252,545.72C595.167,558.96 548.312,582.284 494.016,609.282C407.982,652.113 300.898,705.403 181.194,738.716C56.027,773.536 -81.525,762.557 -202.877,752.898C-304.074,744.841 -391.475,737.867 -437.011,763.453L-435.222,766.61C-390.58,741.637 -303.698,748.563 -203.112,756.573ZM-199.816,760.249C-84.538,758.976 46.138,757.563 165.701,722.79C281.261,689.147 386.556,640.569 471.13,601.555C530.747,574.038 582.217,550.29 622.997,538.087C699.567,515.187 768.507,516.036 827.935,540.631C930.028,582.849 950.936,688.299 969.301,781.357C986.913,870.316 1002.12,947.119 1082.55,949.192C1162,951.265 1219.35,880.824 1285.75,799.262C1391.56,669.264 1523.23,507.507 1813.54,521.643L1813.73,518.014C1521.58,503.832 1389.25,666.389 1282.92,797.001C1214.41,881.154 1160.3,947.59 1082.65,945.611C1005.09,943.585 990.162,868.102 972.88,780.698C957.764,704.272 941,619.601 879.311,567.488C865.184,555.568 848.655,545.296 829.301,537.286C769.072,512.36 699.284,511.465 621.914,534.647C580.898,546.945 529.334,570.74 469.576,598.304C385.096,637.27 279.99,685.802 164.665,719.35C45.62,753.982 -84.774,755.395 -199.863,756.668C-313.587,757.893 -411.771,758.976 -461.498,793.514L-459.426,796.529C-410.593,762.557 -312.927,761.474 -199.816,760.249ZM-190.68,758.929C-83.549,748.658 37.85,737.019 149.125,703.283C258.045,670.206 359.62,626.81 441.228,591.943C508.661,563.107 566.912,538.228 610.424,526.92C688.171,506.706 757.3,509.675 815.974,535.731C919.479,581.718 936.432,691.126 951.407,787.624C965.204,876.677 977.118,953.574 1055.1,954.328C1133.65,955.129 1191.95,887.326 1259.43,808.874C1370.42,679.865 1508.58,519.287 1812.55,538.37L1812.79,534.741C1506.98,515.564 1368.16,676.85 1256.65,806.519C1187,887.467 1131.95,951.454 1055.1,950.7C980.226,949.946 968.501,874.463 954.986,787.106C939.87,689.666 922.776,579.221 817.434,532.433C758.006,506.047 688.029,502.984 609.529,523.386C565.735,534.741 507.39,559.714 439.815,588.597C358.301,623.418 256.821,666.813 148.089,699.796C37.191,733.438 -84.02,745.077 -191.01,755.301C-319.944,767.646 -431.313,778.342 -486.032,823.434L-483.725,826.261C-429.9,781.876 -319.049,771.227 -190.68,758.929ZM-173.069,751.155C-76.721,734.381 32.435,715.392 132.596,683.776C231.439,652.584 322.324,616.586 402.519,584.828C481.82,553.4 550.289,526.307 597.945,515.8C677.01,498.413 746.375,503.502 804.061,530.925C908.978,580.823 921.881,694.236 933.277,794.362C943.401,883.274 952.113,960.076 1027.65,959.605C1105.25,959.087 1164.4,893.97 1232.82,818.534C1349.04,690.514 1493.65,531.16 1811.61,555.332L1811.89,551.704C1669.87,540.914 1549.55,565.698 1444.02,627.47C1352.85,680.807 1287.63,752.71 1230.09,816.084C1159.41,893.97 1103.56,955.459 1027.6,955.977C955.363,956.448 946.792,881.154 936.903,793.985C925.413,692.964 912.369,578.42 805.614,527.674C747.175,499.874 677.057,494.691 597.145,512.266C549.206,522.821 480.595,550.008 401.201,581.435C321.053,613.193 230.215,649.144 131.513,680.289C31.634,711.811 -77.428,730.8 -173.681,747.527C-321.828,773.3 -449.82,795.587 -510.567,853.354L-508.071,855.993C-448.124,799.027 -320.65,776.834 -173.069,751.155ZM-142.601,734.475C-57.132,713.602 31.257,692.022 116.02,664.316C198.617,637.27 277.494,608.151 347.047,582.472C445.843,546.003 531.171,514.481 585.372,504.727C665.991,490.262 735.544,497.424 792.052,526.119C898.336,580.069 907.518,702.765 914.817,801.383C921.363,889.965 927.061,966.532 1000.1,964.788C1076.71,962.998 1136.52,900.425 1205.79,827.91C1327.19,700.88 1478.3,542.799 1810.57,572.106L1810.9,568.478C1662.62,555.379 1536.88,578.467 1426.5,639.061C1331.24,691.362 1263.19,762.557 1203.15,825.366C1134.45,897.268 1075.07,959.37 1000,961.113C930.452,962.715 925.177,891.378 918.443,801.053C912.039,714.403 904.222,609.282 830.855,547.322C819.977,538.134 807.639,529.888 793.701,522.821C736.438,493.749 666.132,486.445 584.713,501.052C530.135,510.853 444.712,542.422 345.728,578.985C276.175,604.665 197.346,633.784 114.843,660.782C30.221,688.488 -58.073,710.021 -143.496,730.894C-316.93,773.206 -466.725,809.77 -535.148,883.274L-532.464,885.771C-464.747,813.115 -315.47,776.693 -142.601,734.475ZM-556.809,915.644C-478.733,822.35 -290.183,765.196 -90.566,704.649C-27.794,685.614 37.097,665.965 99.445,644.856C152.468,626.904 203.42,609.047 252.724,591.754C388.957,544.024 506.637,502.795 572.846,493.607C655.207,482.205 724.948,491.487 780.138,521.313C887.929,579.551 892.497,706.628 896.17,808.733C898.524,873.945 900.549,930.298 928.003,955.742C939.21,966.06 953.761,970.772 972.598,970.018C1048.18,966.956 1108.55,906.88 1178.48,837.24C1305.15,711.199 1462.76,554.343 1809.59,588.974L1809.96,585.346C1655.22,569.891 1524.03,591.236 1408.75,650.652C1309.29,701.916 1238.42,772.405 1175.89,834.648C1106.48,903.723 1046.58,963.328 972.409,966.343C954.609,967.05 940.812,962.668 930.452,953.056C904.081,928.601 902.056,873.002 899.748,808.592C896.028,705.544 891.461,577.336 781.834,518.062C725.984,487.859 655.49,478.435 572.328,489.932C505.742,499.167 387.921,540.443 251.5,588.268C202.243,605.56 151.244,623.371 98.267,641.323C35.966,662.431 -28.877,682.08 -91.602,701.115C-291.737,761.803 -480.805,819.146 -559.588,913.288L-556.809,915.644ZM-581.155,945.423C-487.445,822.35 -237.912,736.218 3.427,652.914C30.08,643.726 56.686,634.538 82.916,625.35C284.181,554.955 472.119,491.016 560.32,482.487C644.706,474.289 714.683,485.739 768.177,516.507C877.333,579.221 877.239,710.727 877.192,816.413C877.145,881.531 877.098,937.742 903.045,962.291C913.405,972.092 927.202,976.379 945.144,975.296C1019.59,970.961 1080.43,913.335 1150.84,846.522C1282.74,721.47 1446.89,565.839 1808.64,605.937L1809.02,602.309C1647.73,584.451 1510.89,604.005 1390.67,662.196C1287.02,712.377 1213.32,782.253 1148.29,843.883C1078.41,910.178 1018.04,967.38 944.908,971.62C928.003,972.61 915.147,968.652 905.541,959.605C880.771,936.188 880.818,880.682 880.865,816.413C880.959,709.785 881.054,577.148 770.061,513.35C715.86,482.205 645.177,470.614 560.037,478.859C471.413,487.482 283.239,551.421 81.739,621.91C55.509,631.098 28.903,640.286 2.25,649.474C-239.607,732.92 -489.705,819.24 -584.075,943.208L-581.155,945.423ZM-605.548,975.248C-501.431,826.497 -207.492,705.026 66.34,605.843C288.89,525.93 468.87,475.608 547.794,471.32C634.487,466.609 704.652,480.179 756.264,511.606C866.832,579.032 861.888,715.015 857.885,824.282C855.53,889.117 853.506,945.14 877.899,968.652C887.505,977.887 900.502,981.751 917.643,980.479C990.916,974.919 1051.99,919.649 1122.72,855.616C1252.65,738.056 1430.6,577.101 1807.65,622.758L1808.08,619.13C1640.06,598.775 1497.47,616.586 1372.26,673.551C1264.32,722.648 1187.8,791.865 1120.27,852.93C1050.01,916.492 989.362,971.338 917.36,976.85C901.35,978.076 889.247,974.542 880.441,966.06C857.179,943.679 859.204,888.457 861.511,824.471C865.184,723.355 869.705,599.576 783.67,526.92C775.9,520.37 767.424,514.245 758.147,508.591C705.877,476.739 635.053,462.981 547.605,467.739C468.352,472.074 287.995,522.444 65.115,602.497C-209.234,701.775 -503.833,823.575 -608.562,973.128L-605.548,975.248ZM-629.941,1005.07C-442.662,716.382 340.878,462.321 535.268,460.201C650.639,458.928 731.07,484.184 781.033,537.239C853.741,614.465 845.123,735.37 838.248,832.481C833.492,899.577 829.725,952.585 852.705,975.013C861.605,983.683 873.849,987.169 890.189,985.661C962.191,978.829 1023.41,925.916 1094.28,864.662C1229.15,748.045 1413.93,588.268 1806.67,639.626L1807.14,635.998C1632.19,613.146 1483.77,629.072 1353.42,684.813C1241.15,732.779 1161.81,801.383 1091.83,861.929C1021.43,922.806 960.637,975.343 889.812,982.081C874.649,983.494 863.348,980.337 855.248,972.468C833.492,951.171 837.354,896.326 841.874,832.81C848.797,734.946 857.461,613.193 783.67,534.789C732.954,480.933 651.675,455.347 535.221,456.62C340.36,458.693 -445.158,713.507 -633.002,1003.05L-629.941,1005.07ZM-604.889,974.871C-524.835,868.243 -341.511,772.546 -201.794,711.01C-58.78,648.06 84.376,590.671 201.348,549.489C347.894,497.895 475.651,464.677 543.132,460.625C657.515,453.745 737.804,474.572 788.568,524.281C862.406,596.607 857.744,718.879 853.976,817.167C852.564,853.872 851.245,888.551 854.024,916.822C858.12,956.825 874.225,974.589 906.294,974.4C979.85,973.976 1043.89,922.57 1124.94,857.453C1266.02,744.134 1459.23,588.974 1827.67,638.213L1828.14,634.585C1458.2,585.158 1264.28,740.883 1122.68,854.626C1042.15,919.272 978.578,970.348 906.294,970.772C876.109,970.961 861.605,954.705 857.649,916.492C854.918,888.504 856.237,853.919 857.602,817.356C861.417,718.361 866.126,595.194 791.111,521.737C739.594,471.273 658.362,450.07 542.896,457.044C475.086,461.143 346.952,494.408 200.124,546.144C83.104,587.372 -60.192,644.762 -203.254,707.759C-343.348,769.437 -527.284,865.51 -607.809,972.751L-604.889,974.871ZM-191.528,724.486C-132.382,701.21 -68.528,674.918 -6.839,649.568C66.999,619.177 143.333,587.796 212.273,561.222C356.135,505.764 482.762,468.305 551.043,461.002C664.531,448.892 744.915,465.713 796.29,512.36C871.259,580.257 870.458,699.089 869.752,803.88C869.516,839.737 869.281,873.662 872.106,903.111C875.921,942.36 890.943,960.265 922.399,962.998C998.686,969.594 1069.6,916.445 1159.36,849.113C1305.34,739.611 1505.24,589.681 1848.58,636.658L1849.05,633.03C1696.05,612.109 1558.92,627.423 1429.8,679.865C1318.62,725.051 1232.82,789.415 1157.1,846.192C1067.96,913.053 997.509,965.872 922.635,959.37C892.92,956.778 879.311,940.381 875.685,902.781C872.86,873.52 873.048,839.69 873.331,803.927C874.037,698.335 874.885,578.655 798.692,509.627C797.138,508.261 795.584,506.895 794.03,505.528C741.571,461.237 661.847,445.453 550.572,457.326C482.008,464.63 355.005,502.183 210.861,557.782C141.873,584.357 65.539,615.785 -8.299,646.176C-69.987,671.572 -133.795,697.817 -192.941,721.093C-327.29,774.007 -503.974,855.333 -582.615,942.266L-579.884,944.716C-517.96,876.3 -383.705,800.158 -191.528,724.486ZM-181.309,737.962C-83.738,704.178 23.488,658.238 127.134,613.806C160.662,599.435 192.307,585.865 223.151,572.907C366.919,512.549 489.307,471.886 558.907,461.379C671.971,444.275 752.402,457.421 804.767,501.523L804.955,501.665C881.195,566.075 883.832,687.545 886.092,794.739C886.799,828.381 887.505,860.139 890.236,889.446C893.815,927.471 908.272,946.082 938.504,951.595C1018.7,966.202 1097.62,910.555 1197.55,840.114C1355.3,728.915 1551.58,590.482 1869.58,635.056L1870.1,631.428C1728.31,611.544 1597.68,626.339 1470.82,676.708C1361.38,720.151 1273.27,782.253 1195.48,837.098C1096.26,907.069 1017.9,962.291 939.21,947.967C910.485,942.737 897.347,925.68 893.909,889.069C891.178,859.903 890.472,828.24 889.765,794.645C887.458,686.65 884.821,564.284 807.31,498.837L807.121,498.696C753.909,453.887 672.537,440.458 558.389,457.75C488.507,468.305 365.789,509.062 221.786,569.515C190.894,582.472 159.25,596.042 125.721,610.413C22.122,654.845 -85.009,700.786 -182.487,734.475C-311.138,779.002 -480.523,845.862 -557.186,911.733L-554.832,914.513C-494.509,862.683 -365.386,801.618 -181.309,737.962ZM-171.091,751.437C-55.86,717.23 76.888,656.495 193.955,602.921C207.564,596.702 220.938,590.576 234.076,584.592C378.126,519.004 496.277,475.373 566.771,461.756C679.789,439.893 760.643,449.646 813.949,491.581C815.409,492.759 816.869,493.89 818.282,495.115C892.449,557.735 897.912,675.907 903.186,790.263C904.552,820.183 905.87,848.454 908.366,875.782C911.804,913.288 925.224,931.947 954.656,940.193C1039.84,964.081 1127.81,905.325 1239.18,830.926C1398.96,724.203 1597.82,591.377 1890.53,633.595L1891.05,629.967C1596.92,587.608 1397.45,720.811 1237.15,827.91C1126.54,901.791 1039.18,960.123 955.645,936.706C927.909,928.931 915.288,911.215 912.039,875.499C909.543,848.218 908.225,819.994 906.859,790.121C901.444,672.797 895.84,551.563 816.257,488.754C762.103,446.112 680.306,436.123 566.159,458.222C495.382,471.933 376.949,515.659 232.617,581.341C219.478,587.325 206.105,593.451 192.495,599.67C75.522,653.196 -57.085,713.837 -172.08,747.998C-345.844,799.592 -473.553,846.946 -531.757,881.342L-529.921,884.499C-472.046,850.197 -344.572,802.938 -171.091,751.437ZM-160.919,764.913C-34.34,733.674 117.621,658.945 239.727,598.869L244.954,596.325C345.822,546.709 484.928,483.147 574.635,462.132C688.124,435.558 769.684,442.154 823.98,482.393C904.834,542.233 913.169,669.122 921.222,791.818C922.776,815.047 924.33,839.077 926.402,862.118C930.075,903.111 944.155,924.314 970.667,928.79C1055.62,982.41 1157.8,915.503 1287.12,830.831C1448.78,725.004 1649.95,593.262 1911.35,632.04L1911.87,628.412C1649.1,589.445 1447.27,721.565 1285.09,827.769C1156.72,911.827 1055.29,978.217 972.268,925.492L971.562,925.209C946.698,921.157 933.465,900.99 929.981,861.741C927.909,838.747 926.355,814.717 924.801,791.535C916.937,672.138 908.79,548.83 834.104,485.739C831.514,483.571 828.83,481.451 826.099,479.378C770.862,438.479 688.312,431.647 573.741,458.457C483.656,479.566 344.315,543.223 243.259,592.932L238.032,595.477C116.115,655.458 -35.658,730.093 -161.861,761.238C-327.149,802.042 -449.49,833.8 -506.375,850.621L-505.339,854.108C-448.407,837.428 -326.113,805.67 -160.919,764.913ZM-150.701,778.389C-26.617,754.123 118.187,680.902 255.879,608.01C401.342,530.972 511.251,482.016 582.547,462.509C697.024,431.176 779.668,434.851 835.14,473.865C919.385,532.951 929.745,663.609 940.764,801.854C941.989,817.403 943.213,832.952 944.579,848.501C948.158,889.541 961.578,911.403 986.866,917.435C1073.75,986.51 1186.91,914.937 1330.11,824.282C1492.15,721.706 1693.84,594.063 1932.4,630.58L1932.96,626.952C1693.04,590.247 1490.73,718.313 1328.18,821.172C1186.01,911.121 1073.75,982.175 988.844,914.278L988.514,914.042L988.09,913.948C964.31,908.482 951.642,887.562 948.205,848.171C946.839,832.669 945.615,817.073 944.39,801.571C933.324,662.431 922.87,531.019 837.259,470.896C780.798,431.27 697.212,427.359 581.605,459.023C510.074,478.624 399.929,527.674 254.184,604.853C116.727,677.651 -27.794,750.731 -151.36,774.855C-309.349,805.718 -426.274,821.926 -480.523,820.418L-480.617,824.094C-426.133,825.507 -308.925,809.299 -150.701,778.389ZM-140.482,791.818C-17.764,774.29 127.793,698.712 266.804,619.648C413.068,536.438 518.927,485.126 590.411,462.792C706.536,426.511 790.593,427.454 847.478,465.666C936.432,525.459 948.77,670.489 961.814,824.046L962.708,834.742C966.193,875.782 979.002,898.399 1003.02,905.891C1091.5,991.504 1216.2,914.749 1373.95,817.686C1535.42,718.313 1736.41,594.629 1953.35,628.978L1953.92,625.35C1735.61,590.812 1534.01,714.874 1372.02,814.576C1215.44,910.932 1091.69,987.028 1005.23,902.969L1004.9,902.687L1004.48,902.545C981.827,895.666 969.678,873.992 966.335,834.412L965.44,823.717C953.008,677.462 941.282,538.888 863.206,472.97C858.827,469.294 854.259,465.855 849.503,462.604C791.676,423.731 706.583,422.647 589.328,459.258C517.609,481.686 411.514,533.045 265.015,616.397C126.333,695.273 -18.847,770.709 -140.953,788.095C-290.936,809.487 -402.4,810.194 -454.764,790.074L-456.083,793.467C-403.2,813.963 -291.077,813.351 -140.482,791.818ZM-130.31,805.293C-3.825,794.079 146.912,711.104 277.635,631.381C377.938,570.221 505.035,495.869 598.228,463.216C716.566,421.752 802.459,420.056 860.852,457.939C948.487,514.763 966.994,656.07 980.744,821.125C984.182,862.165 996.378,885.488 1019.12,894.535C1109.07,997.582 1252.46,911.262 1418.55,811.325C1586.89,710.021 1777.66,595.241 1974.26,627.517L1974.87,623.936C1776.95,591.424 1585.53,706.628 1416.66,808.215C1251.84,907.398 1109.44,993.012 1021.62,891.802L1021.34,891.472L1020.91,891.331C999.345,882.991 987.761,860.61 984.464,820.89C971.467,665.164 954.232,530.454 878.699,466.656C873.707,462.415 868.433,458.504 862.924,454.923C803.495,416.381 716.566,417.983 597.098,459.824C503.576,492.571 376.29,567.064 275.846,628.318C145.452,707.806 -4.814,790.593 -130.546,801.713C-272.712,814.293 -378.76,799.545 -429.147,760.201L-431.407,763.076C-380.361,802.938 -273.418,817.968 -130.31,805.293ZM-120.092,818.769C9.925,814.481 166.596,722.648 288.56,643.066C393.949,574.321 514.077,499.261 606.092,463.546C726.926,416.663 814.938,412.234 875.073,449.929C957.858,501.806 984.464,630.391 998.921,807.414C1002.26,848.454 1013.85,872.531 1035.32,883.038C1126.4,1004.41 1282.78,911.922 1463.89,804.869C1629.79,706.817 1817.87,595.665 1995.22,625.962L1995.83,622.381C1817.12,591.849 1628.47,703.377 1462.01,801.76C1282.22,908.058 1126.96,999.844 1037.96,880.541L1037.68,880.164L1037.25,879.976C1016.82,870.175 1005.75,847.04 1002.5,807.178C987.949,629.025 961.06,499.591 876.957,446.866C815.786,408.512 726.738,412.847 604.726,460.153C512.382,495.963 392.065,571.164 286.535,640.003C164.995,719.303 8.889,810.853 -120.28,815.094C-252.84,819.476 -356.157,788.472 -403.812,730.093L-406.638,732.402C-400.375,740.082 -393.264,747.244 -385.306,753.982C-331.01,799.828 -238.477,822.68 -120.092,818.769ZM-109.92,832.198C22.593,835.449 178.462,739.093 299.485,654.751C408.641,578.703 522.271,502.937 613.956,463.923C737.616,411.339 827.888,404.083 889.907,441.683C962.756,485.833 1000.8,591.142 1017,793.797C1020.3,834.837 1031.27,859.573 1051.47,871.589C1093.48,935.905 1154.32,954.469 1242.9,930.015C1321.63,908.246 1413.04,854.909 1509.81,798.461C1672.5,703.566 1856.91,595.995 2016.17,624.454L2016.83,620.873C1856.3,592.178 1671.23,700.126 1508.02,795.352C1312.83,909.189 1144.29,1007.52 1054.35,869.28L1054.11,868.903L1053.73,868.667C1034.38,857.406 1023.88,833.517 1020.68,793.514C1010.03,660.217 988.373,517.685 911.286,452.567C905.164,447.384 898.665,442.72 891.837,438.526C828.736,400.266 737.38,407.475 612.543,460.53C520.528,499.638 406.71,575.546 297.413,651.689C176.861,735.7 21.651,831.68 -109.779,828.476C-234.898,825.413 -332.847,778.53 -378.43,699.937L-381.585,701.775C-369.154,723.261 -352.86,742.391 -333.271,758.929C-280.058,803.974 -202.312,829.936 -109.92,832.198ZM-99.749,845.674C35.025,856.982 190.188,755.867 310.363,666.484C410.195,592.225 524.861,509.203 621.82,464.347C748.541,405.732 841.309,395.46 905.399,433.013C979.708,476.551 1019.69,583.603 1035.13,780.18C1038.34,821.219 1048.7,846.663 1067.67,860.186C1090.84,900.472 1120.65,925.021 1158.75,935.292C1260.79,962.809 1404.32,879.834 1556.33,792.006C1722.84,695.791 1895.01,596.325 2037.13,622.946L2037.79,619.365C1894.35,592.461 1721.57,692.304 1554.5,788.849C1403.19,876.3 1260.27,958.851 1159.69,931.758C1122.44,921.722 1093.34,897.598 1070.64,858.019L1070.45,857.689L1070.12,857.453C1051.9,844.731 1041.91,820.041 1038.76,779.944C1024.82,602.591 990.822,497.471 929.604,445.735C922.54,439.751 915.053,434.474 907.236,429.904C842.015,391.691 748.164,401.868 620.266,461.049C522.977,506.047 408.17,589.21 308.15,663.562C197.864,745.595 35.59,853.401 -99.466,842.046C-217.287,832.151 -309.819,769.437 -353.237,669.923L-356.58,671.384C-338.733,712.282 -312.692,747.056 -280.058,774.572C-232.356,814.858 -170.526,839.69 -99.749,845.674ZM-89.53,859.102C48.869,879.316 211.19,765.526 321.288,678.169C396.68,618.329 522.883,518.156 629.684,464.677C759.701,399.607 855.107,386.225 921.41,423.778C996.661,466.373 1038.52,575.263 1053.26,766.468C1056.42,807.508 1066.17,833.659 1083.92,848.689C1107.32,894.394 1138.5,922.523 1179.33,934.633C1287.49,966.814 1440.91,878.656 1603.38,785.315C1764.99,692.446 1932.11,596.466 2058.08,621.392L2058.79,617.811C1931.5,592.602 1763.77,688.959 1601.59,782.158C1439.83,875.075 1287.02,962.856 1180.41,931.146C1140.52,919.272 1109.96,891.661 1087.03,846.71L1086.84,846.38L1086.56,846.145L1086.32,845.956C1069.37,831.632 1060,806.283 1056.94,766.233C1042.1,573.708 999.628,463.876 923.247,420.621C855.813,382.409 759.277,395.79 628.083,461.426C520.952,515.046 394.561,615.36 319.028,675.295C209.495,762.228 48.022,875.499 -88.965,855.474C-199.675,839.313 -286.745,760.673 -327.949,639.721L-331.387,640.898C-309.349,705.544 -274.36,758.223 -229.671,795.964C-189.927,829.606 -142.365,851.375 -89.53,859.102ZM-79.358,872.531C61.066,902.215 222.775,782.441 332.166,689.807C426.865,609.612 536.398,519.522 637.501,465.007C771.003,393.057 869.234,376.378 937.845,413.931C1013.61,455.395 1057.27,566.263 1071.35,752.804C1074.45,793.844 1083.59,820.701 1100.12,837.192C1123.66,888.551 1156.3,920.309 1199.95,934.35C1314.57,971.196 1485.56,873.191 1650.94,778.436C1806.95,689.006 1968.28,596.56 2078.99,619.884L2079.74,616.303C1967.67,592.744 1805.72,685.519 1649.1,775.279C1484.38,869.657 1314.1,967.238 1201.03,930.91C1158.32,917.199 1126.4,885.96 1103.27,835.402L1102.9,834.837C1087.12,819.193 1077.99,792.289 1074.97,752.521C1062.45,586.618 1026.47,480.084 965.251,428.396C957.152,421.564 948.581,415.627 939.54,410.727C869.752,372.514 770.391,389.241 635.712,461.803C534.279,516.46 424.605,606.738 329.717,687.027C220.891,779.19 60.124,898.257 -78.699,868.95C-182.345,847.04 -264.095,752.474 -302.944,609.518L-306.476,610.46C-281.612,702.011 -239.231,773.913 -184.747,819.947C-153.196,846.475 -117.784,864.427 -79.358,872.531ZM-69.187,885.96C37.662,915.88 172.482,855.568 343.044,701.539C409.018,641.935 531.83,531.019 645.365,465.431C782.446,386.178 883.644,365.917 954.609,403.518C1031.6,444.275 1075.73,554.06 1089.48,739.234C1091.88,771.84 1100.68,800.158 1116.37,825.837C1173.53,919.413 1259.52,950.747 1379.32,921.675C1484.61,896.137 1602.15,828.334 1715.83,762.84C1863.93,677.462 2003.83,596.796 2099.95,618.47L2100.75,614.889C2003.22,592.885 1862.75,673.881 1713.99,759.636C1600.55,825.036 1483.25,892.65 1378.47,918.094C1260.42,946.742 1175.75,915.927 1119.52,823.905C1104.17,798.744 1095.55,770.944 1093.15,738.951C1081.05,575.923 1045.35,470.802 984.323,419.255C975.517,411.81 966.193,405.497 956.351,400.314C884.162,362.101 781.834,382.409 643.576,462.274C529.711,528.098 406.71,639.155 340.642,698.854C171.069,851.988 37.379,912.063 -68.151,882.473C-164.875,855.38 -241.209,744.888 -277.61,579.315L-281.188,580.116C-254.676,700.786 -206.927,792.477 -145.426,844.401C-121.928,864.285 -96.358,878.326 -69.187,885.96ZM-59.015,899.388C49.246,937.648 184.302,876.772 353.969,713.225C443.3,627.093 548.736,530.312 653.23,465.761C794.03,378.781 898.147,354.75 971.609,392.303C1049.68,432.212 1094.19,541.197 1107.61,725.523C1110.01,758.27 1118.15,787.294 1132.61,814.34C1164.54,874.133 1208.19,912.252 1262.39,927.659C1400.93,967.097 1593.2,855.38 1762.87,756.856C1904.57,674.541 2038.4,596.796 2120.9,616.915L2121.75,613.382C2037.83,592.932 1903.39,671.007 1761.03,753.699C1592.03,851.893 1400.46,963.139 1263.38,924.125C1209.46,908.765 1167.74,872.295 1135.86,812.597C1121.69,786.022 1113.63,757.469 1111.28,725.24C1097.76,539.547 1052.6,429.574 973.304,389.052C898.618,350.887 793.324,374.964 651.346,462.651C546.569,527.391 440.945,624.313 351.473,710.586C182.936,873.096 49.058,933.69 -57.744,895.949C-147.64,864.144 -218.605,737.726 -252.463,549.112L-256.042,549.772C-228.918,701.021 -177.825,812.644 -112.133,868.102C-95.369,882.284 -77.616,892.792 -59.015,899.388ZM-48.844,912.77C59.182,959.511 198.382,896.278 364.847,724.863C438.449,649.05 549.253,539.783 661.046,466.09C805.52,370.912 912.698,342.877 988.655,380.383C1067.67,419.396 1112.5,527.815 1125.64,711.811C1128,744.747 1135.58,774.478 1148.76,802.796C1179.8,869.374 1224.34,912.11 1281.13,929.827C1426.22,975.107 1630.03,855.616 1809.91,750.26C1950.57,667.85 2072.02,596.655 2141.71,615.266L2142.66,611.732C2071.5,592.744 1949.4,664.269 1808.08,747.103C1628.9,852.129 1425.75,971.102 1282.27,926.34C1225.71,908.671 1183.14,867.772 1152.11,801.241C1139.11,773.347 1131.62,743.993 1129.31,711.528C1117.92,552.364 1082.79,449.222 1022.33,398.146C1012.34,389.712 1001.7,382.691 990.304,377.084C913.028,338.919 804.673,367.048 659.022,462.981C546.946,536.956 435.954,646.411 362.257,722.319C196.969,892.556 59.135,955.506 -47.384,909.424C-130.546,873.426 -196.143,731.082 -227.364,518.815L-230.99,519.334C-204.148,702.058 -151.642,833.423 -84.209,890.389C-72.813,900.001 -60.993,907.493 -48.844,912.77ZM-38.672,926.151C97.467,996.687 261.813,861.977 375.725,736.548C482.715,618.706 581.369,527.862 668.863,466.467C816.963,362.619 927.155,330.39 1005.8,367.849C1084.58,405.449 1130.96,516.554 1143.77,698.194C1146.13,731.412 1153.05,761.898 1165.01,791.394C1194.82,864.851 1240.02,912.252 1299.36,932.277C1451.13,983.541 1666.99,855.804 1857.43,743.098C1990.22,664.505 2104.94,596.655 2162.62,613.758L2163.66,610.272C2104.42,592.697 1989.09,660.924 1855.59,739.941C1675.19,846.71 1450.71,979.536 1300.54,928.79C1242.24,909.095 1197.78,862.401 1168.4,789.98C1156.58,760.861 1149.71,730.706 1147.4,697.864C1134.54,514.81 1087.4,402.669 1007.35,364.504C927.438,326.385 816.022,358.755 666.744,463.405C579.015,524.941 480.172,615.973 372.994,734.004C259.976,858.49 97.09,992.305 -37.024,922.853C-113.546,883.227 -173.775,724.91 -202.265,488.471L-205.891,488.896C-180.038,703.707 -127.72,854.579 -60.616,911.262C-53.411,917.34 -46.112,922.335 -38.672,926.151ZM-28.453,939.58C116.538,1028.11 293.834,857.736 386.65,748.233C442.782,682.08 555.046,557.499 676.775,466.844C826.429,355.363 943.072,317.621 1023.5,354.703C1103.13,391.408 1149.71,502.371 1161.95,684.53C1164.3,718.031 1170.85,750.118 1181.35,779.944C1209.6,860.327 1255.28,912.393 1317.11,934.727C1475.85,992.117 1714.18,849.537 1905.7,734.993C2029.83,660.735 2137.1,596.56 2183.58,612.251L2184.76,608.811C2136.68,592.602 2033.92,654.044 1903.86,731.884C1713,846.051 1475.52,988.159 1318.38,931.334C1257.64,909.377 1212.67,858.019 1184.79,778.766C1174.43,749.27 1167.93,717.465 1165.57,684.294C1153.19,500.722 1105.96,388.722 1025.01,351.405C943.307,313.71 825.392,351.593 674.609,463.923C552.597,554.814 440.098,679.582 383.919,745.878C291.857,854.438 116.162,1023.59 -26.523,936.47C-97.535,893.122 -150.983,723.261 -177.024,458.316L-180.65,458.693C-166.193,605.795 -129.133,856.134 -41.356,930.251C-37.212,933.69 -32.88,936.847 -28.453,939.58ZM-18.282,952.962C41.429,995.462 113.948,992.682 197.252,944.716C261.483,907.728 332.637,842.093 397.528,759.919C430.02,718.785 546.805,576.064 684.592,467.221C837.495,346.41 957.199,303.91 1040.41,340.898C1120.79,376.613 1167.79,487.67 1180.03,670.913C1182.39,705.168 1188.32,738.009 1197.55,768.588C1224.01,855.851 1270.07,912.628 1334.35,937.318C1500.58,1001.07 1763.11,842.046 1954.81,725.899C2074.09,653.62 2168.32,596.56 2204.39,610.79L2205.71,607.397C2167.99,592.508 2073.06,649.992 1952.93,722.79C1761.88,838.512 1500.25,997.017 1335.67,933.926C1272.47,909.707 1227.17,853.731 1201.03,767.552C1191.85,737.255 1186.01,704.696 1183.66,670.724C1171.32,486.021 1123.66,373.927 1041.87,337.599C957.293,300.046 836.318,342.688 682.284,464.394C544.215,573.472 427.195,716.476 394.655,757.704C337.158,830.502 137.541,1059.54 -16.163,950.04C-81.572,903.488 -128.474,722.978 -151.925,428.066L-155.551,428.349C-132.429,719.539 -88.211,894.347 -24.31,948.297C-22.332,949.946 -20.307,951.501 -18.282,952.962ZM-8.016,966.39C123.131,1062.23 293.081,928.602 408.406,771.604C466.751,692.163 576.142,564.897 692.409,467.551C848.326,337.081 971.091,289.586 1057.27,326.432C1138.5,361.206 1185.92,472.498 1198.11,657.201C1200.52,692.587 1205.79,726.182 1213.8,757.092C1238.24,851.328 1284.53,912.723 1351.35,939.674C1525.72,1009.97 1802.9,839.643 2005.29,715.298C2113.41,648.861 2198.79,596.372 2225.21,609.141L2226.81,605.843C2198.6,592.225 2116.71,642.548 2003.41,712.188C1801.67,836.156 1525.39,1005.88 1352.71,936.282C1287.02,909.801 1241.48,849.208 1217.33,756.149C1209.37,725.475 1204.14,692.116 1201.74,656.919C1189.45,470.708 1141.28,358.378 1058.68,323.04C971.138,285.581 847.101,333.264 690.054,464.677C573.552,562.211 463.925,689.76 405.439,769.342C291.15,924.926 123.084,1057.61 -5.897,963.375C-7.263,962.385 -8.628,961.301 -9.994,960.171C-85.904,896.043 -112.322,626.622 -126.826,397.675L-130.452,397.91C-115.901,627.658 -89.294,897.975 -12.254,963.045C-10.842,964.27 -9.429,965.354 -8.016,966.39ZM120.023,1020.06C229.885,1008.18 346.67,889.918 419.331,783.242C476.499,699.278 585.984,568.855 701.686,466.656C803.448,376.802 947.781,275.922 1057.41,305.842C1149.75,331.05 1203.2,444.652 1216.24,643.537C1226.23,795.493 1272.75,893.828 1354.64,935.763C1536.27,1028.87 1849.94,832.858 2057.56,703.141C2153.06,643.49 2228.46,596.325 2246.07,607.492L2248.05,604.382C2228.5,591.99 2159.75,634.962 2055.68,699.985C1848.81,829.277 1536.13,1024.63 1356.39,932.465C1275.77,891.096 1229.85,793.844 1219.96,643.254C1206.83,442.673 1152.44,327.94 1058.44,302.261C947.216,271.917 801.753,373.362 699.331,463.829C583.394,566.216 473.673,696.969 416.364,781.122C344.174,887.138 228.331,1004.56 119.693,1016.34C75.993,1021.05 37.285,1007.76 4.698,976.945C-65.655,910.414 -88.494,631.428 -101.538,367.331L-105.164,367.519C-92.073,632.37 -69.093,912.204 2.203,979.583C4.651,981.892 7.1,984.107 9.596,986.18C41.382,1013.23 78.489,1024.53 120.023,1020.06Z" style="fill:url(#_Linear9);fill-rule:nonzero;"/>
        </g>
    </g>
    <defs>
        <radialGradient id="_Radial1" cx="0" cy="0" r="1" gradientUnits="userSpaceOnUse" gradientTransform="matrix(570.439,232.259,-736.315,1425.94,-72.2907,-40.1592)"><stop offset="0" style="stop-color:rgb(209,134,168);stop-opacity:1"/><stop offset="1" style="stop-color:rgb(245,53,139);stop-opacity:0.17"/></radialGradient>
        <radialGradient id="_Radial2" cx="0" cy="0" r="1" gradientUnits="userSpaceOnUse" gradientTransform="matrix(1430.23,861.838,-951.966,1294.82,418.273,-142.036)"><stop offset="0" style="stop-color:rgb(208,40,177);stop-opacity:1"/><stop offset="1" style="stop-color:rgb(250,48,138);stop-opacity:0.59"/></radialGradient>
        <radialGradient id="_Radial3" cx="0" cy="0" r="1" gradientUnits="userSpaceOnUse" gradientTransform="matrix(1373.72,-14.8544,14.9249,1352.48,-167.137,867.054)"><stop offset="0" style="stop-color:rgb(254,191,45);stop-opacity:1"/><stop offset="1" style="stop-color:rgb(219,188,116);stop-opacity:0.15"/></radialGradient>
        <radialGradient id="_Radial4" cx="0" cy="0" r="1" gradientUnits="userSpaceOnUse" gradientTransform="matrix(-23.7299,-1404.73,1193.73,-19.76,1851.75,599.89)"><stop offset="0" style="stop-color:rgb(192,243,205);stop-opacity:1"/><stop offset="1" style="stop-color:rgb(198,237,208);stop-opacity:0.33"/></radialGradient>
        <radialGradient id="_Radial5" cx="0" cy="0" r="1" gradientUnits="userSpaceOnUse" gradientTransform="matrix(570.439,232.259,-736.315,1425.94,-72.2907,-40.1592)"><stop offset="0" style="stop-color:rgb(209,134,168);stop-opacity:1"/><stop offset="1" style="stop-color:rgb(245,53,139);stop-opacity:0.17"/></radialGradient>
        <radialGradient id="_Radial6" cx="0" cy="0" r="1" gradientUnits="userSpaceOnUse" gradientTransform="matrix(1430.23,861.838,-951.966,1294.82,418.273,-142.036)"><stop offset="0" style="stop-color:rgb(208,40,177);stop-opacity:1"/><stop offset="1" style="stop-color:rgb(250,48,138);stop-opacity:0.59"/></radialGradient>
        <radialGradient id="_Radial7" cx="0" cy="0" r="1" gradientUnits="userSpaceOnUse" gradientTransform="matrix(1373.72,-14.8544,14.9249,1352.48,-167.137,867.054)"><stop offset="0" style="stop-color:rgb(254,191,45);stop-opacity:1"/><stop offset="1" style="stop-color:rgb(219,188,116);stop-opacity:0.15"/></radialGradient>
        <radialGradient id="_Radial8" cx="0" cy="0" r="1" gradientUnits="userSpaceOnUse" gradientTransform="matrix(-23.7299,-1404.73,1193.73,-19.76,1851.75,599.89)"><stop offset="0" style="stop-color:rgb(192,243,205);stop-opacity:1"/><stop offset="1" style="stop-color:rgb(198,237,208);stop-opacity:0.33"/></radialGradient>
        <linearGradient id="_Linear9" x1="0" y1="0" x2="1" y2="0" gradientUnits="userSpaceOnUse" gradientTransform="matrix(-2023.14,-589.145,589.145,-2023.14,1743.29,977.418)"><stop offset="0" style="stop-color:rgb(39,55,123);stop-opacity:1"/><stop offset="0.42" style="stop-color:rgb(76,87,147);stop-opacity:1"/><stop offset="1" style="stop-color:rgb(187,22,95);stop-opacity:1"/></linearGradient>
    </defs>
</svg>
