<svg xmlns="http://www.w3.org/2000/svg" fill="none" viewBox="0 0 97 34">
  <path fill="#252525" d="M5.2 15.77c.01-.15 0-.3-.04-.44a1.2 1.2 0 0 1 0-.37v-.2a7.58 7.58 0 0 1 .3-2.23 9.73 9.73 0 0 1 3.56-5.2l.1-.06c.16-.12.33-.24.5-.34l.2-.13.41-.23.36-.2.25-.16.6-.26a9.8 9.8 0 0 1 3.51-.66c3.55 0 6.17 2.23 6.61 5.45v.22c.1.94.02 1.89-.24 2.8-1.1 4.45-5.55 7.59-10.1 7.59-.84 0-1.66-.18-2.42-.53a6.48 6.48 0 0 1-3.6-5.05Zm18 4.66a15.32 15.32 0 0 0 3.46-7.16c.32-1.63.28-3.3-.1-4.91a9.44 9.44 0 0 0-5.64-6.51A13.02 13.02 0 0 0 15.8.89 15.93 15.93 0 0 0 2.05 8.62 14.6 14.6 0 0 0 .17 13.6c-.31 1.63-.28 3.3.1 4.91a9.67 9.67 0 0 0 1.97 3.9 9.44 9.44 0 0 0 3.63 2.62c1.63.66 3.39.98 5.15.96a16.01 16.01 0 0 0 8.78-2.6l2.4 2.5h6.25l-5.26-5.46ZM36.05 6.2l-1.82 10.44c-.1.57-.18 1.14-.24 1.73-.07.53-.03 1.07.1 1.6.12.46.4.87.78 1.15.55.35 1.2.5 1.83.45.7.04 1.4-.11 2-.45.5-.28.9-.68 1.2-1.16.3-.49.53-1.03.67-1.59.15-.59.26-1.16.36-1.73l1.8-10.41h4.9L45.66 17.4c-.52 2.97-1.58 5.16-3.17 6.56-1.58 1.33-3.8 2.02-6.57 2.02-2.76 0-4.75-.67-5.86-2.07-1.12-1.4-1.42-3.57-.89-6.56l1.95-11.17 4.92.03Zm12.7 11.72h14l.74-4.24H49.52l-.77 4.24ZM64.91 6.21H50.88l-.74 4.2H64.1l.8-4.2ZM48.15 21.2h14.03l-.74 4.25H47.38l.77-4.25Zm27.75 2.93a7.31 7.31 0 0 0 2.81-4.7c.3-1.19.12-2.45-.5-3.51a6.17 6.17 0 0 0-3.25-2.16c-.39-.13-.79-.27-1.2-.38-.37-.1-.73-.25-1.08-.43a2.31 2.31 0 0 1-.74-.59 1.12 1.12 0 0 1-.17-.89 1.85 1.85 0 0 1 .87-1.27c.59-.34 1.26-.53 1.94-.55.59-.02 1.18.03 1.76.15.87.2 1.72.48 2.53.84l.82-3.95a9.74 9.74 0 0 0-2.34-.82c-.98-.18-1.98-.27-2.98-.24-1.01.04-2.01.22-2.97.54-.86.3-1.66.73-2.36 1.29a7.33 7.33 0 0 0-1.66 2c-.46.78-.79 1.65-.94 2.56a4.96 4.96 0 0 0 0 2.34c.17.56.48 1.07.9 1.49.43.41.93.74 1.49.97.59.25 1.2.47 1.81.66.46.15.9.32 1.34.52.32.12.61.3.88.5.2.17.35.38.43.63.07.25.07.52 0 .78a2.17 2.17 0 0 1-.87 1.33 3.2 3.2 0 0 1-2 .57 9.67 9.67 0 0 1-2.98-.48c-.71-.2-1.42-.45-2.1-.74l-.92 4.28c1.76.7 3.63 1.05 5.52 1.05 1.13.02 2.26-.14 3.34-.47.94-.29 1.83-.74 2.62-1.33v.01Zm15.33-13.7-2.68 15h-4.91l2.73-15h-4.78l.7-4.2h14.44l-.74 4.2h-4.76Zm-7.76 23.43v-4.93h1.29l2.37 3.02v-3.02h1.27v4.93h-1.27l-2.37-2.98v2.98h-1.29Zm-8.4-2.46c0 .19.03.37.11.54a1.36 1.36 0 0 0 1.28.85c.18 0 .36-.04.53-.1.17-.06.32-.16.45-.29a1.29 1.29 0 0 0 .42-.97 1.29 1.29 0 0 0-.42-.97 1.42 1.42 0 0 0-1.95 0 1.33 1.33 0 0 0-.42.97v-.03Zm-1.33.03a2.66 2.66 0 0 1 .77-1.85c.25-.24.54-.43.87-.56.34-.13.72-.2 1.09-.19.38 0 .75.06 1.1.2.33.12.63.31.88.55a2.54 2.54 0 0 1 .74 1.85 2.53 2.53 0 0 1-.74 1.85 2.75 2.75 0 0 1-1.98.75 2.77 2.77 0 0 1-1.96-.75 2.41 2.41 0 0 1-.56-.83c-.14-.32-.2-.67-.21-1.02Zm-4.29 2.43h-1.28v-4.93h1.28v4.93ZM63.1 30v3.85h-1.28V30h-1.05v-1.08h3.39V30h-1.06Zm-6.35 3.85h-1.28v-4.93h1.28v4.93Zm-8.1-2.72h.25c.2.01.41-.04.58-.16a.56.56 0 0 0 .2-.45.5.5 0 0 0-.2-.45.91.91 0 0 0-.58-.16h-.24v1.22Zm2.84 2.72h-1.63l-1.22-1.89v1.89h-1.27v-4.93h2a2 2 0 0 1 .75.13 1.32 1.32 0 0 1 .8.81c.08.19.11.39.1.59.02.32-.08.64-.26.9-.2.26-.5.43-.8.48l1.53 2.02ZM42.3 30v3.85h-1.29V30H40v-1.08h3.39V30h-1.07Zm-9.38-1.08v3.1c.02.15.05.28.1.4.06.14.15.24.27.31.15.09.32.12.49.12.17 0 .34-.03.5-.12.11-.07.2-.18.25-.3.06-.13.1-.26.11-.4v-3.11H36v2.85c.05.6-.14 1.2-.53 1.67a2.23 2.23 0 0 1-1.63.54 2.23 2.23 0 0 1-1.61-.54 2.29 2.29 0 0 1-.54-1.67v-2.85h1.25Zm-10.71 4.93v-4.93h1.28l2.37 3.02v-3.02h1.28v4.93h-1.28l-2.37-2.98v2.98h-1.28ZM92.27 31.9a1.42 1.42 0 1 1-.02-2.84 1.42 1.42 0 0 1 .02 2.84Zm-1.19-1.41a1.2 1.2 0 1 0 .74-1.1 1.18 1.18 0 0 0-.74 1.08v.02Zm.75-.67h.4c.46 0 .56.2.56.37a.33.33 0 0 1-.32.33.32.32 0 0 1 .24.25c.03.14.08.27.14.4h-.17c-.05-.11-.08-.22-.1-.33a.3.3 0 0 0-.3-.26H92v.58h-.17l-.01-1.34Zm.16.6h.28c.22 0 .34-.1.34-.24 0-.14-.14-.25-.38-.25a.68.68 0 0 0-.25 0l.01.5Z"/>
</svg>
