<svg xmlns="http://www.w3.org/2000/svg" fill="none" viewBox="0 0 1800 910">
  <g clip-path="url(#a)">
    <path fill="#50EB82" d="M0 0h1800v910H0z"/>
    <path fill="#000" d="M951.702 70.6378c.255 1.7849.51 5.3546.51 6.1196 0 12.494-6.12 15.0438-23.969 16.3187V102h82.867v-8.9239c-14.022-.7649-19.376-3.0597-20.906-15.2988L974.395-49.4582c0-13.5139 5.1-17.8486 21.418-18.6136v-8.9243h-56.86c-.51 5.8646-2.04 9.6893-4.08 15.2989L896.116 49.7294 854.554-61.4423c-2.04-5.6095-3.57-9.6892-4.08-15.5538h-57.625v8.9243c16.828.765 21.673 5.0997 21.673 18.6136L798.713 77.7773c-1.275 11.7291-6.629 14.5339-21.163 15.2988V102h58.9v-8.9239c-18.613-1.2749-24.223-3.8247-24.223-16.3187 0-.765.255-4.3347.51-6.1196l13.004-105.562L877.247 102h12.749l48.957-136.9242 12.749 105.562ZM1084.47 95.371c-20.4 0-29.33-29.0679-29.33-66.805 0-33.40251 8.67-54.8209 27.54-54.8209 20.4 0 29.07 28.81283 29.07 66.55 0 33.4025-8.41 55.0759-27.28 55.0759Zm-1.28 9.179c37.99 0 66.3-29.5775 66.3-72.9243 0-40.28692-26.52-67.3149-65.53-67.3149-38 0-66.3 29.83276-66.3 73.1795 0 40.542 26.52 67.0597 65.53 67.0597ZM1259.78 82.3669c0 8.9244-3.83 10.4542-15.56 11.2192V102h66.81v-8.4139c-11.73-.765-15.81-2.2948-15.81-11.2192V5.87268c0-27.79288-12.49-41.56188-36.46-41.56188-21.67 0-36.21 12.2391-47.17 24.9881l1.02-24.9881h-5.87l-45.64 14.0239v4.8447l15.3 8.92431V82.3669c0 8.9244-4.08 10.4542-16.06 11.2192V102h66.8v-8.4139c-11.73-.765-15.55-2.2948-15.55-11.2192V-3.8166c8.16-5.60957 17.85-10.4542 28.55-10.4542 14.03 0 19.64 7.39443 19.64 22.18332V82.3669ZM1382.69-35.6892c-34.93 0-62.98 30.08774-62.98 73.6895 0 39.267 24.73 66.5497 61.71 66.5497 29.32 0 47.93-17.3384 54.56-42.5815l-4.08-2.2949c-9.18 13.259-20.65 20.6535-37.99 20.6535-24.99 0-43.35-21.1634-42.33-56.8607h83.13v-5.8646c0-30.5977-17.85-53.291-52.02-53.291Zm-2.55 9.4343c16.57 0 22.95 16.31877 22.95 40.287h-51c2.04-23.45827 11.22-40.287 28.05-40.287ZM1522.77 66.5581l-30.6-75.47431c-1.02-3.05979-1.53-5.09959-1.53-7.13949 0-5.8645 4.34-7.1394 17.34-8.6693v-8.4144h-69.35v8.4144c9.18 2.5498 10.71 4.3347 13 9.6892l54.82 121.8808-4.33 10.964c-5.36 14.024-13.77 17.849-27.54 17.849-7.39 0-11.98-1.02-17.34-2.295v13.004c2.55 7.395 10.97 11.729 19.63 11.729 16.58 0 25.25-11.219 33.66-31.872l56.1-141.2598c2.29-5.3545 4.08-7.1394 13-9.6892v-8.4144h-43.85v8.4144c13.25 1.5299 17.33 2.8048 17.33 8.6693 0 2.0399-.51 4.0797-1.78 7.13949l-28.56 75.47431ZM831.606 237.311h-5.61l-44.876 14.024v4.844l15.298 8.925v90.263c0 8.924-4.079 10.454-16.063 11.219V375h67.315v-8.414c-11.985-.765-16.064-2.295-16.064-11.219V237.311Zm-18.104-15.299c12.494 0 20.909-9.434 20.909-20.144 0-10.964-8.415-20.143-20.909-20.143-12.239 0-20.653 9.179-20.653 20.143 0 10.71 8.414 20.144 20.653 20.144ZM907.54 377.55c31.363 0 51.761-15.809 51.761-43.092 0-24.988-16.063-35.442-43.856-45.131-19.634-7.14-27.538-12.749-27.538-24.478 0-10.964 7.649-18.614 20.653-18.614 18.104 0 28.813 14.789 32.893 33.148h8.669V248.53c-10.709-6.885-24.988-11.219-41.562-11.219-28.048 0-47.426 15.044-47.426 40.542 0 23.713 14.024 34.422 41.307 43.856 20.143 7.14 29.577 12.495 29.577 26.263 0 14.024-10.454 20.654-24.223 20.654-19.633 0-32.637-16.574-38.247-38.757h-9.434l1.53 34.932c10.454 7.65 26.518 12.749 45.896 12.749ZM1036.68 355.367c0 8.924-4.08 10.454-15.8 11.219V375h66.8v-8.414c-11.73-.765-15.55-2.295-15.55-11.219v-86.184c8.16-5.609 17.85-10.454 28.3-10.454 14.02 0 19.89 7.395 19.89 22.184v74.454c0 8.924-3.83 10.454-15.56 11.219V375h66.81v-8.414c-11.73-.765-15.81-2.295-15.81-11.219v-76.239c0-27.793-12.75-41.817-36.72-41.817-21.42 0-36.2 12.239-46.91 24.988V175.35h-5.61l-45.13 12.24v5.354l15.29 7.905v154.518ZM1233.82 357.152c-13.51 0-19.63-9.435-19.63-22.694 0-14.278 6.63-20.143 17.34-24.223l21.92-8.924v47.681c-7.14 5.355-12.24 8.16-19.63 8.16Zm54.82-78.024c0-29.833-17.85-41.817-50.49-41.817-28.3 0-50.23 10.964-50.23 32.127 0 8.415 4.34 13.769 11.22 16.064l21.17-2.805c-1.28-5.609-2.04-10.709-2.04-15.808 0-12.24 4.84-21.419 17.08-21.419 13.26 0 18.1 10.454 18.1 24.988v21.674l-38.5 14.024c-19.12 7.139-34.93 16.063-34.93 37.992 0 20.398 13.77 32.892 34.42 32.892 18.36 0 31.62-11.219 39.78-21.928 2.55 14.024 11.73 22.438 25.5 22.438 11.98 0 21.67-4.844 29.06-13.514l-1.53-5.609c-2.8 1.275-6.37 2.55-10.19 2.55-6.63 0-8.42-5.61-8.42-14.279v-67.57ZM1364.48 282.952c13-13.004 25.49-13.769 41.3-13.769h4.85v-27.538c-2.04-2.549-5.87-4.334-11.22-4.334-15.05 0-22.7 9.944-34.93 37.737l1.02-37.737h-5.87l-45.64 14.024v4.844l15.3 8.925v90.263c0 8.924-4.08 10.454-16.07 11.219V375h72.93v-8.414c-15.81-1.275-21.67-2.805-21.67-13.259v-70.375ZM1485.66 248.785c15.3 0 23.71 11.729 23.71 31.618v67.314c-5.86 5.355-13 8.16-21.67 8.16-23.2 0-35.95-23.203-35.95-54.311 0-31.873 12.49-52.781 33.91-52.781Zm23.71-47.936v45.896c-6.11-5.609-15.8-8.924-27.53-8.924-36.47 0-65.02 27.793-65.02 75.984 0 38.757 20.65 63.745 51.5 63.745 17.85 0 30.86-9.179 41.05-23.713l-1.02 23.713h6.63l46.41-9.179v-7.649l-6.37-.51c-9.69-.765-10.2-3.57-10.2-12.24V175.35h-5.61l-45.13 12.24v5.354l15.29 7.905Z"/>
    <path fill="#fff" d="M1095.38 446.311c-34.93 0-62.98 30.087-62.98 73.689 0 39.267 24.73 66.55 61.7 66.55 29.33 0 47.94-17.339 54.57-42.582l-4.08-2.295c-9.18 13.259-20.65 20.654-37.99 20.654-24.99 0-43.35-21.164-42.33-56.861h83.12v-5.864c0-30.598-17.84-53.291-52.01-53.291Zm-2.55 9.434c16.57 0 22.95 16.319 22.95 40.287h-51c2.04-23.458 11.22-40.287 28.05-40.287ZM1213.69 566.152c-13.51 0-19.63-9.435-19.63-22.694 0-14.279 6.63-20.143 17.33-24.223l21.93-8.924v47.681c-7.14 5.355-12.24 8.16-19.63 8.16Zm54.82-78.025c0-29.832-17.85-41.816-50.49-41.816-28.3 0-50.23 10.964-50.23 32.127 0 8.415 4.34 13.769 11.22 16.064l21.17-2.805c-1.28-5.609-2.04-10.709-2.04-15.809 0-12.239 4.84-21.418 17.08-21.418 13.26 0 18.1 10.454 18.1 24.988v21.673l-38.5 14.024c-19.12 7.14-34.93 16.064-34.93 37.993 0 20.398 13.77 32.892 34.42 32.892 18.36 0 31.62-11.219 39.78-21.928 2.55 14.024 11.73 22.438 25.5 22.438 11.98 0 21.67-4.845 29.06-13.514l-1.53-5.61c-2.8 1.275-6.37 2.55-10.19 2.55-6.63 0-8.42-5.609-8.42-14.279v-67.57ZM1343.84 586.55c31.36 0 51.76-15.809 51.76-43.092 0-24.988-16.07-35.442-43.86-45.131-19.63-7.14-27.54-12.749-27.54-24.479 0-10.964 7.65-18.613 20.66-18.613 18.1 0 28.81 14.789 32.89 33.147h8.67V457.53c-10.71-6.885-24.99-11.219-41.56-11.219-28.05 0-47.43 15.043-47.43 40.542 0 23.713 14.02 34.422 41.31 43.856 20.14 7.14 29.57 12.494 29.57 26.263 0 14.024-10.45 20.654-24.22 20.654-19.63 0-32.64-16.574-38.25-38.757h-9.43l1.53 34.932c10.45 7.649 26.52 12.749 45.9 12.749ZM1482.97 548.558l-30.6-75.474c-1.02-3.06-1.53-5.1-1.53-7.14 0-5.864 4.34-7.139 17.34-8.669v-8.415h-69.35v8.415c9.18 2.55 10.71 4.334 13 9.689l54.82 121.881-4.33 10.964c-5.36 14.024-13.77 17.849-27.54 17.849-7.4 0-11.99-1.02-17.34-2.295v13.004c2.55 7.394 10.96 11.729 19.63 11.729 16.58 0 25.25-11.219 33.66-31.873l56.1-141.259c2.29-5.355 4.08-7.139 13-9.689v-8.415h-43.86v8.415c13.26 1.53 17.34 2.805 17.34 8.669 0 2.04-.51 4.08-1.78 7.14l-28.56 75.474ZM1095.38 655.311c-34.93 0-62.98 30.087-62.98 73.689 0 39.267 24.73 66.55 61.7 66.55 29.33 0 47.94-17.339 54.57-42.582l-4.08-2.295c-9.18 13.259-20.65 20.654-37.99 20.654-24.99 0-43.35-21.164-42.33-56.861h83.12v-5.864c0-30.598-17.84-53.291-52.01-53.291Zm-2.55 9.434c16.57 0 22.95 16.319 22.95 40.287h-51c2.04-23.458 11.22-40.287 28.05-40.287ZM1213.69 775.152c-13.51 0-19.63-9.435-19.63-22.694 0-14.279 6.63-20.143 17.33-24.223l21.93-8.924v47.681c-7.14 5.355-12.24 8.16-19.63 8.16Zm54.82-78.025c0-29.832-17.85-41.816-50.49-41.816-28.3 0-50.23 10.964-50.23 32.127 0 8.415 4.34 13.769 11.22 16.064l21.17-2.805c-1.28-5.609-2.04-10.709-2.04-15.809 0-12.239 4.84-21.418 17.08-21.418 13.26 0 18.1 10.454 18.1 24.988v21.673l-38.5 14.024c-19.12 7.14-34.93 16.064-34.93 37.993 0 20.398 13.77 32.892 34.42 32.892 18.36 0 31.62-11.219 39.78-21.928 2.55 14.024 11.73 22.438 25.5 22.438 11.98 0 21.67-4.845 29.06-13.514l-1.53-5.61c-2.8 1.275-6.37 2.55-10.19 2.55-6.63 0-8.42-5.609-8.42-14.279v-67.57ZM1343.84 795.55c31.36 0 51.76-15.809 51.76-43.092 0-24.988-16.07-35.442-43.86-45.131-19.63-7.14-27.54-12.749-27.54-24.479 0-10.964 7.65-18.613 20.66-18.613 18.1 0 28.81 14.789 32.89 33.147h8.67V666.53c-10.71-6.885-24.99-11.219-41.56-11.219-28.05 0-47.43 15.043-47.43 40.542 0 23.713 14.02 34.422 41.31 43.856 20.14 7.14 29.57 12.494 29.57 26.263 0 14.024-10.45 20.654-24.22 20.654-19.63 0-32.64-16.574-38.25-38.757h-9.43l1.53 34.932c10.45 7.649 26.52 12.749 45.9 12.749ZM1482.97 757.558l-30.6-75.474c-1.02-3.06-1.53-5.1-1.53-7.14 0-5.864 4.34-7.139 17.34-8.669v-8.415h-69.35v8.415c9.18 2.55 10.71 4.334 13 9.689l54.82 121.881-4.33 10.964c-5.36 14.024-13.77 17.849-27.54 17.849-7.4 0-11.99-1.02-17.34-2.295v13.004c2.55 7.394 10.96 11.729 19.63 11.729 16.58 0 25.25-11.219 33.66-31.873l56.1-141.259c2.29-5.355 4.08-7.139 13-9.689v-8.415h-43.86v8.415c13.26 1.53 17.34 2.805 17.34 8.669 0 2.04-.51 4.08-1.78 7.14l-28.56 75.474ZM1095.38 864.311c-34.93 0-62.98 30.087-62.98 73.689 0 39.267 24.73 66.55 61.7 66.55 29.33 0 47.94-17.339 54.57-42.582l-4.08-2.295c-9.18 13.259-20.65 20.654-37.99 20.654-24.99 0-43.35-21.164-42.33-56.861h83.12v-5.864c0-30.598-17.84-53.291-52.01-53.291Zm-2.55 9.434c16.57 0 22.95 16.319 22.95 40.287h-51c2.04-23.458 11.22-40.287 28.05-40.287ZM1213.69 984.152c-13.51 0-19.63-9.435-19.63-22.694 0-14.279 6.63-20.143 17.33-24.223l21.93-8.924v47.681c-7.14 5.355-12.24 8.16-19.63 8.16Zm54.82-78.025c0-29.832-17.85-41.816-50.49-41.816-28.3 0-50.23 10.964-50.23 32.127 0 8.415 4.34 13.769 11.22 16.064l21.17-2.805c-1.28-5.609-2.04-10.709-2.04-15.809 0-12.239 4.84-21.418 17.08-21.418 13.26 0 18.1 10.454 18.1 24.988v21.673l-38.5 14.024c-19.12 7.14-34.93 16.064-34.93 37.993 0 20.398 13.77 32.892 34.42 32.892 18.36 0 31.62-11.219 39.78-21.928 2.55 14.024 11.73 22.438 25.5 22.438 11.98 0 21.67-4.845 29.06-13.514l-1.53-5.61c-2.8 1.275-6.37 2.55-10.19 2.55-6.63 0-8.42-5.609-8.42-14.279v-67.57ZM1343.84 1004.55c31.36 0 51.76-15.809 51.76-43.092 0-24.988-16.07-35.442-43.86-45.131-19.63-7.14-27.54-12.749-27.54-24.479 0-10.964 7.65-18.613 20.66-18.613 18.1 0 28.81 14.789 32.89 33.147h8.67V875.53c-10.71-6.885-24.99-11.219-41.56-11.219-28.05 0-47.43 15.043-47.43 40.542 0 23.713 14.02 34.422 41.31 43.856 20.14 7.14 29.57 12.494 29.57 26.263 0 14.024-10.45 20.654-24.22 20.654-19.63 0-32.64-16.574-38.25-38.757h-9.43l1.53 34.932c10.45 7.649 26.52 12.749 45.9 12.749ZM1482.97 966.558l-30.6-75.474c-1.02-3.06-1.53-5.1-1.53-7.14 0-5.864 4.34-7.139 17.34-8.669v-8.415h-69.35v8.415c9.18 2.55 10.71 4.334 13 9.689l54.82 121.876-4.33 10.97c-5.36 14.02-13.77 17.85-27.54 17.85-7.4 0-11.99-1.02-17.34-2.3v13.01c2.55 7.39 10.96 11.73 19.63 11.73 16.58 0 25.25-11.22 33.66-31.88l56.1-141.256c2.29-5.355 4.08-7.139 13-9.689v-8.415h-43.86v8.415c13.26 1.53 17.34 2.805 17.34 8.669 0 2.04-.51 4.08-1.78 7.14l-28.56 75.474Z"/>
    <path stroke="#000" stroke-linecap="round" stroke-linejoin="round" stroke-width="5" d="M988.658 273.227c194.812 3.845 388.892 29.008 583.692 36.8 18.29.732 36.38 3.067 54.68 3.067 10.36 0-20.59-2.225-30.83-3.748-43.59-6.484-87.17-13.016-130.85-18.911-48.76-6.583-98.23-13.676-147.54-14.141-29.5-.278 4.54 1.47 14.31 3.067 11.61 1.897 45.84 8.794 34.08 9.2-58.34 2.011-116.04-7.572-173.44-16.356-8.72-1.335-76.93-1.73-81.61-11.074-1.09-2.185 4.89-.021 7.33.17 10.85.851 17.32 1.656 28.79 3.237 30.65 4.227 61.16 9.483 91.66 14.652 23.59 3.999 94.63 12.437 70.71 12.437-47.47 0-94.15-19.168-138.86-33.392-10.46-3.329-20.72-6.777-31.52-8.86-7.46-1.44 15.05 2.207 22.49 3.749 31.75 6.573 73.61 14.145 101.54 31.688 11.79 7.399-27.65 3.704-41.57 3.749-36.43.117-72.95.548-109.37-.682-20-.675-79.94-3.673-59.97-2.385 42.14 2.719 83.7 16.609 123.86 28.792 4.88 1.481 56.74 17.244 44.46 18.741-38.86 4.739-77.84-7.593-115.51-15.504-15.68-3.293-31.17-7.954-47.02-10.392-6.25-.961-16.26-3.498 0-2.556 56.11 3.253 112.84 13.819 168.32 22.489 14.41 2.252 29.88 3.402 43.96 7.497 9 2.619-18.7-2.487-27.6-5.452-65.18-21.726-131.79-45.648-194.9-72.919-.55-.234-28.51-11.383-28.28-12.948.55-3.882 7.75 1.191 11.58 2.045 19.32 4.307 21.82 5.223 43.27 9.54 59.56 11.983 119.87 19.39 179.57 30.497 15.17 2.821 9.81 1.935 22.83 4.429 2.85.545 9.82-.886 8.52 1.704-2.15 4.296-54.74-5.212-55.2-5.282-60.43-9.268-120.95-24.588-180.08-40.207-3.73-.985-19.41-4.182-3.24-3.067 28.02 1.932 55.95 5.58 83.83 8.86 39.39 4.634 78.98 8.953 118.23 14.651 38 5.516-76.55-6.676-114.49-12.607-27.04-4.229-107.97-18.15-81.09-12.948 46.88 9.074 93 21.765 139.7 31.689 79.61 16.915 159.85 28.183 240.22 40.548"/>
    <path fill="#50EB82" d="M1431 541h262v41h-262z"/>
    <path fill="#000" d="M1439.67 570.071c-2.19 0-3.19-1.53-3.19-3.68 0-2.316 1.08-3.267 2.82-3.929l3.55-1.447v7.733c-1.16.868-1.98 1.323-3.18 1.323Zm8.89-12.653c0-4.838-2.9-6.781-8.19-6.781-4.59 0-8.15 1.778-8.15 5.21 0 1.364.71 2.232 1.82 2.605l3.44-.455c-.21-.91-.33-1.737-.33-2.564 0-1.985.78-3.473 2.77-3.473 2.15 0 2.93 1.695 2.93 4.052v3.515l-6.24 2.274c-3.1 1.158-5.67 2.605-5.67 6.161 0 3.308 2.24 5.334 5.58 5.334 2.98 0 5.13-1.819 6.46-3.556.41 2.274 1.9 3.639 4.13 3.639 1.94 0 3.51-.786 4.71-2.192l-.24-.91c-.46.207-1.04.414-1.66.414-1.07 0-1.36-.91-1.36-2.316v-10.957ZM1460.07 545.675h-1.24c-1.78 2.729-4.22 5.044-7.07 6.326v.951h2.56v14.018c0 4.631 2.48 6.409 5.87 6.409 2.98 0 5.05-1.489 6.37-3.556l-.49-.745c-1.04.786-1.95 1.158-3.11 1.158-1.94 0-2.89-1.075-2.89-3.597v-13.687h5.38v-1.902h-5.38v-5.375ZM1484.99 548.238c0-2.274.42-2.522 3.31-2.853v-1.447h-12.69v1.447c2.89.331 3.3.579 3.3 2.853v20.427c0 2.274-.41 2.522-3.3 2.853v1.447h12.69v-1.447c-2.89-.331-3.31-.579-3.31-2.853v-9.552h12.45v9.552c0 2.274-.41 2.522-3.31 2.853v1.447h12.65v-1.447c-2.89-.331-3.3-.579-3.3-2.853v-20.427c0-2.274.41-2.522 3.3-2.853v-1.447h-12.65v1.447c2.9.331 3.31.579 3.31 2.853v8.89h-12.45v-8.89ZM1536.54 567.879c.04.29.08.869.08.993 0 2.026-.99 2.439-3.88 2.646v1.447h13.43v-1.447c-2.27-.124-3.14-.496-3.39-2.481l-2.56-20.633c0-2.192.83-2.895 3.47-3.019v-1.447h-9.22c-.08.951-.33 1.571-.66 2.481l-6.28 18.07-6.74-18.029c-.34-.909-.58-1.571-.67-2.522h-9.34v1.447c2.73.124 3.51.827 3.51 3.019l-2.56 20.633c-.21 1.902-1.08 2.357-3.43 2.481v1.447h9.55v-1.447c-3.02-.207-3.93-.62-3.93-2.646 0-.124.04-.703.08-.993l2.11-17.118 8.36 22.204h2.06l7.94-22.204 2.07 17.118ZM1559.96 558.906c4.64 0 6.7 2.481 6.7 6.161 0 4.094-1.98 6.244-5.7 6.244h-.42c-2.48 0-3.43-.579-3.43-2.812v-9.593h2.85Zm-.86-13.314c3.84 0 6.03 1.943 6.03 5.624 0 3.886-1.94 5.871-5.99 5.871h-2.03v-11.495h1.99Zm2.64 27.373c7.16 0 10.96-2.812 10.96-7.815 0-4.424-3.93-7.071-9.43-7.236 3.93-.455 7.78-2.605 7.78-6.781 0-4.755-3.6-7.195-9.97-7.195h-13.35v1.447c2.89.331 3.3.579 3.3 2.853v20.427c0 2.274-.41 2.522-3.3 2.853v1.447h14.01ZM1583.04 558.038c2.11-2.109 4.14-2.233 6.7-2.233h.79v-4.465c-.33-.414-.95-.703-1.82-.703-2.44 0-3.68 1.612-5.67 6.119l.17-6.119h-.95l-7.4 2.274v.785l2.48 1.448v14.637c0 1.447-.66 1.696-2.61 1.82v1.364h11.83v-1.364c-2.56-.207-3.52-.455-3.52-2.151v-11.412ZM1600.34 570.071c-2.19 0-3.18-1.53-3.18-3.68 0-2.316 1.07-3.267 2.81-3.929l3.55-1.447v7.733c-1.16.868-1.98 1.323-3.18 1.323Zm8.89-12.653c0-4.838-2.9-6.781-8.19-6.781-4.59 0-8.14 1.778-8.14 5.21 0 1.364.7 2.232 1.82 2.605l3.43-.455c-.21-.91-.33-1.737-.33-2.564 0-1.985.78-3.473 2.77-3.473 2.15 0 2.93 1.695 2.93 4.052v3.515l-6.24 2.274c-3.1 1.158-5.67 2.605-5.67 6.161 0 3.308 2.24 5.334 5.59 5.334 2.97 0 5.12-1.819 6.45-3.556.41 2.274 1.9 3.639 4.13 3.639 1.95 0 3.52-.786 4.72-2.192l-.25-.91c-.46.207-1.04.414-1.66.414-1.07 0-1.36-.91-1.36-2.316v-10.957ZM1624.42 552.497c2.48 0 3.85 1.902 3.85 5.128v10.916c-.95.868-2.11 1.323-3.52 1.323-3.76 0-5.83-3.763-5.83-8.807 0-5.169 2.03-8.56 5.5-8.56Zm3.85-7.773v7.443c-1-.91-2.57-1.448-4.47-1.448-5.91 0-10.54 4.507-10.54 12.322 0 6.285 3.35 10.338 8.35 10.338 2.89 0 5-1.489 6.66-3.846l-.17 3.846h1.08l7.52-1.489v-1.24l-1.03-.083c-1.57-.124-1.66-.579-1.66-1.985v-27.993h-.91l-7.31 1.985v.868l2.48 1.282ZM1646.28 540.589h-.91l-7.32 1.985v.868l2.48 1.282v25.057c0 1.447-.66 1.696-2.56 1.82v1.364h10.87v-1.364c-1.9-.124-2.56-.373-2.56-1.82v-29.192ZM1660.62 550.637c-5.66 0-10.21 4.879-10.21 11.95 0 6.367 4.01 10.792 10 10.792 4.76 0 7.78-2.812 8.85-6.906l-.66-.372c-1.49 2.15-3.35 3.349-6.16 3.349-4.05 0-7.03-3.432-6.86-9.22h13.48v-.951c0-4.962-2.9-8.642-8.44-8.642Zm-.41 1.53c2.68 0 3.72 2.646 3.72 6.533h-8.27c.33-3.804 1.82-6.533 4.55-6.533ZM1683.34 567.218l-4.97-12.24c-.16-.496-.24-.827-.24-1.157 0-.951.7-1.158 2.81-1.406v-1.365h-11.25v1.365c1.49.413 1.74.703 2.11 1.571l8.89 19.765-.7 1.778c-.87 2.274-2.24 2.894-4.47 2.894-1.2 0-1.94-.165-2.81-.372v2.109c.41 1.199 1.78 1.902 3.18 1.902 2.69 0 4.1-1.819 5.46-5.169l9.1-22.907c.37-.868.66-1.158 2.11-1.571v-1.365h-7.11v1.365c2.15.248 2.81.455 2.81 1.406 0 .33-.09.661-.29 1.157l-4.63 12.24Z"/>
  </g>
  <defs>
    <clipPath id="a">
      <path fill="#fff" d="M0 0h1800v910H0z" transform="translate(.00048828)"/>
    </clipPath>
  </defs>
</svg>
