<svg xmlns="http://www.w3.org/2000/svg" fill="none" viewBox="0 0 114 32">
  <path fill="#fff" fill-rule="evenodd" d="M16 25.8V15.5h3.3v10.2c0 2.4 2.1 3 3.3 3 2.6 0 3.5-1.4 3.5-2.3v-11h3.4v16h-2l-1.3-1.7a6 6 0 0 1-4.7 2.1c-3.3 0-5.6-2.1-5.6-6Zm38.8-16h3.4V17c.7-1 2.2-2 4.4-2 3.1 0 5.7 2 5.7 6v5c0 4-2.6 5.8-5.6 5.8a6 6 0 0 1-4.7-2.1l-1.2 1.8h-2V9.8Zm7 19c1.6 0 3.2-1.2 3.2-3.1v-4.5c0-1.9-1.6-3-3.2-3-2.3 0-3.6 1.2-3.6 3v4.4c-.1 2.1 1.4 3.2 3.5 3.2ZM42 9.8h3.3v21.7h-1.9l-1.2-1.8a6 6 0 0 1-4.8 2.1c-3 0-5.5-1.8-5.5-5.8v-5c0-4 2.5-5.9 5.7-5.9 2.2 0 3.6 1 4.4 2V9.7Zm-6.8 16c0 1.8 1.6 3 3.2 3 2.1 0 3.7-1 3.6-3.2v-4.4c0-1.7-1.4-3-3.6-3-1.6 0-3.2 1.1-3.2 3v4.5Zm35.4-16H74v21.7h-3.4V9.8Zm-22.2 5.7h3.4v16h-3.4v-16Zm1.7-2c-1 0-2-.8-2-1.9 0-1 1-2 2-2 1.1 0 2 1 2 2s-.9 2-2 2Zm33.4 15.3c1.7 0 3-.6 3.8-1.9l2.5 1.5c-1 2.2-3.2 3.4-6.3 3.4-4.2 0-7-2.1-7-5.8v-5c0-3.6 2.8-5.9 7-5.9 4 0 6.6 2.2 6.6 5.9v3.6H80v1.3c0 1.7 1.1 2.9 3.5 2.9ZM80 21v1h6.7v-1c0-1.7-1.1-2.8-3.4-2.8-2.2 0-3.3 1.1-3.3 2.8ZM7 15c4.4 0 6.5 2.3 6.5 5.4v11h-2l-1.3-1.8a6.4 6.4 0 0 1-5 2.1c-2.9 0-5.3-1.5-5.3-4.7C0 22.7 5.2 22 7.3 22H10v-1.3c0-1.5-1-2.5-3-2.5-1.5 0-2.5.1-3.6 1.9L.8 18.4c.8-2 3-3.3 6.3-3.3Zm3 11.2v-2H8.7c-2 .1-5.1.5-5.1 2.5 0 1.3 1.2 2 2.8 2 1.5 0 2.8-.7 3.4-1.5.3-.4.3-.7.3-1ZM98 16l15-9.3v2.5l-15 9.4-14.9-9.4V6.7l15 9.3Zm0-11.7c3.4 0 6.4 1.7 8.1 4.3L104 10A9.3 9.3 0 0 0 90 8.6a9.7 9.7 0 0 1 8-4.3Zm0 4.3c1.9 0 3.5 1 4.5 2.3l-2.1 1.4a5 5 0 0 0-4-2.3c-1 0-2 .4-2.7 1 1-1.5 2.5-2.4 4.4-2.4ZM88 4.8c-.6.5-1.2 1-1.6 1.6a14 14 0 0 1 23.4 0l-2.3 1.4a13.4 13.4 0 0 0-19.5-3Z" clip-rule="evenodd"/>
</svg>
