<svg width="86" height="47" viewBox="0 0 86 47" fill="none" xmlns="http://www.w3.org/2000/svg">
<path d="M9.04804 11.6879C13.08 11.6879 15.432 9.86394 15.432 6.28794C15.432 2.71194 13.08 0.863938 9.02404 0.863938H1.94404V17.9999H5.06404V11.6879H9.04804ZM5.06404 9.19194V3.38394H8.76004C11.112 3.38394 12.288 4.31994 12.288 6.28794C12.288 8.23194 11.112 9.19194 8.76004 9.19194H5.06404Z" fill="white"/>
<path d="M21.1394 17.9999V0.335938H18.0674V17.9999H21.1394Z" fill="white"/>
<path d="M32.3277 17.9999H35.2797C35.0877 17.0159 35.0397 16.0799 35.0397 14.9519V10.2479C35.0397 7.07994 33.1437 5.51994 29.8317 5.51994C26.8317 5.51994 24.7917 7.05594 24.5277 9.67194H27.4797C27.5757 8.54394 28.3917 7.79994 29.7357 7.79994C31.1277 7.79994 32.0397 8.51994 32.0397 10.0079V10.5839L28.3917 10.9919C25.9197 11.2799 23.9997 12.2879 23.9997 14.7359C23.9997 16.9439 25.7277 18.2639 28.1037 18.2639C30.0477 18.2639 31.5837 17.4719 32.1597 16.0799C32.1597 16.6799 32.2077 17.3279 32.3277 17.9999ZM28.9437 16.1279C27.7197 16.1279 27.0477 15.5279 27.0477 14.5679C27.0477 13.2959 28.0317 13.0079 29.3277 12.8399L32.0397 12.5279V13.2719C32.0397 15.1919 30.5277 16.1279 28.9437 16.1279Z" fill="white"/>
<path d="M41.6929 5.80794H38.6689V17.9999H41.7409V11.3759C41.7409 8.92794 42.9409 7.94394 44.4769 7.94394C46.0849 7.94394 46.9249 8.95194 46.9249 10.8959V17.9999H49.9969V10.1759C49.9969 7.24794 48.3169 5.51994 45.5329 5.51994C43.6849 5.51994 42.2689 6.47994 41.6929 7.87194V5.80794Z" fill="white"/>
<path d="M64.4226 14.2079H61.5906C61.1826 15.3839 60.3186 16.0319 58.9266 16.0319C57.0306 16.0319 55.9266 14.8079 55.7346 12.6479H64.4946V11.6639C64.4946 8.42394 62.6706 5.51994 58.8546 5.51994C55.4226 5.51994 52.7586 7.94394 52.7586 11.9279C52.7586 15.9119 55.3746 18.2879 58.9266 18.2879C61.7106 18.2879 63.8946 16.8239 64.4226 14.2079ZM58.8546 7.79994C60.7026 7.79994 61.5666 9.14394 61.5666 10.6559H55.8306C56.1666 8.78394 57.2466 7.79994 58.8546 7.79994Z" fill="white"/>
<path d="M73.8593 15.4799C73.1873 15.6719 72.7073 15.7199 72.2513 15.7199C71.2193 15.7199 70.6673 15.3359 70.6673 14.1839V8.01594H73.5953V5.80794H70.6913V2.75994H67.6433V5.80794H65.9633V8.01594H67.6433V14.6639C67.6433 17.1119 68.8913 18.1919 71.4353 18.1919C72.1793 18.1919 72.8993 18.1199 73.8593 17.8319V15.4799Z" fill="white"/>
<path d="M0.81604 36.8159C1.12804 40.5839 4.27204 42.2879 8.35204 42.2879C12.144 42.2879 15 40.2239 15 37.1039C15 34.3439 13.32 32.9519 10.512 32.4239L7.20004 31.7759C5.35204 31.4159 4.46404 30.9599 4.46404 29.5439C4.46404 28.0319 5.76004 26.9519 7.82404 26.9519C9.96004 26.9519 11.448 27.8879 11.664 29.5679H14.664C14.328 26.3519 11.88 24.5759 7.80004 24.5759C4.05604 24.5759 1.36804 26.6879 1.36804 29.7359C1.36804 32.7359 3.40804 33.9359 5.92804 34.3919L9.07204 34.9679C11.136 35.3519 11.88 36.0479 11.88 37.2959C11.88 39.0239 10.296 39.9359 8.25604 39.9359C6.12004 39.9359 4.10404 39.1439 3.88804 36.8159H0.81604Z" fill="white"/>
<path d="M28.821 38.2079H25.989C25.581 39.3839 24.717 40.0319 23.325 40.0319C21.429 40.0319 20.325 38.8079 20.133 36.6479H28.893V35.6639C28.893 32.4239 27.069 29.5199 23.253 29.5199C19.821 29.5199 17.157 31.9439 17.157 35.9279C17.157 39.9119 19.773 42.2879 23.325 42.2879C26.109 42.2879 28.293 40.8239 28.821 38.2079ZM23.253 31.7999C25.101 31.7999 25.965 33.1439 25.965 34.6559H20.229C20.565 32.7839 21.645 31.7999 23.253 31.7999Z" fill="white"/>
<path d="M39.4995 41.9999H42.4515C42.2595 41.0159 42.2115 40.0799 42.2115 38.9519V34.2479C42.2115 31.0799 40.3155 29.5199 37.0035 29.5199C34.0035 29.5199 31.9635 31.0559 31.6995 33.6719H34.6515C34.7475 32.5439 35.5635 31.7999 36.9075 31.7999C38.2995 31.7999 39.2115 32.5199 39.2115 34.0079V34.5839L35.5635 34.9919C33.0915 35.2799 31.1715 36.2879 31.1715 38.7359C31.1715 40.9439 32.8995 42.2639 35.2755 42.2639C37.2195 42.2639 38.7555 41.4719 39.3315 40.0799C39.3315 40.6799 39.3795 41.3279 39.4995 41.9999ZM36.1155 40.1279C34.8915 40.1279 34.2195 39.5279 34.2195 38.5679C34.2195 37.2959 35.2035 37.0079 36.4995 36.8399L39.2115 36.5279V37.2719C39.2115 39.1919 37.6995 40.1279 36.1155 40.1279Z" fill="white"/>
<path d="M54.2408 41.1839C54.2408 43.3919 53.0648 44.3999 51.1208 44.3999C49.7048 44.3999 48.6488 43.9679 48.3128 42.7679H45.2648C45.7208 45.1919 47.8328 46.5599 51.1208 46.5599C54.7448 46.5599 57.3128 44.7839 57.3128 40.7999V29.8079H54.2888V31.7999C53.7128 30.6239 52.3208 29.5199 50.3768 29.5199C47.1608 29.5199 45.0008 32.0159 45.0008 35.5919C45.0008 39.2399 47.1608 41.6879 50.3768 41.6879C52.3208 41.6879 53.6648 40.6319 54.2408 39.4559V41.1839ZM54.3608 35.8319C54.3608 38.0159 53.0648 39.4319 51.1928 39.4319C49.2248 39.4319 48.0728 37.8959 48.0728 35.5919C48.0728 33.2639 49.2248 31.7519 51.1928 31.7519C53.0648 31.7519 54.3608 33.1679 54.3608 35.3279V35.8319Z" fill="white"/>
<path d="M72.1152 41.9999V29.8079H69.0192V36.4319C69.0192 38.8799 67.8912 39.9119 66.4032 39.9119C64.8192 39.9119 64.0512 38.9279 64.0512 36.9839V29.8079H60.9552V37.6559C60.9552 40.6079 62.5632 42.2879 65.2992 42.2879C67.1232 42.2879 68.5152 41.3519 69.0912 39.9599V41.9999H72.1152Z" fill="white"/>
<path d="M78.9362 41.9999V24.3359H75.8642V41.9999H78.9362Z" fill="white"/>
<path d="M85.7565 41.9999V24.3359H82.6845V41.9999H85.7565Z" fill="white"/>
</svg>
